  0
SECTION
  2
HEADER
  9
$ACADVER
  1
AC1024
  9
$ACADMAINTVER
 70
     6
  9
$DWGCODEPAGE
  3
UNDEFINED
  9
$INSBASE
 10
0.0
 20
0.0
 30
0.0
  9
$EXTMIN
 10
1.000000000000000E+20
 20
1.000000000000000E+20
 30
1.000000000000000E+20
  9
$EXTMAX
 10
-1.000000000000000E+20
 20
-1.000000000000000E+20
 30
-1.000000000000000E+20
  9
$LIMMIN
 10
0.0
 20
0.0
  9
$LIMMAX
 10
12.0
 20
9.0
  9
$ORTHOMODE
 70
     0
  9
$REGENMODE
 70
     1
  9
$FILLMODE
 70
     1
  9
$QTEXTMODE
 70
     0
  9
$MIRRTEXT
 70
     1
  9
$LTSCALE
 40
1.0
  9
$ATTMODE
 70
     1
  9
$TEXTSIZE
 40
0.2
  9
$TRACEWID
 40
0.05
  9
$TEXTSTYLE
  7
Standard
  9
$CLAYER
  8
0
  9
$CELTYPE
  6
ByLayer
  9
$CECOLOR
 62
   256
  9
$CELTSCALE
 40
1.0
  9
$DISPSILH
 70
     0
  9
$DIMSCALE
 40
1.0
  9
$DIMASZ
 40
0.18
  9
$DIMEXO
 40
0.0625
  9
$DIMDLI
 40
0.38
  9
$DIMRND
 40
0.0
  9
$DIMDLE
 40
0.0
  9
$DIMEXE
 40
0.18
  9
$DIMTP
 40
0.0
  9
$DIMTM
 40
0.0
  9
$DIMTXT
 40
0.18
  9
$DIMCEN
 40
0.09
  9
$DIMTSZ
 40
0.0
  9
$DIMTOL
 70
     0
  9
$DIMLIM
 70
     0
  9
$DIMTIH
 70
     1
  9
$DIMTOH
 70
     1
  9
$DIMSE1
 70
     0
  9
$DIMSE2
 70
     0
  9
$DIMTAD
 70
     0
  9
$DIMZIN
 70
     0
  9
$DIMBLK
  1

  9
$DIMASO
 70
     1
  9
$DIMSHO
 70
     1
  9
$DIMPOST
  1

  9
$DIMAPOST
  1

  9
$DIMALT
 70
     0
  9
$DIMALTD
 70
     2
  9
$DIMALTF
 40
25.4
  9
$DIMLFAC
 40
1.0
  9
$DIMTOFL
 70
     0
  9
$DIMTVP
 40
0.0
  9
$DIMTIX
 70
     0
  9
$DIMSOXD
 70
     0
  9
$DIMSAH
 70
     0
  9
$DIMBLK1
  1

  9
$DIMBLK2
  1

  9
$DIMSTYLE
  2
Standard
  9
$DIMCLRD
 70
     0
  9
$DIMCLRE
 70
     0
  9
$DIMCLRT
 70
     0
  9
$DIMTFAC
 40
1.0
  9
$DIMGAP
 40
0.09
  9
$DIMJUST
 70
     0
  9
$DIMSD1
 70
     0
  9
$DIMSD2
 70
     0
  9
$DIMTOLJ
 70
     1
  9
$DIMTZIN
 70
     0
  9
$DIMALTZ
 70
     0
  9
$DIMALTTZ
 70
     0
  9
$DIMUPT
 70
     0
  9
$DIMDEC
 70
     4
  9
$DIMTDEC
 70
     4
  9
$DIMALTU
 70
     2
  9
$DIMALTTD
 70
     2
  9
$DIMTXSTY
  7
Standard
  9
$DIMAUNIT
 70
     0
  9
$DIMADEC
 70
     0
  9
$DIMALTRND
 40
0.0
  9
$DIMAZIN
 70
     0
  9
$DIMDSEP
 70
    46
  9
$DIMATFIT
 70
     3
  9
$DIMFRAC
 70
     0
  9
$DIMLDRBLK
  1

  9
$DIMLUNIT
 70
     2
  9
$DIMLWD
 70
    -2
  9
$DIMLWE
 70
    -2
  9
$DIMTMOVE
 70
     0
  9
$DIMFXL
 40
1.0
  9
$DIMFXLON
 70
     0
  9
$DIMJOGANG
 40
0.7853981633974483
  9
$DIMTFILL
 70
     0
  9
$DIMTFILLCLR
 70
     0
  9
$DIMARCSYM
 70
     0
  9
$DIMLTYPE
  6

  9
$DIMLTEX1
  6

  9
$DIMLTEX2
  6

  9
$DIMTXTDIRECTION
 70
     0
  9
$LUNITS
 70
     2
  9
$LUPREC
 70
     4
  9
$SKETCHINC
 40
0.1
  9
$FILLETRAD
 40
0.5
  9
$AUNITS
 70
     0
  9
$AUPREC
 70
     0
  9
$MENU
  1
.
  9
$ELEVATION
 40
0.0
  9
$PELEVATION
 40
0.0
  9
$THICKNESS
 40
0.0
  9
$LIMCHECK
 70
     0
  9
$CHAMFERA
 40
0.5
  9
$CHAMFERB
 40
0.5
  9
$CHAMFERC
 40
1.0
  9
$CHAMFERD
 40
0.0
  9
$SKPOLY
 70
     0
  9
$TDCREATE
 40
2457897.902511563
  9
$TDUCREATE
 40
2457897.860844907
  9
$TDUPDATE
 40
2457897.902511563
  9
$TDUUPDATE
 40
2457897.860844907
  9
$TDINDWG
 40
0.0000000116
  9
$TDUSRTIMER
 40
0.0000000116
  9
$USRTIMER
 70
     1
  9
$ANGBASE
 50
0.0
  9
$ANGDIR
 70
     0
  9
$PDMODE
 70
     0
  9
$PDSIZE
 40
0.0
  9
$PLINEWID
 40
0.0
  9
$SPLFRAME
 70
     0
  9
$SPLINETYPE
 70
     6
  9
$SPLINESEGS
 70
     8
  9
$HANDSEED
  5
1F5
  9
$SURFTAB1
 70
     6
  9
$SURFTAB2
 70
     6
  9
$SURFTYPE
 70
     6
  9
$SURFU
 70
     6
  9
$SURFV
 70
     6
  9
$UCSBASE
  2

  9
$UCSNAME
  2

  9
$UCSORG
 10
0.0
 20
0.0
 30
0.0
  9
$UCSXDIR
 10
1.0
 20
0.0
 30
0.0
  9
$UCSYDIR
 10
0.0
 20
1.0
 30
0.0
  9
$UCSORTHOREF
  2

  9
$UCSORTHOVIEW
 70
     0
  9
$UCSORGTOP
 10
0.0
 20
0.0
 30
0.0
  9
$UCSORGBOTTOM
 10
0.0
 20
0.0
 30
0.0
  9
$UCSORGLEFT
 10
0.0
 20
0.0
 30
0.0
  9
$UCSORGRIGHT
 10
0.0
 20
0.0
 30
0.0
  9
$UCSORGFRONT
 10
0.0
 20
0.0
 30
0.0
  9
$UCSORGBACK
 10
0.0
 20
0.0
 30
0.0
  9
$PUCSBASE
  2

  9
$PUCSNAME
  2

  9
$PUCSORG
 10
0.0
 20
0.0
 30
0.0
  9
$PUCSXDIR
 10
1.0
 20
0.0
 30
0.0
  9
$PUCSYDIR
 10
0.0
 20
1.0
 30
0.0
  9
$PUCSORTHOREF
  2

  9
$PUCSORTHOVIEW
 70
     0
  9
$PUCSORGTOP
 10
0.0
 20
0.0
 30
0.0
  9
$PUCSORGBOTTOM
 10
0.0
 20
0.0
 30
0.0
  9
$PUCSORGLEFT
 10
0.0
 20
0.0
 30
0.0
  9
$PUCSORGRIGHT
 10
0.0
 20
0.0
 30
0.0
  9
$PUCSORGFRONT
 10
0.0
 20
0.0
 30
0.0
  9
$PUCSORGBACK
 10
0.0
 20
0.0
 30
0.0
  9
$USERI1
 70
     0
  9
$USERI2
 70
     0
  9
$USERI3
 70
     0
  9
$USERI4
 70
     0
  9
$USERI5
 70
     0
  9
$USERR1
 40
0.0
  9
$USERR2
 40
0.0
  9
$USERR3
 40
0.0
  9
$USERR4
 40
0.0
  9
$USERR5
 40
0.0
  9
$WORLDVIEW
 70
     1
  9
$SHADEDGE
 70
     3
  9
$SHADEDIF
 70
    70
  9
$TILEMODE
 70
     1
  9
$MAXACTVP
 70
    64
  9
$PINSBASE
 10
0.0
 20
0.0
 30
0.0
  9
$PLIMCHECK
 70
     0
  9
$PEXTMIN
 10
1.000000000000000E+20
 20
1.000000000000000E+20
 30
1.000000000000000E+20
  9
$PEXTMAX
 10
-1.000000000000000E+20
 20
-1.000000000000000E+20
 30
-1.000000000000000E+20
  9
$PLIMMIN
 10
0.0
 20
0.0
  9
$PLIMMAX
 10
12.0
 20
9.0
  9
$UNITMODE
 70
     0
  9
$VISRETAIN
 70
     1
  9
$PLINEGEN
 70
     0
  9
$PSLTSCALE
 70
     1
  9
$TREEDEPTH
 70
  3020
  9
$CMLSTYLE
  2
Standard
  9
$CMLJUST
 70
     0
  9
$CMLSCALE
 40
1.0
  9
$PROXYGRAPHICS
 70
     1
  9
$MEASUREMENT
 70
     0
  9
$CELWEIGHT
370
    -1
  9
$ENDCAPS
280
     0
  9
$JOINSTYLE
280
     0
  9
$LWDISPLAY
290
     1
  9
$INSUNITS
 70
     1
  9
$HYPERLINKBASE
  1

  9
$STYLESHEET
  1

  9
$XEDIT
290
     1
  9
$CEPSNTYPE
380
     0
  9
$PSTYLEMODE
290
     1
  9
$FINGERPRINTGUID
  2
{FD498C40-3297-9F43-0798-021AF399A13D}
  9
$VERSIONGUID
  2
{FAEB1C32-E019-11D5-929B-00C0DF256EC4}
  9
$EXTNAMES
290
     1
  9
$PSVPSCALE
 40
0.0
  9
$OLESTARTUP
290
     0
  9
$SORTENTS
280
   127
  9
$INDEXCTL
280
     0
  9
$HIDETEXT
280
     1
  9
$XCLIPFRAME
280
     2
  9
$HALOGAP
280
     0
  9
$OBSCOLOR
 70
   257
  9
$OBSLTYPE
280
     0
  9
$INTERSECTIONDISPLAY
280
     0
  9
$INTERSECTIONCOLOR
 70
   257
  9
$DIMASSOC
280
     2
  9
$PROJECTNAME
  1

  9
$CAMERADISPLAY
290
     0
  9
$LENSLENGTH
 40
50.0
  9
$CAMERAHEIGHT
 40
0.0
  9
$STEPSPERSEC
 40
2.0
  9
$STEPSIZE
 40
6.0
  9
$3DDWFPREC
 40
2.0
  9
$PSOLWIDTH
 40
0.25
  9
$PSOLHEIGHT
 40
4.0
  9
$LOFTANG1
 40
1.570796326794897
  9
$LOFTANG2
 40
1.570796326794897
  9
$LOFTMAG1
 40
0.0
  9
$LOFTMAG2
 40
0.0
  9
$LOFTPARAM
 70
     7
  9
$LOFTNORMALS
280
     1
  9
$LATITUDE
 40
37.795
  9
$LONGITUDE
 40
-122.394
  9
$NORTHDIRECTION
 40
0.0
  9
$TIMEZONE
 70
 -8000
  9
$LIGHTGLYPHDISPLAY
280
     1
  9
$TILEMODELIGHTSYNCH
280
     1
  9
$CMATERIAL
347
3C
  9
$SOLIDHIST
280
     1
  9
$SHOWHIST
280
     1
  9
$DWFFRAME
280
     2
  9
$DGNFRAME
280
     2
  9
$REALWORLDSCALE
290
     1
  9
$INTERFERECOLOR
 62
   256
  9
$CSHADOW
280
     0
  9
$SHADOWPLANELOCATION
 40
0.0
  0
ENDSEC
  0
SECTION
  2
CLASSES
  0
CLASS
  1
ACDBDICTIONARYWDFLT
  2
AcDbDictionaryWithDefault
  3
ObjectDBX Classes
 90
        0
 91
        4
280
     0
281
     0
  0
CLASS
  1
VISUALSTYLE
  2
AcDbVisualStyle
  3
ObjectDBX Classes
 90
     4095
 91
        4
280
     0
281
     0
  0
CLASS
  1
MATERIAL
  2
AcDbMaterial
  3
ObjectDBX Classes
 90
     1153
 91
        4
280
     0
281
     0
  0
CLASS
  1
SUN
  2
AcDbSun
  3
SCENEOE
 90
     1024
 91
        4
280
     0
281
     0
  0
ENDSEC
  0
SECTION
  2
TABLES
  0
TABLE
  2
VPORT
  5
8
330
0
100
AcDbSymbolTable
 70
     1
  0
VPORT
  5
29
330
8
100
AcDbSymbolTableRecord
100
AcDbViewportTableRecord
  2
*Active
 70
     0
 10
0.0
 20
0.0
 11
1.0
 21
1.0
 12
0.0
 22
0.0
 13
0.0
 23
0.0
 14
0.5
 24
0.5
 15
0.5
 25
0.5
 16
0.0
 26
0.0
 36
1.0
 17
300.0004582583334
 27
-999.9997636388891
 37
0.0
 40
1999.999527277778
 41
0.3000005291667917
 42
50.0
 43
0.0
 44
0.0
 50
0.0
 51
0.0
 71
     0
 72
   100
 73
     1
 74
     3
 75
     0
 76
     0
 77
     0
 78
     0
281
     0
 65
     1
110
0.0
120
0.0
130
0.0
111
1.0
121
0.0
131
0.0
112
0.0
122
1.0
132
0.0
 79
     0
146
0.0
 60
     3
 61
     5
292
     1
282
     1
141
0.0
142
0.0
 63
   250
361
3F
  0
ENDTAB
  0
TABLE
  2
LTYPE
  5
5
330
0
100
AcDbSymbolTable
 70
     1
  0
LTYPE
  5
14
330
5
100
AcDbSymbolTableRecord
100
AcDbLinetypeTableRecord
  2
ByBlock
 70
     0
  3

 72
    65
 73
     0
 40
0.0
  0
LTYPE
  5
15
330
5
100
AcDbSymbolTableRecord
100
AcDbLinetypeTableRecord
  2
ByLayer
 70
     0
  3

 72
    65
 73
     0
 40
0.0
  0
LTYPE
  5
16
330
5
100
AcDbSymbolTableRecord
100
AcDbLinetypeTableRecord
  2
Continuous
 70
     0
  3
Solid line
 72
    65
 73
     0
 40
0.0
  0
ENDTAB
  0
TABLE
  2
LAYER
  5
2
330
0
100
AcDbSymbolTable
 70
     2
  0
LAYER
  5
10
330
2
100
AcDbSymbolTableRecord
100
AcDbLayerTableRecord
  2
0
 70
     0
 62
     7
  6
Continuous
370
    -3
390
F
347
3E
  0
LAYER
  5
40
330
2
100
AcDbSymbolTableRecord
100
AcDbLayerTableRecord
  2
Layer 1
 70
     0
 62
     7
  6
Continuous
370
    -3
390
F
347
3E
  0
ENDTAB
  0
TABLE
  2
STYLE
  5
3
330
0
100
AcDbSymbolTable
 70
     1
  0
STYLE
  5
11
330
3
100
AcDbSymbolTableRecord
100
AcDbTextStyleTableRecord
  2
Standard
 70
     0
 40
0.0
 41
1.0
 50
0.0
 71
     0
 42
0.2
  3
txt
  4

  0
ENDTAB
  0
TABLE
  2
VIEW
  5
6
330
0
100
AcDbSymbolTable
 70
     0
  0
ENDTAB
  0
TABLE
  2
UCS
  5
7
330
0
100
AcDbSymbolTable
 70
     0
  0
ENDTAB
  0
TABLE
  2
APPID
  5
9
330
0
100
AcDbSymbolTable
 70
     1
  0
APPID
  5
12
330
9
100
AcDbSymbolTableRecord
100
AcDbRegAppTableRecord
  2
ACAD
 70
     0
  0
ENDTAB
  0
TABLE
  2
DIMSTYLE
  5
A
330
0
100
AcDbSymbolTable
 70
     1
100
AcDbDimStyleTable
  0
DIMSTYLE
105
27
330
A
100
AcDbSymbolTableRecord
100
AcDbDimStyleTableRecord
  2
Standard
 70
     0
178
     0
340
11
  0
ENDTAB
  0
TABLE
  2
BLOCK_RECORD
  5
1
330
0
100
AcDbSymbolTable
 70
     2
  0
BLOCK_RECORD
  5
1F
330
1
100
AcDbSymbolTableRecord
100
AcDbBlockTableRecord
  2
*Model_Space
340
22
 70
     0
280
     1
281
     0
  0
BLOCK_RECORD
  5
1B
330
1
100
AcDbSymbolTableRecord
100
AcDbBlockTableRecord
  2
*Paper_Space
340
1E
 70
     0
280
     1
281
     0
  0
BLOCK_RECORD
  5
23
330
1
100
AcDbSymbolTableRecord
100
AcDbBlockTableRecord
  2
*Paper_Space0
340
26
 70
     0
280
     1
281
     0
  0
BLOCK_RECORD
  5
5D
330
1
100
AcDbSymbolTableRecord
100
AcDbBlockTableRecord
  2
block 2
340
0
102
{BLKREFS
331
5E
102
}
 70
     0
280
     1
281
     0
  0
ENDTAB
  0
ENDSEC
  0
SECTION
  2
BLOCKS
  0
BLOCK
  5
20
330
1F
100
AcDbEntity
  8
0
100
AcDbBlockBegin
  2
*Model_Space
 70
     0
 10
0.0
 20
0.0
 30
0.0
  3
*Model_Space
  1

  0
ENDBLK
  5
21
330
1F
100
AcDbEntity
  8
0
100
AcDbBlockEnd
  0
BLOCK
  5
1C
330
1B
100
AcDbEntity
 67
     1
  8
0
100
AcDbBlockBegin
  2
*Paper_Space
 70
     0
 10
0.0
 20
0.0
 30
0.0
  3
*Paper_Space
  1

  0
ENDBLK
  5
1D
330
1B
100
AcDbEntity
 67
     1
  8
0
100
AcDbBlockEnd
  0
BLOCK
  5
24
330
23
100
AcDbEntity
  8
0
100
AcDbBlockBegin
  2
*Paper_Space0
 70
     0
 10
0.0
 20
0.0
 30
0.0
  3
*Paper_Space0
  1

  0
ENDBLK
  5
25
330
23
100
AcDbEntity
  8
0
100
AcDbBlockEnd
  0
BLOCK
  5
5F
330
5D
100
AcDbEntity
  8
0
100
AcDbBlockBegin
  2
block 2
 70
     0
 10
0.0
 20
0.0
 30
0.0
  3
block 2
  1

  0
POLYLINE
  5
61
330
5D
100
AcDbEntity
  8
Layer 1
370
     0
100
AcDb2dPolyline
 66
     1
 10
0.0
 20
0.0
 30
0.0
  0
VERTEX
  5
62
330
61
100
AcDbEntity
  8
Layer 1
370
     0
100
AcDbVertex
100
AcDb2dVertex
 10
36.59688127980308
 20
-328.080772980156
 30
0.0
  0
VERTEX
  5
63
330
61
100
AcDbEntity
  8
Layer 1
370
     0
100
AcDbVertex
100
AcDb2dVertex
 10
30.89059737280951
 20
-328.080772980156
 30
0.0
  0
VERTEX
  5
64
330
61
100
AcDbEntity
  8
Layer 1
370
     0
100
AcDbVertex
100
AcDb2dVertex
 10
25.18448572059021
 20
-328.080772980156
 30
0.0
  0
VERTEX
  5
65
330
61
100
AcDbEntity
  8
Layer 1
370
     0
100
AcDbVertex
100
AcDb2dVertex
 10
19.47820181359664
 20
-328.080772980156
 30
0.0
  0
VERTEX
  5
66
330
61
100
AcDbEntity
  8
Layer 1
370
     0
100
AcDbVertex
100
AcDb2dVertex
 10
13.77209016137733
 20
-328.080772980156
 30
0.0
  0
VERTEX
  5
67
330
61
100
AcDbEntity
  8
Layer 1
370
     0
100
AcDbVertex
100
AcDb2dVertex
 10
13.77209016137733
 20
-322.3744890731624
 30
0.0
  0
VERTEX
  5
68
330
61
100
AcDbEntity
  8
Layer 1
370
     0
100
AcDbVertex
100
AcDb2dVertex
 10
8.065806254383762
 20
-322.3744890731624
 30
0.0
  0
VERTEX
  5
69
330
61
100
AcDbEntity
  8
Layer 1
370
     0
100
AcDbVertex
100
AcDb2dVertex
 10
8.065806254383762
 20
-316.6683774209431
 30
0.0
  0
VERTEX
  5
6A
330
61
100
AcDbEntity
  8
Layer 1
370
     0
100
AcDbVertex
100
AcDb2dVertex
 10
8.065806254383762
 20
-310.9620935139495
 30
0.0
  0
VERTEX
  5
6B
330
61
100
AcDbEntity
  8
Layer 1
370
     0
100
AcDbVertex
100
AcDb2dVertex
 10
8.065806254383762
 20
-305.2559818617303
 30
0.0
  0
VERTEX
  5
6C
330
61
100
AcDbEntity
  8
Layer 1
370
     0
100
AcDbVertex
100
AcDb2dVertex
 10
8.065806254383762
 20
-299.5496979547367
 30
0.0
  0
VERTEX
  5
6D
330
61
100
AcDbEntity
  8
Layer 1
370
     0
100
AcDbVertex
100
AcDb2dVertex
 10
8.065806254383762
 20
-293.8435863025174
 30
0.0
  0
VERTEX
  5
6E
330
61
100
AcDbEntity
  8
Layer 1
370
     0
100
AcDbVertex
100
AcDb2dVertex
 10
8.065806254383762
 20
-288.1373023955238
 30
0.0
  0
VERTEX
  5
6F
330
61
100
AcDbEntity
  8
Layer 1
370
     0
100
AcDbVertex
100
AcDb2dVertex
 10
8.065806254383762
 20
-282.4310184885302
 30
0.0
  0
VERTEX
  5
70
330
61
100
AcDbEntity
  8
Layer 1
370
     0
100
AcDbVertex
100
AcDb2dVertex
 10
13.77209016137733
 20
-282.4310184885302
 30
0.0
  0
VERTEX
  5
71
330
61
100
AcDbEntity
  8
Layer 1
370
     0
100
AcDbVertex
100
AcDb2dVertex
 10
13.77209016137733
 20
-276.7249068363109
 30
0.0
  0
VERTEX
  5
72
330
61
100
AcDbEntity
  8
Layer 1
370
     0
100
AcDbVertex
100
AcDb2dVertex
 10
19.47820181359664
 20
-276.7249068363109
 30
0.0
  0
VERTEX
  5
73
330
61
100
AcDbEntity
  8
Layer 1
370
     0
100
AcDbVertex
100
AcDb2dVertex
 10
25.18448572059021
 20
-276.7249068363109
 30
0.0
  0
VERTEX
  5
74
330
61
100
AcDbEntity
  8
Layer 1
370
     0
100
AcDbVertex
100
AcDb2dVertex
 10
30.89059737280951
 20
-276.7249068363109
 30
0.0
  0
VERTEX
  5
75
330
61
100
AcDbEntity
  8
Layer 1
370
     0
100
AcDbVertex
100
AcDb2dVertex
 10
36.59688127980308
 20
-276.7249068363109
 30
0.0
  0
VERTEX
  5
76
330
61
100
AcDbEntity
  8
Layer 1
370
     0
100
AcDbVertex
100
AcDb2dVertex
 10
42.30299293202238
 20
-276.7249068363109
 30
0.0
  0
VERTEX
  5
77
330
61
100
AcDbEntity
  8
Layer 1
370
     0
100
AcDbVertex
100
AcDb2dVertex
 10
48.00927683901595
 20
-276.7249068363109
 30
0.0
  0
VERTEX
  5
78
330
61
100
AcDbEntity
  8
Layer 1
370
     0
100
AcDbVertex
100
AcDb2dVertex
 10
48.00927683901595
 20
-282.4310184885302
 30
0.0
  0
VERTEX
  5
79
330
61
100
AcDbEntity
  8
Layer 1
370
     0
100
AcDbVertex
100
AcDb2dVertex
 10
48.00927683901595
 20
-288.1373023955238
 30
0.0
  0
VERTEX
  5
7A
330
61
100
AcDbEntity
  8
Layer 1
370
     0
100
AcDbVertex
100
AcDb2dVertex
 10
48.00927683901595
 20
-293.8435863025174
 30
0.0
  0
VERTEX
  5
7B
330
61
100
AcDbEntity
  8
Layer 1
370
     0
100
AcDbVertex
100
AcDb2dVertex
 10
48.00927683901595
 20
-299.5496979547367
 30
0.0
  0
VERTEX
  5
7C
330
61
100
AcDbEntity
  8
Layer 1
370
     0
100
AcDbVertex
100
AcDb2dVertex
 10
48.00927683901595
 20
-305.2559818617303
 30
0.0
  0
VERTEX
  5
7D
330
61
100
AcDbEntity
  8
Layer 1
370
     0
100
AcDbVertex
100
AcDb2dVertex
 10
48.00927683901595
 20
-310.9620935139495
 30
0.0
  0
VERTEX
  5
7E
330
61
100
AcDbEntity
  8
Layer 1
370
     0
100
AcDbVertex
100
AcDb2dVertex
 10
48.00927683901595
 20
-316.6683774209431
 30
0.0
  0
VERTEX
  5
7F
330
61
100
AcDbEntity
  8
Layer 1
370
     0
100
AcDbVertex
100
AcDb2dVertex
 10
48.00927683901595
 20
-322.3744890731624
 30
0.0
  0
VERTEX
  5
80
330
61
100
AcDbEntity
  8
Layer 1
370
     0
100
AcDbVertex
100
AcDb2dVertex
 10
42.30299293202238
 20
-322.3744890731624
 30
0.0
  0
VERTEX
  5
81
330
61
100
AcDbEntity
  8
Layer 1
370
     0
100
AcDbVertex
100
AcDb2dVertex
 10
42.30299293202238
 20
-328.080772980156
 30
0.0
  0
VERTEX
  5
82
330
61
100
AcDbEntity
  8
Layer 1
370
     0
100
AcDbVertex
100
AcDb2dVertex
 10
36.59688127980308
 20
-328.080772980156
 30
0.0
  0
SEQEND
  5
83
330
61
100
AcDbEntity
  8
Layer 1
370
     0
  0
POLYLINE
  5
84
330
5D
100
AcDbEntity
  8
Layer 1
370
     0
100
AcDb2dPolyline
 66
     1
 10
0.0
 20
0.0
 30
0.0
  0
VERTEX
  5
85
330
84
100
AcDbEntity
  8
Layer 1
370
     0
100
AcDbVertex
100
AcDb2dVertex
 10
25.18448572059021
 20
-322.3744890731624
 30
0.0
  0
VERTEX
  5
86
330
84
100
AcDbEntity
  8
Layer 1
370
     0
100
AcDbVertex
100
AcDb2dVertex
 10
30.89059737280951
 20
-322.3744890731624
 30
0.0
  0
VERTEX
  5
87
330
84
100
AcDbEntity
  8
Layer 1
370
     0
100
AcDbVertex
100
AcDb2dVertex
 10
30.89059737280951
 20
-316.6683774209431
 30
0.0
  0
VERTEX
  5
88
330
84
100
AcDbEntity
  8
Layer 1
370
     0
100
AcDbVertex
100
AcDb2dVertex
 10
25.18448572059021
 20
-316.6683774209431
 30
0.0
  0
VERTEX
  5
89
330
84
100
AcDbEntity
  8
Layer 1
370
     0
100
AcDbVertex
100
AcDb2dVertex
 10
19.47820181359664
 20
-316.6683774209431
 30
0.0
  0
VERTEX
  5
8A
330
84
100
AcDbEntity
  8
Layer 1
370
     0
100
AcDbVertex
100
AcDb2dVertex
 10
19.47820181359664
 20
-310.9620935139495
 30
0.0
  0
VERTEX
  5
8B
330
84
100
AcDbEntity
  8
Layer 1
370
     0
100
AcDbVertex
100
AcDb2dVertex
 10
19.47820181359664
 20
-305.2559818617303
 30
0.0
  0
VERTEX
  5
8C
330
84
100
AcDbEntity
  8
Layer 1
370
     0
100
AcDbVertex
100
AcDb2dVertex
 10
19.47820181359664
 20
-299.5496979547367
 30
0.0
  0
VERTEX
  5
8D
330
84
100
AcDbEntity
  8
Layer 1
370
     0
100
AcDbVertex
100
AcDb2dVertex
 10
19.47820181359664
 20
-293.8435863025174
 30
0.0
  0
VERTEX
  5
8E
330
84
100
AcDbEntity
  8
Layer 1
370
     0
100
AcDbVertex
100
AcDb2dVertex
 10
13.77209016137733
 20
-293.8435863025174
 30
0.0
  0
VERTEX
  5
8F
330
84
100
AcDbEntity
  8
Layer 1
370
     0
100
AcDbVertex
100
AcDb2dVertex
 10
13.77209016137733
 20
-299.5496979547367
 30
0.0
  0
VERTEX
  5
90
330
84
100
AcDbEntity
  8
Layer 1
370
     0
100
AcDbVertex
100
AcDb2dVertex
 10
13.77209016137733
 20
-305.2559818617303
 30
0.0
  0
VERTEX
  5
91
330
84
100
AcDbEntity
  8
Layer 1
370
     0
100
AcDbVertex
100
AcDb2dVertex
 10
13.77209016137733
 20
-310.9620935139495
 30
0.0
  0
VERTEX
  5
92
330
84
100
AcDbEntity
  8
Layer 1
370
     0
100
AcDbVertex
100
AcDb2dVertex
 10
13.77209016137733
 20
-316.6683774209431
 30
0.0
  0
VERTEX
  5
93
330
84
100
AcDbEntity
  8
Layer 1
370
     0
100
AcDbVertex
100
AcDb2dVertex
 10
19.47820181359664
 20
-316.6683774209431
 30
0.0
  0
VERTEX
  5
94
330
84
100
AcDbEntity
  8
Layer 1
370
     0
100
AcDbVertex
100
AcDb2dVertex
 10
19.47820181359664
 20
-322.3744890731624
 30
0.0
  0
VERTEX
  5
95
330
84
100
AcDbEntity
  8
Layer 1
370
     0
100
AcDbVertex
100
AcDb2dVertex
 10
25.18448572059021
 20
-322.3744890731624
 30
0.0
  0
SEQEND
  5
96
330
84
100
AcDbEntity
  8
Layer 1
370
     0
  0
HATCH
  5
97
330
5D
100
AcDbEntity
  8
Layer 1
 62
   179
420
  1842203
100
AcDbHatch
 10
0.0
 20
0.0
 30
0.0
210
0.0
220
0.0
230
1.0
  2
SOLID
 70
     1
 71
     0
 91
        2
 92
        1
 93
       32
 72
     1
 10
36.59688127980308
 20
-328.080772980156
 11
30.89059737280951
 21
-328.080772980156
 72
     1
 10
30.89059737280951
 20
-328.080772980156
 11
25.18448572059021
 21
-328.080772980156
 72
     1
 10
25.18448572059021
 20
-328.080772980156
 11
19.47820181359664
 21
-328.080772980156
 72
     1
 10
19.47820181359664
 20
-328.080772980156
 11
13.77209016137733
 21
-328.080772980156
 72
     1
 10
13.77209016137733
 20
-328.080772980156
 11
13.77209016137733
 21
-322.3744890731624
 72
     1
 10
13.77209016137733
 20
-322.3744890731624
 11
8.065806254383762
 21
-322.3744890731624
 72
     1
 10
8.065806254383762
 20
-322.3744890731624
 11
8.065806254383762
 21
-316.6683774209431
 72
     1
 10
8.065806254383762
 20
-316.6683774209431
 11
8.065806254383762
 21
-310.9620935139495
 72
     1
 10
8.065806254383762
 20
-310.9620935139495
 11
8.065806254383762
 21
-305.2559818617303
 72
     1
 10
8.065806254383762
 20
-305.2559818617303
 11
8.065806254383762
 21
-299.5496979547367
 72
     1
 10
8.065806254383762
 20
-299.5496979547367
 11
8.065806254383762
 21
-293.8435863025174
 72
     1
 10
8.065806254383762
 20
-293.8435863025174
 11
8.065806254383762
 21
-288.1373023955238
 72
     1
 10
8.065806254383762
 20
-288.1373023955238
 11
8.065806254383762
 21
-282.4310184885302
 72
     1
 10
8.065806254383762
 20
-282.4310184885302
 11
13.77209016137733
 21
-282.4310184885302
 72
     1
 10
13.77209016137733
 20
-282.4310184885302
 11
13.77209016137733
 21
-276.7249068363109
 72
     1
 10
13.77209016137733
 20
-276.7249068363109
 11
19.47820181359664
 21
-276.7249068363109
 72
     1
 10
19.47820181359664
 20
-276.7249068363109
 11
25.18448572059021
 21
-276.7249068363109
 72
     1
 10
25.18448572059021
 20
-276.7249068363109
 11
30.89059737280951
 21
-276.7249068363109
 72
     1
 10
30.89059737280951
 20
-276.7249068363109
 11
36.59688127980308
 21
-276.7249068363109
 72
     1
 10
36.59688127980308
 20
-276.7249068363109
 11
42.30299293202238
 21
-276.7249068363109
 72
     1
 10
42.30299293202238
 20
-276.7249068363109
 11
48.00927683901595
 21
-276.7249068363109
 72
     1
 10
48.00927683901595
 20
-276.7249068363109
 11
48.00927683901595
 21
-282.4310184885302
 72
     1
 10
48.00927683901595
 20
-282.4310184885302
 11
48.00927683901595
 21
-288.1373023955238
 72
     1
 10
48.00927683901595
 20
-288.1373023955238
 11
48.00927683901595
 21
-293.8435863025174
 72
     1
 10
48.00927683901595
 20
-293.8435863025174
 11
48.00927683901595
 21
-299.5496979547367
 72
     1
 10
48.00927683901595
 20
-299.5496979547367
 11
48.00927683901595
 21
-305.2559818617303
 72
     1
 10
48.00927683901595
 20
-305.2559818617303
 11
48.00927683901595
 21
-310.9620935139495
 72
     1
 10
48.00927683901595
 20
-310.9620935139495
 11
48.00927683901595
 21
-316.6683774209431
 72
     1
 10
48.00927683901595
 20
-316.6683774209431
 11
48.00927683901595
 21
-322.3744890731624
 72
     1
 10
48.00927683901595
 20
-322.3744890731624
 11
42.30299293202238
 21
-322.3744890731624
 72
     1
 10
42.30299293202238
 20
-322.3744890731624
 11
42.30299293202238
 21
-328.080772980156
 72
     1
 10
42.30299293202238
 20
-328.080772980156
 11
36.59688127980308
 21
-328.080772980156
 97
        0
 92
        1
 93
       16
 72
     1
 10
25.18448572059021
 20
-322.3744890731624
 11
30.89059737280951
 21
-322.3744890731624
 72
     1
 10
30.89059737280951
 20
-322.3744890731624
 11
30.89059737280951
 21
-316.6683774209431
 72
     1
 10
30.89059737280951
 20
-316.6683774209431
 11
25.18448572059021
 21
-316.6683774209431
 72
     1
 10
25.18448572059021
 20
-316.6683774209431
 11
19.47820181359664
 21
-316.6683774209431
 72
     1
 10
19.47820181359664
 20
-316.6683774209431
 11
19.47820181359664
 21
-310.9620935139495
 72
     1
 10
19.47820181359664
 20
-310.9620935139495
 11
19.47820181359664
 21
-305.2559818617303
 72
     1
 10
19.47820181359664
 20
-305.2559818617303
 11
19.47820181359664
 21
-299.5496979547367
 72
     1
 10
19.47820181359664
 20
-299.5496979547367
 11
19.47820181359664
 21
-293.8435863025174
 72
     1
 10
19.47820181359664
 20
-293.8435863025174
 11
13.77209016137733
 21
-293.8435863025174
 72
     1
 10
13.77209016137733
 20
-293.8435863025174
 11
13.77209016137733
 21
-299.5496979547367
 72
     1
 10
13.77209016137733
 20
-299.5496979547367
 11
13.77209016137733
 21
-305.2559818617303
 72
     1
 10
13.77209016137733
 20
-305.2559818617303
 11
13.77209016137733
 21
-310.9620935139495
 72
     1
 10
13.77209016137733
 20
-310.9620935139495
 11
13.77209016137733
 21
-316.6683774209431
 72
     1
 10
13.77209016137733
 20
-316.6683774209431
 11
19.47820181359664
 21
-316.6683774209431
 72
     1
 10
19.47820181359664
 20
-316.6683774209431
 11
19.47820181359664
 21
-322.3744890731624
 72
     1
 10
19.47820181359664
 20
-322.3744890731624
 11
25.18448572059021
 21
-322.3744890731624
 97
        0
 75
     2
 76
     1
 98
        0
  0
POLYLINE
  5
98
330
5D
100
AcDbEntity
  8
Layer 1
370
     0
100
AcDb2dPolyline
 66
     1
 10
0.0
 20
0.0
 30
0.0
  0
VERTEX
  5
99
330
98
100
AcDbEntity
  8
Layer 1
370
     0
100
AcDbVertex
100
AcDb2dVertex
 10
82.24663577142884
 20
-328.080772980156
 30
0.0
  0
VERTEX
  5
9A
330
98
100
AcDbEntity
  8
Layer 1
370
     0
100
AcDbVertex
100
AcDb2dVertex
 10
76.54035186443527
 20
-328.080772980156
 30
0.0
  0
VERTEX
  5
9B
330
98
100
AcDbEntity
  8
Layer 1
370
     0
100
AcDbVertex
100
AcDb2dVertex
 10
70.83424021221596
 20
-328.080772980156
 30
0.0
  0
VERTEX
  5
9C
330
98
100
AcDbEntity
  8
Layer 1
370
     0
100
AcDbVertex
100
AcDb2dVertex
 10
65.1279563052224
 20
-328.080772980156
 30
0.0
  0
VERTEX
  5
9D
330
98
100
AcDbEntity
  8
Layer 1
370
     0
100
AcDbVertex
100
AcDb2dVertex
 10
59.42184465300309
 20
-328.080772980156
 30
0.0
  0
VERTEX
  5
9E
330
98
100
AcDbEntity
  8
Layer 1
370
     0
100
AcDbVertex
100
AcDb2dVertex
 10
53.71556074600952
 20
-328.080772980156
 30
0.0
  0
VERTEX
  5
9F
330
98
100
AcDbEntity
  8
Layer 1
370
     0
100
AcDbVertex
100
AcDb2dVertex
 10
53.71556074600952
 20
-322.3744890731624
 30
0.0
  0
VERTEX
  5
A0
330
98
100
AcDbEntity
  8
Layer 1
370
     0
100
AcDbVertex
100
AcDb2dVertex
 10
53.71556074600952
 20
-316.6683774209431
 30
0.0
  0
VERTEX
  5
A1
330
98
100
AcDbEntity
  8
Layer 1
370
     0
100
AcDbVertex
100
AcDb2dVertex
 10
53.71556074600952
 20
-310.9620935139495
 30
0.0
  0
VERTEX
  5
A2
330
98
100
AcDbEntity
  8
Layer 1
370
     0
100
AcDbVertex
100
AcDb2dVertex
 10
53.71556074600952
 20
-305.2559818617303
 30
0.0
  0
VERTEX
  5
A3
330
98
100
AcDbEntity
  8
Layer 1
370
     0
100
AcDbVertex
100
AcDb2dVertex
 10
53.71556074600952
 20
-299.5496979547367
 30
0.0
  0
VERTEX
  5
A4
330
98
100
AcDbEntity
  8
Layer 1
370
     0
100
AcDbVertex
100
AcDb2dVertex
 10
53.71556074600952
 20
-293.8435863025174
 30
0.0
  0
VERTEX
  5
A5
330
98
100
AcDbEntity
  8
Layer 1
370
     0
100
AcDbVertex
100
AcDb2dVertex
 10
53.71556074600952
 20
-288.1373023955238
 30
0.0
  0
VERTEX
  5
A6
330
98
100
AcDbEntity
  8
Layer 1
370
     0
100
AcDbVertex
100
AcDb2dVertex
 10
53.71556074600952
 20
-282.4310184885302
 30
0.0
  0
VERTEX
  5
A7
330
98
100
AcDbEntity
  8
Layer 1
370
     0
100
AcDbVertex
100
AcDb2dVertex
 10
59.42184465300309
 20
-282.4310184885302
 30
0.0
  0
VERTEX
  5
A8
330
98
100
AcDbEntity
  8
Layer 1
370
     0
100
AcDbVertex
100
AcDb2dVertex
 10
59.42184465300309
 20
-276.7249068363109
 30
0.0
  0
VERTEX
  5
A9
330
98
100
AcDbEntity
  8
Layer 1
370
     0
100
AcDbVertex
100
AcDb2dVertex
 10
65.1279563052224
 20
-276.7249068363109
 30
0.0
  0
VERTEX
  5
AA
330
98
100
AcDbEntity
  8
Layer 1
370
     0
100
AcDbVertex
100
AcDb2dVertex
 10
70.83424021221596
 20
-276.7249068363109
 30
0.0
  0
VERTEX
  5
AB
330
98
100
AcDbEntity
  8
Layer 1
370
     0
100
AcDbVertex
100
AcDb2dVertex
 10
76.54035186443527
 20
-276.7249068363109
 30
0.0
  0
VERTEX
  5
AC
330
98
100
AcDbEntity
  8
Layer 1
370
     0
100
AcDbVertex
100
AcDb2dVertex
 10
82.24663577142884
 20
-276.7249068363109
 30
0.0
  0
VERTEX
  5
AD
330
98
100
AcDbEntity
  8
Layer 1
370
     0
100
AcDbVertex
100
AcDb2dVertex
 10
87.95274742364815
 20
-276.7249068363109
 30
0.0
  0
VERTEX
  5
AE
330
98
100
AcDbEntity
  8
Layer 1
370
     0
100
AcDbVertex
100
AcDb2dVertex
 10
93.65903133064171
 20
-276.7249068363109
 30
0.0
  0
VERTEX
  5
AF
330
98
100
AcDbEntity
  8
Layer 1
370
     0
100
AcDbVertex
100
AcDb2dVertex
 10
93.65903133064171
 20
-282.4310184885302
 30
0.0
  0
VERTEX
  5
B0
330
98
100
AcDbEntity
  8
Layer 1
370
     0
100
AcDbVertex
100
AcDb2dVertex
 10
93.65903133064171
 20
-288.1373023955238
 30
0.0
  0
VERTEX
  5
B1
330
98
100
AcDbEntity
  8
Layer 1
370
     0
100
AcDbVertex
100
AcDb2dVertex
 10
93.65903133064171
 20
-293.8435863025174
 30
0.0
  0
VERTEX
  5
B2
330
98
100
AcDbEntity
  8
Layer 1
370
     0
100
AcDbVertex
100
AcDb2dVertex
 10
93.65903133064171
 20
-299.5496979547367
 30
0.0
  0
VERTEX
  5
B3
330
98
100
AcDbEntity
  8
Layer 1
370
     0
100
AcDbVertex
100
AcDb2dVertex
 10
93.65903133064171
 20
-305.2559818617303
 30
0.0
  0
VERTEX
  5
B4
330
98
100
AcDbEntity
  8
Layer 1
370
     0
100
AcDbVertex
100
AcDb2dVertex
 10
93.65903133064171
 20
-310.9620935139495
 30
0.0
  0
VERTEX
  5
B5
330
98
100
AcDbEntity
  8
Layer 1
370
     0
100
AcDbVertex
100
AcDb2dVertex
 10
93.65903133064171
 20
-316.6683774209431
 30
0.0
  0
VERTEX
  5
B6
330
98
100
AcDbEntity
  8
Layer 1
370
     0
100
AcDbVertex
100
AcDb2dVertex
 10
93.65903133064171
 20
-322.3744890731624
 30
0.0
  0
VERTEX
  5
B7
330
98
100
AcDbEntity
  8
Layer 1
370
     0
100
AcDbVertex
100
AcDb2dVertex
 10
87.95274742364815
 20
-322.3744890731624
 30
0.0
  0
VERTEX
  5
B8
330
98
100
AcDbEntity
  8
Layer 1
370
     0
100
AcDbVertex
100
AcDb2dVertex
 10
87.95274742364815
 20
-328.080772980156
 30
0.0
  0
VERTEX
  5
B9
330
98
100
AcDbEntity
  8
Layer 1
370
     0
100
AcDbVertex
100
AcDb2dVertex
 10
82.24663577142884
 20
-328.080772980156
 30
0.0
  0
SEQEND
  5
BA
330
98
100
AcDbEntity
  8
Layer 1
370
     0
  0
POLYLINE
  5
BB
330
5D
100
AcDbEntity
  8
Layer 1
370
     0
100
AcDb2dPolyline
 66
     1
 10
0.0
 20
0.0
 30
0.0
  0
VERTEX
  5
BC
330
BB
100
AcDbEntity
  8
Layer 1
370
     0
100
AcDbVertex
100
AcDb2dVertex
 10
65.1279563052224
 20
-316.6683774209431
 30
0.0
  0
VERTEX
  5
BD
330
BB
100
AcDbEntity
  8
Layer 1
370
     0
100
AcDbVertex
100
AcDb2dVertex
 10
65.1279563052224
 20
-310.9620935139495
 30
0.0
  0
VERTEX
  5
BE
330
BB
100
AcDbEntity
  8
Layer 1
370
     0
100
AcDbVertex
100
AcDb2dVertex
 10
65.1279563052224
 20
-305.2559818617303
 30
0.0
  0
VERTEX
  5
BF
330
BB
100
AcDbEntity
  8
Layer 1
370
     0
100
AcDbVertex
100
AcDb2dVertex
 10
65.1279563052224
 20
-299.5496979547367
 30
0.0
  0
VERTEX
  5
C0
330
BB
100
AcDbEntity
  8
Layer 1
370
     0
100
AcDbVertex
100
AcDb2dVertex
 10
70.83424021221596
 20
-299.5496979547367
 30
0.0
  0
VERTEX
  5
C1
330
BB
100
AcDbEntity
  8
Layer 1
370
     0
100
AcDbVertex
100
AcDb2dVertex
 10
76.54035186443527
 20
-299.5496979547367
 30
0.0
  0
VERTEX
  5
C2
330
BB
100
AcDbEntity
  8
Layer 1
370
     0
100
AcDbVertex
100
AcDb2dVertex
 10
76.54035186443527
 20
-293.8435863025174
 30
0.0
  0
VERTEX
  5
C3
330
BB
100
AcDbEntity
  8
Layer 1
370
     0
100
AcDbVertex
100
AcDb2dVertex
 10
70.83424021221596
 20
-293.8435863025174
 30
0.0
  0
VERTEX
  5
C4
330
BB
100
AcDbEntity
  8
Layer 1
370
     0
100
AcDbVertex
100
AcDb2dVertex
 10
65.1279563052224
 20
-293.8435863025174
 30
0.0
  0
VERTEX
  5
C5
330
BB
100
AcDbEntity
  8
Layer 1
370
     0
100
AcDbVertex
100
AcDb2dVertex
 10
59.42184465300309
 20
-293.8435863025174
 30
0.0
  0
VERTEX
  5
C6
330
BB
100
AcDbEntity
  8
Layer 1
370
     0
100
AcDbVertex
100
AcDb2dVertex
 10
59.42184465300309
 20
-299.5496979547367
 30
0.0
  0
VERTEX
  5
C7
330
BB
100
AcDbEntity
  8
Layer 1
370
     0
100
AcDbVertex
100
AcDb2dVertex
 10
59.42184465300309
 20
-305.2559818617303
 30
0.0
  0
VERTEX
  5
C8
330
BB
100
AcDbEntity
  8
Layer 1
370
     0
100
AcDbVertex
100
AcDb2dVertex
 10
59.42184465300309
 20
-310.9620935139495
 30
0.0
  0
VERTEX
  5
C9
330
BB
100
AcDbEntity
  8
Layer 1
370
     0
100
AcDbVertex
100
AcDb2dVertex
 10
59.42184465300309
 20
-316.6683774209431
 30
0.0
  0
VERTEX
  5
CA
330
BB
100
AcDbEntity
  8
Layer 1
370
     0
100
AcDbVertex
100
AcDb2dVertex
 10
59.42184465300309
 20
-322.3744890731624
 30
0.0
  0
VERTEX
  5
CB
330
BB
100
AcDbEntity
  8
Layer 1
370
     0
100
AcDbVertex
100
AcDb2dVertex
 10
65.1279563052224
 20
-322.3744890731624
 30
0.0
  0
VERTEX
  5
CC
330
BB
100
AcDbEntity
  8
Layer 1
370
     0
100
AcDbVertex
100
AcDb2dVertex
 10
70.83424021221596
 20
-322.3744890731624
 30
0.0
  0
VERTEX
  5
CD
330
BB
100
AcDbEntity
  8
Layer 1
370
     0
100
AcDbVertex
100
AcDb2dVertex
 10
76.54035186443527
 20
-322.3744890731624
 30
0.0
  0
VERTEX
  5
CE
330
BB
100
AcDbEntity
  8
Layer 1
370
     0
100
AcDbVertex
100
AcDb2dVertex
 10
76.54035186443527
 20
-316.6683774209431
 30
0.0
  0
VERTEX
  5
CF
330
BB
100
AcDbEntity
  8
Layer 1
370
     0
100
AcDbVertex
100
AcDb2dVertex
 10
76.54035186443527
 20
-310.9620935139495
 30
0.0
  0
VERTEX
  5
D0
330
BB
100
AcDbEntity
  8
Layer 1
370
     0
100
AcDbVertex
100
AcDb2dVertex
 10
76.54035186443527
 20
-305.2559818617303
 30
0.0
  0
VERTEX
  5
D1
330
BB
100
AcDbEntity
  8
Layer 1
370
     0
100
AcDbVertex
100
AcDb2dVertex
 10
70.83424021221596
 20
-305.2559818617303
 30
0.0
  0
VERTEX
  5
D2
330
BB
100
AcDbEntity
  8
Layer 1
370
     0
100
AcDbVertex
100
AcDb2dVertex
 10
70.83424021221596
 20
-310.9620935139495
 30
0.0
  0
VERTEX
  5
D3
330
BB
100
AcDbEntity
  8
Layer 1
370
     0
100
AcDbVertex
100
AcDb2dVertex
 10
70.83424021221596
 20
-316.6683774209431
 30
0.0
  0
VERTEX
  5
D4
330
BB
100
AcDbEntity
  8
Layer 1
370
     0
100
AcDbVertex
100
AcDb2dVertex
 10
65.1279563052224
 20
-316.6683774209431
 30
0.0
  0
SEQEND
  5
D5
330
BB
100
AcDbEntity
  8
Layer 1
370
     0
  0
HATCH
  5
D6
330
5D
100
AcDbEntity
  8
Layer 1
 62
   179
420
  1842203
100
AcDbHatch
 10
0.0
 20
0.0
 30
0.0
210
0.0
220
0.0
230
1.0
  2
SOLID
 70
     1
 71
     0
 91
        2
 92
        1
 93
       32
 72
     1
 10
82.24663577142884
 20
-328.080772980156
 11
76.54035186443527
 21
-328.080772980156
 72
     1
 10
76.54035186443527
 20
-328.080772980156
 11
70.83424021221596
 21
-328.080772980156
 72
     1
 10
70.83424021221596
 20
-328.080772980156
 11
65.1279563052224
 21
-328.080772980156
 72
     1
 10
65.1279563052224
 20
-328.080772980156
 11
59.42184465300309
 21
-328.080772980156
 72
     1
 10
59.42184465300309
 20
-328.080772980156
 11
53.71556074600952
 21
-328.080772980156
 72
     1
 10
53.71556074600952
 20
-328.080772980156
 11
53.71556074600952
 21
-322.3744890731624
 72
     1
 10
53.71556074600952
 20
-322.3744890731624
 11
53.71556074600952
 21
-316.6683774209431
 72
     1
 10
53.71556074600952
 20
-316.6683774209431
 11
53.71556074600952
 21
-310.9620935139495
 72
     1
 10
53.71556074600952
 20
-310.9620935139495
 11
53.71556074600952
 21
-305.2559818617303
 72
     1
 10
53.71556074600952
 20
-305.2559818617303
 11
53.71556074600952
 21
-299.5496979547367
 72
     1
 10
53.71556074600952
 20
-299.5496979547367
 11
53.71556074600952
 21
-293.8435863025174
 72
     1
 10
53.71556074600952
 20
-293.8435863025174
 11
53.71556074600952
 21
-288.1373023955238
 72
     1
 10
53.71556074600952
 20
-288.1373023955238
 11
53.71556074600952
 21
-282.4310184885302
 72
     1
 10
53.71556074600952
 20
-282.4310184885302
 11
59.42184465300309
 21
-282.4310184885302
 72
     1
 10
59.42184465300309
 20
-282.4310184885302
 11
59.42184465300309
 21
-276.7249068363109
 72
     1
 10
59.42184465300309
 20
-276.7249068363109
 11
65.1279563052224
 21
-276.7249068363109
 72
     1
 10
65.1279563052224
 20
-276.7249068363109
 11
70.83424021221596
 21
-276.7249068363109
 72
     1
 10
70.83424021221596
 20
-276.7249068363109
 11
76.54035186443527
 21
-276.7249068363109
 72
     1
 10
76.54035186443527
 20
-276.7249068363109
 11
82.24663577142884
 21
-276.7249068363109
 72
     1
 10
82.24663577142884
 20
-276.7249068363109
 11
87.95274742364815
 21
-276.7249068363109
 72
     1
 10
87.95274742364815
 20
-276.7249068363109
 11
93.65903133064171
 21
-276.7249068363109
 72
     1
 10
93.65903133064171
 20
-276.7249068363109
 11
93.65903133064171
 21
-282.4310184885302
 72
     1
 10
93.65903133064171
 20
-282.4310184885302
 11
93.65903133064171
 21
-288.1373023955238
 72
     1
 10
93.65903133064171
 20
-288.1373023955238
 11
93.65903133064171
 21
-293.8435863025174
 72
     1
 10
93.65903133064171
 20
-293.8435863025174
 11
93.65903133064171
 21
-299.5496979547367
 72
     1
 10
93.65903133064171
 20
-299.5496979547367
 11
93.65903133064171
 21
-305.2559818617303
 72
     1
 10
93.65903133064171
 20
-305.2559818617303
 11
93.65903133064171
 21
-310.9620935139495
 72
     1
 10
93.65903133064171
 20
-310.9620935139495
 11
93.65903133064171
 21
-316.6683774209431
 72
     1
 10
93.65903133064171
 20
-316.6683774209431
 11
93.65903133064171
 21
-322.3744890731624
 72
     1
 10
93.65903133064171
 20
-322.3744890731624
 11
87.95274742364815
 21
-322.3744890731624
 72
     1
 10
87.95274742364815
 20
-322.3744890731624
 11
87.95274742364815
 21
-328.080772980156
 72
     1
 10
87.95274742364815
 20
-328.080772980156
 11
82.24663577142884
 21
-328.080772980156
 97
        0
 92
        1
 93
       24
 72
     1
 10
65.1279563052224
 20
-316.6683774209431
 11
65.1279563052224
 21
-310.9620935139495
 72
     1
 10
65.1279563052224
 20
-310.9620935139495
 11
65.1279563052224
 21
-305.2559818617303
 72
     1
 10
65.1279563052224
 20
-305.2559818617303
 11
65.1279563052224
 21
-299.5496979547367
 72
     1
 10
65.1279563052224
 20
-299.5496979547367
 11
70.83424021221596
 21
-299.5496979547367
 72
     1
 10
70.83424021221596
 20
-299.5496979547367
 11
76.54035186443527
 21
-299.5496979547367
 72
     1
 10
76.54035186443527
 20
-299.5496979547367
 11
76.54035186443527
 21
-293.8435863025174
 72
     1
 10
76.54035186443527
 20
-293.8435863025174
 11
70.83424021221596
 21
-293.8435863025174
 72
     1
 10
70.83424021221596
 20
-293.8435863025174
 11
65.1279563052224
 21
-293.8435863025174
 72
     1
 10
65.1279563052224
 20
-293.8435863025174
 11
59.42184465300309
 21
-293.8435863025174
 72
     1
 10
59.42184465300309
 20
-293.8435863025174
 11
59.42184465300309
 21
-299.5496979547367
 72
     1
 10
59.42184465300309
 20
-299.5496979547367
 11
59.42184465300309
 21
-305.2559818617303
 72
     1
 10
59.42184465300309
 20
-305.2559818617303
 11
59.42184465300309
 21
-310.9620935139495
 72
     1
 10
59.42184465300309
 20
-310.9620935139495
 11
59.42184465300309
 21
-316.6683774209431
 72
     1
 10
59.42184465300309
 20
-316.6683774209431
 11
59.42184465300309
 21
-322.3744890731624
 72
     1
 10
59.42184465300309
 20
-322.3744890731624
 11
65.1279563052224
 21
-322.3744890731624
 72
     1
 10
65.1279563052224
 20
-322.3744890731624
 11
70.83424021221596
 21
-322.3744890731624
 72
     1
 10
70.83424021221596
 20
-322.3744890731624
 11
76.54035186443527
 21
-322.3744890731624
 72
     1
 10
76.54035186443527
 20
-322.3744890731624
 11
76.54035186443527
 21
-316.6683774209431
 72
     1
 10
76.54035186443527
 20
-316.6683774209431
 11
76.54035186443527
 21
-310.9620935139495
 72
     1
 10
76.54035186443527
 20
-310.9620935139495
 11
76.54035186443527
 21
-305.2559818617303
 72
     1
 10
76.54035186443527
 20
-305.2559818617303
 11
70.83424021221596
 21
-305.2559818617303
 72
     1
 10
70.83424021221596
 20
-305.2559818617303
 11
70.83424021221596
 21
-310.9620935139495
 72
     1
 10
70.83424021221596
 20
-310.9620935139495
 11
70.83424021221596
 21
-316.6683774209431
 72
     1
 10
70.83424021221596
 20
-316.6683774209431
 11
65.1279563052224
 21
-316.6683774209431
 97
        0
 75
     2
 76
     1
 98
        0
  0
POLYLINE
  5
D7
330
5D
100
AcDbEntity
  8
Layer 1
370
     0
100
AcDb2dPolyline
 66
     1
 10
0.0
 20
0.0
 30
0.0
  0
VERTEX
  5
D8
330
D7
100
AcDbEntity
  8
Layer 1
370
     0
100
AcDbVertex
100
AcDb2dVertex
 10
127.8962180082803
 20
-328.080772980156
 30
0.0
  0
VERTEX
  5
D9
330
D7
100
AcDbEntity
  8
Layer 1
370
     0
100
AcDbVertex
100
AcDb2dVertex
 10
122.1899341012868
 20
-328.080772980156
 30
0.0
  0
VERTEX
  5
DA
330
D7
100
AcDbEntity
  8
Layer 1
370
     0
100
AcDbVertex
100
AcDb2dVertex
 10
116.4838224490675
 20
-328.080772980156
 30
0.0
  0
VERTEX
  5
DB
330
D7
100
AcDbEntity
  8
Layer 1
370
     0
100
AcDbVertex
100
AcDb2dVertex
 10
110.7775385420739
 20
-328.080772980156
 30
0.0
  0
VERTEX
  5
DC
330
D7
100
AcDbEntity
  8
Layer 1
370
     0
100
AcDbVertex
100
AcDb2dVertex
 10
105.0714268898546
 20
-328.080772980156
 30
0.0
  0
VERTEX
  5
DD
330
D7
100
AcDbEntity
  8
Layer 1
370
     0
100
AcDbVertex
100
AcDb2dVertex
 10
99.36514298286102
 20
-328.080772980156
 30
0.0
  0
VERTEX
  5
DE
330
D7
100
AcDbEntity
  8
Layer 1
370
     0
100
AcDbVertex
100
AcDb2dVertex
 10
99.36514298286102
 20
-322.3744890731624
 30
0.0
  0
VERTEX
  5
DF
330
D7
100
AcDbEntity
  8
Layer 1
370
     0
100
AcDbVertex
100
AcDb2dVertex
 10
99.36514298286102
 20
-316.6683774209431
 30
0.0
  0
VERTEX
  5
E0
330
D7
100
AcDbEntity
  8
Layer 1
370
     0
100
AcDbVertex
100
AcDb2dVertex
 10
99.36514298286102
 20
-310.9620935139495
 30
0.0
  0
VERTEX
  5
E1
330
D7
100
AcDbEntity
  8
Layer 1
370
     0
100
AcDbVertex
100
AcDb2dVertex
 10
99.36514298286102
 20
-305.2559818617303
 30
0.0
  0
VERTEX
  5
E2
330
D7
100
AcDbEntity
  8
Layer 1
370
     0
100
AcDbVertex
100
AcDb2dVertex
 10
99.36514298286102
 20
-299.5496979547367
 30
0.0
  0
VERTEX
  5
E3
330
D7
100
AcDbEntity
  8
Layer 1
370
     0
100
AcDbVertex
100
AcDb2dVertex
 10
99.36514298286102
 20
-293.8435863025174
 30
0.0
  0
VERTEX
  5
E4
330
D7
100
AcDbEntity
  8
Layer 1
370
     0
100
AcDbVertex
100
AcDb2dVertex
 10
99.36514298286102
 20
-288.1373023955238
 30
0.0
  0
VERTEX
  5
E5
330
D7
100
AcDbEntity
  8
Layer 1
370
     0
100
AcDbVertex
100
AcDb2dVertex
 10
99.36514298286102
 20
-282.4310184885302
 30
0.0
  0
VERTEX
  5
E6
330
D7
100
AcDbEntity
  8
Layer 1
370
     0
100
AcDbVertex
100
AcDb2dVertex
 10
105.0714268898546
 20
-282.4310184885302
 30
0.0
  0
VERTEX
  5
E7
330
D7
100
AcDbEntity
  8
Layer 1
370
     0
100
AcDbVertex
100
AcDb2dVertex
 10
105.0714268898546
 20
-276.7249068363109
 30
0.0
  0
VERTEX
  5
E8
330
D7
100
AcDbEntity
  8
Layer 1
370
     0
100
AcDbVertex
100
AcDb2dVertex
 10
110.7775385420739
 20
-276.7249068363109
 30
0.0
  0
VERTEX
  5
E9
330
D7
100
AcDbEntity
  8
Layer 1
370
     0
100
AcDbVertex
100
AcDb2dVertex
 10
116.4838224490675
 20
-276.7249068363109
 30
0.0
  0
VERTEX
  5
EA
330
D7
100
AcDbEntity
  8
Layer 1
370
     0
100
AcDbVertex
100
AcDb2dVertex
 10
122.1899341012868
 20
-276.7249068363109
 30
0.0
  0
VERTEX
  5
EB
330
D7
100
AcDbEntity
  8
Layer 1
370
     0
100
AcDbVertex
100
AcDb2dVertex
 10
127.8962180082803
 20
-276.7249068363109
 30
0.0
  0
VERTEX
  5
EC
330
D7
100
AcDbEntity
  8
Layer 1
370
     0
100
AcDbVertex
100
AcDb2dVertex
 10
133.6023296604996
 20
-276.7249068363109
 30
0.0
  0
VERTEX
  5
ED
330
D7
100
AcDbEntity
  8
Layer 1
370
     0
100
AcDbVertex
100
AcDb2dVertex
 10
139.3086135674932
 20
-276.7249068363109
 30
0.0
  0
VERTEX
  5
EE
330
D7
100
AcDbEntity
  8
Layer 1
370
     0
100
AcDbVertex
100
AcDb2dVertex
 10
139.3086135674932
 20
-282.4310184885302
 30
0.0
  0
VERTEX
  5
EF
330
D7
100
AcDbEntity
  8
Layer 1
370
     0
100
AcDbVertex
100
AcDb2dVertex
 10
139.3086135674932
 20
-288.1373023955238
 30
0.0
  0
VERTEX
  5
F0
330
D7
100
AcDbEntity
  8
Layer 1
370
     0
100
AcDbVertex
100
AcDb2dVertex
 10
139.3086135674932
 20
-293.8435863025174
 30
0.0
  0
VERTEX
  5
F1
330
D7
100
AcDbEntity
  8
Layer 1
370
     0
100
AcDbVertex
100
AcDb2dVertex
 10
139.3086135674932
 20
-299.5496979547367
 30
0.0
  0
VERTEX
  5
F2
330
D7
100
AcDbEntity
  8
Layer 1
370
     0
100
AcDbVertex
100
AcDb2dVertex
 10
139.3086135674932
 20
-305.2559818617303
 30
0.0
  0
VERTEX
  5
F3
330
D7
100
AcDbEntity
  8
Layer 1
370
     0
100
AcDbVertex
100
AcDb2dVertex
 10
139.3086135674932
 20
-310.9620935139495
 30
0.0
  0
VERTEX
  5
F4
330
D7
100
AcDbEntity
  8
Layer 1
370
     0
100
AcDbVertex
100
AcDb2dVertex
 10
139.3086135674932
 20
-316.6683774209431
 30
0.0
  0
VERTEX
  5
F5
330
D7
100
AcDbEntity
  8
Layer 1
370
     0
100
AcDbVertex
100
AcDb2dVertex
 10
139.3086135674932
 20
-322.3744890731624
 30
0.0
  0
VERTEX
  5
F6
330
D7
100
AcDbEntity
  8
Layer 1
370
     0
100
AcDbVertex
100
AcDb2dVertex
 10
133.6023296604996
 20
-322.3744890731624
 30
0.0
  0
VERTEX
  5
F7
330
D7
100
AcDbEntity
  8
Layer 1
370
     0
100
AcDbVertex
100
AcDb2dVertex
 10
133.6023296604996
 20
-328.080772980156
 30
0.0
  0
VERTEX
  5
F8
330
D7
100
AcDbEntity
  8
Layer 1
370
     0
100
AcDbVertex
100
AcDb2dVertex
 10
127.8962180082803
 20
-328.080772980156
 30
0.0
  0
SEQEND
  5
F9
330
D7
100
AcDbEntity
  8
Layer 1
370
     0
  0
POLYLINE
  5
FA
330
5D
100
AcDbEntity
  8
Layer 1
370
     0
100
AcDb2dPolyline
 66
     1
 10
0.0
 20
0.0
 30
0.0
  0
VERTEX
  5
FB
330
FA
100
AcDbEntity
  8
Layer 1
370
     0
100
AcDbVertex
100
AcDb2dVertex
 10
110.7775385420739
 20
-305.2559818617303
 30
0.0
  0
VERTEX
  5
FC
330
FA
100
AcDbEntity
  8
Layer 1
370
     0
100
AcDbVertex
100
AcDb2dVertex
 10
110.7775385420739
 20
-299.5496979547367
 30
0.0
  0
VERTEX
  5
FD
330
FA
100
AcDbEntity
  8
Layer 1
370
     0
100
AcDbVertex
100
AcDb2dVertex
 10
110.7775385420739
 20
-293.8435863025174
 30
0.0
  0
VERTEX
  5
FE
330
FA
100
AcDbEntity
  8
Layer 1
370
     0
100
AcDbVertex
100
AcDb2dVertex
 10
105.0714268898546
 20
-293.8435863025174
 30
0.0
  0
VERTEX
  5
FF
330
FA
100
AcDbEntity
  8
Layer 1
370
     0
100
AcDbVertex
100
AcDb2dVertex
 10
105.0714268898546
 20
-299.5496979547367
 30
0.0
  0
VERTEX
  5
100
330
FA
100
AcDbEntity
  8
Layer 1
370
     0
100
AcDbVertex
100
AcDb2dVertex
 10
105.0714268898546
 20
-305.2559818617303
 30
0.0
  0
VERTEX
  5
101
330
FA
100
AcDbEntity
  8
Layer 1
370
     0
100
AcDbVertex
100
AcDb2dVertex
 10
105.0714268898546
 20
-310.9620935139495
 30
0.0
  0
VERTEX
  5
102
330
FA
100
AcDbEntity
  8
Layer 1
370
     0
100
AcDbVertex
100
AcDb2dVertex
 10
105.0714268898546
 20
-316.6683774209431
 30
0.0
  0
VERTEX
  5
103
330
FA
100
AcDbEntity
  8
Layer 1
370
     0
100
AcDbVertex
100
AcDb2dVertex
 10
105.0714268898546
 20
-322.3744890731624
 30
0.0
  0
VERTEX
  5
104
330
FA
100
AcDbEntity
  8
Layer 1
370
     0
100
AcDbVertex
100
AcDb2dVertex
 10
110.7775385420739
 20
-322.3744890731624
 30
0.0
  0
VERTEX
  5
105
330
FA
100
AcDbEntity
  8
Layer 1
370
     0
100
AcDbVertex
100
AcDb2dVertex
 10
110.7775385420739
 20
-316.6683774209431
 30
0.0
  0
VERTEX
  5
106
330
FA
100
AcDbEntity
  8
Layer 1
370
     0
100
AcDbVertex
100
AcDb2dVertex
 10
110.7775385420739
 20
-310.9620935139495
 30
0.0
  0
VERTEX
  5
107
330
FA
100
AcDbEntity
  8
Layer 1
370
     0
100
AcDbVertex
100
AcDb2dVertex
 10
116.4838224490675
 20
-310.9620935139495
 30
0.0
  0
VERTEX
  5
108
330
FA
100
AcDbEntity
  8
Layer 1
370
     0
100
AcDbVertex
100
AcDb2dVertex
 10
116.4838224490675
 20
-316.6683774209431
 30
0.0
  0
VERTEX
  5
109
330
FA
100
AcDbEntity
  8
Layer 1
370
     0
100
AcDbVertex
100
AcDb2dVertex
 10
116.4838224490675
 20
-322.3744890731624
 30
0.0
  0
VERTEX
  5
10A
330
FA
100
AcDbEntity
  8
Layer 1
370
     0
100
AcDbVertex
100
AcDb2dVertex
 10
122.1899341012868
 20
-322.3744890731624
 30
0.0
  0
VERTEX
  5
10B
330
FA
100
AcDbEntity
  8
Layer 1
370
     0
100
AcDbVertex
100
AcDb2dVertex
 10
122.1899341012868
 20
-316.6683774209431
 30
0.0
  0
VERTEX
  5
10C
330
FA
100
AcDbEntity
  8
Layer 1
370
     0
100
AcDbVertex
100
AcDb2dVertex
 10
122.1899341012868
 20
-310.9620935139495
 30
0.0
  0
VERTEX
  5
10D
330
FA
100
AcDbEntity
  8
Layer 1
370
     0
100
AcDbVertex
100
AcDb2dVertex
 10
122.1899341012868
 20
-305.2559818617303
 30
0.0
  0
VERTEX
  5
10E
330
FA
100
AcDbEntity
  8
Layer 1
370
     0
100
AcDbVertex
100
AcDb2dVertex
 10
122.1899341012868
 20
-299.5496979547367
 30
0.0
  0
VERTEX
  5
10F
330
FA
100
AcDbEntity
  8
Layer 1
370
     0
100
AcDbVertex
100
AcDb2dVertex
 10
122.1899341012868
 20
-293.8435863025174
 30
0.0
  0
VERTEX
  5
110
330
FA
100
AcDbEntity
  8
Layer 1
370
     0
100
AcDbVertex
100
AcDb2dVertex
 10
116.4838224490675
 20
-293.8435863025174
 30
0.0
  0
VERTEX
  5
111
330
FA
100
AcDbEntity
  8
Layer 1
370
     0
100
AcDbVertex
100
AcDb2dVertex
 10
116.4838224490675
 20
-299.5496979547367
 30
0.0
  0
VERTEX
  5
112
330
FA
100
AcDbEntity
  8
Layer 1
370
     0
100
AcDbVertex
100
AcDb2dVertex
 10
116.4838224490675
 20
-305.2559818617303
 30
0.0
  0
VERTEX
  5
113
330
FA
100
AcDbEntity
  8
Layer 1
370
     0
100
AcDbVertex
100
AcDb2dVertex
 10
110.7775385420739
 20
-305.2559818617303
 30
0.0
  0
SEQEND
  5
114
330
FA
100
AcDbEntity
  8
Layer 1
370
     0
  0
HATCH
  5
115
330
5D
100
AcDbEntity
  8
Layer 1
 62
   179
420
  1842203
100
AcDbHatch
 10
0.0
 20
0.0
 30
0.0
210
0.0
220
0.0
230
1.0
  2
SOLID
 70
     1
 71
     0
 91
        2
 92
        1
 93
       32
 72
     1
 10
127.8962180082803
 20
-328.080772980156
 11
122.1899341012868
 21
-328.080772980156
 72
     1
 10
122.1899341012868
 20
-328.080772980156
 11
116.4838224490675
 21
-328.080772980156
 72
     1
 10
116.4838224490675
 20
-328.080772980156
 11
110.7775385420739
 21
-328.080772980156
 72
     1
 10
110.7775385420739
 20
-328.080772980156
 11
105.0714268898546
 21
-328.080772980156
 72
     1
 10
105.0714268898546
 20
-328.080772980156
 11
99.36514298286102
 21
-328.080772980156
 72
     1
 10
99.36514298286102
 20
-328.080772980156
 11
99.36514298286102
 21
-322.3744890731624
 72
     1
 10
99.36514298286102
 20
-322.3744890731624
 11
99.36514298286102
 21
-316.6683774209431
 72
     1
 10
99.36514298286102
 20
-316.6683774209431
 11
99.36514298286102
 21
-310.9620935139495
 72
     1
 10
99.36514298286102
 20
-310.9620935139495
 11
99.36514298286102
 21
-305.2559818617303
 72
     1
 10
99.36514298286102
 20
-305.2559818617303
 11
99.36514298286102
 21
-299.5496979547367
 72
     1
 10
99.36514298286102
 20
-299.5496979547367
 11
99.36514298286102
 21
-293.8435863025174
 72
     1
 10
99.36514298286102
 20
-293.8435863025174
 11
99.36514298286102
 21
-288.1373023955238
 72
     1
 10
99.36514298286102
 20
-288.1373023955238
 11
99.36514298286102
 21
-282.4310184885302
 72
     1
 10
99.36514298286102
 20
-282.4310184885302
 11
105.0714268898546
 21
-282.4310184885302
 72
     1
 10
105.0714268898546
 20
-282.4310184885302
 11
105.0714268898546
 21
-276.7249068363109
 72
     1
 10
105.0714268898546
 20
-276.7249068363109
 11
110.7775385420739
 21
-276.7249068363109
 72
     1
 10
110.7775385420739
 20
-276.7249068363109
 11
116.4838224490675
 21
-276.7249068363109
 72
     1
 10
116.4838224490675
 20
-276.7249068363109
 11
122.1899341012868
 21
-276.7249068363109
 72
     1
 10
122.1899341012868
 20
-276.7249068363109
 11
127.8962180082803
 21
-276.7249068363109
 72
     1
 10
127.8962180082803
 20
-276.7249068363109
 11
133.6023296604996
 21
-276.7249068363109
 72
     1
 10
133.6023296604996
 20
-276.7249068363109
 11
139.3086135674932
 21
-276.7249068363109
 72
     1
 10
139.3086135674932
 20
-276.7249068363109
 11
139.3086135674932
 21
-282.4310184885302
 72
     1
 10
139.3086135674932
 20
-282.4310184885302
 11
139.3086135674932
 21
-288.1373023955238
 72
     1
 10
139.3086135674932
 20
-288.1373023955238
 11
139.3086135674932
 21
-293.8435863025174
 72
     1
 10
139.3086135674932
 20
-293.8435863025174
 11
139.3086135674932
 21
-299.5496979547367
 72
     1
 10
139.3086135674932
 20
-299.5496979547367
 11
139.3086135674932
 21
-305.2559818617303
 72
     1
 10
139.3086135674932
 20
-305.2559818617303
 11
139.3086135674932
 21
-310.9620935139495
 72
     1
 10
139.3086135674932
 20
-310.9620935139495
 11
139.3086135674932
 21
-316.6683774209431
 72
     1
 10
139.3086135674932
 20
-316.6683774209431
 11
139.3086135674932
 21
-322.3744890731624
 72
     1
 10
139.3086135674932
 20
-322.3744890731624
 11
133.6023296604996
 21
-322.3744890731624
 72
     1
 10
133.6023296604996
 20
-322.3744890731624
 11
133.6023296604996
 21
-328.080772980156
 72
     1
 10
133.6023296604996
 20
-328.080772980156
 11
127.8962180082803
 21
-328.080772980156
 97
        0
 92
        1
 93
       24
 72
     1
 10
110.7775385420739
 20
-305.2559818617303
 11
110.7775385420739
 21
-299.5496979547367
 72
     1
 10
110.7775385420739
 20
-299.5496979547367
 11
110.7775385420739
 21
-293.8435863025174
 72
     1
 10
110.7775385420739
 20
-293.8435863025174
 11
105.0714268898546
 21
-293.8435863025174
 72
     1
 10
105.0714268898546
 20
-293.8435863025174
 11
105.0714268898546
 21
-299.5496979547367
 72
     1
 10
105.0714268898546
 20
-299.5496979547367
 11
105.0714268898546
 21
-305.2559818617303
 72
     1
 10
105.0714268898546
 20
-305.2559818617303
 11
105.0714268898546
 21
-310.9620935139495
 72
     1
 10
105.0714268898546
 20
-310.9620935139495
 11
105.0714268898546
 21
-316.6683774209431
 72
     1
 10
105.0714268898546
 20
-316.6683774209431
 11
105.0714268898546
 21
-322.3744890731624
 72
     1
 10
105.0714268898546
 20
-322.3744890731624
 11
110.7775385420739
 21
-322.3744890731624
 72
     1
 10
110.7775385420739
 20
-322.3744890731624
 11
110.7775385420739
 21
-316.6683774209431
 72
     1
 10
110.7775385420739
 20
-316.6683774209431
 11
110.7775385420739
 21
-310.9620935139495
 72
     1
 10
110.7775385420739
 20
-310.9620935139495
 11
116.4838224490675
 21
-310.9620935139495
 72
     1
 10
116.4838224490675
 20
-310.9620935139495
 11
116.4838224490675
 21
-316.6683774209431
 72
     1
 10
116.4838224490675
 20
-316.6683774209431
 11
116.4838224490675
 21
-322.3744890731624
 72
     1
 10
116.4838224490675
 20
-322.3744890731624
 11
122.1899341012868
 21
-322.3744890731624
 72
     1
 10
122.1899341012868
 20
-322.3744890731624
 11
122.1899341012868
 21
-316.6683774209431
 72
     1
 10
122.1899341012868
 20
-316.6683774209431
 11
122.1899341012868
 21
-310.9620935139495
 72
     1
 10
122.1899341012868
 20
-310.9620935139495
 11
122.1899341012868
 21
-305.2559818617303
 72
     1
 10
122.1899341012868
 20
-305.2559818617303
 11
122.1899341012868
 21
-299.5496979547367
 72
     1
 10
122.1899341012868
 20
-299.5496979547367
 11
122.1899341012868
 21
-293.8435863025174
 72
     1
 10
122.1899341012868
 20
-293.8435863025174
 11
116.4838224490675
 21
-293.8435863025174
 72
     1
 10
116.4838224490675
 20
-293.8435863025174
 11
116.4838224490675
 21
-299.5496979547367
 72
     1
 10
116.4838224490675
 20
-299.5496979547367
 11
116.4838224490675
 21
-305.2559818617303
 72
     1
 10
116.4838224490675
 20
-305.2559818617303
 11
110.7775385420739
 21
-305.2559818617303
 97
        0
 75
     2
 76
     1
 98
        0
  0
POLYLINE
  5
116
330
5D
100
AcDbEntity
  8
Layer 1
370
     0
100
AcDb2dPolyline
 66
     1
 10
0.0
 20
0.0
 30
0.0
  0
VERTEX
  5
117
330
116
100
AcDbEntity
  8
Layer 1
370
     0
100
AcDbVertex
100
AcDb2dVertex
 10
173.5458002451318
 20
-328.080772980156
 30
0.0
  0
VERTEX
  5
118
330
116
100
AcDbEntity
  8
Layer 1
370
     0
100
AcDbVertex
100
AcDb2dVertex
 10
167.8396885929125
 20
-328.080772980156
 30
0.0
  0
VERTEX
  5
119
330
116
100
AcDbEntity
  8
Layer 1
370
     0
100
AcDbVertex
100
AcDb2dVertex
 10
162.1335769406932
 20
-328.080772980156
 30
0.0
  0
VERTEX
  5
11A
330
116
100
AcDbEntity
  8
Layer 1
370
     0
100
AcDbVertex
100
AcDb2dVertex
 10
156.4272930336996
 20
-328.080772980156
 30
0.0
  0
VERTEX
  5
11B
330
116
100
AcDbEntity
  8
Layer 1
370
     0
100
AcDbVertex
100
AcDb2dVertex
 10
150.7211813814803
 20
-328.080772980156
 30
0.0
  0
VERTEX
  5
11C
330
116
100
AcDbEntity
  8
Layer 1
370
     0
100
AcDbVertex
100
AcDb2dVertex
 10
145.0148974744868
 20
-328.080772980156
 30
0.0
  0
VERTEX
  5
11D
330
116
100
AcDbEntity
  8
Layer 1
370
     0
100
AcDbVertex
100
AcDb2dVertex
 10
145.0148974744868
 20
-322.3744890731624
 30
0.0
  0
VERTEX
  5
11E
330
116
100
AcDbEntity
  8
Layer 1
370
     0
100
AcDbVertex
100
AcDb2dVertex
 10
145.0148974744868
 20
-316.6683774209431
 30
0.0
  0
VERTEX
  5
11F
330
116
100
AcDbEntity
  8
Layer 1
370
     0
100
AcDbVertex
100
AcDb2dVertex
 10
145.0148974744868
 20
-310.9620935139495
 30
0.0
  0
VERTEX
  5
120
330
116
100
AcDbEntity
  8
Layer 1
370
     0
100
AcDbVertex
100
AcDb2dVertex
 10
145.0148974744868
 20
-305.2559818617303
 30
0.0
  0
VERTEX
  5
121
330
116
100
AcDbEntity
  8
Layer 1
370
     0
100
AcDbVertex
100
AcDb2dVertex
 10
145.0148974744868
 20
-299.5496979547367
 30
0.0
  0
VERTEX
  5
122
330
116
100
AcDbEntity
  8
Layer 1
370
     0
100
AcDbVertex
100
AcDb2dVertex
 10
145.0148974744868
 20
-293.8435863025174
 30
0.0
  0
VERTEX
  5
123
330
116
100
AcDbEntity
  8
Layer 1
370
     0
100
AcDbVertex
100
AcDb2dVertex
 10
145.0148974744868
 20
-288.1373023955238
 30
0.0
  0
VERTEX
  5
124
330
116
100
AcDbEntity
  8
Layer 1
370
     0
100
AcDbVertex
100
AcDb2dVertex
 10
145.0148974744868
 20
-282.4310184885302
 30
0.0
  0
VERTEX
  5
125
330
116
100
AcDbEntity
  8
Layer 1
370
     0
100
AcDbVertex
100
AcDb2dVertex
 10
150.7211813814803
 20
-282.4310184885302
 30
0.0
  0
VERTEX
  5
126
330
116
100
AcDbEntity
  8
Layer 1
370
     0
100
AcDbVertex
100
AcDb2dVertex
 10
150.7211813814803
 20
-276.7249068363109
 30
0.0
  0
VERTEX
  5
127
330
116
100
AcDbEntity
  8
Layer 1
370
     0
100
AcDbVertex
100
AcDb2dVertex
 10
156.4272930336996
 20
-276.7249068363109
 30
0.0
  0
VERTEX
  5
128
330
116
100
AcDbEntity
  8
Layer 1
370
     0
100
AcDbVertex
100
AcDb2dVertex
 10
162.1335769406932
 20
-276.7249068363109
 30
0.0
  0
VERTEX
  5
129
330
116
100
AcDbEntity
  8
Layer 1
370
     0
100
AcDbVertex
100
AcDb2dVertex
 10
167.8396885929125
 20
-276.7249068363109
 30
0.0
  0
VERTEX
  5
12A
330
116
100
AcDbEntity
  8
Layer 1
370
     0
100
AcDbVertex
100
AcDb2dVertex
 10
173.5458002451318
 20
-276.7249068363109
 30
0.0
  0
VERTEX
  5
12B
330
116
100
AcDbEntity
  8
Layer 1
370
     0
100
AcDbVertex
100
AcDb2dVertex
 10
179.2522564068996
 20
-276.7249068363109
 30
0.0
  0
VERTEX
  5
12C
330
116
100
AcDbEntity
  8
Layer 1
370
     0
100
AcDbVertex
100
AcDb2dVertex
 10
184.958368059119
 20
-276.7249068363109
 30
0.0
  0
VERTEX
  5
12D
330
116
100
AcDbEntity
  8
Layer 1
370
     0
100
AcDbVertex
100
AcDb2dVertex
 10
184.958368059119
 20
-282.4310184885302
 30
0.0
  0
VERTEX
  5
12E
330
116
100
AcDbEntity
  8
Layer 1
370
     0
100
AcDbVertex
100
AcDb2dVertex
 10
184.958368059119
 20
-288.1373023955238
 30
0.0
  0
VERTEX
  5
12F
330
116
100
AcDbEntity
  8
Layer 1
370
     0
100
AcDbVertex
100
AcDb2dVertex
 10
184.958368059119
 20
-293.8435863025174
 30
0.0
  0
VERTEX
  5
130
330
116
100
AcDbEntity
  8
Layer 1
370
     0
100
AcDbVertex
100
AcDb2dVertex
 10
184.958368059119
 20
-299.5496979547367
 30
0.0
  0
VERTEX
  5
131
330
116
100
AcDbEntity
  8
Layer 1
370
     0
100
AcDbVertex
100
AcDb2dVertex
 10
184.958368059119
 20
-305.2559818617303
 30
0.0
  0
VERTEX
  5
132
330
116
100
AcDbEntity
  8
Layer 1
370
     0
100
AcDbVertex
100
AcDb2dVertex
 10
184.958368059119
 20
-310.9620935139495
 30
0.0
  0
VERTEX
  5
133
330
116
100
AcDbEntity
  8
Layer 1
370
     0
100
AcDbVertex
100
AcDb2dVertex
 10
184.958368059119
 20
-316.6683774209431
 30
0.0
  0
VERTEX
  5
134
330
116
100
AcDbEntity
  8
Layer 1
370
     0
100
AcDbVertex
100
AcDb2dVertex
 10
184.958368059119
 20
-322.3744890731624
 30
0.0
  0
VERTEX
  5
135
330
116
100
AcDbEntity
  8
Layer 1
370
     0
100
AcDbVertex
100
AcDb2dVertex
 10
179.2522564068996
 20
-322.3744890731624
 30
0.0
  0
VERTEX
  5
136
330
116
100
AcDbEntity
  8
Layer 1
370
     0
100
AcDbVertex
100
AcDb2dVertex
 10
179.2522564068996
 20
-328.080772980156
 30
0.0
  0
VERTEX
  5
137
330
116
100
AcDbEntity
  8
Layer 1
370
     0
100
AcDbVertex
100
AcDb2dVertex
 10
173.5458002451318
 20
-328.080772980156
 30
0.0
  0
SEQEND
  5
138
330
116
100
AcDbEntity
  8
Layer 1
370
     0
  0
POLYLINE
  5
139
330
5D
100
AcDbEntity
  8
Layer 1
370
     0
100
AcDb2dPolyline
 66
     1
 10
0.0
 20
0.0
 30
0.0
  0
VERTEX
  5
13A
330
139
100
AcDbEntity
  8
Layer 1
370
     0
100
AcDbVertex
100
AcDb2dVertex
 10
162.1335769406932
 20
-322.3744890731624
 30
0.0
  0
VERTEX
  5
13B
330
139
100
AcDbEntity
  8
Layer 1
370
     0
100
AcDbVertex
100
AcDb2dVertex
 10
167.8396885929125
 20
-322.3744890731624
 30
0.0
  0
VERTEX
  5
13C
330
139
100
AcDbEntity
  8
Layer 1
370
     0
100
AcDbVertex
100
AcDb2dVertex
 10
167.8396885929125
 20
-316.6683774209431
 30
0.0
  0
VERTEX
  5
13D
330
139
100
AcDbEntity
  8
Layer 1
370
     0
100
AcDbVertex
100
AcDb2dVertex
 10
167.8396885929125
 20
-310.9620935139495
 30
0.0
  0
VERTEX
  5
13E
330
139
100
AcDbEntity
  8
Layer 1
370
     0
100
AcDbVertex
100
AcDb2dVertex
 10
167.8396885929125
 20
-305.2559818617303
 30
0.0
  0
VERTEX
  5
13F
330
139
100
AcDbEntity
  8
Layer 1
370
     0
100
AcDbVertex
100
AcDb2dVertex
 10
162.1335769406932
 20
-305.2559818617303
 30
0.0
  0
VERTEX
  5
140
330
139
100
AcDbEntity
  8
Layer 1
370
     0
100
AcDbVertex
100
AcDb2dVertex
 10
156.4272930336996
 20
-305.2559818617303
 30
0.0
  0
VERTEX
  5
141
330
139
100
AcDbEntity
  8
Layer 1
370
     0
100
AcDbVertex
100
AcDb2dVertex
 10
156.4272930336996
 20
-299.5496979547367
 30
0.0
  0
VERTEX
  5
142
330
139
100
AcDbEntity
  8
Layer 1
370
     0
100
AcDbVertex
100
AcDb2dVertex
 10
162.1335769406932
 20
-299.5496979547367
 30
0.0
  0
VERTEX
  5
143
330
139
100
AcDbEntity
  8
Layer 1
370
     0
100
AcDbVertex
100
AcDb2dVertex
 10
167.8396885929125
 20
-299.5496979547367
 30
0.0
  0
VERTEX
  5
144
330
139
100
AcDbEntity
  8
Layer 1
370
     0
100
AcDbVertex
100
AcDb2dVertex
 10
167.8396885929125
 20
-293.8435863025174
 30
0.0
  0
VERTEX
  5
145
330
139
100
AcDbEntity
  8
Layer 1
370
     0
100
AcDbVertex
100
AcDb2dVertex
 10
162.1335769406932
 20
-293.8435863025174
 30
0.0
  0
VERTEX
  5
146
330
139
100
AcDbEntity
  8
Layer 1
370
     0
100
AcDbVertex
100
AcDb2dVertex
 10
156.4272930336996
 20
-293.8435863025174
 30
0.0
  0
VERTEX
  5
147
330
139
100
AcDbEntity
  8
Layer 1
370
     0
100
AcDbVertex
100
AcDb2dVertex
 10
150.7211813814803
 20
-293.8435863025174
 30
0.0
  0
VERTEX
  5
148
330
139
100
AcDbEntity
  8
Layer 1
370
     0
100
AcDbVertex
100
AcDb2dVertex
 10
150.7211813814803
 20
-299.5496979547367
 30
0.0
  0
VERTEX
  5
149
330
139
100
AcDbEntity
  8
Layer 1
370
     0
100
AcDbVertex
100
AcDb2dVertex
 10
150.7211813814803
 20
-305.2559818617303
 30
0.0
  0
VERTEX
  5
14A
330
139
100
AcDbEntity
  8
Layer 1
370
     0
100
AcDbVertex
100
AcDb2dVertex
 10
150.7211813814803
 20
-310.9620935139495
 30
0.0
  0
VERTEX
  5
14B
330
139
100
AcDbEntity
  8
Layer 1
370
     0
100
AcDbVertex
100
AcDb2dVertex
 10
156.4272930336996
 20
-310.9620935139495
 30
0.0
  0
VERTEX
  5
14C
330
139
100
AcDbEntity
  8
Layer 1
370
     0
100
AcDbVertex
100
AcDb2dVertex
 10
162.1335769406932
 20
-310.9620935139495
 30
0.0
  0
VERTEX
  5
14D
330
139
100
AcDbEntity
  8
Layer 1
370
     0
100
AcDbVertex
100
AcDb2dVertex
 10
162.1335769406932
 20
-316.6683774209431
 30
0.0
  0
VERTEX
  5
14E
330
139
100
AcDbEntity
  8
Layer 1
370
     0
100
AcDbVertex
100
AcDb2dVertex
 10
156.4272930336996
 20
-316.6683774209431
 30
0.0
  0
VERTEX
  5
14F
330
139
100
AcDbEntity
  8
Layer 1
370
     0
100
AcDbVertex
100
AcDb2dVertex
 10
150.7211813814803
 20
-316.6683774209431
 30
0.0
  0
VERTEX
  5
150
330
139
100
AcDbEntity
  8
Layer 1
370
     0
100
AcDbVertex
100
AcDb2dVertex
 10
150.7211813814803
 20
-322.3744890731624
 30
0.0
  0
VERTEX
  5
151
330
139
100
AcDbEntity
  8
Layer 1
370
     0
100
AcDbVertex
100
AcDb2dVertex
 10
156.4272930336996
 20
-322.3744890731624
 30
0.0
  0
VERTEX
  5
152
330
139
100
AcDbEntity
  8
Layer 1
370
     0
100
AcDbVertex
100
AcDb2dVertex
 10
162.1335769406932
 20
-322.3744890731624
 30
0.0
  0
SEQEND
  5
153
330
139
100
AcDbEntity
  8
Layer 1
370
     0
  0
HATCH
  5
154
330
5D
100
AcDbEntity
  8
Layer 1
 62
   179
420
  1842203
100
AcDbHatch
 10
0.0
 20
0.0
 30
0.0
210
0.0
220
0.0
230
1.0
  2
SOLID
 70
     1
 71
     0
 91
        2
 92
        1
 93
       32
 72
     1
 10
173.5458002451318
 20
-328.080772980156
 11
167.8396885929125
 21
-328.080772980156
 72
     1
 10
167.8396885929125
 20
-328.080772980156
 11
162.1335769406932
 21
-328.080772980156
 72
     1
 10
162.1335769406932
 20
-328.080772980156
 11
156.4272930336996
 21
-328.080772980156
 72
     1
 10
156.4272930336996
 20
-328.080772980156
 11
150.7211813814803
 21
-328.080772980156
 72
     1
 10
150.7211813814803
 20
-328.080772980156
 11
145.0148974744868
 21
-328.080772980156
 72
     1
 10
145.0148974744868
 20
-328.080772980156
 11
145.0148974744868
 21
-322.3744890731624
 72
     1
 10
145.0148974744868
 20
-322.3744890731624
 11
145.0148974744868
 21
-316.6683774209431
 72
     1
 10
145.0148974744868
 20
-316.6683774209431
 11
145.0148974744868
 21
-310.9620935139495
 72
     1
 10
145.0148974744868
 20
-310.9620935139495
 11
145.0148974744868
 21
-305.2559818617303
 72
     1
 10
145.0148974744868
 20
-305.2559818617303
 11
145.0148974744868
 21
-299.5496979547367
 72
     1
 10
145.0148974744868
 20
-299.5496979547367
 11
145.0148974744868
 21
-293.8435863025174
 72
     1
 10
145.0148974744868
 20
-293.8435863025174
 11
145.0148974744868
 21
-288.1373023955238
 72
     1
 10
145.0148974744868
 20
-288.1373023955238
 11
145.0148974744868
 21
-282.4310184885302
 72
     1
 10
145.0148974744868
 20
-282.4310184885302
 11
150.7211813814803
 21
-282.4310184885302
 72
     1
 10
150.7211813814803
 20
-282.4310184885302
 11
150.7211813814803
 21
-276.7249068363109
 72
     1
 10
150.7211813814803
 20
-276.7249068363109
 11
156.4272930336996
 21
-276.7249068363109
 72
     1
 10
156.4272930336996
 20
-276.7249068363109
 11
162.1335769406932
 21
-276.7249068363109
 72
     1
 10
162.1335769406932
 20
-276.7249068363109
 11
167.8396885929125
 21
-276.7249068363109
 72
     1
 10
167.8396885929125
 20
-276.7249068363109
 11
173.5458002451318
 21
-276.7249068363109
 72
     1
 10
173.5458002451318
 20
-276.7249068363109
 11
179.2522564068996
 21
-276.7249068363109
 72
     1
 10
179.2522564068996
 20
-276.7249068363109
 11
184.958368059119
 21
-276.7249068363109
 72
     1
 10
184.958368059119
 20
-276.7249068363109
 11
184.958368059119
 21
-282.4310184885302
 72
     1
 10
184.958368059119
 20
-282.4310184885302
 11
184.958368059119
 21
-288.1373023955238
 72
     1
 10
184.958368059119
 20
-288.1373023955238
 11
184.958368059119
 21
-293.8435863025174
 72
     1
 10
184.958368059119
 20
-293.8435863025174
 11
184.958368059119
 21
-299.5496979547367
 72
     1
 10
184.958368059119
 20
-299.5496979547367
 11
184.958368059119
 21
-305.2559818617303
 72
     1
 10
184.958368059119
 20
-305.2559818617303
 11
184.958368059119
 21
-310.9620935139495
 72
     1
 10
184.958368059119
 20
-310.9620935139495
 11
184.958368059119
 21
-316.6683774209431
 72
     1
 10
184.958368059119
 20
-316.6683774209431
 11
184.958368059119
 21
-322.3744890731624
 72
     1
 10
184.958368059119
 20
-322.3744890731624
 11
179.2522564068996
 21
-322.3744890731624
 72
     1
 10
179.2522564068996
 20
-322.3744890731624
 11
179.2522564068996
 21
-328.080772980156
 72
     1
 10
179.2522564068996
 20
-328.080772980156
 11
173.5458002451318
 21
-328.080772980156
 97
        0
 92
        1
 93
       24
 72
     1
 10
162.1335769406932
 20
-322.3744890731624
 11
167.8396885929125
 21
-322.3744890731624
 72
     1
 10
167.8396885929125
 20
-322.3744890731624
 11
167.8396885929125
 21
-316.6683774209431
 72
     1
 10
167.8396885929125
 20
-316.6683774209431
 11
167.8396885929125
 21
-310.9620935139495
 72
     1
 10
167.8396885929125
 20
-310.9620935139495
 11
167.8396885929125
 21
-305.2559818617303
 72
     1
 10
167.8396885929125
 20
-305.2559818617303
 11
162.1335769406932
 21
-305.2559818617303
 72
     1
 10
162.1335769406932
 20
-305.2559818617303
 11
156.4272930336996
 21
-305.2559818617303
 72
     1
 10
156.4272930336996
 20
-305.2559818617303
 11
156.4272930336996
 21
-299.5496979547367
 72
     1
 10
156.4272930336996
 20
-299.5496979547367
 11
162.1335769406932
 21
-299.5496979547367
 72
     1
 10
162.1335769406932
 20
-299.5496979547367
 11
167.8396885929125
 21
-299.5496979547367
 72
     1
 10
167.8396885929125
 20
-299.5496979547367
 11
167.8396885929125
 21
-293.8435863025174
 72
     1
 10
167.8396885929125
 20
-293.8435863025174
 11
162.1335769406932
 21
-293.8435863025174
 72
     1
 10
162.1335769406932
 20
-293.8435863025174
 11
156.4272930336996
 21
-293.8435863025174
 72
     1
 10
156.4272930336996
 20
-293.8435863025174
 11
150.7211813814803
 21
-293.8435863025174
 72
     1
 10
150.7211813814803
 20
-293.8435863025174
 11
150.7211813814803
 21
-299.5496979547367
 72
     1
 10
150.7211813814803
 20
-299.5496979547367
 11
150.7211813814803
 21
-305.2559818617303
 72
     1
 10
150.7211813814803
 20
-305.2559818617303
 11
150.7211813814803
 21
-310.9620935139495
 72
     1
 10
150.7211813814803
 20
-310.9620935139495
 11
156.4272930336996
 21
-310.9620935139495
 72
     1
 10
156.4272930336996
 20
-310.9620935139495
 11
162.1335769406932
 21
-310.9620935139495
 72
     1
 10
162.1335769406932
 20
-310.9620935139495
 11
162.1335769406932
 21
-316.6683774209431
 72
     1
 10
162.1335769406932
 20
-316.6683774209431
 11
156.4272930336996
 21
-316.6683774209431
 72
     1
 10
156.4272930336996
 20
-316.6683774209431
 11
150.7211813814803
 21
-316.6683774209431
 72
     1
 10
150.7211813814803
 20
-316.6683774209431
 11
150.7211813814803
 21
-322.3744890731624
 72
     1
 10
150.7211813814803
 20
-322.3744890731624
 11
156.4272930336996
 21
-322.3744890731624
 72
     1
 10
156.4272930336996
 20
-322.3744890731624
 11
162.1335769406932
 21
-322.3744890731624
 97
        0
 75
     2
 76
     1
 98
        0
  0
POLYLINE
  5
155
330
5D
100
AcDbEntity
  8
Layer 1
370
     0
100
AcDb2dPolyline
 66
     1
 10
0.0
 20
0.0
 30
0.0
  0
VERTEX
  5
156
330
155
100
AcDbEntity
  8
Layer 1
370
     0
100
AcDbVertex
100
AcDb2dVertex
 10
207.7831591775447
 20
-328.080772980156
 30
0.0
  0
VERTEX
  5
157
330
155
100
AcDbEntity
  8
Layer 1
370
     0
100
AcDbVertex
100
AcDb2dVertex
 10
202.0770475253254
 20
-328.080772980156
 30
0.0
  0
VERTEX
  5
158
330
155
100
AcDbEntity
  8
Layer 1
370
     0
100
AcDbVertex
100
AcDb2dVertex
 10
196.3705913635576
 20
-328.080772980156
 30
0.0
  0
VERTEX
  5
159
330
155
100
AcDbEntity
  8
Layer 1
370
     0
100
AcDbVertex
100
AcDb2dVertex
 10
190.6644797113383
 20
-328.080772980156
 30
0.0
  0
VERTEX
  5
15A
330
155
100
AcDbEntity
  8
Layer 1
370
     0
100
AcDbVertex
100
AcDb2dVertex
 10
190.6644797113383
 20
-322.3744890731624
 30
0.0
  0
VERTEX
  5
15B
330
155
100
AcDbEntity
  8
Layer 1
370
     0
100
AcDbVertex
100
AcDb2dVertex
 10
190.6644797113383
 20
-316.6683774209431
 30
0.0
  0
VERTEX
  5
15C
330
155
100
AcDbEntity
  8
Layer 1
370
     0
100
AcDbVertex
100
AcDb2dVertex
 10
190.6644797113383
 20
-310.9620935139495
 30
0.0
  0
VERTEX
  5
15D
330
155
100
AcDbEntity
  8
Layer 1
370
     0
100
AcDbVertex
100
AcDb2dVertex
 10
190.6644797113383
 20
-305.2559818617303
 30
0.0
  0
VERTEX
  5
15E
330
155
100
AcDbEntity
  8
Layer 1
370
     0
100
AcDbVertex
100
AcDb2dVertex
 10
196.3705913635576
 20
-305.2559818617303
 30
0.0
  0
VERTEX
  5
15F
330
155
100
AcDbEntity
  8
Layer 1
370
     0
100
AcDbVertex
100
AcDb2dVertex
 10
196.3705913635576
 20
-299.5496979547367
 30
0.0
  0
VERTEX
  5
160
330
155
100
AcDbEntity
  8
Layer 1
370
     0
100
AcDbVertex
100
AcDb2dVertex
 10
202.0770475253254
 20
-299.5496979547367
 30
0.0
  0
VERTEX
  5
161
330
155
100
AcDbEntity
  8
Layer 1
370
     0
100
AcDbVertex
100
AcDb2dVertex
 10
207.7831591775447
 20
-299.5496979547367
 30
0.0
  0
VERTEX
  5
162
330
155
100
AcDbEntity
  8
Layer 1
370
     0
100
AcDbVertex
100
AcDb2dVertex
 10
213.489270829764
 20
-299.5496979547367
 30
0.0
  0
VERTEX
  5
163
330
155
100
AcDbEntity
  8
Layer 1
370
     0
100
AcDbVertex
100
AcDb2dVertex
 10
219.1953824819833
 20
-299.5496979547367
 30
0.0
  0
VERTEX
  5
164
330
155
100
AcDbEntity
  8
Layer 1
370
     0
100
AcDbVertex
100
AcDb2dVertex
 10
219.1953824819833
 20
-305.2559818617303
 30
0.0
  0
VERTEX
  5
165
330
155
100
AcDbEntity
  8
Layer 1
370
     0
100
AcDbVertex
100
AcDb2dVertex
 10
219.1953824819833
 20
-310.9620935139495
 30
0.0
  0
VERTEX
  5
166
330
155
100
AcDbEntity
  8
Layer 1
370
     0
100
AcDbVertex
100
AcDb2dVertex
 10
219.1953824819833
 20
-316.6683774209431
 30
0.0
  0
VERTEX
  5
167
330
155
100
AcDbEntity
  8
Layer 1
370
     0
100
AcDbVertex
100
AcDb2dVertex
 10
219.1953824819833
 20
-322.3744890731624
 30
0.0
  0
VERTEX
  5
168
330
155
100
AcDbEntity
  8
Layer 1
370
     0
100
AcDbVertex
100
AcDb2dVertex
 10
213.489270829764
 20
-322.3744890731624
 30
0.0
  0
VERTEX
  5
169
330
155
100
AcDbEntity
  8
Layer 1
370
     0
100
AcDbVertex
100
AcDb2dVertex
 10
213.489270829764
 20
-328.080772980156
 30
0.0
  0
VERTEX
  5
16A
330
155
100
AcDbEntity
  8
Layer 1
370
     0
100
AcDbVertex
100
AcDb2dVertex
 10
207.7831591775447
 20
-328.080772980156
 30
0.0
  0
SEQEND
  5
16B
330
155
100
AcDbEntity
  8
Layer 1
370
     0
  0
POLYLINE
  5
16C
330
5D
100
AcDbEntity
  8
Layer 1
370
     0
100
AcDb2dPolyline
 66
     1
 10
0.0
 20
0.0
 30
0.0
  0
VERTEX
  5
16D
330
16C
100
AcDbEntity
  8
Layer 1
370
     0
100
AcDbVertex
100
AcDb2dVertex
 10
202.0770475253254
 20
-322.3744890731624
 30
0.0
  0
VERTEX
  5
16E
330
16C
100
AcDbEntity
  8
Layer 1
370
     0
100
AcDbVertex
100
AcDb2dVertex
 10
202.0770475253254
 20
-316.6683774209431
 30
0.0
  0
VERTEX
  5
16F
330
16C
100
AcDbEntity
  8
Layer 1
370
     0
100
AcDbVertex
100
AcDb2dVertex
 10
196.3705913635576
 20
-316.6683774209431
 30
0.0
  0
VERTEX
  5
170
330
16C
100
AcDbEntity
  8
Layer 1
370
     0
100
AcDbVertex
100
AcDb2dVertex
 10
196.3705913635576
 20
-322.3744890731624
 30
0.0
  0
VERTEX
  5
171
330
16C
100
AcDbEntity
  8
Layer 1
370
     0
100
AcDbVertex
100
AcDb2dVertex
 10
202.0770475253254
 20
-322.3744890731624
 30
0.0
  0
SEQEND
  5
172
330
16C
100
AcDbEntity
  8
Layer 1
370
     0
  0
HATCH
  5
173
330
5D
100
AcDbEntity
  8
Layer 1
 62
   179
420
  1842203
100
AcDbHatch
 10
0.0
 20
0.0
 30
0.0
210
0.0
220
0.0
230
1.0
  2
SOLID
 70
     1
 71
     0
 91
        2
 92
        1
 93
       20
 72
     1
 10
207.7831591775447
 20
-328.080772980156
 11
202.0770475253254
 21
-328.080772980156
 72
     1
 10
202.0770475253254
 20
-328.080772980156
 11
196.3705913635576
 21
-328.080772980156
 72
     1
 10
196.3705913635576
 20
-328.080772980156
 11
190.6644797113383
 21
-328.080772980156
 72
     1
 10
190.6644797113383
 20
-328.080772980156
 11
190.6644797113383
 21
-322.3744890731624
 72
     1
 10
190.6644797113383
 20
-322.3744890731624
 11
190.6644797113383
 21
-316.6683774209431
 72
     1
 10
190.6644797113383
 20
-316.6683774209431
 11
190.6644797113383
 21
-310.9620935139495
 72
     1
 10
190.6644797113383
 20
-310.9620935139495
 11
190.6644797113383
 21
-305.2559818617303
 72
     1
 10
190.6644797113383
 20
-305.2559818617303
 11
196.3705913635576
 21
-305.2559818617303
 72
     1
 10
196.3705913635576
 20
-305.2559818617303
 11
196.3705913635576
 21
-299.5496979547367
 72
     1
 10
196.3705913635576
 20
-299.5496979547367
 11
202.0770475253254
 21
-299.5496979547367
 72
     1
 10
202.0770475253254
 20
-299.5496979547367
 11
207.7831591775447
 21
-299.5496979547367
 72
     1
 10
207.7831591775447
 20
-299.5496979547367
 11
213.489270829764
 21
-299.5496979547367
 72
     1
 10
213.489270829764
 20
-299.5496979547367
 11
219.1953824819833
 21
-299.5496979547367
 72
     1
 10
219.1953824819833
 20
-299.5496979547367
 11
219.1953824819833
 21
-305.2559818617303
 72
     1
 10
219.1953824819833
 20
-305.2559818617303
 11
219.1953824819833
 21
-310.9620935139495
 72
     1
 10
219.1953824819833
 20
-310.9620935139495
 11
219.1953824819833
 21
-316.6683774209431
 72
     1
 10
219.1953824819833
 20
-316.6683774209431
 11
219.1953824819833
 21
-322.3744890731624
 72
     1
 10
219.1953824819833
 20
-322.3744890731624
 11
213.489270829764
 21
-322.3744890731624
 72
     1
 10
213.489270829764
 20
-322.3744890731624
 11
213.489270829764
 21
-328.080772980156
 72
     1
 10
213.489270829764
 20
-328.080772980156
 11
207.7831591775447
 21
-328.080772980156
 97
        0
 92
        1
 93
        4
 72
     1
 10
202.0770475253254
 20
-322.3744890731624
 11
202.0770475253254
 21
-316.6683774209431
 72
     1
 10
202.0770475253254
 20
-316.6683774209431
 11
196.3705913635576
 21
-316.6683774209431
 72
     1
 10
196.3705913635576
 20
-316.6683774209431
 11
196.3705913635576
 21
-322.3744890731624
 72
     1
 10
196.3705913635576
 20
-322.3744890731624
 11
202.0770475253254
 21
-322.3744890731624
 97
        0
 75
     2
 76
     1
 98
        0
  0
POLYLINE
  5
174
330
5D
100
AcDbEntity
  8
Layer 1
370
     0
100
AcDb2dPolyline
 66
     1
 10
0.0
 20
0.0
 30
0.0
  0
VERTEX
  5
175
330
174
100
AcDbEntity
  8
Layer 1
370
     0
100
AcDbVertex
100
AcDb2dVertex
 10
253.4327414143962
 20
-328.080772980156
 30
0.0
  0
VERTEX
  5
176
330
174
100
AcDbEntity
  8
Layer 1
370
     0
100
AcDbVertex
100
AcDb2dVertex
 10
247.7266297621769
 20
-328.080772980156
 30
0.0
  0
VERTEX
  5
177
330
174
100
AcDbEntity
  8
Layer 1
370
     0
100
AcDbVertex
100
AcDb2dVertex
 10
242.0205181099576
 20
-328.080772980156
 30
0.0
  0
VERTEX
  5
178
330
174
100
AcDbEntity
  8
Layer 1
370
     0
100
AcDbVertex
100
AcDb2dVertex
 10
236.3144064577383
 20
-328.080772980156
 30
0.0
  0
VERTEX
  5
179
330
174
100
AcDbEntity
  8
Layer 1
370
     0
100
AcDbVertex
100
AcDb2dVertex
 10
230.6079502959705
 20
-328.080772980156
 30
0.0
  0
VERTEX
  5
17A
330
174
100
AcDbEntity
  8
Layer 1
370
     0
100
AcDbVertex
100
AcDb2dVertex
 10
224.9018386437511
 20
-328.080772980156
 30
0.0
  0
VERTEX
  5
17B
330
174
100
AcDbEntity
  8
Layer 1
370
     0
100
AcDbVertex
100
AcDb2dVertex
 10
224.9018386437511
 20
-322.3744890731624
 30
0.0
  0
VERTEX
  5
17C
330
174
100
AcDbEntity
  8
Layer 1
370
     0
100
AcDbVertex
100
AcDb2dVertex
 10
224.9018386437511
 20
-316.6683774209431
 30
0.0
  0
VERTEX
  5
17D
330
174
100
AcDbEntity
  8
Layer 1
370
     0
100
AcDbVertex
100
AcDb2dVertex
 10
224.9018386437511
 20
-310.9620935139495
 30
0.0
  0
VERTEX
  5
17E
330
174
100
AcDbEntity
  8
Layer 1
370
     0
100
AcDbVertex
100
AcDb2dVertex
 10
224.9018386437511
 20
-305.2559818617303
 30
0.0
  0
VERTEX
  5
17F
330
174
100
AcDbEntity
  8
Layer 1
370
     0
100
AcDbVertex
100
AcDb2dVertex
 10
224.9018386437511
 20
-299.5496979547367
 30
0.0
  0
VERTEX
  5
180
330
174
100
AcDbEntity
  8
Layer 1
370
     0
100
AcDbVertex
100
AcDb2dVertex
 10
224.9018386437511
 20
-293.8435863025174
 30
0.0
  0
VERTEX
  5
181
330
174
100
AcDbEntity
  8
Layer 1
370
     0
100
AcDbVertex
100
AcDb2dVertex
 10
224.9018386437511
 20
-288.1373023955238
 30
0.0
  0
VERTEX
  5
182
330
174
100
AcDbEntity
  8
Layer 1
370
     0
100
AcDbVertex
100
AcDb2dVertex
 10
224.9018386437511
 20
-282.4310184885302
 30
0.0
  0
VERTEX
  5
183
330
174
100
AcDbEntity
  8
Layer 1
370
     0
100
AcDbVertex
100
AcDb2dVertex
 10
230.6079502959705
 20
-282.4310184885302
 30
0.0
  0
VERTEX
  5
184
330
174
100
AcDbEntity
  8
Layer 1
370
     0
100
AcDbVertex
100
AcDb2dVertex
 10
230.6079502959705
 20
-276.7249068363109
 30
0.0
  0
VERTEX
  5
185
330
174
100
AcDbEntity
  8
Layer 1
370
     0
100
AcDbVertex
100
AcDb2dVertex
 10
236.3144064577383
 20
-276.7249068363109
 30
0.0
  0
VERTEX
  5
186
330
174
100
AcDbEntity
  8
Layer 1
370
     0
100
AcDbVertex
100
AcDb2dVertex
 10
242.0205181099576
 20
-276.7249068363109
 30
0.0
  0
VERTEX
  5
187
330
174
100
AcDbEntity
  8
Layer 1
370
     0
100
AcDbVertex
100
AcDb2dVertex
 10
247.7266297621769
 20
-276.7249068363109
 30
0.0
  0
VERTEX
  5
188
330
174
100
AcDbEntity
  8
Layer 1
370
     0
100
AcDbVertex
100
AcDb2dVertex
 10
253.4327414143962
 20
-276.7249068363109
 30
0.0
  0
VERTEX
  5
189
330
174
100
AcDbEntity
  8
Layer 1
370
     0
100
AcDbVertex
100
AcDb2dVertex
 10
259.1391975761641
 20
-276.7249068363109
 30
0.0
  0
VERTEX
  5
18A
330
174
100
AcDbEntity
  8
Layer 1
370
     0
100
AcDbVertex
100
AcDb2dVertex
 10
264.8453092283834
 20
-276.7249068363109
 30
0.0
  0
VERTEX
  5
18B
330
174
100
AcDbEntity
  8
Layer 1
370
     0
100
AcDbVertex
100
AcDb2dVertex
 10
264.8453092283834
 20
-282.4310184885302
 30
0.0
  0
VERTEX
  5
18C
330
174
100
AcDbEntity
  8
Layer 1
370
     0
100
AcDbVertex
100
AcDb2dVertex
 10
264.8453092283834
 20
-288.1373023955238
 30
0.0
  0
VERTEX
  5
18D
330
174
100
AcDbEntity
  8
Layer 1
370
     0
100
AcDbVertex
100
AcDb2dVertex
 10
264.8453092283834
 20
-293.8435863025174
 30
0.0
  0
VERTEX
  5
18E
330
174
100
AcDbEntity
  8
Layer 1
370
     0
100
AcDbVertex
100
AcDb2dVertex
 10
264.8453092283834
 20
-299.5496979547367
 30
0.0
  0
VERTEX
  5
18F
330
174
100
AcDbEntity
  8
Layer 1
370
     0
100
AcDbVertex
100
AcDb2dVertex
 10
264.8453092283834
 20
-305.2559818617303
 30
0.0
  0
VERTEX
  5
190
330
174
100
AcDbEntity
  8
Layer 1
370
     0
100
AcDbVertex
100
AcDb2dVertex
 10
264.8453092283834
 20
-310.9620935139495
 30
0.0
  0
VERTEX
  5
191
330
174
100
AcDbEntity
  8
Layer 1
370
     0
100
AcDbVertex
100
AcDb2dVertex
 10
264.8453092283834
 20
-316.6683774209431
 30
0.0
  0
VERTEX
  5
192
330
174
100
AcDbEntity
  8
Layer 1
370
     0
100
AcDbVertex
100
AcDb2dVertex
 10
264.8453092283834
 20
-322.3744890731624
 30
0.0
  0
VERTEX
  5
193
330
174
100
AcDbEntity
  8
Layer 1
370
     0
100
AcDbVertex
100
AcDb2dVertex
 10
259.1391975761641
 20
-322.3744890731624
 30
0.0
  0
VERTEX
  5
194
330
174
100
AcDbEntity
  8
Layer 1
370
     0
100
AcDbVertex
100
AcDb2dVertex
 10
259.1391975761641
 20
-328.080772980156
 30
0.0
  0
VERTEX
  5
195
330
174
100
AcDbEntity
  8
Layer 1
370
     0
100
AcDbVertex
100
AcDb2dVertex
 10
253.4327414143962
 20
-328.080772980156
 30
0.0
  0
SEQEND
  5
196
330
174
100
AcDbEntity
  8
Layer 1
370
     0
  0
POLYLINE
  5
197
330
5D
100
AcDbEntity
  8
Layer 1
370
     0
100
AcDb2dPolyline
 66
     1
 10
0.0
 20
0.0
 30
0.0
  0
VERTEX
  5
198
330
197
100
AcDbEntity
  8
Layer 1
370
     0
100
AcDbVertex
100
AcDb2dVertex
 10
242.0205181099576
 20
-322.3744890731624
 30
0.0
  0
VERTEX
  5
199
330
197
100
AcDbEntity
  8
Layer 1
370
     0
100
AcDbVertex
100
AcDb2dVertex
 10
247.7266297621769
 20
-322.3744890731624
 30
0.0
  0
VERTEX
  5
19A
330
197
100
AcDbEntity
  8
Layer 1
370
     0
100
AcDbVertex
100
AcDb2dVertex
 10
247.7266297621769
 20
-316.6683774209431
 30
0.0
  0
VERTEX
  5
19B
330
197
100
AcDbEntity
  8
Layer 1
370
     0
100
AcDbVertex
100
AcDb2dVertex
 10
247.7266297621769
 20
-310.9620935139495
 30
0.0
  0
VERTEX
  5
19C
330
197
100
AcDbEntity
  8
Layer 1
370
     0
100
AcDbVertex
100
AcDb2dVertex
 10
247.7266297621769
 20
-305.2559818617303
 30
0.0
  0
VERTEX
  5
19D
330
197
100
AcDbEntity
  8
Layer 1
370
     0
100
AcDbVertex
100
AcDb2dVertex
 10
247.7266297621769
 20
-299.5496979547367
 30
0.0
  0
VERTEX
  5
19E
330
197
100
AcDbEntity
  8
Layer 1
370
     0
100
AcDbVertex
100
AcDb2dVertex
 10
242.0205181099576
 20
-299.5496979547367
 30
0.0
  0
VERTEX
  5
19F
330
197
100
AcDbEntity
  8
Layer 1
370
     0
100
AcDbVertex
100
AcDb2dVertex
 10
236.3144064577383
 20
-299.5496979547367
 30
0.0
  0
VERTEX
  5
1A0
330
197
100
AcDbEntity
  8
Layer 1
370
     0
100
AcDbVertex
100
AcDb2dVertex
 10
236.3144064577383
 20
-293.8435863025174
 30
0.0
  0
VERTEX
  5
1A1
330
197
100
AcDbEntity
  8
Layer 1
370
     0
100
AcDbVertex
100
AcDb2dVertex
 10
230.6079502959705
 20
-293.8435863025174
 30
0.0
  0
VERTEX
  5
1A2
330
197
100
AcDbEntity
  8
Layer 1
370
     0
100
AcDbVertex
100
AcDb2dVertex
 10
230.6079502959705
 20
-299.5496979547367
 30
0.0
  0
VERTEX
  5
1A3
330
197
100
AcDbEntity
  8
Layer 1
370
     0
100
AcDbVertex
100
AcDb2dVertex
 10
230.6079502959705
 20
-305.2559818617303
 30
0.0
  0
VERTEX
  5
1A4
330
197
100
AcDbEntity
  8
Layer 1
370
     0
100
AcDbVertex
100
AcDb2dVertex
 10
230.6079502959705
 20
-310.9620935139495
 30
0.0
  0
VERTEX
  5
1A5
330
197
100
AcDbEntity
  8
Layer 1
370
     0
100
AcDbVertex
100
AcDb2dVertex
 10
230.6079502959705
 20
-316.6683774209431
 30
0.0
  0
VERTEX
  5
1A6
330
197
100
AcDbEntity
  8
Layer 1
370
     0
100
AcDbVertex
100
AcDb2dVertex
 10
230.6079502959705
 20
-322.3744890731624
 30
0.0
  0
VERTEX
  5
1A7
330
197
100
AcDbEntity
  8
Layer 1
370
     0
100
AcDbVertex
100
AcDb2dVertex
 10
236.3144064577383
 20
-322.3744890731624
 30
0.0
  0
VERTEX
  5
1A8
330
197
100
AcDbEntity
  8
Layer 1
370
     0
100
AcDbVertex
100
AcDb2dVertex
 10
242.0205181099576
 20
-322.3744890731624
 30
0.0
  0
SEQEND
  5
1A9
330
197
100
AcDbEntity
  8
Layer 1
370
     0
  0
POLYLINE
  5
1AA
330
5D
100
AcDbEntity
  8
Layer 1
370
     0
100
AcDb2dPolyline
 66
     1
 10
0.0
 20
0.0
 30
0.0
  0
VERTEX
  5
1AB
330
1AA
100
AcDbEntity
  8
Layer 1
370
     0
100
AcDbVertex
100
AcDb2dVertex
 10
236.3144064577383
 20
-316.6683774209431
 30
0.0
  0
VERTEX
  5
1AC
330
1AA
100
AcDbEntity
  8
Layer 1
370
     0
100
AcDbVertex
100
AcDb2dVertex
 10
236.3144064577383
 20
-310.9620935139495
 30
0.0
  0
VERTEX
  5
1AD
330
1AA
100
AcDbEntity
  8
Layer 1
370
     0
100
AcDbVertex
100
AcDb2dVertex
 10
236.3144064577383
 20
-305.2559818617303
 30
0.0
  0
VERTEX
  5
1AE
330
1AA
100
AcDbEntity
  8
Layer 1
370
     0
100
AcDbVertex
100
AcDb2dVertex
 10
242.0205181099576
 20
-305.2559818617303
 30
0.0
  0
VERTEX
  5
1AF
330
1AA
100
AcDbEntity
  8
Layer 1
370
     0
100
AcDbVertex
100
AcDb2dVertex
 10
242.0205181099576
 20
-310.9620935139495
 30
0.0
  0
VERTEX
  5
1B0
330
1AA
100
AcDbEntity
  8
Layer 1
370
     0
100
AcDbVertex
100
AcDb2dVertex
 10
242.0205181099576
 20
-316.6683774209431
 30
0.0
  0
VERTEX
  5
1B1
330
1AA
100
AcDbEntity
  8
Layer 1
370
     0
100
AcDbVertex
100
AcDb2dVertex
 10
236.3144064577383
 20
-316.6683774209431
 30
0.0
  0
SEQEND
  5
1B2
330
1AA
100
AcDbEntity
  8
Layer 1
370
     0
  0
HATCH
  5
1B3
330
5D
100
AcDbEntity
  8
Layer 1
 62
   179
420
  1842203
100
AcDbHatch
 10
0.0
 20
0.0
 30
0.0
210
0.0
220
0.0
230
1.0
  2
SOLID
 70
     1
 71
     0
 91
        3
 92
        1
 93
       32
 72
     1
 10
253.4327414143962
 20
-328.080772980156
 11
247.7266297621769
 21
-328.080772980156
 72
     1
 10
247.7266297621769
 20
-328.080772980156
 11
242.0205181099576
 21
-328.080772980156
 72
     1
 10
242.0205181099576
 20
-328.080772980156
 11
236.3144064577383
 21
-328.080772980156
 72
     1
 10
236.3144064577383
 20
-328.080772980156
 11
230.6079502959705
 21
-328.080772980156
 72
     1
 10
230.6079502959705
 20
-328.080772980156
 11
224.9018386437511
 21
-328.080772980156
 72
     1
 10
224.9018386437511
 20
-328.080772980156
 11
224.9018386437511
 21
-322.3744890731624
 72
     1
 10
224.9018386437511
 20
-322.3744890731624
 11
224.9018386437511
 21
-316.6683774209431
 72
     1
 10
224.9018386437511
 20
-316.6683774209431
 11
224.9018386437511
 21
-310.9620935139495
 72
     1
 10
224.9018386437511
 20
-310.9620935139495
 11
224.9018386437511
 21
-305.2559818617303
 72
     1
 10
224.9018386437511
 20
-305.2559818617303
 11
224.9018386437511
 21
-299.5496979547367
 72
     1
 10
224.9018386437511
 20
-299.5496979547367
 11
224.9018386437511
 21
-293.8435863025174
 72
     1
 10
224.9018386437511
 20
-293.8435863025174
 11
224.9018386437511
 21
-288.1373023955238
 72
     1
 10
224.9018386437511
 20
-288.1373023955238
 11
224.9018386437511
 21
-282.4310184885302
 72
     1
 10
224.9018386437511
 20
-282.4310184885302
 11
230.6079502959705
 21
-282.4310184885302
 72
     1
 10
230.6079502959705
 20
-282.4310184885302
 11
230.6079502959705
 21
-276.7249068363109
 72
     1
 10
230.6079502959705
 20
-276.7249068363109
 11
236.3144064577383
 21
-276.7249068363109
 72
     1
 10
236.3144064577383
 20
-276.7249068363109
 11
242.0205181099576
 21
-276.7249068363109
 72
     1
 10
242.0205181099576
 20
-276.7249068363109
 11
247.7266297621769
 21
-276.7249068363109
 72
     1
 10
247.7266297621769
 20
-276.7249068363109
 11
253.4327414143962
 21
-276.7249068363109
 72
     1
 10
253.4327414143962
 20
-276.7249068363109
 11
259.1391975761641
 21
-276.7249068363109
 72
     1
 10
259.1391975761641
 20
-276.7249068363109
 11
264.8453092283834
 21
-276.7249068363109
 72
     1
 10
264.8453092283834
 20
-276.7249068363109
 11
264.8453092283834
 21
-282.4310184885302
 72
     1
 10
264.8453092283834
 20
-282.4310184885302
 11
264.8453092283834
 21
-288.1373023955238
 72
     1
 10
264.8453092283834
 20
-288.1373023955238
 11
264.8453092283834
 21
-293.8435863025174
 72
     1
 10
264.8453092283834
 20
-293.8435863025174
 11
264.8453092283834
 21
-299.5496979547367
 72
     1
 10
264.8453092283834
 20
-299.5496979547367
 11
264.8453092283834
 21
-305.2559818617303
 72
     1
 10
264.8453092283834
 20
-305.2559818617303
 11
264.8453092283834
 21
-310.9620935139495
 72
     1
 10
264.8453092283834
 20
-310.9620935139495
 11
264.8453092283834
 21
-316.6683774209431
 72
     1
 10
264.8453092283834
 20
-316.6683774209431
 11
264.8453092283834
 21
-322.3744890731624
 72
     1
 10
264.8453092283834
 20
-322.3744890731624
 11
259.1391975761641
 21
-322.3744890731624
 72
     1
 10
259.1391975761641
 20
-322.3744890731624
 11
259.1391975761641
 21
-328.080772980156
 72
     1
 10
259.1391975761641
 20
-328.080772980156
 11
253.4327414143962
 21
-328.080772980156
 97
        0
 92
        1
 93
       16
 72
     1
 10
242.0205181099576
 20
-322.3744890731624
 11
247.7266297621769
 21
-322.3744890731624
 72
     1
 10
247.7266297621769
 20
-322.3744890731624
 11
247.7266297621769
 21
-316.6683774209431
 72
     1
 10
247.7266297621769
 20
-316.6683774209431
 11
247.7266297621769
 21
-310.9620935139495
 72
     1
 10
247.7266297621769
 20
-310.9620935139495
 11
247.7266297621769
 21
-305.2559818617303
 72
     1
 10
247.7266297621769
 20
-305.2559818617303
 11
247.7266297621769
 21
-299.5496979547367
 72
     1
 10
247.7266297621769
 20
-299.5496979547367
 11
242.0205181099576
 21
-299.5496979547367
 72
     1
 10
242.0205181099576
 20
-299.5496979547367
 11
236.3144064577383
 21
-299.5496979547367
 72
     1
 10
236.3144064577383
 20
-299.5496979547367
 11
236.3144064577383
 21
-293.8435863025174
 72
     1
 10
236.3144064577383
 20
-293.8435863025174
 11
230.6079502959705
 21
-293.8435863025174
 72
     1
 10
230.6079502959705
 20
-293.8435863025174
 11
230.6079502959705
 21
-299.5496979547367
 72
     1
 10
230.6079502959705
 20
-299.5496979547367
 11
230.6079502959705
 21
-305.2559818617303
 72
     1
 10
230.6079502959705
 20
-305.2559818617303
 11
230.6079502959705
 21
-310.9620935139495
 72
     1
 10
230.6079502959705
 20
-310.9620935139495
 11
230.6079502959705
 21
-316.6683774209431
 72
     1
 10
230.6079502959705
 20
-316.6683774209431
 11
230.6079502959705
 21
-322.3744890731624
 72
     1
 10
230.6079502959705
 20
-322.3744890731624
 11
236.3144064577383
 21
-322.3744890731624
 72
     1
 10
236.3144064577383
 20
-322.3744890731624
 11
242.0205181099576
 21
-322.3744890731624
 97
        0
 92
        1
 93
        6
 72
     1
 10
236.3144064577383
 20
-316.6683774209431
 11
236.3144064577383
 21
-310.9620935139495
 72
     1
 10
236.3144064577383
 20
-310.9620935139495
 11
236.3144064577383
 21
-305.2559818617303
 72
     1
 10
236.3144064577383
 20
-305.2559818617303
 11
242.0205181099576
 21
-305.2559818617303
 72
     1
 10
242.0205181099576
 20
-305.2559818617303
 11
242.0205181099576
 21
-310.9620935139495
 72
     1
 10
242.0205181099576
 20
-310.9620935139495
 11
242.0205181099576
 21
-316.6683774209431
 72
     1
 10
242.0205181099576
 20
-316.6683774209431
 11
236.3144064577383
 21
-316.6683774209431
 97
        0
 75
     2
 76
     1
 98
        0
  0
POLYLINE
  5
1B4
330
5D
100
AcDbEntity
  8
Layer 1
370
     0
100
AcDb2dPolyline
 66
     1
 10
0.0
 20
0.0
 30
0.0
  0
VERTEX
  5
1B5
330
1B4
100
AcDbEntity
  8
Layer 1
370
     0
100
AcDbVertex
100
AcDb2dVertex
 10
299.0823236512477
 20
-328.080772980156
 30
0.0
  0
VERTEX
  5
1B6
330
1B4
100
AcDbEntity
  8
Layer 1
370
     0
100
AcDbVertex
100
AcDb2dVertex
 10
293.3762119990284
 20
-328.080772980156
 30
0.0
  0
VERTEX
  5
1B7
330
1B4
100
AcDbEntity
  8
Layer 1
370
     0
100
AcDbVertex
100
AcDb2dVertex
 10
287.6701003468091
 20
-328.080772980156
 30
0.0
  0
VERTEX
  5
1B8
330
1B4
100
AcDbEntity
  8
Layer 1
370
     0
100
AcDbVertex
100
AcDb2dVertex
 10
281.9639886945898
 20
-328.080772980156
 30
0.0
  0
VERTEX
  5
1B9
330
1B4
100
AcDbEntity
  8
Layer 1
370
     0
100
AcDbVertex
100
AcDb2dVertex
 10
276.257532532822
 20
-328.080772980156
 30
0.0
  0
VERTEX
  5
1BA
330
1B4
100
AcDbEntity
  8
Layer 1
370
     0
100
AcDbVertex
100
AcDb2dVertex
 10
270.5514208806027
 20
-328.080772980156
 30
0.0
  0
VERTEX
  5
1BB
330
1B4
100
AcDbEntity
  8
Layer 1
370
     0
100
AcDbVertex
100
AcDb2dVertex
 10
270.5514208806027
 20
-322.3744890731624
 30
0.0
  0
VERTEX
  5
1BC
330
1B4
100
AcDbEntity
  8
Layer 1
370
     0
100
AcDbVertex
100
AcDb2dVertex
 10
270.5514208806027
 20
-316.6683774209431
 30
0.0
  0
VERTEX
  5
1BD
330
1B4
100
AcDbEntity
  8
Layer 1
370
     0
100
AcDbVertex
100
AcDb2dVertex
 10
270.5514208806027
 20
-310.9620935139495
 30
0.0
  0
VERTEX
  5
1BE
330
1B4
100
AcDbEntity
  8
Layer 1
370
     0
100
AcDbVertex
100
AcDb2dVertex
 10
270.5514208806027
 20
-305.2559818617303
 30
0.0
  0
VERTEX
  5
1BF
330
1B4
100
AcDbEntity
  8
Layer 1
370
     0
100
AcDbVertex
100
AcDb2dVertex
 10
270.5514208806027
 20
-299.5496979547367
 30
0.0
  0
VERTEX
  5
1C0
330
1B4
100
AcDbEntity
  8
Layer 1
370
     0
100
AcDbVertex
100
AcDb2dVertex
 10
270.5514208806027
 20
-293.8435863025174
 30
0.0
  0
VERTEX
  5
1C1
330
1B4
100
AcDbEntity
  8
Layer 1
370
     0
100
AcDbVertex
100
AcDb2dVertex
 10
270.5514208806027
 20
-288.1373023955238
 30
0.0
  0
VERTEX
  5
1C2
330
1B4
100
AcDbEntity
  8
Layer 1
370
     0
100
AcDbVertex
100
AcDb2dVertex
 10
270.5514208806027
 20
-282.4310184885302
 30
0.0
  0
VERTEX
  5
1C3
330
1B4
100
AcDbEntity
  8
Layer 1
370
     0
100
AcDbVertex
100
AcDb2dVertex
 10
276.257532532822
 20
-282.4310184885302
 30
0.0
  0
VERTEX
  5
1C4
330
1B4
100
AcDbEntity
  8
Layer 1
370
     0
100
AcDbVertex
100
AcDb2dVertex
 10
276.257532532822
 20
-276.7249068363109
 30
0.0
  0
VERTEX
  5
1C5
330
1B4
100
AcDbEntity
  8
Layer 1
370
     0
100
AcDbVertex
100
AcDb2dVertex
 10
281.9639886945898
 20
-276.7249068363109
 30
0.0
  0
VERTEX
  5
1C6
330
1B4
100
AcDbEntity
  8
Layer 1
370
     0
100
AcDbVertex
100
AcDb2dVertex
 10
287.6701003468091
 20
-276.7249068363109
 30
0.0
  0
VERTEX
  5
1C7
330
1B4
100
AcDbEntity
  8
Layer 1
370
     0
100
AcDbVertex
100
AcDb2dVertex
 10
293.3762119990284
 20
-276.7249068363109
 30
0.0
  0
VERTEX
  5
1C8
330
1B4
100
AcDbEntity
  8
Layer 1
370
     0
100
AcDbVertex
100
AcDb2dVertex
 10
299.0823236512477
 20
-276.7249068363109
 30
0.0
  0
VERTEX
  5
1C9
330
1B4
100
AcDbEntity
  8
Layer 1
370
     0
100
AcDbVertex
100
AcDb2dVertex
 10
304.7887798130155
 20
-276.7249068363109
 30
0.0
  0
VERTEX
  5
1CA
330
1B4
100
AcDbEntity
  8
Layer 1
370
     0
100
AcDbVertex
100
AcDb2dVertex
 10
310.4948914652348
 20
-276.7249068363109
 30
0.0
  0
VERTEX
  5
1CB
330
1B4
100
AcDbEntity
  8
Layer 1
370
     0
100
AcDbVertex
100
AcDb2dVertex
 10
310.4948914652348
 20
-282.4310184885302
 30
0.0
  0
VERTEX
  5
1CC
330
1B4
100
AcDbEntity
  8
Layer 1
370
     0
100
AcDbVertex
100
AcDb2dVertex
 10
310.4948914652348
 20
-288.1373023955238
 30
0.0
  0
VERTEX
  5
1CD
330
1B4
100
AcDbEntity
  8
Layer 1
370
     0
100
AcDbVertex
100
AcDb2dVertex
 10
310.4948914652348
 20
-293.8435863025174
 30
0.0
  0
VERTEX
  5
1CE
330
1B4
100
AcDbEntity
  8
Layer 1
370
     0
100
AcDbVertex
100
AcDb2dVertex
 10
310.4948914652348
 20
-299.5496979547367
 30
0.0
  0
VERTEX
  5
1CF
330
1B4
100
AcDbEntity
  8
Layer 1
370
     0
100
AcDbVertex
100
AcDb2dVertex
 10
310.4948914652348
 20
-305.2559818617303
 30
0.0
  0
VERTEX
  5
1D0
330
1B4
100
AcDbEntity
  8
Layer 1
370
     0
100
AcDbVertex
100
AcDb2dVertex
 10
310.4948914652348
 20
-310.9620935139495
 30
0.0
  0
VERTEX
  5
1D1
330
1B4
100
AcDbEntity
  8
Layer 1
370
     0
100
AcDbVertex
100
AcDb2dVertex
 10
310.4948914652348
 20
-316.6683774209431
 30
0.0
  0
VERTEX
  5
1D2
330
1B4
100
AcDbEntity
  8
Layer 1
370
     0
100
AcDbVertex
100
AcDb2dVertex
 10
310.4948914652348
 20
-322.3744890731624
 30
0.0
  0
VERTEX
  5
1D3
330
1B4
100
AcDbEntity
  8
Layer 1
370
     0
100
AcDbVertex
100
AcDb2dVertex
 10
304.7887798130155
 20
-322.3744890731624
 30
0.0
  0
VERTEX
  5
1D4
330
1B4
100
AcDbEntity
  8
Layer 1
370
     0
100
AcDbVertex
100
AcDb2dVertex
 10
304.7887798130155
 20
-328.080772980156
 30
0.0
  0
VERTEX
  5
1D5
330
1B4
100
AcDbEntity
  8
Layer 1
370
     0
100
AcDbVertex
100
AcDb2dVertex
 10
299.0823236512477
 20
-328.080772980156
 30
0.0
  0
SEQEND
  5
1D6
330
1B4
100
AcDbEntity
  8
Layer 1
370
     0
  0
POLYLINE
  5
1D7
330
5D
100
AcDbEntity
  8
Layer 1
370
     0
100
AcDb2dPolyline
 66
     1
 10
0.0
 20
0.0
 30
0.0
  0
VERTEX
  5
1D8
330
1D7
100
AcDbEntity
  8
Layer 1
370
     0
100
AcDbVertex
100
AcDb2dVertex
 10
287.6701003468091
 20
-322.3744890731624
 30
0.0
  0
VERTEX
  5
1D9
330
1D7
100
AcDbEntity
  8
Layer 1
370
     0
100
AcDbVertex
100
AcDb2dVertex
 10
293.3762119990284
 20
-322.3744890731624
 30
0.0
  0
VERTEX
  5
1DA
330
1D7
100
AcDbEntity
  8
Layer 1
370
     0
100
AcDbVertex
100
AcDb2dVertex
 10
293.3762119990284
 20
-316.6683774209431
 30
0.0
  0
VERTEX
  5
1DB
330
1D7
100
AcDbEntity
  8
Layer 1
370
     0
100
AcDbVertex
100
AcDb2dVertex
 10
287.6701003468091
 20
-316.6683774209431
 30
0.0
  0
VERTEX
  5
1DC
330
1D7
100
AcDbEntity
  8
Layer 1
370
     0
100
AcDbVertex
100
AcDb2dVertex
 10
281.9639886945898
 20
-316.6683774209431
 30
0.0
  0
VERTEX
  5
1DD
330
1D7
100
AcDbEntity
  8
Layer 1
370
     0
100
AcDbVertex
100
AcDb2dVertex
 10
281.9639886945898
 20
-310.9620935139495
 30
0.0
  0
VERTEX
  5
1DE
330
1D7
100
AcDbEntity
  8
Layer 1
370
     0
100
AcDbVertex
100
AcDb2dVertex
 10
287.6701003468091
 20
-310.9620935139495
 30
0.0
  0
VERTEX
  5
1DF
330
1D7
100
AcDbEntity
  8
Layer 1
370
     0
100
AcDbVertex
100
AcDb2dVertex
 10
293.3762119990284
 20
-310.9620935139495
 30
0.0
  0
VERTEX
  5
1E0
330
1D7
100
AcDbEntity
  8
Layer 1
370
     0
100
AcDbVertex
100
AcDb2dVertex
 10
293.3762119990284
 20
-305.2559818617303
 30
0.0
  0
VERTEX
  5
1E1
330
1D7
100
AcDbEntity
  8
Layer 1
370
     0
100
AcDbVertex
100
AcDb2dVertex
 10
287.6701003468091
 20
-305.2559818617303
 30
0.0
  0
VERTEX
  5
1E2
330
1D7
100
AcDbEntity
  8
Layer 1
370
     0
100
AcDbVertex
100
AcDb2dVertex
 10
281.9639886945898
 20
-305.2559818617303
 30
0.0
  0
VERTEX
  5
1E3
330
1D7
100
AcDbEntity
  8
Layer 1
370
     0
100
AcDbVertex
100
AcDb2dVertex
 10
281.9639886945898
 20
-299.5496979547367
 30
0.0
  0
VERTEX
  5
1E4
330
1D7
100
AcDbEntity
  8
Layer 1
370
     0
100
AcDbVertex
100
AcDb2dVertex
 10
287.6701003468091
 20
-299.5496979547367
 30
0.0
  0
VERTEX
  5
1E5
330
1D7
100
AcDbEntity
  8
Layer 1
370
     0
100
AcDbVertex
100
AcDb2dVertex
 10
293.3762119990284
 20
-299.5496979547367
 30
0.0
  0
VERTEX
  5
1E6
330
1D7
100
AcDbEntity
  8
Layer 1
370
     0
100
AcDbVertex
100
AcDb2dVertex
 10
293.3762119990284
 20
-293.8435863025174
 30
0.0
  0
VERTEX
  5
1E7
330
1D7
100
AcDbEntity
  8
Layer 1
370
     0
100
AcDbVertex
100
AcDb2dVertex
 10
287.6701003468091
 20
-293.8435863025174
 30
0.0
  0
VERTEX
  5
1E8
330
1D7
100
AcDbEntity
  8
Layer 1
370
     0
100
AcDbVertex
100
AcDb2dVertex
 10
281.9639886945898
 20
-293.8435863025174
 30
0.0
  0
VERTEX
  5
1E9
330
1D7
100
AcDbEntity
  8
Layer 1
370
     0
100
AcDbVertex
100
AcDb2dVertex
 10
276.257532532822
 20
-293.8435863025174
 30
0.0
  0
VERTEX
  5
1EA
330
1D7
100
AcDbEntity
  8
Layer 1
370
     0
100
AcDbVertex
100
AcDb2dVertex
 10
276.257532532822
 20
-299.5496979547367
 30
0.0
  0
VERTEX
  5
1EB
330
1D7
100
AcDbEntity
  8
Layer 1
370
     0
100
AcDbVertex
100
AcDb2dVertex
 10
276.257532532822
 20
-305.2559818617303
 30
0.0
  0
VERTEX
  5
1EC
330
1D7
100
AcDbEntity
  8
Layer 1
370
     0
100
AcDbVertex
100
AcDb2dVertex
 10
276.257532532822
 20
-310.9620935139495
 30
0.0
  0
VERTEX
  5
1ED
330
1D7
100
AcDbEntity
  8
Layer 1
370
     0
100
AcDbVertex
100
AcDb2dVertex
 10
276.257532532822
 20
-316.6683774209431
 30
0.0
  0
VERTEX
  5
1EE
330
1D7
100
AcDbEntity
  8
Layer 1
370
     0
100
AcDbVertex
100
AcDb2dVertex
 10
276.257532532822
 20
-322.3744890731624
 30
0.0
  0
VERTEX
  5
1EF
330
1D7
100
AcDbEntity
  8
Layer 1
370
     0
100
AcDbVertex
100
AcDb2dVertex
 10
281.9639886945898
 20
-322.3744890731624
 30
0.0
  0
VERTEX
  5
1F0
330
1D7
100
AcDbEntity
  8
Layer 1
370
     0
100
AcDbVertex
100
AcDb2dVertex
 10
287.6701003468091
 20
-322.3744890731624
 30
0.0
  0
SEQEND
  5
1F1
330
1D7
100
AcDbEntity
  8
Layer 1
370
     0
  0
HATCH
  5
1F2
330
5D
100
AcDbEntity
  8
Layer 1
 62
   179
420
  1842203
100
AcDbHatch
 10
0.0
 20
0.0
 30
0.0
210
0.0
220
0.0
230
1.0
  2
SOLID
 70
     1
 71
     0
 91
        2
 92
        1
 93
       32
 72
     1
 10
299.0823236512477
 20
-328.080772980156
 11
293.3762119990284
 21
-328.080772980156
 72
     1
 10
293.3762119990284
 20
-328.080772980156
 11
287.6701003468091
 21
-328.080772980156
 72
     1
 10
287.6701003468091
 20
-328.080772980156
 11
281.9639886945898
 21
-328.080772980156
 72
     1
 10
281.9639886945898
 20
-328.080772980156
 11
276.257532532822
 21
-328.080772980156
 72
     1
 10
276.257532532822
 20
-328.080772980156
 11
270.5514208806027
 21
-328.080772980156
 72
     1
 10
270.5514208806027
 20
-328.080772980156
 11
270.5514208806027
 21
-322.3744890731624
 72
     1
 10
270.5514208806027
 20
-322.3744890731624
 11
270.5514208806027
 21
-316.6683774209431
 72
     1
 10
270.5514208806027
 20
-316.6683774209431
 11
270.5514208806027
 21
-310.9620935139495
 72
     1
 10
270.5514208806027
 20
-310.9620935139495
 11
270.5514208806027
 21
-305.2559818617303
 72
     1
 10
270.5514208806027
 20
-305.2559818617303
 11
270.5514208806027
 21
-299.5496979547367
 72
     1
 10
270.5514208806027
 20
-299.5496979547367
 11
270.5514208806027
 21
-293.8435863025174
 72
     1
 10
270.5514208806027
 20
-293.8435863025174
 11
270.5514208806027
 21
-288.1373023955238
 72
     1
 10
270.5514208806027
 20
-288.1373023955238
 11
270.5514208806027
 21
-282.4310184885302
 72
     1
 10
270.5514208806027
 20
-282.4310184885302
 11
276.257532532822
 21
-282.4310184885302
 72
     1
 10
276.257532532822
 20
-282.4310184885302
 11
276.257532532822
 21
-276.7249068363109
 72
     1
 10
276.257532532822
 20
-276.7249068363109
 11
281.9639886945898
 21
-276.7249068363109
 72
     1
 10
281.9639886945898
 20
-276.7249068363109
 11
287.6701003468091
 21
-276.7249068363109
 72
     1
 10
287.6701003468091
 20
-276.7249068363109
 11
293.3762119990284
 21
-276.7249068363109
 72
     1
 10
293.3762119990284
 20
-276.7249068363109
 11
299.0823236512477
 21
-276.7249068363109
 72
     1
 10
299.0823236512477
 20
-276.7249068363109
 11
304.7887798130155
 21
-276.7249068363109
 72
     1
 10
304.7887798130155
 20
-276.7249068363109
 11
310.4948914652348
 21
-276.7249068363109
 72
     1
 10
310.4948914652348
 20
-276.7249068363109
 11
310.4948914652348
 21
-282.4310184885302
 72
     1
 10
310.4948914652348
 20
-282.4310184885302
 11
310.4948914652348
 21
-288.1373023955238
 72
     1
 10
310.4948914652348
 20
-288.1373023955238
 11
310.4948914652348
 21
-293.8435863025174
 72
     1
 10
310.4948914652348
 20
-293.8435863025174
 11
310.4948914652348
 21
-299.5496979547367
 72
     1
 10
310.4948914652348
 20
-299.5496979547367
 11
310.4948914652348
 21
-305.2559818617303
 72
     1
 10
310.4948914652348
 20
-305.2559818617303
 11
310.4948914652348
 21
-310.9620935139495
 72
     1
 10
310.4948914652348
 20
-310.9620935139495
 11
310.4948914652348
 21
-316.6683774209431
 72
     1
 10
310.4948914652348
 20
-316.6683774209431
 11
310.4948914652348
 21
-322.3744890731624
 72
     1
 10
310.4948914652348
 20
-322.3744890731624
 11
304.7887798130155
 21
-322.3744890731624
 72
     1
 10
304.7887798130155
 20
-322.3744890731624
 11
304.7887798130155
 21
-328.080772980156
 72
     1
 10
304.7887798130155
 20
-328.080772980156
 11
299.0823236512477
 21
-328.080772980156
 97
        0
 92
        1
 93
       24
 72
     1
 10
287.6701003468091
 20
-322.3744890731624
 11
293.3762119990284
 21
-322.3744890731624
 72
     1
 10
293.3762119990284
 20
-322.3744890731624
 11
293.3762119990284
 21
-316.6683774209431
 72
     1
 10
293.3762119990284
 20
-316.6683774209431
 11
287.6701003468091
 21
-316.6683774209431
 72
     1
 10
287.6701003468091
 20
-316.6683774209431
 11
281.9639886945898
 21
-316.6683774209431
 72
     1
 10
281.9639886945898
 20
-316.6683774209431
 11
281.9639886945898
 21
-310.9620935139495
 72
     1
 10
281.9639886945898
 20
-310.9620935139495
 11
287.6701003468091
 21
-310.9620935139495
 72
     1
 10
287.6701003468091
 20
-310.9620935139495
 11
293.3762119990284
 21
-310.9620935139495
 72
     1
 10
293.3762119990284
 20
-310.9620935139495
 11
293.3762119990284
 21
-305.2559818617303
 72
     1
 10
293.3762119990284
 20
-305.2559818617303
 11
287.6701003468091
 21
-305.2559818617303
 72
     1
 10
287.6701003468091
 20
-305.2559818617303
 11
281.9639886945898
 21
-305.2559818617303
 72
     1
 10
281.9639886945898
 20
-305.2559818617303
 11
281.9639886945898
 21
-299.5496979547367
 72
     1
 10
281.9639886945898
 20
-299.5496979547367
 11
287.6701003468091
 21
-299.5496979547367
 72
     1
 10
287.6701003468091
 20
-299.5496979547367
 11
293.3762119990284
 21
-299.5496979547367
 72
     1
 10
293.3762119990284
 20
-299.5496979547367
 11
293.3762119990284
 21
-293.8435863025174
 72
     1
 10
293.3762119990284
 20
-293.8435863025174
 11
287.6701003468091
 21
-293.8435863025174
 72
     1
 10
287.6701003468091
 20
-293.8435863025174
 11
281.9639886945898
 21
-293.8435863025174
 72
     1
 10
281.9639886945898
 20
-293.8435863025174
 11
276.257532532822
 21
-293.8435863025174
 72
     1
 10
276.257532532822
 20
-293.8435863025174
 11
276.257532532822
 21
-299.5496979547367
 72
     1
 10
276.257532532822
 20
-299.5496979547367
 11
276.257532532822
 21
-305.2559818617303
 72
     1
 10
276.257532532822
 20
-305.2559818617303
 11
276.257532532822
 21
-310.9620935139495
 72
     1
 10
276.257532532822
 20
-310.9620935139495
 11
276.257532532822
 21
-316.6683774209431
 72
     1
 10
276.257532532822
 20
-316.6683774209431
 11
276.257532532822
 21
-322.3744890731624
 72
     1
 10
276.257532532822
 20
-322.3744890731624
 11
281.9639886945898
 21
-322.3744890731624
 72
     1
 10
281.9639886945898
 20
-322.3744890731624
 11
287.6701003468091
 21
-322.3744890731624
 97
        0
 75
     2
 76
     1
 98
        0
  0
ENDBLK
  5
60
330
5D
100
AcDbEntity
  8
0
100
AcDbBlockEnd
  0
ENDSEC
  0
SECTION
  2
ENTITIES
  0
SPLINE
  5
41
330
1F
100
AcDbEntity
  8
Layer 1
370
     0
100
AcDbSpline
210
0.0
220
0.0
230
1.0
 70
    11
 71
     3
 72
   113
 73
   109
 74
     0
 42
0.0000000001
 43
0.0000000001
 12
1.0
 22
0.0
 32
0.0
 13
1.0
 23
0.0
 33
0.0
 40
0.0
 40
0.0
 40
0.0
 40
0.0
 40
1.0
 40
1.0
 40
1.0
 40
2.0
 40
2.0
 40
2.0
 40
3.0
 40
3.0
 40
3.0
 40
4.0
 40
4.0
 40
4.0
 40
5.0
 40
5.0
 40
5.0
 40
6.0
 40
6.0
 40
6.0
 40
7.0
 40
7.0
 40
7.0
 40
8.0
 40
8.0
 40
8.0
 40
9.0
 40
9.0
 40
9.0
 40
10.0
 40
10.0
 40
10.0
 40
11.0
 40
11.0
 40
11.0
 40
12.0
 40
12.0
 40
12.0
 40
13.0
 40
13.0
 40
13.0
 40
14.0
 40
14.0
 40
14.0
 40
15.0
 40
15.0
 40
15.0
 40
16.0
 40
16.0
 40
16.0
 40
17.0
 40
17.0
 40
17.0
 40
18.0
 40
18.0
 40
18.0
 40
19.0
 40
19.0
 40
19.0
 40
20.0
 40
20.0
 40
20.0
 40
21.0
 40
21.0
 40
21.0
 40
22.0
 40
22.0
 40
22.0
 40
23.0
 40
23.0
 40
23.0
 40
24.0
 40
24.0
 40
24.0
 40
25.0
 40
25.0
 40
25.0
 40
26.0
 40
26.0
 40
26.0
 40
27.0
 40
27.0
 40
27.0
 40
28.0
 40
28.0
 40
28.0
 40
29.0
 40
29.0
 40
29.0
 40
30.0
 40
30.0
 40
30.0
 40
31.0
 40
31.0
 40
31.0
 40
32.0
 40
32.0
 40
32.0
 40
33.0
 40
33.0
 40
33.0
 40
34.0
 40
34.0
 40
34.0
 40
35.0
 40
35.0
 40
35.0
 40
36.0
 40
36.0
 40
36.0
 40
36.0
 10
246.1735589681314
 20
-40.79606661592837
 30
0.0
 10
246.1735589681314
 20
-40.79606661592837
 30
0.0
 10
225.0877297730886
 20
-61.96440505823225
 30
0.0
 10
225.0877297730886
 20
-61.96440505823225
 30
0.0
 10
225.0877297730886
 20
-61.96440505823225
 30
0.0
 10
204.5243596393907
 20
-58.23101087664308
 30
0.0
 10
204.5243596393907
 20
-58.23101087664308
 30
0.0
 10
204.5243596393907
 20
-58.23101087664308
 30
0.0
 10
200.8297125645111
 20
-37.66005848939819
 30
0.0
 10
200.8297125645111
 20
-37.66005848939819
 30
0.0
 10
200.8297125645111
 20
-37.66005848939819
 30
0.0
 10
221.9155417595533
 20
-16.49172004709464
 30
0.0
 10
221.9155417595533
 20
-16.49172004709464
 30
0.0
 10
217.1758571564164
 20
-11.75030406322592
 30
0.0
 10
210.4209647876933
 20
-9.584943796293889
 30
0.0
 10
205.4200805052754
 20
-9.846322583925932
 30
0.0
 10
200.3818222801767
 20
-10.10764166877452
 30
0.0
 10
189.6336495118282
 20
-12.94501647055947
 30
0.0
 10
181.311320256287
 20
-21.79314814334095
 30
0.0
 10
173.2501906800256
 20
-30.30527254869549
 30
0.0
 10
164.7784850593277
 20
-46.17218289475305
 30
0.0
 10
172.2798413343463
 20
-63.79375805773734
 30
0.0
 10
173.1755024974476
 20
-65.92180408477208
 30
0.0
 10
174.1831660830241
 20
-68.72180494387597
 30
0.0
 10
171.1975492689752
 20
-71.70855611081764
 30
0.0
 10
170.209109979794
 20
-72.68517424879975
 30
0.0
 10
161.2877826940299
 20
-81.11849097949168
 30
0.0
 10
149.7272938488154
 20
-92.02762245306027
 30
0.0
 10
138.1668050036008
 20
-81.11849097949168
 30
0.0
 10
129.2454777178371
 20
-72.68517424879975
 30
0.0
 10
128.2570384286555
 20
-71.70855611081764
 30
0.0
 10
125.2714216146066
 20
-68.72180494387597
 30
0.0
 10
126.2790852001835
 20
-65.92180408477208
 30
0.0
 10
127.1747463632844
 20
-63.79375805773734
 30
0.0
 10
134.6761026383033
 20
-46.17218289475305
 30
0.0
 10
126.2044567203889
 20
-30.30527254869549
 30
0.0
 10
118.1433271441278
 20
-21.79314814334095
 30
0.0
 10
109.8209381858026
 20
-12.94501647055947
 30
0.0
 10
99.07276541745436
 20
-10.10764166877452
 30
0.0
 10
94.03456689513915
 20
-9.846322583925932
 30
0.0
 10
89.03368261272124
 20
-9.584943796293889
 30
0.0
 10
82.2787305412147
 20
-11.75030406322592
 30
0.0
 10
77.53904593807717
 20
-16.49172004709464
 30
0.0
 10
77.53904593807717
 20
-16.49172004709464
 30
0.0
 10
98.62493483590374
 20
-37.66005848939819
 30
0.0
 10
98.62493483590374
 20
-37.66005848939819
 30
0.0
 10
98.62493483590374
 20
-37.66005848939819
 30
0.0
 10
94.93022805824037
 20
-58.23101087664308
 30
0.0
 10
94.93022805824037
 20
-58.23101087664308
 30
0.0
 10
94.93022805824037
 20
-58.23101087664308
 30
0.0
 10
74.36685792454244
 20
-61.96440505823225
 30
0.0
 10
74.36685792454244
 20
-61.96440505823225
 30
0.0
 10
74.36685792454244
 20
-61.96440505823225
 30
0.0
 10
53.28102872949963
 20
-40.79606661592837
 30
0.0
 10
53.28102872949963
 20
-40.79606661592837
 30
0.0
 10
47.94425658522297
 20
-46.13480895207167
 30
0.0
 10
46.26487697871239
 20
-52.5188873303921
 30
0.0
 10
46.56345060067416
 20
-57.33499149683886
 30
0.0
 10
46.86196451985184
 20
-62.18840990318291
 30
0.0
 10
48.65334654883775
 20
-71.67118216813624
 30
0.0
 10
58.46854391418778
 20
-81.4900214033003
 30
0.0
 10
68.28368157675371
 20
-91.30880093568027
 30
0.0
 10
87.20498634383803
 20
-97.2822435667795
 30
0.0
 10
100.4908856419005
 20
-90.41278155587605
 30
0.0
 10
102.3942103905779
 20
-89.44213369627725
 30
0.0
 10
105.2305702450377
 20
-88.39673795131664
 30
0.0
 10
108.4027582585724
 20
-91.49549154073395
 30
0.0
 10
109.5343051206081
 20
-92.60357520872186
 30
0.0
 10
117.6489283911856
 20
-101.1841190043522
 30
0.0
 10
128.1739918563402
 20
-112.3545695627694
 30
0.0
 10
109.1216991815203
 20
-130.3151968351559
 30
0.0
 10
90.95945560812129
 20
-147.4216563792071
 30
0.0
 10
90.95945560812129
 20
-147.4216563792071
 30
0.0
 10
83.71935871516654
 20
-153.6563583923706
 30
0.0
 10
84.24181777651172
 20
-165.1925482045644
 30
0.0
 10
90.9220816654399
 20
-171.9126338503108
 30
0.0
 10
97.71434797684405
 20
-178.5954052561606
 30
0.0
 10
109.1716107088071
 20
-179.0061007061652
 30
0.0
 10
115.4040440161846
 20
-171.8006314278355
 30
0.0
 10
115.4040440161846
 20
-171.8006314278355
 30
0.0
 10
132.0427322488846
 20
-154.0703374954866
 30
0.0
 10
149.7272938488154
 20
-135.2593634729302
 30
0.0
 10
167.4119151515303
 20
-154.0703374954866
 30
0.0
 10
184.0505436814461
 20
-171.8006314278355
 30
0.0
 10
184.0505436814461
 20
-171.8006314278355
 30
0.0
 10
190.2829769888237
 20
-179.0061007061652
 30
0.0
 10
201.740239720787
 20
-178.5954052561606
 30
0.0
 10
208.5325060321908
 20
-171.9126338503108
 30
0.0
 10
215.2127699211193
 20
-165.1925482045644
 30
0.0
 10
215.7352289824642
 20
-153.6563583923706
 30
0.0
 10
208.4951917922936
 20
-147.4216563792071
 30
0.0
 10
208.4951917922936
 20
-147.4216563792071
 30
0.0
 10
190.3328885161102
 20
-130.3151968351559
 30
0.0
 10
171.2805958412906
 20
-112.3545695627694
 30
0.0
 10
181.8057190092289
 20
-101.1841190043522
 30
0.0
 10
189.9202825770226
 20
-92.60357520872186
 30
0.0
 10
191.0518294390584
 20
-91.49549154073395
 30
0.0
 10
194.2240174525931
 20
-88.39673795131664
 30
0.0
 10
197.0603773070528
 20
-89.44213369627725
 30
0.0
 10
198.9637020557306
 20
-90.41278155587605
 30
0.0
 10
212.2496013537924
 20
-97.2822435667795
 30
0.0
 10
231.1709061208777
 20
-91.30880093568027
 30
0.0
 10
240.9860437834436
 20
-81.4900214033003
 30
0.0
 10
250.801241148793
 20
-71.67118216813624
 30
0.0
 10
252.5926231777789
 20
-62.18840990318291
 30
0.0
 10
252.8911967997407
 20
-57.33499149683886
 30
0.0
 10
253.1897107189183
 20
-52.5188873303921
 30
0.0
 10
251.5103311124078
 20
-46.13480895207167
 30
0.0
 10
246.1735589681314
 20
-40.79606661592837
 30
0.0
  0
SPLINE
  5
42
330
1F
100
AcDbEntity
  8
Layer 1
370
     0
100
AcDbSpline
210
0.0
220
0.0
230
1.0
 70
    11
 71
     3
 72
    17
 73
    13
 74
     0
 42
0.0000000001
 43
0.0000000001
 12
1.0
 22
0.0
 32
0.0
 13
1.0
 23
0.0
 33
0.0
 40
0.0
 40
0.0
 40
0.0
 40
0.0
 40
1.0
 40
1.0
 40
1.0
 40
2.0
 40
2.0
 40
2.0
 40
3.0
 40
3.0
 40
3.0
 40
4.0
 40
4.0
 40
4.0
 40
4.0
 10
107.8654332040525
 20
-163.363195205059
 30
0.0
 10
105.5142778738244
 20
-165.6778721343636
 30
0.0
 10
101.7076283764692
 20
-165.6778721343636
 30
0.0
 10
99.39378728613809
 20
-163.363195205059
 30
0.0
 10
97.07994619580731
 20
-161.0111443330733
 30
0.0
 10
97.07994619580731
 20
-157.2031216716898
 30
0.0
 10
99.39378728613809
 20
-154.8883850396011
 30
0.0
 10
101.7449426163665
 20
-152.5737081102968
 30
0.0
 10
105.5515921137217
 20
-152.5737081102968
 30
0.0
 10
107.8654332040525
 20
-154.8883850396011
 30
0.0
 10
110.1792742943836
 20
-157.2404359115868
 30
0.0
 10
110.1792742943836
 20
-161.0485182757543
 30
0.0
 10
107.8654332040525
 20
-163.363195205059
 30
0.0
  0
SPLINE
  5
43
330
1F
100
AcDbEntity
  8
Layer 1
370
     0
100
AcDbSpline
210
0.0
220
0.0
230
1.0
 70
    11
 71
     3
 72
    17
 73
    13
 74
     0
 42
0.0000000001
 43
0.0000000001
 12
1.0
 22
0.0
 32
0.0
 13
1.0
 23
0.0
 33
0.0
 40
0.0
 40
0.0
 40
0.0
 40
0.0
 40
1.0
 40
1.0
 40
1.0
 40
2.0
 40
2.0
 40
2.0
 40
3.0
 40
3.0
 40
3.0
 40
4.0
 40
4.0
 40
4.0
 40
4.0
 10
191.5891544935785
 20
-154.8883850396011
 30
0.0
 10
193.9029955839093
 20
-152.5737081102968
 30
0.0
 10
197.7096450812643
 20
-152.5737081102968
 30
0.0
 10
200.0608601142764
 20
-154.8883850396011
 30
0.0
 10
202.3747012046072
 20
-157.2031216716898
 30
0.0
 10
202.3747012046072
 20
-161.0111443330733
 30
0.0
 10
200.0608601142764
 20
-163.363195205059
 30
0.0
 10
197.7470190239457
 20
-165.6778721343636
 30
0.0
 10
193.9403695265901
 20
-165.6778721343636
 30
0.0
 10
191.5891544935785
 20
-163.363195205059
 30
0.0
 10
189.2753134032471
 20
-161.0485182757543
 30
0.0
 10
189.2753134032471
 20
-157.2404359115868
 30
0.0
 10
191.5891544935785
 20
-154.8883850396011
 30
0.0
  0
HATCH
  5
44
330
1F
100
AcDbEntity
  8
Layer 1
 62
     7
420
 16777215
100
AcDbHatch
 10
0.0
 20
0.0
 30
0.0
210
0.0
220
0.0
230
1.0
  2
SOLID
 70
     1
 71
     0
 91
        3
 92
        1
 93
        1
 72
     4
 94
        3
 73
     0
 74
     1
 95
      113
 96
      109
 40
0.0
 40
0.0
 40
0.0
 40
0.0
 40
1.0
 40
1.0
 40
1.0
 40
2.0
 40
2.0
 40
2.0
 40
3.0
 40
3.0
 40
3.0
 40
4.0
 40
4.0
 40
4.0
 40
5.0
 40
5.0
 40
5.0
 40
6.0
 40
6.0
 40
6.0
 40
7.0
 40
7.0
 40
7.0
 40
8.0
 40
8.0
 40
8.0
 40
9.0
 40
9.0
 40
9.0
 40
10.0
 40
10.0
 40
10.0
 40
11.0
 40
11.0
 40
11.0
 40
12.0
 40
12.0
 40
12.0
 40
13.0
 40
13.0
 40
13.0
 40
14.0
 40
14.0
 40
14.0
 40
15.0
 40
15.0
 40
15.0
 40
16.0
 40
16.0
 40
16.0
 40
17.0
 40
17.0
 40
17.0
 40
18.0
 40
18.0
 40
18.0
 40
19.0
 40
19.0
 40
19.0
 40
20.0
 40
20.0
 40
20.0
 40
21.0
 40
21.0
 40
21.0
 40
22.0
 40
22.0
 40
22.0
 40
23.0
 40
23.0
 40
23.0
 40
24.0
 40
24.0
 40
24.0
 40
25.0
 40
25.0
 40
25.0
 40
26.0
 40
26.0
 40
26.0
 40
27.0
 40
27.0
 40
27.0
 40
28.0
 40
28.0
 40
28.0
 40
29.0
 40
29.0
 40
29.0
 40
30.0
 40
30.0
 40
30.0
 40
31.0
 40
31.0
 40
31.0
 40
32.0
 40
32.0
 40
32.0
 40
33.0
 40
33.0
 40
33.0
 40
34.0
 40
34.0
 40
34.0
 40
35.0
 40
35.0
 40
35.0
 40
36.0
 40
36.0
 40
36.0
 40
36.0
 10
246.1735589681314
 20
-40.79606661592837
 10
246.1735589681314
 20
-40.79606661592837
 10
225.0877297730886
 20
-61.96440505823225
 10
225.0877297730886
 20
-61.96440505823225
 10
225.0877297730886
 20
-61.96440505823225
 10
204.5243596393907
 20
-58.23101087664308
 10
204.5243596393907
 20
-58.23101087664308
 10
204.5243596393907
 20
-58.23101087664308
 10
200.8297125645111
 20
-37.66005848939819
 10
200.8297125645111
 20
-37.66005848939819
 10
200.8297125645111
 20
-37.66005848939819
 10
221.9155417595533
 20
-16.49172004709464
 10
221.9155417595533
 20
-16.49172004709464
 10
217.1758571564164
 20
-11.75030406322592
 10
210.4209647876933
 20
-9.584943796293889
 10
205.4200805052754
 20
-9.846322583925932
 10
200.3818222801767
 20
-10.10764166877452
 10
189.6336495118282
 20
-12.94501647055947
 10
181.311320256287
 20
-21.79314814334095
 10
173.2501906800256
 20
-30.30527254869549
 10
164.7784850593277
 20
-46.17218289475305
 10
172.2798413343463
 20
-63.79375805773734
 10
173.1755024974476
 20
-65.92180408477208
 10
174.1831660830241
 20
-68.72180494387597
 10
171.1975492689752
 20
-71.70855611081764
 10
170.209109979794
 20
-72.68517424879975
 10
161.2877826940299
 20
-81.11849097949168
 10
149.7272938488154
 20
-92.02762245306027
 10
138.1668050036008
 20
-81.11849097949168
 10
129.2454777178371
 20
-72.68517424879975
 10
128.2570384286555
 20
-71.70855611081764
 10
125.2714216146066
 20
-68.72180494387597
 10
126.2790852001835
 20
-65.92180408477208
 10
127.1747463632844
 20
-63.79375805773734
 10
134.6761026383033
 20
-46.17218289475305
 10
126.2044567203889
 20
-30.30527254869549
 10
118.1433271441278
 20
-21.79314814334095
 10
109.8209381858026
 20
-12.94501647055947
 10
99.07276541745436
 20
-10.10764166877452
 10
94.03456689513915
 20
-9.846322583925932
 10
89.03368261272124
 20
-9.584943796293889
 10
82.2787305412147
 20
-11.75030406322592
 10
77.53904593807717
 20
-16.49172004709464
 10
77.53904593807717
 20
-16.49172004709464
 10
98.62493483590374
 20
-37.66005848939819
 10
98.62493483590374
 20
-37.66005848939819
 10
98.62493483590374
 20
-37.66005848939819
 10
94.93022805824037
 20
-58.23101087664308
 10
94.93022805824037
 20
-58.23101087664308
 10
94.93022805824037
 20
-58.23101087664308
 10
74.36685792454244
 20
-61.96440505823225
 10
74.36685792454244
 20
-61.96440505823225
 10
74.36685792454244
 20
-61.96440505823225
 10
53.28102872949963
 20
-40.79606661592837
 10
53.28102872949963
 20
-40.79606661592837
 10
47.94425658522297
 20
-46.13480895207167
 10
46.26487697871239
 20
-52.5188873303921
 10
46.56345060067416
 20
-57.33499149683886
 10
46.86196451985184
 20
-62.18840990318291
 10
48.65334654883775
 20
-71.67118216813624
 10
58.46854391418778
 20
-81.4900214033003
 10
68.28368157675371
 20
-91.30880093568027
 10
87.20498634383803
 20
-97.2822435667795
 10
100.4908856419005
 20
-90.41278155587605
 10
102.3942103905779
 20
-89.44213369627725
 10
105.2305702450377
 20
-88.39673795131664
 10
108.4027582585724
 20
-91.49549154073395
 10
109.5343051206081
 20
-92.60357520872186
 10
117.6489283911856
 20
-101.1841190043522
 10
128.1739918563402
 20
-112.3545695627694
 10
109.1216991815203
 20
-130.3151968351559
 10
90.95945560812129
 20
-147.4216563792071
 10
90.95945560812129
 20
-147.4216563792071
 10
83.71935871516654
 20
-153.6563583923706
 10
84.24181777651172
 20
-165.1925482045644
 10
90.9220816654399
 20
-171.9126338503108
 10
97.71434797684405
 20
-178.5954052561606
 10
109.1716107088071
 20
-179.0061007061652
 10
115.4040440161846
 20
-171.8006314278355
 10
115.4040440161846
 20
-171.8006314278355
 10
132.0427322488846
 20
-154.0703374954866
 10
149.7272938488154
 20
-135.2593634729302
 10
167.4119151515303
 20
-154.0703374954866
 10
184.0505436814461
 20
-171.8006314278355
 10
184.0505436814461
 20
-171.8006314278355
 10
190.2829769888237
 20
-179.0061007061652
 10
201.740239720787
 20
-178.5954052561606
 10
208.5325060321908
 20
-171.9126338503108
 10
215.2127699211193
 20
-165.1925482045644
 10
215.7352289824642
 20
-153.6563583923706
 10
208.4951917922936
 20
-147.4216563792071
 10
208.4951917922936
 20
-147.4216563792071
 10
190.3328885161102
 20
-130.3151968351559
 10
171.2805958412906
 20
-112.3545695627694
 10
181.8057190092289
 20
-101.1841190043522
 10
189.9202825770226
 20
-92.60357520872186
 10
191.0518294390584
 20
-91.49549154073395
 10
194.2240174525931
 20
-88.39673795131664
 10
197.0603773070528
 20
-89.44213369627725
 10
198.9637020557306
 20
-90.41278155587605
 10
212.2496013537924
 20
-97.2822435667795
 10
231.1709061208777
 20
-91.30880093568027
 10
240.9860437834436
 20
-81.4900214033003
 10
250.801241148793
 20
-71.67118216813624
 10
252.5926231777789
 20
-62.18840990318291
 10
252.8911967997407
 20
-57.33499149683886
 10
253.1897107189183
 20
-52.5188873303921
 10
251.5103311124078
 20
-46.13480895207167
 10
246.1735589681314
 20
-40.79606661592837
 97
        0
 97
        0
 92
        1
 93
        1
 72
     4
 94
        3
 73
     0
 74
     1
 95
       17
 96
       13
 40
0.0
 40
0.0
 40
0.0
 40
0.0
 40
1.0
 40
1.0
 40
1.0
 40
2.0
 40
2.0
 40
2.0
 40
3.0
 40
3.0
 40
3.0
 40
4.0
 40
4.0
 40
4.0
 40
4.0
 10
107.8654332040525
 20
-163.363195205059
 10
105.5142778738244
 20
-165.6778721343636
 10
101.7076283764692
 20
-165.6778721343636
 10
99.39378728613809
 20
-163.363195205059
 10
97.07994619580731
 20
-161.0111443330733
 10
97.07994619580731
 20
-157.2031216716898
 10
99.39378728613809
 20
-154.8883850396011
 10
101.7449426163665
 20
-152.5737081102968
 10
105.5515921137217
 20
-152.5737081102968
 10
107.8654332040525
 20
-154.8883850396011
 10
110.1792742943836
 20
-157.2404359115868
 10
110.1792742943836
 20
-161.0485182757543
 10
107.8654332040525
 20
-163.363195205059
 97
        0
 97
        0
 92
        1
 93
        1
 72
     4
 94
        3
 73
     0
 74
     1
 95
       17
 96
       13
 40
0.0
 40
0.0
 40
0.0
 40
0.0
 40
1.0
 40
1.0
 40
1.0
 40
2.0
 40
2.0
 40
2.0
 40
3.0
 40
3.0
 40
3.0
 40
4.0
 40
4.0
 40
4.0
 40
4.0
 10
191.5891544935785
 20
-154.8883850396011
 10
193.9029955839093
 20
-152.5737081102968
 10
197.7096450812643
 20
-152.5737081102968
 10
200.0608601142764
 20
-154.8883850396011
 10
202.3747012046072
 20
-157.2031216716898
 10
202.3747012046072
 20
-161.0111443330733
 10
200.0608601142764
 20
-163.363195205059
 10
197.7470190239457
 20
-165.6778721343636
 10
193.9403695265901
 20
-165.6778721343636
 10
191.5891544935785
 20
-163.363195205059
 10
189.2753134032471
 20
-161.0485182757543
 10
189.2753134032471
 20
-157.2404359115868
 10
191.5891544935785
 20
-154.8883850396011
 97
        0
 97
        0
 75
     2
 76
     1
 98
        0
  0
POLYLINE
  5
45
330
1F
100
AcDbEntity
  8
Layer 1
370
     0
100
AcDb2dPolyline
 66
     1
 10
0.0
 20
0.0
 30
0.0
  0
VERTEX
  5
46
330
45
100
AcDbEntity
  8
Layer 1
370
     0
100
AcDbVertex
100
AcDb2dVertex
 10
128.4571546972241
 20
-210.3501434156209
 30
0.0
  0
VERTEX
  5
47
330
45
100
AcDbEntity
  8
Layer 1
370
     0
100
AcDbVertex
100
AcDb2dVertex
 10
132.6093116674839
 20
-199.5902689016409
 30
0.0
  0
VERTEX
  5
48
330
45
100
AcDbEntity
  8
Layer 1
370
     0
100
AcDbVertex
100
AcDb2dVertex
 10
139.4749079231336
 20
-231.0169038452257
 30
0.0
  0
VERTEX
  5
49
330
45
100
AcDbEntity
  8
Layer 1
370
     0
100
AcDbVertex
100
AcDb2dVertex
 10
147.7709530280918
 20
-202.0356949275456
 30
0.0
  0
VERTEX
  5
4A
330
45
100
AcDbEntity
  8
Layer 1
370
     0
100
AcDbVertex
100
AcDb2dVertex
 10
154.1290606954434
 20
-231.0169038452257
 30
0.0
  0
VERTEX
  5
4B
330
45
100
AcDbEntity
  8
Layer 1
370
     0
100
AcDbVertex
100
AcDb2dVertex
 10
161.5708634435865
 20
-202.0356949275456
 30
0.0
  0
VERTEX
  5
4C
330
45
100
AcDbEntity
  8
Layer 1
370
     0
100
AcDbVertex
100
AcDb2dVertex
 10
168.8016168508708
 20
-231.0169038452257
 30
0.0
  0
VERTEX
  5
4D
330
45
100
AcDbEntity
  8
Layer 1
370
     0
100
AcDbVertex
100
AcDb2dVertex
 10
177.1160653389461
 20
-210.3501434156209
 30
0.0
  0
VERTEX
  5
4E
330
45
100
AcDbEntity
  8
Layer 1
370
     0
100
AcDbVertex
100
AcDb2dVertex
 10
212.8192853171514
 20
-210.3501434156209
 30
0.0
  0
VERTEX
  5
4F
330
45
100
AcDbEntity
  8
Layer 1
370
     0
100
AcDbVertex
100
AcDb2dVertex
 10
212.8192853171514
 20
-206.4374617741737
 30
0.0
  0
VERTEX
  5
50
330
45
100
AcDbEntity
  8
Layer 1
370
     0
100
AcDbVertex
100
AcDb2dVertex
 10
174.3580803139661
 20
-206.4374617741737
 30
0.0
  0
VERTEX
  5
51
330
45
100
AcDbEntity
  8
Layer 1
370
     0
100
AcDbVertex
100
AcDb2dVertex
 10
169.7797872612324
 20
-217.1973362881531
 30
0.0
  0
VERTEX
  5
52
330
45
100
AcDbEntity
  8
Layer 1
370
     0
100
AcDbVertex
100
AcDb2dVertex
 10
161.5708634435865
 20
-185.7009087902649
 30
0.0
  0
VERTEX
  5
53
330
45
100
AcDbEntity
  8
Layer 1
370
     0
100
AcDbVertex
100
AcDb2dVertex
 10
154.6181459006243
 20
-214.751910262249
 30
0.0
  0
VERTEX
  5
54
330
45
100
AcDbEntity
  8
Layer 1
370
     0
100
AcDbVertex
100
AcDb2dVertex
 10
148.7234810927962
 20
-185.6278773599379
 30
0.0
  0
VERTEX
  5
55
330
45
100
AcDbEntity
  8
Layer 1
370
     0
100
AcDbVertex
100
AcDb2dVertex
 10
140.4346749503784
 20
-215.2409954674298
 30
0.0
  0
VERTEX
  5
56
330
45
100
AcDbEntity
  8
Layer 1
370
     0
100
AcDbVertex
100
AcDb2dVertex
 10
134.0765672830264
 20
-185.6278773599379
 30
0.0
  0
VERTEX
  5
57
330
45
100
AcDbEntity
  8
Layer 1
370
     0
100
AcDbVertex
100
AcDb2dVertex
 10
125.3713342233557
 20
-206.4374617741737
 30
0.0
  0
VERTEX
  5
58
330
45
100
AcDbEntity
  8
Layer 1
370
     0
100
AcDbVertex
100
AcDb2dVertex
 10
89.08072840638376
 20
-206.4374617741737
 30
0.0
  0
VERTEX
  5
59
330
45
100
AcDbEntity
  8
Layer 1
370
     0
100
AcDbVertex
100
AcDb2dVertex
 10
89.08072840638376
 20
-210.3501434156209
 30
0.0
  0
VERTEX
  5
5A
330
45
100
AcDbEntity
  8
Layer 1
370
     0
100
AcDbVertex
100
AcDb2dVertex
 10
128.4571546972241
 20
-210.3501434156209
 30
0.0
  0
SEQEND
  5
5C
330
45
100
AcDbEntity
  8
Layer 1
370
     0
  0
HATCH
  5
5B
330
1F
100
AcDbEntity
  8
Layer 1
 62
     7
420
 16777215
100
AcDbHatch
 10
0.0
 20
0.0
 30
0.0
210
0.0
220
0.0
230
1.0
  2
SOLID
 70
     1
 71
     0
 91
        1
 92
        1
 93
       20
 72
     1
 10
128.4571546972241
 20
-210.3501434156209
 11
132.6093116674839
 21
-199.5902689016409
 72
     1
 10
132.6093116674839
 20
-199.5902689016409
 11
139.4749079231336
 21
-231.0169038452257
 72
     1
 10
139.4749079231336
 20
-231.0169038452257
 11
147.7709530280918
 21
-202.0356949275456
 72
     1
 10
147.7709530280918
 20
-202.0356949275456
 11
154.1290606954434
 21
-231.0169038452257
 72
     1
 10
154.1290606954434
 20
-231.0169038452257
 11
161.5708634435865
 21
-202.0356949275456
 72
     1
 10
161.5708634435865
 20
-202.0356949275456
 11
168.8016168508708
 21
-231.0169038452257
 72
     1
 10
168.8016168508708
 20
-231.0169038452257
 11
177.1160653389461
 21
-210.3501434156209
 72
     1
 10
177.1160653389461
 20
-210.3501434156209
 11
212.8192853171514
 21
-210.3501434156209
 72
     1
 10
212.8192853171514
 20
-210.3501434156209
 11
212.8192853171514
 21
-206.4374617741737
 72
     1
 10
212.8192853171514
 20
-206.4374617741737
 11
174.3580803139661
 21
-206.4374617741737
 72
     1
 10
174.3580803139661
 20
-206.4374617741737
 11
169.7797872612324
 21
-217.1973362881531
 72
     1
 10
169.7797872612324
 20
-217.1973362881531
 11
161.5708634435865
 21
-185.7009087902649
 72
     1
 10
161.5708634435865
 20
-185.7009087902649
 11
154.6181459006243
 21
-214.751910262249
 72
     1
 10
154.6181459006243
 20
-214.751910262249
 11
148.7234810927962
 21
-185.6278773599379
 72
     1
 10
148.7234810927962
 20
-185.6278773599379
 11
140.4346749503784
 21
-215.2409954674298
 72
     1
 10
140.4346749503784
 20
-215.2409954674298
 11
134.0765672830264
 21
-185.6278773599379
 72
     1
 10
134.0765672830264
 20
-185.6278773599379
 11
125.3713342233557
 21
-206.4374617741737
 72
     1
 10
125.3713342233557
 20
-206.4374617741737
 11
89.08072840638376
 21
-206.4374617741737
 72
     1
 10
89.08072840638376
 20
-206.4374617741737
 11
89.08072840638376
 21
-210.3501434156209
 72
     1
 10
89.08072840638376
 20
-210.3501434156209
 11
128.4571546972241
 21
-210.3501434156209
 97
        0
 75
     2
 76
     1
 98
        0
  0
INSERT
  5
5E
330
1F
100
AcDbEntity
  8
Layer 1
100
AcDbBlockReference
  2
block 2
 10
0.0
 20
0.0
 30
0.0
  0
ENDSEC
  0
SECTION
  2
OBJECTS
  0
DICTIONARY
  5
C
330
0
100
AcDbDictionary
281
     1
  3
ACAD_GROUP
350
D
  3
ACAD_LAYOUT
350
1A
  3
ACAD_MATERIAL
350
3B
  3
ACAD_MLEADERSTYLE
350
1F4
  3
ACAD_MLINESTYLE
350
17
  3
ACAD_PLOTSETTINGS
350
19
  3
ACAD_PLOTSTYLENAME
350
E
  3
ACAD_TABLESTYLE
350
1F3
  3
ACAD_VISUALSTYLE
350
2A
  0
SUN
  5
3F
330
29
100
AcDbSun
 90
        1
290
     0
 63
     7
421
 16777215
 40
1.0
291
     1
 91
  2455826
 92
 54000000
292
     0
 70
     2
 71
   256
280
     1
  0
DICTIONARY
  5
D
102
{ACAD_REACTORS
330
C
102
}
330
C
100
AcDbDictionary
281
     1
  0
DICTIONARY
  5
1A
102
{ACAD_REACTORS
330
C
102
}
330
C
100
AcDbDictionary
281
     1
  3
Layout1
350
1E
  3
Layout2
350
26
  3
Model
350
22
  0
DICTIONARY
  5
3B
102
{ACAD_REACTORS
330
C
102
}
330
C
100
AcDbDictionary
281
     1
  3
ByBlock
350
3D
  3
ByLayer
350
3C
  3
Global
350
3E
  0
DICTIONARY
  5
1F4
102
{ACAD_REACTORS
330
C
102
}
330
C
100
AcDbDictionary
281
     1
  0
DICTIONARY
  5
17
102
{ACAD_REACTORS
330
C
102
}
330
C
100
AcDbDictionary
281
     1
  3
Standard
350
18
  0
DICTIONARY
  5
19
102
{ACAD_REACTORS
330
C
102
}
330
C
100
AcDbDictionary
281
     1
  0
ACDBDICTIONARYWDFLT
  5
E
102
{ACAD_REACTORS
330
C
102
}
330
C
100
AcDbDictionary
281
     1
  3
Normal
350
F
100
AcDbDictionaryWithDefault
340
F
  0
DICTIONARY
  5
1F3
102
{ACAD_REACTORS
330
C
102
}
330
C
100
AcDbDictionary
281
     1
  0
DICTIONARY
  5
2A
102
{ACAD_REACTORS
330
C
102
}
330
C
100
AcDbDictionary
281
     1
  3
2dWireframe
350
2F
  3
3D Hidden
350
31
  3
3dWireframe
350
30
  3
Basic
350
32
  3
Brighten
350
36
  3
ColorChange
350
3A
  3
Conceptual
350
34
  3
Dim
350
35
  3
Facepattern
350
39
  3
Flat
350
2B
  3
FlatWithEdges
350
2C
  3
Gouraud
350
2D
  3
GouraudWithEdges
350
2E
  3
Linepattern
350
38
  3
Realistic
350
33
  3
Thicken
350
37
  0
LAYOUT
  5
1E
102
{ACAD_REACTORS
330
1A
102
}
330
1A
100
AcDbPlotSettings
  1

  2
none_device
  4

  6

 40
0.0
 41
0.0
 42
0.0
 43
0.0
 44
0.0
 45
0.0
 46
0.0
 47
0.0
 48
0.0
 49
0.0
140
0.0
141
0.0
142
1.0
143
1.0
 70
   688
 72
     0
 73
     0
 74
     5
  7

 75
    16
 76
     0
 77
     2
 78
   300
147
1.0
148
0.0
149
0.0
100
AcDbLayout
  1
Layout1
 70
     1
 71
     1
 10
0.0
 20
0.0
 11
12.0
 21
9.0
 12
0.0
 22
0.0
 32
0.0
 14
1.000000000000000E+20
 24
1.000000000000000E+20
 34
1.000000000000000E+20
 15
-1.000000000000000E+20
 25
-1.000000000000000E+20
 35
-1.000000000000000E+20
146
0.0
 13
0.0
 23
0.0
 33
0.0
 16
1.0
 26
0.0
 36
0.0
 17
0.0
 27
1.0
 37
0.0
 76
     0
330
1B
  0
LAYOUT
  5
26
102
{ACAD_REACTORS
330
1A
102
}
330
1A
100
AcDbPlotSettings
  1

  2
none_device
  4

  6

 40
0.0
 41
0.0
 42
0.0
 43
0.0
 44
0.0
 45
0.0
 46
0.0
 47
0.0
 48
0.0
 49
0.0
140
0.0
141
0.0
142
1.0
143
1.0
 70
   688
 72
     0
 73
     0
 74
     5
  7

 75
    16
 76
     0
 77
     2
 78
   300
147
1.0
148
0.0
149
0.0
100
AcDbLayout
  1
Layout2
 70
     1
 71
     2
 10
0.0
 20
0.0
 11
0.0
 21
0.0
 12
0.0
 22
0.0
 32
0.0
 14
0.0
 24
0.0
 34
0.0
 15
0.0
 25
0.0
 35
0.0
146
0.0
 13
0.0
 23
0.0
 33
0.0
 16
1.0
 26
0.0
 36
0.0
 17
0.0
 27
1.0
 37
0.0
 76
     0
330
23
  0
LAYOUT
  5
22
102
{ACAD_REACTORS
330
1A
102
}
330
1A
100
AcDbPlotSettings
  1

  2
none_device
  4

  6

 40
0.0
 41
0.0
 42
0.0
 43
0.0
 44
0.0
 45
0.0
 46
0.0
 47
0.0
 48
0.0
 49
0.0
140
0.0
141
0.0
142
1.0
143
1.0
 70
  1712
 72
     0
 73
     0
 74
     0
  7

 75
     0
 76
     0
 77
     2
 78
   300
147
1.0
148
0.0
149
0.0
100
AcDbLayout
  1
Model
 70
     1
 71
     0
 10
0.0
 20
0.0
 11
12.0
 21
9.0
 12
0.0
 22
0.0
 32
0.0
 14
1.000000000000000E+20
 24
1.000000000000000E+20
 34
1.000000000000000E+20
 15
-1.000000000000000E+20
 25
-1.000000000000000E+20
 35
-1.000000000000000E+20
146
0.0
 13
0.0
 23
0.0
 33
0.0
 16
1.0
 26
0.0
 36
0.0
 17
0.0
 27
1.0
 37
0.0
 76
     0
330
1F
331
29
  0
MATERIAL
  5
3D
102
{ACAD_REACTORS
330
3B
102
}
330
3B
100
AcDbMaterial
  1
ByBlock
 72
     1
 94
      127
  0
MATERIAL
  5
3C
102
{ACAD_REACTORS
330
3B
102
}
330
3B
100
AcDbMaterial
  1
ByLayer
 72
     1
 94
      127
  0
MATERIAL
  5
3E
102
{ACAD_REACTORS
330
3B
102
}
330
3B
100
AcDbMaterial
  1
Global
 72
     1
 94
      127
  0
MLINESTYLE
  5
18
102
{ACAD_REACTORS
330
17
102
}
330
17
100
AcDbMlineStyle
  2
Standard
 70
     0
  3

 62
   256
 51
90.0
 52
90.0
 71
     2
 49
0.5
 62
   256
  6
BYLAYER
 49
-0.5
 62
   256
  6
BYLAYER
  0
ACDBPLACEHOLDER
  5
F
102
{ACAD_REACTORS
330
E
102
}
330
E
  0
VISUALSTYLE
  5
2F
102
{ACAD_REACTORS
330
2A
102
}
330
2A
100
AcDbVisualStyle
  2
2dWireframe
 70
     4
177
     2
291
     0
 71
     0
176
     1
 72
     2
176
     1
 73
     0
176
     1
 90
        0
176
     1
 40
-0.6
176
     1
 41
-30.0
176
     1
 62
     5
 63
     7
421
 16777215
176
     1
 74
     1
176
     1
 91
        4
176
     1
 64
     7
176
     1
 65
   257
176
     1
 75
     1
176
     1
175
     1
176
     1
 42
1.0
176
     1
 92
        0
176
     1
 66
   257
176
     1
 43
1.0
176
     1
 76
     1
176
     1
 77
     6
176
     1
 78
     2
176
     1
 67
     7
176
     1
 79
     5
176
     1
170
     0
176
     1
171
     0
176
     1
290
     0
176
     1
 93
        1
176
     1
 44
0.0
176
     1
173
     0
176
     1
  0
VISUALSTYLE
  5
31
102
{ACAD_REACTORS
330
2A
102
}
330
2A
100
AcDbVisualStyle
  2
3D Hidden
 70
     6
177
     2
291
     0
 71
     1
176
     1
 72
     2
176
     1
 73
     2
176
     1
 90
        0
176
     1
 40
-0.6
176
     1
 41
-30.0
176
     1
 62
     5
 63
     7
421
 16777215
176
     1
 74
     2
176
     1
 91
        2
176
     1
 64
     7
176
     1
 65
   257
176
     1
 75
     2
176
     1
175
     1
176
     1
 42
40.0
176
     1
 92
        0
176
     1
 66
   257
176
     1
 43
1.0
176
     1
 76
     1
176
     1
 77
     6
176
     1
 78
     2
176
     1
 67
     7
176
     1
 79
     3
176
     1
170
     0
176
     1
171
     0
176
     1
290
     0
176
     1
 93
        1
176
     1
 44
0.0
176
     1
173
     0
176
     1
  0
VISUALSTYLE
  5
30
102
{ACAD_REACTORS
330
2A
102
}
330
2A
100
AcDbVisualStyle
  2
3dWireframe
 70
     5
177
     2
291
     0
 71
     0
176
     1
 72
     2
176
     1
 73
     0
176
     1
 90
        0
176
     1
 40
-0.6
176
     1
 41
-30.0
176
     1
 62
     5
 63
     7
421
 16777215
176
     1
 74
     1
176
     1
 91
        4
176
     1
 64
     7
176
     1
 65
   257
176
     1
 75
     1
176
     1
175
     1
176
     1
 42
1.0
176
     1
 92
        0
176
     1
 66
   257
176
     1
 43
1.0
176
     1
 76
     1
176
     1
 77
     6
176
     1
 78
     2
176
     1
 67
     7
176
     1
 79
     5
176
     1
170
     0
176
     1
171
     0
176
     1
290
     0
176
     1
 93
        1
176
     1
 44
0.0
176
     1
173
     0
176
     1
  0
VISUALSTYLE
  5
32
102
{ACAD_REACTORS
330
2A
102
}
330
2A
100
AcDbVisualStyle
  2
Basic
 70
     7
177
     2
291
     1
 71
     1
176
     1
 72
     0
176
     1
 73
     1
176
     1
 90
        0
176
     1
 40
-0.6
176
     1
 41
-30.0
176
     1
 62
     5
 63
     7
421
 16777215
176
     1
 74
     0
176
     1
 91
        4
176
     1
 64
     7
176
     1
 65
   257
176
     1
 75
     1
176
     1
175
     1
176
     1
 42
1.0
176
     1
 92
        8
176
     1
 66
     7
176
     1
 43
1.0
176
     1
 76
     1
176
     1
 77
     6
176
     1
 78
     2
176
     1
 67
     7
176
     1
 79
     5
176
     1
170
     0
176
     1
171
     0
176
     1
290
     0
176
     1
 93
        1
176
     1
 44
0.0
176
     1
173
     0
176
     1
  0
VISUALSTYLE
  5
36
102
{ACAD_REACTORS
330
2A
102
}
330
2A
100
AcDbVisualStyle
  2
Brighten
 70
    12
177
     2
291
     1
 71
     2
176
     1
 72
     2
176
     1
 73
     0
176
     1
 90
        0
176
     1
 40
-0.6
176
     1
 41
-30.0
176
     1
 62
     5
 63
     7
421
 16777215
176
     1
 74
     1
176
     1
 91
        4
176
     1
 64
     7
176
     1
 65
   257
176
     1
 75
     1
176
     1
175
     1
176
     1
 42
1.0
176
     1
 92
        8
176
     1
 66
     7
176
     1
 43
1.0
176
     1
 76
     1
176
     1
 77
     6
176
     1
 78
     2
176
     1
 67
     7
176
     1
 79
     5
176
     1
170
     0
176
     1
171
     0
176
     1
290
     0
176
     1
 93
        1
176
     1
 44
50.0
176
     1
173
     0
176
     1
  0
VISUALSTYLE
  5
3A
102
{ACAD_REACTORS
330
2A
102
}
330
2A
100
AcDbVisualStyle
  2
ColorChange
 70
    16
177
     2
291
     1
 71
     2
176
     1
 72
     2
176
     1
 73
     3
176
     1
 90
        0
176
     1
 40
-0.6
176
     1
 41
-30.0
176
     1
 62
     5
 63
     8
421
  8421504
176
     1
 74
     1
176
     1
 91
        4
176
     1
 64
     7
176
     1
 65
   257
176
     1
 75
     1
176
     1
175
     1
176
     1
 42
1.0
176
     1
 92
        8
176
     1
 66
     8
424
  8421504
176
     1
 43
1.0
176
     1
 76
     1
176
     1
 77
     6
176
     1
 78
     2
176
     1
 67
     7
176
     1
 79
     5
176
     1
170
     0
176
     1
171
     0
176
     1
290
     0
176
     1
 93
        1
176
     1
 44
0.0
176
     1
173
     0
176
     1
  0
VISUALSTYLE
  5
34
102
{ACAD_REACTORS
330
2A
102
}
330
2A
100
AcDbVisualStyle
  2
Conceptual
 70
     9
177
     2
291
     0
 71
     3
176
     1
 72
     2
176
     1
 73
     0
176
     1
 90
        0
176
     1
 40
-0.6
176
     1
 41
-30.0
176
     1
 62
     5
 63
     7
421
 16777215
176
     1
 74
     2
176
     1
 91
        2
176
     1
 64
     7
176
     1
 65
   257
176
     1
 75
     1
176
     1
175
     1
176
     1
 42
40.0
176
     1
 92
        8
176
     1
 66
     7
176
     1
 43
1.0
176
     1
 76
     1
176
     1
 77
     6
176
     1
 78
     2
176
     1
 67
     7
176
     1
 79
     3
176
     1
170
     0
176
     1
171
     0
176
     1
290
     0
176
     1
 93
        1
176
     1
 44
0.0
176
     1
173
     0
176
     1
  0
VISUALSTYLE
  5
35
102
{ACAD_REACTORS
330
2A
102
}
330
2A
100
AcDbVisualStyle
  2
Dim
 70
    11
177
     2
291
     1
 71
     2
176
     1
 72
     2
176
     1
 73
     0
176
     1
 90
        0
176
     1
 40
-0.6
176
     1
 41
-30.0
176
     1
 62
     5
 63
     7
421
 16777215
176
     1
 74
     1
176
     1
 91
        4
176
     1
 64
     7
176
     1
 65
   257
176
     1
 75
     1
176
     1
175
     1
176
     1
 42
1.0
176
     1
 92
        8
176
     1
 66
     7
176
     1
 43
1.0
176
     1
 76
     1
176
     1
 77
     6
176
     1
 78
     2
176
     1
 67
     7
176
     1
 79
     5
176
     1
170
     0
176
     1
171
     0
176
     1
290
     0
176
     1
 93
        1
176
     1
 44
-50.0
176
     1
173
     0
176
     1
  0
VISUALSTYLE
  5
39
102
{ACAD_REACTORS
330
2A
102
}
330
2A
100
AcDbVisualStyle
  2
Facepattern
 70
    15
177
     2
291
     1
 71
     2
176
     1
 72
     2
176
     1
 73
     0
176
     1
 90
        0
176
     1
 40
-0.6
176
     1
 41
-30.0
176
     1
 62
     5
 63
     7
421
 16777215
176
     1
 74
     1
176
     1
 91
        4
176
     1
 64
     7
176
     1
 65
   257
176
     1
 75
     1
176
     1
175
     1
176
     1
 42
1.0
176
     1
 92
        8
176
     1
 66
     7
176
     1
 43
1.0
176
     1
 76
     1
176
     1
 77
     6
176
     1
 78
     2
176
     1
 67
     7
176
     1
 79
     5
176
     1
170
     0
176
     1
171
     0
176
     1
290
     0
176
     1
 93
        1
176
     1
 44
0.0
176
     1
173
     0
176
     1
  0
VISUALSTYLE
  5
2B
102
{ACAD_REACTORS
330
2A
102
}
330
2A
100
AcDbVisualStyle
  2
Flat
 70
     0
177
     2
291
     1
 71
     2
176
     1
 72
     1
176
     1
 73
     1
176
     1
 90
        2
176
     1
 40
-0.6
176
     1
 41
30.0
176
     1
 62
     5
 63
     7
421
 16777215
176
     1
 74
     0
176
     1
 91
        4
176
     1
 64
     7
176
     1
 65
   257
176
     1
 75
     1
176
     1
175
     1
176
     1
 42
1.0
176
     1
 92
        8
176
     1
 66
     7
176
     1
 43
1.0
176
     1
 76
     1
176
     1
 77
     6
176
     1
 78
     2
176
     1
 67
     7
176
     1
 79
     5
176
     1
170
     0
176
     1
171
     0
176
     1
290
     0
176
     1
 93
       13
176
     1
 44
0.0
176
     1
173
     0
176
     1
  0
VISUALSTYLE
  5
2C
102
{ACAD_REACTORS
330
2A
102
}
330
2A
100
AcDbVisualStyle
  2
FlatWithEdges
 70
     1
177
     2
291
     1
 71
     2
176
     1
 72
     1
176
     1
 73
     1
176
     1
 90
        2
176
     1
 40
-0.6
176
     1
 41
30.0
176
     1
 62
     5
 63
     7
421
 16777215
176
     1
 74
     1
176
     1
 91
        4
176
     1
 64
     7
176
     1
 65
   257
176
     1
 75
     1
176
     1
175
     1
176
     1
 42
1.0
176
     1
 92
        0
176
     1
 66
   257
176
     1
 43
1.0
176
     1
 76
     1
176
     1
 77
     6
176
     1
 78
     2
176
     1
 67
     7
176
     1
 79
     5
176
     1
170
     0
176
     1
171
     0
176
     1
290
     0
176
     1
 93
       13
176
     1
 44
0.0
176
     1
173
     0
176
     1
  0
VISUALSTYLE
  5
2D
102
{ACAD_REACTORS
330
2A
102
}
330
2A
100
AcDbVisualStyle
  2
Gouraud
 70
     2
177
     2
291
     1
 71
     2
176
     1
 72
     2
176
     1
 73
     1
176
     1
 90
        2
176
     1
 40
-0.6
176
     1
 41
30.0
176
     1
 62
     5
 63
     7
421
 16777215
176
     1
 74
     0
176
     1
 91
        4
176
     1
 64
     7
176
     1
 65
   257
176
     1
 75
     1
176
     1
175
     1
176
     1
 42
1.0
176
     1
 92
        0
176
     1
 66
     7
176
     1
 43
1.0
176
     1
 76
     1
176
     1
 77
     6
176
     1
 78
     2
176
     1
 67
     7
176
     1
 79
     5
176
     1
170
     0
176
     1
171
     0
176
     1
290
     0
176
     1
 93
       13
176
     1
 44
0.0
176
     1
173
     0
176
     1
  0
VISUALSTYLE
  5
2E
102
{ACAD_REACTORS
330
2A
102
}
330
2A
100
AcDbVisualStyle
  2
GouraudWithEdges
 70
     3
177
     2
291
     1
 71
     2
176
     1
 72
     2
176
     1
 73
     1
176
     1
 90
        2
176
     1
 40
-0.6
176
     1
 41
30.0
176
     1
 62
     5
 63
     7
421
 16777215
176
     1
 74
     1
176
     1
 91
        4
176
     1
 64
     7
176
     1
 65
   257
176
     1
 75
     1
176
     1
175
     1
176
     1
 42
1.0
176
     1
 92
        0
176
     1
 66
   257
176
     1
 43
1.0
176
     1
 76
     1
176
     1
 77
     6
176
     1
 78
     2
176
     1
 67
     7
176
     1
 79
     5
176
     1
170
     0
176
     1
171
     0
176
     1
290
     0
176
     1
 93
       13
176
     1
 44
0.0
176
     1
173
     0
176
     1
  0
VISUALSTYLE
  5
38
102
{ACAD_REACTORS
330
2A
102
}
330
2A
100
AcDbVisualStyle
  2
Linepattern
 70
    14
177
     2
291
     1
 71
     2
176
     1
 72
     2
176
     1
 73
     0
176
     1
 90
        0
176
     1
 40
-0.6
176
     1
 41
-30.0
176
     1
 62
     5
 63
     7
421
 16777215
176
     1
 74
     1
176
     1
 91
        4
176
     1
 64
     7
176
     1
 65
   257
176
     1
 75
     7
176
     1
175
     7
176
     1
 42
1.0
176
     1
 92
        8
176
     1
 66
     7
176
     1
 43
1.0
176
     1
 76
     1
176
     1
 77
     6
176
     1
 78
     2
176
     1
 67
     7
176
     1
 79
     5
176
     1
170
     0
176
     1
171
     0
176
     1
290
     0
176
     1
 93
        1
176
     1
 44
0.0
176
     1
173
     0
176
     1
  0
VISUALSTYLE
  5
33
102
{ACAD_REACTORS
330
2A
102
}
330
2A
100
AcDbVisualStyle
  2
Realistic
 70
     8
177
     2
291
     0
 71
     2
176
     1
 72
     2
176
     1
 73
     0
176
     1
 90
        0
176
     1
 40
-0.6
176
     1
 41
-30.0
176
     1
 62
     5
 63
     7
421
 16777215
176
     1
 74
     1
176
     1
 91
        0
176
     1
 64
     7
176
     1
 65
   257
176
     1
 75
     1
176
     1
175
     1
176
     1
 42
1.0
176
     1
 92
        8
176
     1
 66
     8
424
  7895160
176
     1
 43
1.0
176
     1
 76
     1
176
     1
 77
     6
176
     1
 78
     2
176
     1
 67
     7
176
     1
 79
     5
176
     1
170
     0
176
     1
171
     0
176
     1
290
     0
176
     1
 93
       13
176
     1
 44
0.0
176
     1
173
     0
176
     1
  0
VISUALSTYLE
  5
37
102
{ACAD_REACTORS
330
2A
102
}
330
2A
100
AcDbVisualStyle
  2
Thicken
 70
    13
177
     2
291
     1
 71
     2
176
     1
 72
     2
176
     1
 73
     0
176
     1
 90
        0
176
     1
 40
-0.6
176
     1
 41
-30.0
176
     1
 62
     5
 63
     7
421
 16777215
176
     1
 74
     1
176
     1
 91
        4
176
     1
 64
     7
176
     1
 65
   257
176
     1
 75
     1
176
     1
175
     1
176
     1
 42
1.0
176
     1
 92
       12
176
     1
 66
     7
176
     1
 43
1.0
176
     1
 76
     1
176
     1
 77
     6
176
     1
 78
     2
176
     1
 67
     7
176
     1
 79
     5
176
     1
170
     0
176
     1
171
     0
176
     1
290
     0
176
     1
 93
        1
176
     1
 44
0.0
176
     1
173
     0
176
     1
  0
ENDSEC
  0
EOF
