  0
SECTION
  2
HEADER
  9
$ACADVER
  1
AC1024
  9
$ACADMAINTVER
 70
     6
  9
$DWGCODEPAGE
  3
UNDEFINED
  9
$INSBASE
 10
0.0
 20
0.0
 30
0.0
  9
$EXTMIN
 10
1.000000000000000E+20
 20
1.000000000000000E+20
 30
1.000000000000000E+20
  9
$EXTMAX
 10
-1.000000000000000E+20
 20
-1.000000000000000E+20
 30
-1.000000000000000E+20
  9
$LIMMIN
 10
0.0
 20
0.0
  9
$LIMMAX
 10
12.0
 20
9.0
  9
$ORTHOMODE
 70
     0
  9
$REGENMODE
 70
     1
  9
$FILLMODE
 70
     1
  9
$QTEXTMODE
 70
     0
  9
$MIRRTEXT
 70
     1
  9
$LTSCALE
 40
1.0
  9
$ATTMODE
 70
     1
  9
$TEXTSIZE
 40
0.2
  9
$TRACEWID
 40
0.05
  9
$TEXTSTYLE
  7
Standard
  9
$CLAYER
  8
0
  9
$CELTYPE
  6
ByLayer
  9
$CECOLOR
 62
   256
  9
$CELTSCALE
 40
1.0
  9
$DISPSILH
 70
     0
  9
$DIMSCALE
 40
1.0
  9
$DIMASZ
 40
0.18
  9
$DIMEXO
 40
0.0625
  9
$DIMDLI
 40
0.38
  9
$DIMRND
 40
0.0
  9
$DIMDLE
 40
0.0
  9
$DIMEXE
 40
0.18
  9
$DIMTP
 40
0.0
  9
$DIMTM
 40
0.0
  9
$DIMTXT
 40
0.18
  9
$DIMCEN
 40
0.09
  9
$DIMTSZ
 40
0.0
  9
$DIMTOL
 70
     0
  9
$DIMLIM
 70
     0
  9
$DIMTIH
 70
     1
  9
$DIMTOH
 70
     1
  9
$DIMSE1
 70
     0
  9
$DIMSE2
 70
     0
  9
$DIMTAD
 70
     0
  9
$DIMZIN
 70
     0
  9
$DIMBLK
  1

  9
$DIMASO
 70
     1
  9
$DIMSHO
 70
     1
  9
$DIMPOST
  1

  9
$DIMAPOST
  1

  9
$DIMALT
 70
     0
  9
$DIMALTD
 70
     2
  9
$DIMALTF
 40
25.4
  9
$DIMLFAC
 40
1.0
  9
$DIMTOFL
 70
     0
  9
$DIMTVP
 40
0.0
  9
$DIMTIX
 70
     0
  9
$DIMSOXD
 70
     0
  9
$DIMSAH
 70
     0
  9
$DIMBLK1
  1

  9
$DIMBLK2
  1

  9
$DIMSTYLE
  2
Standard
  9
$DIMCLRD
 70
     0
  9
$DIMCLRE
 70
     0
  9
$DIMCLRT
 70
     0
  9
$DIMTFAC
 40
1.0
  9
$DIMGAP
 40
0.09
  9
$DIMJUST
 70
     0
  9
$DIMSD1
 70
     0
  9
$DIMSD2
 70
     0
  9
$DIMTOLJ
 70
     1
  9
$DIMTZIN
 70
     0
  9
$DIMALTZ
 70
     0
  9
$DIMALTTZ
 70
     0
  9
$DIMUPT
 70
     0
  9
$DIMDEC
 70
     4
  9
$DIMTDEC
 70
     4
  9
$DIMALTU
 70
     2
  9
$DIMALTTD
 70
     2
  9
$DIMTXSTY
  7
Standard
  9
$DIMAUNIT
 70
     0
  9
$DIMADEC
 70
     0
  9
$DIMALTRND
 40
0.0
  9
$DIMAZIN
 70
     0
  9
$DIMDSEP
 70
    46
  9
$DIMATFIT
 70
     3
  9
$DIMFRAC
 70
     0
  9
$DIMLDRBLK
  1

  9
$DIMLUNIT
 70
     2
  9
$DIMLWD
 70
    -2
  9
$DIMLWE
 70
    -2
  9
$DIMTMOVE
 70
     0
  9
$DIMFXL
 40
1.0
  9
$DIMFXLON
 70
     0
  9
$DIMJOGANG
 40
0.7853981633974483
  9
$DIMTFILL
 70
     0
  9
$DIMTFILLCLR
 70
     0
  9
$DIMARCSYM
 70
     0
  9
$DIMLTYPE
  6

  9
$DIMLTEX1
  6

  9
$DIMLTEX2
  6

  9
$DIMTXTDIRECTION
 70
     0
  9
$LUNITS
 70
     2
  9
$LUPREC
 70
     4
  9
$SKETCHINC
 40
0.1
  9
$FILLETRAD
 40
0.5
  9
$AUNITS
 70
     0
  9
$AUPREC
 70
     0
  9
$MENU
  1
.
  9
$ELEVATION
 40
0.0
  9
$PELEVATION
 40
0.0
  9
$THICKNESS
 40
0.0
  9
$LIMCHECK
 70
     0
  9
$CHAMFERA
 40
0.5
  9
$CHAMFERB
 40
0.5
  9
$CHAMFERC
 40
1.0
  9
$CHAMFERD
 40
0.0
  9
$SKPOLY
 70
     0
  9
$TDCREATE
 40
2457898.565011562
  9
$TDUCREATE
 40
2457898.523344907
  9
$TDUPDATE
 40
2457898.565011562
  9
$TDUUPDATE
 40
2457898.523344907
  9
$TDINDWG
 40
0.0000000116
  9
$TDUSRTIMER
 40
0.0000000116
  9
$USRTIMER
 70
     1
  9
$ANGBASE
 50
0.0
  9
$ANGDIR
 70
     0
  9
$PDMODE
 70
     0
  9
$PDSIZE
 40
0.0
  9
$PLINEWID
 40
0.0
  9
$SPLFRAME
 70
     0
  9
$SPLINETYPE
 70
     6
  9
$SPLINESEGS
 70
     8
  9
$HANDSEED
  5
9E
  9
$SURFTAB1
 70
     6
  9
$SURFTAB2
 70
     6
  9
$SURFTYPE
 70
     6
  9
$SURFU
 70
     6
  9
$SURFV
 70
     6
  9
$UCSBASE
  2

  9
$UCSNAME
  2

  9
$UCSORG
 10
0.0
 20
0.0
 30
0.0
  9
$UCSXDIR
 10
1.0
 20
0.0
 30
0.0
  9
$UCSYDIR
 10
0.0
 20
1.0
 30
0.0
  9
$UCSORTHOREF
  2

  9
$UCSORTHOVIEW
 70
     0
  9
$UCSORGTOP
 10
0.0
 20
0.0
 30
0.0
  9
$UCSORGBOTTOM
 10
0.0
 20
0.0
 30
0.0
  9
$UCSORGLEFT
 10
0.0
 20
0.0
 30
0.0
  9
$UCSORGRIGHT
 10
0.0
 20
0.0
 30
0.0
  9
$UCSORGFRONT
 10
0.0
 20
0.0
 30
0.0
  9
$UCSORGBACK
 10
0.0
 20
0.0
 30
0.0
  9
$PUCSBASE
  2

  9
$PUCSNAME
  2

  9
$PUCSORG
 10
0.0
 20
0.0
 30
0.0
  9
$PUCSXDIR
 10
1.0
 20
0.0
 30
0.0
  9
$PUCSYDIR
 10
0.0
 20
1.0
 30
0.0
  9
$PUCSORTHOREF
  2

  9
$PUCSORTHOVIEW
 70
     0
  9
$PUCSORGTOP
 10
0.0
 20
0.0
 30
0.0
  9
$PUCSORGBOTTOM
 10
0.0
 20
0.0
 30
0.0
  9
$PUCSORGLEFT
 10
0.0
 20
0.0
 30
0.0
  9
$PUCSORGRIGHT
 10
0.0
 20
0.0
 30
0.0
  9
$PUCSORGFRONT
 10
0.0
 20
0.0
 30
0.0
  9
$PUCSORGBACK
 10
0.0
 20
0.0
 30
0.0
  9
$USERI1
 70
     0
  9
$USERI2
 70
     0
  9
$USERI3
 70
     0
  9
$USERI4
 70
     0
  9
$USERI5
 70
     0
  9
$USERR1
 40
0.0
  9
$USERR2
 40
0.0
  9
$USERR3
 40
0.0
  9
$USERR4
 40
0.0
  9
$USERR5
 40
0.0
  9
$WORLDVIEW
 70
     1
  9
$SHADEDGE
 70
     3
  9
$SHADEDIF
 70
    70
  9
$TILEMODE
 70
     1
  9
$MAXACTVP
 70
    64
  9
$PINSBASE
 10
0.0
 20
0.0
 30
0.0
  9
$PLIMCHECK
 70
     0
  9
$PEXTMIN
 10
1.000000000000000E+20
 20
1.000000000000000E+20
 30
1.000000000000000E+20
  9
$PEXTMAX
 10
-1.000000000000000E+20
 20
-1.000000000000000E+20
 30
-1.000000000000000E+20
  9
$PLIMMIN
 10
0.0
 20
0.0
  9
$PLIMMAX
 10
12.0
 20
9.0
  9
$UNITMODE
 70
     0
  9
$VISRETAIN
 70
     1
  9
$PLINEGEN
 70
     0
  9
$PSLTSCALE
 70
     1
  9
$TREEDEPTH
 70
  3020
  9
$CMLSTYLE
  2
Standard
  9
$CMLJUST
 70
     0
  9
$CMLSCALE
 40
1.0
  9
$PROXYGRAPHICS
 70
     1
  9
$MEASUREMENT
 70
     0
  9
$CELWEIGHT
370
    -1
  9
$ENDCAPS
280
     0
  9
$JOINSTYLE
280
     0
  9
$LWDISPLAY
290
     1
  9
$INSUNITS
 70
     1
  9
$HYPERLINKBASE
  1

  9
$STYLESHEET
  1

  9
$XEDIT
290
     1
  9
$CEPSNTYPE
380
     0
  9
$PSTYLEMODE
290
     1
  9
$FINGERPRINTGUID
  2
{66210A9B-96FD-024B-3983-176A5060E6AF}
  9
$VERSIONGUID
  2
{FAEB1C32-E019-11D5-929B-00C0DF256EC4}
  9
$EXTNAMES
290
     1
  9
$PSVPSCALE
 40
0.0
  9
$OLESTARTUP
290
     0
  9
$SORTENTS
280
   127
  9
$INDEXCTL
280
     0
  9
$HIDETEXT
280
     1
  9
$XCLIPFRAME
280
     2
  9
$HALOGAP
280
     0
  9
$OBSCOLOR
 70
   257
  9
$OBSLTYPE
280
     0
  9
$INTERSECTIONDISPLAY
280
     0
  9
$INTERSECTIONCOLOR
 70
   257
  9
$DIMASSOC
280
     2
  9
$PROJECTNAME
  1

  9
$CAMERADISPLAY
290
     0
  9
$LENSLENGTH
 40
50.0
  9
$CAMERAHEIGHT
 40
0.0
  9
$STEPSPERSEC
 40
2.0
  9
$STEPSIZE
 40
6.0
  9
$3DDWFPREC
 40
2.0
  9
$PSOLWIDTH
 40
0.25
  9
$PSOLHEIGHT
 40
4.0
  9
$LOFTANG1
 40
1.570796326794897
  9
$LOFTANG2
 40
1.570796326794897
  9
$LOFTMAG1
 40
0.0
  9
$LOFTMAG2
 40
0.0
  9
$LOFTPARAM
 70
     7
  9
$LOFTNORMALS
280
     1
  9
$LATITUDE
 40
37.795
  9
$LONGITUDE
 40
-122.394
  9
$NORTHDIRECTION
 40
0.0
  9
$TIMEZONE
 70
 -8000
  9
$LIGHTGLYPHDISPLAY
280
     1
  9
$TILEMODELIGHTSYNCH
280
     1
  9
$CMATERIAL
347
3C
  9
$SOLIDHIST
280
     1
  9
$SHOWHIST
280
     1
  9
$DWFFRAME
280
     2
  9
$DGNFRAME
280
     2
  9
$REALWORLDSCALE
290
     1
  9
$INTERFERECOLOR
 62
   256
  9
$CSHADOW
280
     0
  9
$SHADOWPLANELOCATION
 40
0.0
  0
ENDSEC
  0
SECTION
  2
CLASSES
  0
CLASS
  1
ACDBDICTIONARYWDFLT
  2
AcDbDictionaryWithDefault
  3
ObjectDBX Classes
 90
        0
 91
        4
280
     0
281
     0
  0
CLASS
  1
VISUALSTYLE
  2
AcDbVisualStyle
  3
ObjectDBX Classes
 90
     4095
 91
        4
280
     0
281
     0
  0
CLASS
  1
MATERIAL
  2
AcDbMaterial
  3
ObjectDBX Classes
 90
     1153
 91
        4
280
     0
281
     0
  0
CLASS
  1
SUN
  2
AcDbSun
  3
SCENEOE
 90
     1024
 91
        4
280
     0
281
     0
  0
ENDSEC
  0
SECTION
  2
TABLES
  0
TABLE
  2
VPORT
  5
8
330
0
100
AcDbSymbolTable
 70
     1
  0
VPORT
  5
29
330
8
100
AcDbSymbolTableRecord
100
AcDbViewportTableRecord
  2
*Active
 70
     0
 10
0.0
 20
0.0
 11
1.0
 21
1.0
 12
0.0
 22
0.0
 13
0.0
 23
0.0
 14
0.5
 24
0.5
 15
0.5
 25
0.5
 16
0.0
 26
0.0
 36
1.0
 17
2195.954798419847
 27
674.0427160290138
 37
0.0
 40
342.8828557714862
 41
0.6416185476815406
 42
50.0
 43
0.0
 44
0.0
 50
0.0
 51
0.0
 71
     0
 72
   100
 73
     1
 74
     3
 75
     0
 76
     0
 77
     0
 78
     0
281
     0
 65
     1
110
0.0
120
0.0
130
0.0
111
1.0
121
0.0
131
0.0
112
0.0
122
1.0
132
0.0
 79
     0
146
0.0
 60
     3
 61
     5
292
     1
282
     1
141
0.0
142
0.0
 63
   250
361
3F
  0
ENDTAB
  0
TABLE
  2
LTYPE
  5
5
330
0
100
AcDbSymbolTable
 70
     1
  0
LTYPE
  5
14
330
5
100
AcDbSymbolTableRecord
100
AcDbLinetypeTableRecord
  2
ByBlock
 70
     0
  3

 72
    65
 73
     0
 40
0.0
  0
LTYPE
  5
15
330
5
100
AcDbSymbolTableRecord
100
AcDbLinetypeTableRecord
  2
ByLayer
 70
     0
  3

 72
    65
 73
     0
 40
0.0
  0
LTYPE
  5
16
330
5
100
AcDbSymbolTableRecord
100
AcDbLinetypeTableRecord
  2
Continuous
 70
     0
  3
Solid line
 72
    65
 73
     0
 40
0.0
  0
ENDTAB
  0
TABLE
  2
LAYER
  5
2
330
0
100
AcDbSymbolTable
 70
     6
  0
LAYER
  5
10
330
2
100
AcDbSymbolTableRecord
100
AcDbLayerTableRecord
  2
0
 70
     0
 62
     7
  6
Continuous
370
    -3
390
F
347
3E
  0
LAYER
  5
40
330
2
100
AcDbSymbolTableRecord
100
AcDbLayerTableRecord
  2
Layer 1
 70
     5
 62
     7
  6
Continuous
370
    -3
390
F
347
3E
  0
LAYER
  5
41
330
2
100
AcDbSymbolTableRecord
100
AcDbLayerTableRecord
  2
Layer 2
 70
     0
 62
     7
  6
Continuous
370
    -3
390
F
347
3E
  0
LAYER
  5
8F
330
2
100
AcDbSymbolTableRecord
100
AcDbLayerTableRecord
  2
Layer 3
 70
     0
 62
     7
  6
Continuous
370
    -3
390
F
347
3E
  0
LAYER
  5
90
330
2
100
AcDbSymbolTableRecord
100
AcDbLayerTableRecord
  2
Layer 5
 70
     0
 62
     7
  6
Continuous
370
    -3
390
F
347
3E
  0
LAYER
  5
91
330
2
100
AcDbSymbolTableRecord
100
AcDbLayerTableRecord
  2
Layer 6
 70
     0
 62
     7
  6
Continuous
370
    -3
390
F
347
3E
  0
ENDTAB
  0
TABLE
  2
STYLE
  5
3
330
0
100
AcDbSymbolTable
 70
     1
  0
STYLE
  5
11
330
3
100
AcDbSymbolTableRecord
100
AcDbTextStyleTableRecord
  2
Standard
 70
     0
 40
0.0
 41
1.0
 50
0.0
 71
     0
 42
0.2
  3
txt
  4

  0
ENDTAB
  0
TABLE
  2
VIEW
  5
6
330
0
100
AcDbSymbolTable
 70
     0
  0
ENDTAB
  0
TABLE
  2
UCS
  5
7
330
0
100
AcDbSymbolTable
 70
     0
  0
ENDTAB
  0
TABLE
  2
APPID
  5
9
330
0
100
AcDbSymbolTable
 70
     1
  0
APPID
  5
12
330
9
100
AcDbSymbolTableRecord
100
AcDbRegAppTableRecord
  2
ACAD
 70
     0
  0
ENDTAB
  0
TABLE
  2
DIMSTYLE
  5
A
330
0
100
AcDbSymbolTable
 70
     1
100
AcDbDimStyleTable
  0
DIMSTYLE
105
27
330
A
100
AcDbSymbolTableRecord
100
AcDbDimStyleTableRecord
  2
Standard
 70
     0
178
     0
340
11
  0
ENDTAB
  0
TABLE
  2
BLOCK_RECORD
  5
1
330
0
100
AcDbSymbolTable
 70
     2
  0
BLOCK_RECORD
  5
1F
330
1
100
AcDbSymbolTableRecord
100
AcDbBlockTableRecord
  2
*Model_Space
340
22
 70
     0
280
     1
281
     0
  0
BLOCK_RECORD
  5
1B
330
1
100
AcDbSymbolTableRecord
100
AcDbBlockTableRecord
  2
*Paper_Space
340
1E
 70
     0
280
     1
281
     0
  0
BLOCK_RECORD
  5
23
330
1
100
AcDbSymbolTableRecord
100
AcDbBlockTableRecord
  2
*Paper_Space0
340
26
 70
     0
280
     1
281
     0
  0
BLOCK_RECORD
  5
92
330
1
100
AcDbSymbolTableRecord
100
AcDbBlockTableRecord
  2
block 2
340
0
102
{BLKREFS
331
93
102
}
 70
     0
280
     1
281
     0
  0
ENDTAB
  0
ENDSEC
  0
SECTION
  2
BLOCKS
  0
BLOCK
  5
20
330
1F
100
AcDbEntity
  8
0
100
AcDbBlockBegin
  2
*Model_Space
 70
     0
 10
0.0
 20
0.0
 30
0.0
  3
*Model_Space
  1

  0
ENDBLK
  5
21
330
1F
100
AcDbEntity
  8
0
100
AcDbBlockEnd
  0
BLOCK
  5
1C
330
1B
100
AcDbEntity
 67
     1
  8
0
100
AcDbBlockBegin
  2
*Paper_Space
 70
     0
 10
0.0
 20
0.0
 30
0.0
  3
*Paper_Space
  1

  0
ENDBLK
  5
1D
330
1B
100
AcDbEntity
 67
     1
  8
0
100
AcDbBlockEnd
  0
BLOCK
  5
24
330
23
100
AcDbEntity
  8
0
100
AcDbBlockBegin
  2
*Paper_Space0
 70
     0
 10
0.0
 20
0.0
 30
0.0
  3
*Paper_Space0
  1

  0
ENDBLK
  5
25
330
23
100
AcDbEntity
  8
0
100
AcDbBlockEnd
  0
BLOCK
  5
94
330
92
100
AcDbEntity
  8
0
100
AcDbBlockBegin
  2
block 2
 70
     0
 10
0.0
 20
0.0
 30
0.0
  3
block 2
  1

  0
SPLINE
  5
96
330
92
100
AcDbEntity
  8
Layer 6
370
     0
100
AcDbSpline
210
0.0
220
0.0
230
1.0
 70
    11
 71
     3
 72
    65
 73
    61
 74
     0
 42
0.0000000001
 43
0.0000000001
 12
1.0
 22
0.0
 32
0.0
 13
1.0
 23
0.0
 33
0.0
 40
0.0
 40
0.0
 40
0.0
 40
0.0
 40
1.0
 40
1.0
 40
1.0
 40
2.0
 40
2.0
 40
2.0
 40
3.0
 40
3.0
 40
3.0
 40
4.0
 40
4.0
 40
4.0
 40
5.0
 40
5.0
 40
5.0
 40
6.0
 40
6.0
 40
6.0
 40
7.0
 40
7.0
 40
7.0
 40
8.0
 40
8.0
 40
8.0
 40
9.0
 40
9.0
 40
9.0
 40
10.0
 40
10.0
 40
10.0
 40
11.0
 40
11.0
 40
11.0
 40
12.0
 40
12.0
 40
12.0
 40
13.0
 40
13.0
 40
13.0
 40
14.0
 40
14.0
 40
14.0
 40
15.0
 40
15.0
 40
15.0
 40
16.0
 40
16.0
 40
16.0
 40
17.0
 40
17.0
 40
17.0
 40
18.0
 40
18.0
 40
18.0
 40
19.0
 40
19.0
 40
19.0
 40
20.0
 40
20.0
 40
20.0
 40
20.0
 10
2271.960374052236
 20
709.1366460086967
 30
0.0
 10
2271.942459555713
 20
709.6863971207555
 30
0.0
 10
2271.545584555812
 20
709.8985288752598
 30
0.0
 10
2271.078429608012
 20
709.6081503895468
 30
0.0
 10
2271.078429608012
 20
709.6081503895468
 30
0.0
 10
2267.161356041282
 20
707.1728554547173
 30
0.0
 10
2267.161356041282
 20
707.1728554547173
 30
0.0
 10
2259.733730175084
 20
718.6904125536173
 30
0.0
 10
2252.076144185245
 20
725.8366602460583
 30
0.0
 10
2240.797073821311
 20
733.3093307357266
 30
0.0
 10
2227.214957125488
 20
742.3079201431991
 30
0.0
 10
2211.874463693993
 20
747.064218970135
 30
0.0
 10
2196.434062493426
 20
747.064218970135
 30
0.0
 10
2169.201616211172
 20
747.064218970135
 30
0.0
 10
2143.594910488407
 20
732.6148856132872
 30
0.0
 10
2125.456138249018
 20
707.222249511237
 30
0.0
 10
2125.456138249018
 20
707.222249511237
 30
0.0
 10
2121.722860526427
 20
709.7439302153592
 30
0.0
 10
2121.722860526427
 20
709.7439302153592
 30
0.0
 10
2121.267074393728
 20
710.0517494969663
 30
0.0
 10
2120.862447928986
 20
709.8547761625971
 30
0.0
 10
2120.823862859551
 20
709.3061447065711
 30
0.0
 10
2120.823862859551
 20
709.3061447065711
 30
0.0
 10
2119.91211833938
 20
696.3890175667882
 30
0.0
 10
2119.91211833938
 20
696.3890175667882
 30
0.0
 10
2119.873361015171
 20
695.8403861107622
 30
0.0
 10
2120.246292601449
 20
695.5885496307903
 30
0.0
 10
2120.740836058357
 20
695.8292756778222
 30
0.0
 10
2120.740836058357
 20
695.8292756778222
 30
0.0
 10
2132.38319174121
 20
701.4982664261879
 30
0.0
 10
2132.38319174121
 20
701.4982664261879
 30
0.0
 10
2132.877562943343
 20
701.739078600607
 30
0.0
 10
2132.909257821807
 20
702.1879745423349
 30
0.0
 10
2132.453471689109
 20
702.4957938239421
 30
0.0
 10
2132.453471689109
 20
702.4957938239421
 30
0.0
 10
2129.093814571893
 20
704.7651643474633
 30
0.0
 10
2129.093814571893
 20
704.7651643474633
 30
0.0
 10
2146.158406038981
 20
729.2054468663098
 30
0.0
 10
2170.511958278987
 20
742.83088563786
 30
0.0
 10
2196.434062493426
 20
742.83088563786
 30
0.0
 10
2210.927923709421
 20
742.83088563786
 30
0.0
 10
2225.32497774228
 20
738.7208005965698
 30
0.0
 10
2238.068902706542
 20
730.2776467087067
 30
0.0
 10
2249.03739771248
 20
723.0106484195078
 30
0.0
 10
2256.198373188121
 20
716.285046885816
 30
0.0
 10
2263.375196102993
 20
704.8189939644203
 30
0.0
 10
2263.375196102993
 20
704.8189939644203
 30
0.0
 10
2260.102355392006
 20
702.7843205708317
 30
0.0
 10
2260.102355392006
 20
702.7843205708317
 30
0.0
 10
2259.63537269898
 20
702.4938990214251
 30
0.0
 10
2259.650014354792
 20
702.0441418058258
 30
0.0
 10
2260.135083799116
 20
701.7848122431736
 30
0.0
 10
2260.135083799116
 20
701.7848122431736
 30
0.0
 10
2271.532665447742
 20
695.6912134762508
 30
0.0
 10
2271.532665447742
 20
695.6912134762508
 30
0.0
 10
2272.017734892065
 20
695.4318839135987
 30
0.0
 10
2272.399795981379
 20
695.6694663110002
 30
0.0
 10
2272.381881484856
 20
696.2191743593654
 30
0.0
 10
2272.381881484856
 20
696.2191743593654
 30
0.0
 10
2271.960374052236
 20
709.1366460086967
 30
0.0
 10
2271.960374052236
 20
709.1366460086967
 30
0.0
  0
HATCH
  5
97
330
92
100
AcDbEntity
  8
Layer 6
 62
   179
420
  1842203
100
AcDbHatch
 10
0.0
 20
0.0
 30
0.0
210
0.0
220
0.0
230
1.0
  2
SOLID
 70
     1
 71
     0
 91
        1
 92
        1
 93
        1
 72
     4
 94
        3
 73
     0
 74
     1
 95
       65
 96
       61
 40
0.0
 40
0.0
 40
0.0
 40
0.0
 40
1.0
 40
1.0
 40
1.0
 40
2.0
 40
2.0
 40
2.0
 40
3.0
 40
3.0
 40
3.0
 40
4.0
 40
4.0
 40
4.0
 40
5.0
 40
5.0
 40
5.0
 40
6.0
 40
6.0
 40
6.0
 40
7.0
 40
7.0
 40
7.0
 40
8.0
 40
8.0
 40
8.0
 40
9.0
 40
9.0
 40
9.0
 40
10.0
 40
10.0
 40
10.0
 40
11.0
 40
11.0
 40
11.0
 40
12.0
 40
12.0
 40
12.0
 40
13.0
 40
13.0
 40
13.0
 40
14.0
 40
14.0
 40
14.0
 40
15.0
 40
15.0
 40
15.0
 40
16.0
 40
16.0
 40
16.0
 40
17.0
 40
17.0
 40
17.0
 40
18.0
 40
18.0
 40
18.0
 40
19.0
 40
19.0
 40
19.0
 40
20.0
 40
20.0
 40
20.0
 40
20.0
 10
2271.960374052236
 20
709.1366460086967
 10
2271.942459555713
 20
709.6863971207555
 10
2271.545584555812
 20
709.8985288752598
 10
2271.078429608012
 20
709.6081503895468
 10
2271.078429608012
 20
709.6081503895468
 10
2267.161356041282
 20
707.1728554547173
 10
2267.161356041282
 20
707.1728554547173
 10
2259.733730175084
 20
718.6904125536173
 10
2252.076144185245
 20
725.8366602460583
 10
2240.797073821311
 20
733.3093307357266
 10
2227.214957125488
 20
742.3079201431991
 10
2211.874463693993
 20
747.064218970135
 10
2196.434062493426
 20
747.064218970135
 10
2169.201616211172
 20
747.064218970135
 10
2143.594910488407
 20
732.6148856132872
 10
2125.456138249018
 20
707.222249511237
 10
2125.456138249018
 20
707.222249511237
 10
2121.722860526427
 20
709.7439302153592
 10
2121.722860526427
 20
709.7439302153592
 10
2121.267074393728
 20
710.0517494969663
 10
2120.862447928986
 20
709.8547761625971
 10
2120.823862859551
 20
709.3061447065711
 10
2120.823862859551
 20
709.3061447065711
 10
2119.91211833938
 20
696.3890175667882
 10
2119.91211833938
 20
696.3890175667882
 10
2119.873361015171
 20
695.8403861107622
 10
2120.246292601449
 20
695.5885496307903
 10
2120.740836058357
 20
695.8292756778222
 10
2120.740836058357
 20
695.8292756778222
 10
2132.38319174121
 20
701.4982664261879
 10
2132.38319174121
 20
701.4982664261879
 10
2132.877562943343
 20
701.739078600607
 10
2132.909257821807
 20
702.1879745423349
 10
2132.453471689109
 20
702.4957938239421
 10
2132.453471689109
 20
702.4957938239421
 10
2129.093814571893
 20
704.7651643474633
 10
2129.093814571893
 20
704.7651643474633
 10
2146.158406038981
 20
729.2054468663098
 10
2170.511958278987
 20
742.83088563786
 10
2196.434062493426
 20
742.83088563786
 10
2210.927923709421
 20
742.83088563786
 10
2225.32497774228
 20
738.7208005965698
 10
2238.068902706542
 20
730.2776467087067
 10
2249.03739771248
 20
723.0106484195078
 10
2256.198373188121
 20
716.285046885816
 10
2263.375196102993
 20
704.8189939644203
 10
2263.375196102993
 20
704.8189939644203
 10
2260.102355392006
 20
702.7843205708317
 10
2260.102355392006
 20
702.7843205708317
 10
2259.63537269898
 20
702.4938990214251
 10
2259.650014354792
 20
702.0441418058258
 10
2260.135083799116
 20
701.7848122431736
 10
2260.135083799116
 20
701.7848122431736
 10
2271.532665447742
 20
695.6912134762508
 10
2271.532665447742
 20
695.6912134762508
 10
2272.017734892065
 20
695.4318839135987
 10
2272.399795981379
 20
695.6694663110002
 10
2272.381881484856
 20
696.2191743593654
 10
2272.381881484856
 20
696.2191743593654
 10
2271.960374052236
 20
709.1366460086967
 10
2271.960374052236
 20
709.1366460086967
 97
        0
 97
        0
 75
     2
 76
     1
 98
        0
  0
SPLINE
  5
98
330
92
100
AcDbEntity
  8
Layer 6
370
     0
100
AcDbSpline
210
0.0
220
0.0
230
1.0
 70
    11
 71
     3
 72
    35
 73
    31
 74
     0
 42
0.0000000001
 43
0.0000000001
 12
1.0
 22
0.0
 32
0.0
 13
1.0
 23
0.0
 33
0.0
 40
0.0
 40
0.0
 40
0.0
 40
0.0
 40
1.0
 40
1.0
 40
1.0
 40
2.0
 40
2.0
 40
2.0
 40
3.0
 40
3.0
 40
3.0
 40
4.0
 40
4.0
 40
4.0
 40
5.0
 40
5.0
 40
5.0
 40
6.0
 40
6.0
 40
6.0
 40
7.0
 40
7.0
 40
7.0
 40
8.0
 40
8.0
 40
8.0
 40
9.0
 40
9.0
 40
9.0
 40
10.0
 40
10.0
 40
10.0
 40
10.0
 10
2203.780211851399
 20
766.5772397985901
 30
0.0
 10
2203.780211851399
 20
766.5772397985901
 30
0.0
 10
2200.534759649519
 20
766.5296974808937
 30
0.0
 10
2200.534759649519
 20
766.5296974808937
 30
0.0
 10
2200.534759649519
 20
766.5296974808937
 30
0.0
 10
2200.534759649519
 20
773.6416664732562
 30
0.0
 10
2200.534759649519
 20
773.6416664732562
 30
0.0
 10
2200.534759649519
 20
773.6416664732562
 30
0.0
 10
2194.537537428796
 20
773.6416664732562
 30
0.0
 10
2194.537537428796
 20
773.6416664732562
 30
0.0
 10
2194.537537428796
 20
773.6416664732562
 30
0.0
 10
2194.537537428796
 20
766.4418475460197
 30
0.0
 10
2194.537537428796
 20
766.4418475460197
 30
0.0
 10
2194.537537428796
 20
766.4418475460197
 30
0.0
 10
2191.197000591524
 20
766.3928410627421
 30
0.0
 10
2191.197000591524
 20
766.3928410627421
 30
0.0
 10
2190.646991097304
 20
766.3848312157389
 30
0.0
 10
2190.427710769668
 20
765.991831948259
 30
0.0
 10
2190.709691835135
 20
765.5195954846184
 30
0.0
 10
2190.709691835135
 20
765.5195954846184
 30
0.0
 10
2197.160977640814
 20
754.7144841320679
 30
0.0
 10
2197.160977640814
 20
754.7144841320679
 30
0.0
 10
2197.442958706282
 20
754.2421615410402
 30
0.0
 10
2197.892888176656
 20
754.2487933498493
 30
0.0
 10
2198.160916605408
 20
754.7291257878802
 30
0.0
 10
2198.160916605408
 20
754.7291257878802
 30
0.0
 10
2204.292842059604
 20
765.7186358762787
 30
0.0
 10
2204.292842059604
 20
765.7186358762787
 30
0.0
 10
2204.560698233582
 20
766.1989683143097
 30
0.0
 10
2204.330049090845
 20
766.5853357729804
 30
0.0
 10
2203.780211851399
 20
766.5772397985901
 30
0.0
  0
HATCH
  5
99
330
92
100
AcDbEntity
  8
Layer 6
 62
   179
420
  1842203
100
AcDbHatch
 10
0.0
 20
0.0
 30
0.0
210
0.0
220
0.0
230
1.0
  2
SOLID
 70
     1
 71
     0
 91
        1
 92
        1
 93
        1
 72
     4
 94
        3
 73
     0
 74
     1
 95
       35
 96
       31
 40
0.0
 40
0.0
 40
0.0
 40
0.0
 40
1.0
 40
1.0
 40
1.0
 40
2.0
 40
2.0
 40
2.0
 40
3.0
 40
3.0
 40
3.0
 40
4.0
 40
4.0
 40
4.0
 40
5.0
 40
5.0
 40
5.0
 40
6.0
 40
6.0
 40
6.0
 40
7.0
 40
7.0
 40
7.0
 40
8.0
 40
8.0
 40
8.0
 40
9.0
 40
9.0
 40
9.0
 40
10.0
 40
10.0
 40
10.0
 40
10.0
 10
2203.780211851399
 20
766.5772397985901
 10
2203.780211851399
 20
766.5772397985901
 10
2200.534759649519
 20
766.5296974808937
 10
2200.534759649519
 20
766.5296974808937
 10
2200.534759649519
 20
766.5296974808937
 10
2200.534759649519
 20
773.6416664732562
 10
2200.534759649519
 20
773.6416664732562
 10
2200.534759649519
 20
773.6416664732562
 10
2194.537537428796
 20
773.6416664732562
 10
2194.537537428796
 20
773.6416664732562
 10
2194.537537428796
 20
773.6416664732562
 10
2194.537537428796
 20
766.4418475460197
 10
2194.537537428796
 20
766.4418475460197
 10
2194.537537428796
 20
766.4418475460197
 10
2191.197000591524
 20
766.3928410627421
 10
2191.197000591524
 20
766.3928410627421
 10
2190.646991097304
 20
766.3848312157389
 10
2190.427710769668
 20
765.991831948259
 10
2190.709691835135
 20
765.5195954846184
 10
2190.709691835135
 20
765.5195954846184
 10
2197.160977640814
 20
754.7144841320679
 10
2197.160977640814
 20
754.7144841320679
 10
2197.442958706282
 20
754.2421615410402
 10
2197.892888176656
 20
754.2487933498493
 10
2198.160916605408
 20
754.7291257878802
 10
2198.160916605408
 20
754.7291257878802
 10
2204.292842059604
 20
765.7186358762787
 10
2204.292842059604
 20
765.7186358762787
 10
2204.560698233582
 20
766.1989683143097
 10
2204.330049090845
 20
766.5853357729804
 10
2203.780211851399
 20
766.5772397985901
 97
        0
 97
        0
 75
     2
 76
     1
 98
        0
  0
SPLINE
  5
9A
330
92
100
AcDbEntity
  8
Layer 6
370
     0
100
AcDbSpline
210
0.0
220
0.0
230
1.0
 70
    11
 71
     3
 72
    35
 73
    31
 74
     0
 42
0.0000000001
 43
0.0000000001
 12
1.0
 22
0.0
 32
0.0
 13
1.0
 23
0.0
 33
0.0
 40
0.0
 40
0.0
 40
0.0
 40
0.0
 40
1.0
 40
1.0
 40
1.0
 40
2.0
 40
2.0
 40
2.0
 40
3.0
 40
3.0
 40
3.0
 40
4.0
 40
4.0
 40
4.0
 40
5.0
 40
5.0
 40
5.0
 40
6.0
 40
6.0
 40
6.0
 40
7.0
 40
7.0
 40
7.0
 40
8.0
 40
8.0
 40
8.0
 40
9.0
 40
9.0
 40
9.0
 40
10.0
 40
10.0
 40
10.0
 40
10.0
 10
2204.123515616504
 20
823.4352679419277
 30
0.0
 10
2204.123515616504
 20
823.4352679419277
 30
0.0
 10
2197.727695848138
 20
834.4376971383958
 30
0.0
 10
2197.727695848138
 20
834.4376971383958
 30
0.0
 10
2197.45139919022
 20
834.9132064427474
 30
0.0
 10
2197.001297465073
 20
834.9118284045534
 30
0.0
 10
2196.727756883544
 20
834.4346826798462
 30
0.0
 10
2196.727756883544
 20
834.4346826798462
 30
0.0
 10
2190.397393929397
 20
823.3945296878146
 30
0.0
 10
2190.397393929397
 20
823.3945296878146
 30
0.0
 10
2190.123681093094
 20
822.9174700904946
 30
0.0
 10
2190.349851611701
 20
822.5284326828228
 30
0.0
 10
2190.899861105921
 20
822.5299829757912
 30
0.0
 10
2190.899861105921
 20
822.5299829757912
 30
0.0
 10
2194.184759651107
 20
822.5398014979241
 30
0.0
 10
2194.184759651107
 20
822.5398014979241
 30
0.0
 10
2194.184759651107
 20
822.5398014979241
 30
0.0
 10
2194.184759651107
 20
815.6222220183167
 30
0.0
 10
2194.184759651107
 20
815.6222220183167
 30
0.0
 10
2194.184759651107
 20
815.6222220183167
 30
0.0
 10
2200.18198187183
 20
815.6222220183167
 30
0.0
 10
2200.18198187183
 20
815.6222220183167
 30
0.0
 10
2200.18198187183
 20
815.6222220183167
 30
0.0
 10
2200.18198187183
 20
822.5575437396732
 30
0.0
 10
2200.18198187183
 20
822.5575437396732
 30
0.0
 10
2200.18198187183
 20
822.5575437396732
 30
0.0
 10
2203.626216083208
 20
822.5677928987418
 30
0.0
 10
2203.626216083208
 20
822.5677928987418
 30
0.0
 10
2204.176225577428
 20
822.5694293190973
 30
0.0
 10
2204.399984529195
 20
822.9597586375761
 30
0.0
 10
2204.123515616504
 20
823.4352679419277
 30
0.0
  0
HATCH
  5
9B
330
92
100
AcDbEntity
  8
Layer 6
 62
   179
420
  1842203
100
AcDbHatch
 10
0.0
 20
0.0
 30
0.0
210
0.0
220
0.0
230
1.0
  2
SOLID
 70
     1
 71
     0
 91
        1
 92
        1
 93
        1
 72
     4
 94
        3
 73
     0
 74
     1
 95
       35
 96
       31
 40
0.0
 40
0.0
 40
0.0
 40
0.0
 40
1.0
 40
1.0
 40
1.0
 40
2.0
 40
2.0
 40
2.0
 40
3.0
 40
3.0
 40
3.0
 40
4.0
 40
4.0
 40
4.0
 40
5.0
 40
5.0
 40
5.0
 40
6.0
 40
6.0
 40
6.0
 40
7.0
 40
7.0
 40
7.0
 40
8.0
 40
8.0
 40
8.0
 40
9.0
 40
9.0
 40
9.0
 40
10.0
 40
10.0
 40
10.0
 40
10.0
 10
2204.123515616504
 20
823.4352679419277
 10
2204.123515616504
 20
823.4352679419277
 10
2197.727695848138
 20
834.4376971383958
 10
2197.727695848138
 20
834.4376971383958
 10
2197.45139919022
 20
834.9132064427474
 10
2197.001297465073
 20
834.9118284045534
 10
2196.727756883544
 20
834.4346826798462
 10
2196.727756883544
 20
834.4346826798462
 10
2190.397393929397
 20
823.3945296878146
 10
2190.397393929397
 20
823.3945296878146
 10
2190.123681093094
 20
822.9174700904946
 10
2190.349851611701
 20
822.5284326828228
 10
2190.899861105921
 20
822.5299829757912
 10
2190.899861105921
 20
822.5299829757912
 10
2194.184759651107
 20
822.5398014979241
 10
2194.184759651107
 20
822.5398014979241
 10
2194.184759651107
 20
822.5398014979241
 10
2194.184759651107
 20
815.6222220183167
 10
2194.184759651107
 20
815.6222220183167
 10
2194.184759651107
 20
815.6222220183167
 10
2200.18198187183
 20
815.6222220183167
 10
2200.18198187183
 20
815.6222220183167
 10
2200.18198187183
 20
815.6222220183167
 10
2200.18198187183
 20
822.5575437396732
 10
2200.18198187183
 20
822.5575437396732
 10
2200.18198187183
 20
822.5575437396732
 10
2203.626216083208
 20
822.5677928987418
 10
2203.626216083208
 20
822.5677928987418
 10
2204.176225577428
 20
822.5694293190973
 10
2204.399984529195
 20
822.9597586375761
 10
2204.123515616504
 20
823.4352679419277
 97
        0
 97
        0
 75
     2
 76
     1
 98
        0
  0
ENDBLK
  5
95
330
92
100
AcDbEntity
  8
0
100
AcDbBlockEnd
  0
ENDSEC
  0
SECTION
  2
ENTITIES
  0
POLYLINE
  5
42
330
1F
100
AcDbEntity
  8
Layer 2
370
     0
100
AcDb2dPolyline
 66
     1
 10
0.0
 20
0.0
 30
0.0
  0
VERTEX
  5
43
330
42
100
AcDbEntity
  8
Layer 2
370
     0
100
AcDbVertex
100
AcDb2dVertex
 10
2213.563793919527
 20
799.5517227806786
 30
0.0
  0
VERTEX
  5
44
330
42
100
AcDbEntity
  8
Layer 2
370
     0
100
AcDbVertex
100
AcDb2dVertex
 10
2213.563793919527
 20
801.3682797312468
 30
0.0
  0
VERTEX
  5
45
330
42
100
AcDbEntity
  8
Layer 2
370
     0
100
AcDbVertex
100
AcDb2dVertex
 10
2210.769090918653
 20
801.3682797312468
 30
0.0
  0
VERTEX
  5
46
330
42
100
AcDbEntity
  8
Layer 2
370
     0
100
AcDbVertex
100
AcDb2dVertex
 10
2210.769090918653
 20
804.1629827321211
 30
0.0
  0
VERTEX
  5
47
330
42
100
AcDbEntity
  8
Layer 2
370
     0
100
AcDbVertex
100
AcDb2dVertex
 10
2206.018095817166
 20
804.1629827321211
 30
0.0
  0
VERTEX
  5
48
330
42
100
AcDbEntity
  8
Layer 2
370
     0
100
AcDbVertex
100
AcDb2dVertex
 10
2206.018095817166
 20
807.1672884580611
 30
0.0
  0
VERTEX
  5
49
330
42
100
AcDbEntity
  8
Layer 2
370
     0
100
AcDbVertex
100
AcDb2dVertex
 10
2203.15352524127
 20
807.1672884580611
 30
0.0
  0
VERTEX
  5
4A
330
42
100
AcDbEntity
  8
Layer 2
370
     0
100
AcDbVertex
100
AcDb2dVertex
 10
2203.15352524127
 20
809.0537129836514
 30
0.0
  0
VERTEX
  5
4B
330
42
100
AcDbEntity
  8
Layer 2
370
     0
100
AcDbVertex
100
AcDb2dVertex
 10
2190.717096887379
 20
809.0537129836514
 30
0.0
  0
VERTEX
  5
4C
330
42
100
AcDbEntity
  8
Layer 2
370
     0
100
AcDbVertex
100
AcDb2dVertex
 10
2190.717096887379
 20
804.3027178821651
 30
0.0
  0
VERTEX
  5
4D
330
42
100
AcDbEntity
  8
Layer 2
370
     0
100
AcDbVertex
100
AcDb2dVertex
 10
2182.961796059953
 20
804.3027178821651
 30
0.0
  0
VERTEX
  5
4E
330
42
100
AcDbEntity
  8
Layer 2
370
     0
100
AcDbVertex
100
AcDb2dVertex
 10
2182.961796059953
 20
801.3682797312468
 30
0.0
  0
VERTEX
  5
4F
330
42
100
AcDbEntity
  8
Layer 2
370
     0
100
AcDbVertex
100
AcDb2dVertex
 10
2180.097225484057
 20
801.3682797312468
 30
0.0
  0
VERTEX
  5
50
330
42
100
AcDbEntity
  8
Layer 2
370
     0
100
AcDbVertex
100
AcDb2dVertex
 10
2180.097225484057
 20
784.1808562758692
 30
0.0
  0
VERTEX
  5
51
330
42
100
AcDbEntity
  8
Layer 2
370
     0
100
AcDbVertex
100
AcDb2dVertex
 10
2182.961796059953
 20
784.1808562758692
 30
0.0
  0
VERTEX
  5
52
330
42
100
AcDbEntity
  8
Layer 2
370
     0
100
AcDbVertex
100
AcDb2dVertex
 10
2182.961796059953
 20
781.316285699973
 30
0.0
  0
VERTEX
  5
53
330
42
100
AcDbEntity
  8
Layer 2
370
     0
100
AcDbVertex
100
AcDb2dVertex
 10
2185.896234210871
 20
781.316285699973
 30
0.0
  0
VERTEX
  5
54
330
42
100
AcDbEntity
  8
Layer 2
370
     0
100
AcDbVertex
100
AcDb2dVertex
 10
2185.896234210871
 20
778.4517151240768
 30
0.0
  0
VERTEX
  5
55
330
42
100
AcDbEntity
  8
Layer 2
370
     0
100
AcDbVertex
100
AcDb2dVertex
 10
2213.563793919527
 20
778.4517151240768
 30
0.0
  0
VERTEX
  5
56
330
42
100
AcDbEntity
  8
Layer 2
370
     0
100
AcDbVertex
100
AcDb2dVertex
 10
2213.563793919527
 20
781.316285699973
 30
0.0
  0
VERTEX
  5
57
330
42
100
AcDbEntity
  8
Layer 2
370
     0
100
AcDbVertex
100
AcDb2dVertex
 10
2216.428364495423
 20
781.316285699973
 30
0.0
  0
VERTEX
  5
58
330
42
100
AcDbEntity
  8
Layer 2
370
     0
100
AcDbVertex
100
AcDb2dVertex
 10
2216.428364495423
 20
799.5517227806786
 30
0.0
  0
VERTEX
  5
59
330
42
100
AcDbEntity
  8
Layer 2
370
     0
100
AcDbVertex
100
AcDb2dVertex
 10
2213.563793919527
 20
799.5517227806786
 30
0.0
  0
SEQEND
  5
5A
330
42
100
AcDbEntity
  8
Layer 2
370
     0
  0
POLYLINE
  5
5B
330
1F
100
AcDbEntity
  8
Layer 2
370
     0
100
AcDb2dPolyline
 66
     1
 10
0.0
 20
0.0
 30
0.0
  0
VERTEX
  5
5C
330
5B
100
AcDbEntity
  8
Layer 2
370
     0
100
AcDbVertex
100
AcDb2dVertex
 10
2210.629355768609
 20
786.1371483764814
 30
0.0
  0
VERTEX
  5
5D
330
5B
100
AcDbEntity
  8
Layer 2
370
     0
100
AcDbVertex
100
AcDb2dVertex
 10
2208.812798818041
 20
786.1371483764814
 30
0.0
  0
VERTEX
  5
5E
330
5B
100
AcDbEntity
  8
Layer 2
370
     0
100
AcDbVertex
100
AcDb2dVertex
 10
2208.812798818041
 20
784.2507238508911
 30
0.0
  0
VERTEX
  5
5F
330
5B
100
AcDbEntity
  8
Layer 2
370
     0
100
AcDbVertex
100
AcDb2dVertex
 10
2185.826366635849
 20
784.2507238508911
 30
0.0
  0
VERTEX
  5
60
330
5B
100
AcDbEntity
  8
Layer 2
370
     0
100
AcDbVertex
100
AcDb2dVertex
 10
2185.826366635849
 20
786.1371483764814
 30
0.0
  0
VERTEX
  5
61
330
5B
100
AcDbEntity
  8
Layer 2
370
     0
100
AcDbVertex
100
AcDb2dVertex
 10
2183.031663634974
 20
786.1371483764814
 30
0.0
  0
VERTEX
  5
62
330
5B
100
AcDbEntity
  8
Layer 2
370
     0
100
AcDbVertex
100
AcDb2dVertex
 10
2183.031663634974
 20
799.4119876306348
 30
0.0
  0
VERTEX
  5
63
330
5B
100
AcDbEntity
  8
Layer 2
370
     0
100
AcDbVertex
100
AcDb2dVertex
 10
2185.896234210871
 20
799.4119876306348
 30
0.0
  0
VERTEX
  5
64
330
5B
100
AcDbEntity
  8
Layer 2
370
     0
100
AcDbVertex
100
AcDb2dVertex
 10
2185.896234210871
 20
801.5080148812906
 30
0.0
  0
VERTEX
  5
65
330
5B
100
AcDbEntity
  8
Layer 2
370
     0
100
AcDbVertex
100
AcDb2dVertex
 10
2193.511799888254
 20
801.5080148812906
 30
0.0
  0
VERTEX
  5
66
330
5B
100
AcDbEntity
  8
Layer 2
370
     0
100
AcDbVertex
100
AcDb2dVertex
 10
2193.511799888254
 20
807.0974208830393
 30
0.0
  0
VERTEX
  5
67
330
5B
100
AcDbEntity
  8
Layer 2
370
     0
100
AcDbVertex
100
AcDb2dVertex
 10
2201.057497990614
 20
807.0974208830393
 30
0.0
  0
VERTEX
  5
68
330
5B
100
AcDbEntity
  8
Layer 2
370
     0
100
AcDbVertex
100
AcDb2dVertex
 10
2201.057497990614
 20
801.4381473062687
 30
0.0
  0
VERTEX
  5
69
330
5B
100
AcDbEntity
  8
Layer 2
370
     0
100
AcDbVertex
100
AcDb2dVertex
 10
2208.882666393063
 20
801.4381473062687
 30
0.0
  0
VERTEX
  5
6A
330
5B
100
AcDbEntity
  8
Layer 2
370
     0
100
AcDbVertex
100
AcDb2dVertex
 10
2208.882666393063
 20
799.4119876306348
 30
0.0
  0
VERTEX
  5
6B
330
5B
100
AcDbEntity
  8
Layer 2
370
     0
100
AcDbVertex
100
AcDb2dVertex
 10
2210.629355768609
 20
799.4119876306348
 30
0.0
  0
VERTEX
  5
6C
330
5B
100
AcDbEntity
  8
Layer 2
370
     0
100
AcDbVertex
100
AcDb2dVertex
 10
2210.629355768609
 20
786.1371483764814
 30
0.0
  0
SEQEND
  5
6D
330
5B
100
AcDbEntity
  8
Layer 2
370
     0
  0
HATCH
  5
6E
330
1F
100
AcDbEntity
  8
Layer 2
 62
   179
420
  1842203
100
AcDbHatch
 10
0.0
 20
0.0
 30
0.0
210
0.0
220
0.0
230
1.0
  2
SOLID
 70
     1
 71
     0
 91
        2
 92
        1
 93
       22
 72
     1
 10
2213.563793919527
 20
799.5517227806786
 11
2213.563793919527
 21
801.3682797312468
 72
     1
 10
2213.563793919527
 20
801.3682797312468
 11
2210.769090918653
 21
801.3682797312468
 72
     1
 10
2210.769090918653
 20
801.3682797312468
 11
2210.769090918653
 21
804.1629827321211
 72
     1
 10
2210.769090918653
 20
804.1629827321211
 11
2206.018095817166
 21
804.1629827321211
 72
     1
 10
2206.018095817166
 20
804.1629827321211
 11
2206.018095817166
 21
807.1672884580611
 72
     1
 10
2206.018095817166
 20
807.1672884580611
 11
2203.15352524127
 21
807.1672884580611
 72
     1
 10
2203.15352524127
 20
807.1672884580611
 11
2203.15352524127
 21
809.0537129836514
 72
     1
 10
2203.15352524127
 20
809.0537129836514
 11
2190.717096887379
 21
809.0537129836514
 72
     1
 10
2190.717096887379
 20
809.0537129836514
 11
2190.717096887379
 21
804.3027178821651
 72
     1
 10
2190.717096887379
 20
804.3027178821651
 11
2182.961796059953
 21
804.3027178821651
 72
     1
 10
2182.961796059953
 20
804.3027178821651
 11
2182.961796059953
 21
801.3682797312468
 72
     1
 10
2182.961796059953
 20
801.3682797312468
 11
2180.097225484057
 21
801.3682797312468
 72
     1
 10
2180.097225484057
 20
801.3682797312468
 11
2180.097225484057
 21
784.1808562758692
 72
     1
 10
2180.097225484057
 20
784.1808562758692
 11
2182.961796059953
 21
784.1808562758692
 72
     1
 10
2182.961796059953
 20
784.1808562758692
 11
2182.961796059953
 21
781.316285699973
 72
     1
 10
2182.961796059953
 20
781.316285699973
 11
2185.896234210871
 21
781.316285699973
 72
     1
 10
2185.896234210871
 20
781.316285699973
 11
2185.896234210871
 21
778.4517151240768
 72
     1
 10
2185.896234210871
 20
778.4517151240768
 11
2213.563793919527
 21
778.4517151240768
 72
     1
 10
2213.563793919527
 20
778.4517151240768
 11
2213.563793919527
 21
781.316285699973
 72
     1
 10
2213.563793919527
 20
781.316285699973
 11
2216.428364495423
 21
781.316285699973
 72
     1
 10
2216.428364495423
 20
781.316285699973
 11
2216.428364495423
 21
799.5517227806786
 72
     1
 10
2216.428364495423
 20
799.5517227806786
 11
2213.563793919527
 21
799.5517227806786
 97
        0
 92
        1
 93
       16
 72
     1
 10
2210.629355768609
 20
786.1371483764814
 11
2208.812798818041
 21
786.1371483764814
 72
     1
 10
2208.812798818041
 20
786.1371483764814
 11
2208.812798818041
 21
784.2507238508911
 72
     1
 10
2208.812798818041
 20
784.2507238508911
 11
2185.826366635849
 21
784.2507238508911
 72
     1
 10
2185.826366635849
 20
784.2507238508911
 11
2185.826366635849
 21
786.1371483764814
 72
     1
 10
2185.826366635849
 20
786.1371483764814
 11
2183.031663634974
 21
786.1371483764814
 72
     1
 10
2183.031663634974
 20
786.1371483764814
 11
2183.031663634974
 21
799.4119876306348
 72
     1
 10
2183.031663634974
 20
799.4119876306348
 11
2185.896234210871
 21
799.4119876306348
 72
     1
 10
2185.896234210871
 20
799.4119876306348
 11
2185.896234210871
 21
801.5080148812906
 72
     1
 10
2185.896234210871
 20
801.5080148812906
 11
2193.511799888254
 21
801.5080148812906
 72
     1
 10
2193.511799888254
 20
801.5080148812906
 11
2193.511799888254
 21
807.0974208830393
 72
     1
 10
2193.511799888254
 20
807.0974208830393
 11
2201.057497990614
 21
807.0974208830393
 72
     1
 10
2201.057497990614
 20
807.0974208830393
 11
2201.057497990614
 21
801.4381473062687
 72
     1
 10
2201.057497990614
 20
801.4381473062687
 11
2208.882666393063
 21
801.4381473062687
 72
     1
 10
2208.882666393063
 20
801.4381473062687
 11
2208.882666393063
 21
799.4119876306348
 72
     1
 10
2208.882666393063
 20
799.4119876306348
 11
2210.629355768609
 21
799.4119876306348
 72
     1
 10
2210.629355768609
 20
799.4119876306348
 11
2210.629355768609
 21
786.1371483764814
 97
        0
 75
     2
 76
     1
 98
        0
  0
POLYLINE
  5
6F
330
1F
100
AcDbEntity
  8
Layer 2
370
     0
100
AcDb2dPolyline
 66
     1
 10
0.0
 20
0.0
 30
0.0
  0
VERTEX
  5
70
330
6F
100
AcDbEntity
  8
Layer 2
370
     0
100
AcDbVertex
100
AcDb2dVertex
 10
2201.127365565636
 20
796.6871522047821
 30
0.0
  0
VERTEX
  5
71
330
6F
100
AcDbEntity
  8
Layer 2
370
     0
100
AcDbVertex
100
AcDb2dVertex
 10
2193.441932313232
 20
796.6871522047821
 30
0.0
  0
VERTEX
  5
72
330
6F
100
AcDbEntity
  8
Layer 2
370
     0
100
AcDbVertex
100
AcDb2dVertex
 10
2193.441932313232
 20
799.5517227806786
 30
0.0
  0
VERTEX
  5
73
330
6F
100
AcDbEntity
  8
Layer 2
370
     0
100
AcDbVertex
100
AcDb2dVertex
 10
2201.127365565636
 20
799.5517227806786
 30
0.0
  0
VERTEX
  5
74
330
6F
100
AcDbEntity
  8
Layer 2
370
     0
100
AcDbVertex
100
AcDb2dVertex
 10
2201.127365565636
 20
796.6871522047821
 30
0.0
  0
SEQEND
  5
76
330
6F
100
AcDbEntity
  8
Layer 2
370
     0
  0
HATCH
  5
75
330
1F
100
AcDbEntity
  8
Layer 2
 62
   179
420
  1842203
100
AcDbHatch
 10
0.0
 20
0.0
 30
0.0
210
0.0
220
0.0
230
1.0
  2
SOLID
 70
     1
 71
     0
 91
        1
 92
        1
 93
        4
 72
     1
 10
2201.127365565636
 20
796.6871522047821
 11
2193.441932313232
 21
796.6871522047821
 72
     1
 10
2193.441932313232
 20
796.6871522047821
 11
2193.441932313232
 21
799.5517227806786
 72
     1
 10
2193.441932313232
 20
799.5517227806786
 11
2201.127365565636
 21
799.5517227806786
 72
     1
 10
2201.127365565636
 20
799.5517227806786
 11
2201.127365565636
 21
796.6871522047821
 97
        0
 75
     2
 76
     1
 98
        0
  0
POLYLINE
  5
77
330
1F
100
AcDbEntity
  8
Layer 2
370
     0
100
AcDb2dPolyline
 66
     1
 10
0.0
 20
0.0
 30
0.0
  0
VERTEX
  5
78
330
77
100
AcDbEntity
  8
Layer 2
370
     0
100
AcDbVertex
100
AcDb2dVertex
 10
2201.127365565636
 20
786.1371483764814
 30
0.0
  0
VERTEX
  5
79
330
77
100
AcDbEntity
  8
Layer 2
370
     0
100
AcDbVertex
100
AcDb2dVertex
 10
2193.441932313232
 20
786.1371483764814
 30
0.0
  0
VERTEX
  5
7A
330
77
100
AcDbEntity
  8
Layer 2
370
     0
100
AcDbVertex
100
AcDb2dVertex
 10
2193.441932313232
 20
789.0017189523776
 30
0.0
  0
VERTEX
  5
7B
330
77
100
AcDbEntity
  8
Layer 2
370
     0
100
AcDbVertex
100
AcDb2dVertex
 10
2201.127365565636
 20
789.0017189523776
 30
0.0
  0
VERTEX
  5
7C
330
77
100
AcDbEntity
  8
Layer 2
370
     0
100
AcDbVertex
100
AcDb2dVertex
 10
2201.127365565636
 20
786.1371483764814
 30
0.0
  0
SEQEND
  5
7E
330
77
100
AcDbEntity
  8
Layer 2
370
     0
  0
HATCH
  5
7D
330
1F
100
AcDbEntity
  8
Layer 2
 62
   179
420
  1842203
100
AcDbHatch
 10
0.0
 20
0.0
 30
0.0
210
0.0
220
0.0
230
1.0
  2
SOLID
 70
     1
 71
     0
 91
        1
 92
        1
 93
        4
 72
     1
 10
2201.127365565636
 20
786.1371483764814
 11
2193.441932313232
 21
786.1371483764814
 72
     1
 10
2193.441932313232
 20
786.1371483764814
 11
2193.441932313232
 21
789.0017189523776
 72
     1
 10
2193.441932313232
 20
789.0017189523776
 11
2201.127365565636
 21
789.0017189523776
 72
     1
 10
2201.127365565636
 20
789.0017189523776
 11
2201.127365565636
 21
786.1371483764814
 97
        0
 75
     2
 76
     1
 98
        0
  0
POLYLINE
  5
7F
330
1F
100
AcDbEntity
  8
Layer 2
370
     0
100
AcDb2dPolyline
 66
     1
 10
0.0
 20
0.0
 30
0.0
  0
VERTEX
  5
80
330
7F
100
AcDbEntity
  8
Layer 2
370
     0
100
AcDbVertex
100
AcDb2dVertex
 10
2203.083657666248
 20
796.6871522047821
 30
0.0
  0
VERTEX
  5
81
330
7F
100
AcDbEntity
  8
Layer 2
370
     0
100
AcDbVertex
100
AcDb2dVertex
 10
2201.127365565636
 20
796.6871522047821
 30
0.0
  0
VERTEX
  5
82
330
7F
100
AcDbEntity
  8
Layer 2
370
     0
100
AcDbVertex
100
AcDb2dVertex
 10
2201.127365565636
 20
789.0017189523776
 30
0.0
  0
VERTEX
  5
83
330
7F
100
AcDbEntity
  8
Layer 2
370
     0
100
AcDbVertex
100
AcDb2dVertex
 10
2203.083657666248
 20
789.0017189523776
 30
0.0
  0
VERTEX
  5
84
330
7F
100
AcDbEntity
  8
Layer 2
370
     0
100
AcDbVertex
100
AcDb2dVertex
 10
2203.083657666248
 20
796.6871522047821
 30
0.0
  0
SEQEND
  5
86
330
7F
100
AcDbEntity
  8
Layer 2
370
     0
  0
HATCH
  5
85
330
1F
100
AcDbEntity
  8
Layer 2
 62
   179
420
  1842203
100
AcDbHatch
 10
0.0
 20
0.0
 30
0.0
210
0.0
220
0.0
230
1.0
  2
SOLID
 70
     1
 71
     0
 91
        1
 92
        1
 93
        4
 72
     1
 10
2203.083657666248
 20
796.6871522047821
 11
2201.127365565636
 21
796.6871522047821
 72
     1
 10
2201.127365565636
 20
796.6871522047821
 11
2201.127365565636
 21
789.0017189523776
 72
     1
 10
2201.127365565636
 20
789.0017189523776
 11
2203.083657666248
 21
789.0017189523776
 72
     1
 10
2203.083657666248
 20
789.0017189523776
 11
2203.083657666248
 21
796.6871522047821
 97
        0
 75
     2
 76
     1
 98
        0
  0
POLYLINE
  5
87
330
1F
100
AcDbEntity
  8
Layer 2
370
     0
100
AcDb2dPolyline
 66
     1
 10
0.0
 20
0.0
 30
0.0
  0
VERTEX
  5
88
330
87
100
AcDbEntity
  8
Layer 2
370
     0
100
AcDbVertex
100
AcDb2dVertex
 10
2193.441932313232
 20
796.6871522047821
 30
0.0
  0
VERTEX
  5
89
330
87
100
AcDbEntity
  8
Layer 2
370
     0
100
AcDbVertex
100
AcDb2dVertex
 10
2190.660056562459
 20
796.6871522047821
 30
0.0
  0
VERTEX
  5
8A
330
87
100
AcDbEntity
  8
Layer 2
370
     0
100
AcDbVertex
100
AcDb2dVertex
 10
2190.660056562459
 20
789.0017189523776
 30
0.0
  0
VERTEX
  5
8B
330
87
100
AcDbEntity
  8
Layer 2
370
     0
100
AcDbVertex
100
AcDb2dVertex
 10
2193.441932313232
 20
789.0017189523776
 30
0.0
  0
VERTEX
  5
8C
330
87
100
AcDbEntity
  8
Layer 2
370
     0
100
AcDbVertex
100
AcDb2dVertex
 10
2193.441932313232
 20
796.6871522047821
 30
0.0
  0
SEQEND
  5
8E
330
87
100
AcDbEntity
  8
Layer 2
370
     0
  0
HATCH
  5
8D
330
1F
100
AcDbEntity
  8
Layer 2
 62
   179
420
  1842203
100
AcDbHatch
 10
0.0
 20
0.0
 30
0.0
210
0.0
220
0.0
230
1.0
  2
SOLID
 70
     1
 71
     0
 91
        1
 92
        1
 93
        4
 72
     1
 10
2193.441932313232
 20
796.6871522047821
 11
2190.660056562459
 21
796.6871522047821
 72
     1
 10
2190.660056562459
 20
796.6871522047821
 11
2190.660056562459
 21
789.0017189523776
 72
     1
 10
2190.660056562459
 20
789.0017189523776
 11
2193.441932313232
 21
789.0017189523776
 72
     1
 10
2193.441932313232
 20
789.0017189523776
 11
2193.441932313232
 21
796.6871522047821
 97
        0
 75
     2
 76
     1
 98
        0
  0
INSERT
  5
93
330
1F
100
AcDbEntity
  8
Layer 6
100
AcDbBlockReference
  2
block 2
 10
0.0
 20
0.0
 30
0.0
  0
ENDSEC
  0
SECTION
  2
OBJECTS
  0
DICTIONARY
  5
C
330
0
100
AcDbDictionary
281
     1
  3
ACAD_GROUP
350
D
  3
ACAD_LAYOUT
350
1A
  3
ACAD_MATERIAL
350
3B
  3
ACAD_MLEADERSTYLE
350
9D
  3
ACAD_MLINESTYLE
350
17
  3
ACAD_PLOTSETTINGS
350
19
  3
ACAD_PLOTSTYLENAME
350
E
  3
ACAD_TABLESTYLE
350
9C
  3
ACAD_VISUALSTYLE
350
2A
  0
SUN
  5
3F
330
29
100
AcDbSun
 90
        1
290
     0
 63
     7
421
 16777215
 40
1.0
291
     1
 91
  2455826
 92
 54000000
292
     0
 70
     2
 71
   256
280
     1
  0
DICTIONARY
  5
D
102
{ACAD_REACTORS
330
C
102
}
330
C
100
AcDbDictionary
281
     1
  0
DICTIONARY
  5
1A
102
{ACAD_REACTORS
330
C
102
}
330
C
100
AcDbDictionary
281
     1
  3
Layout1
350
1E
  3
Layout2
350
26
  3
Model
350
22
  0
DICTIONARY
  5
3B
102
{ACAD_REACTORS
330
C
102
}
330
C
100
AcDbDictionary
281
     1
  3
ByBlock
350
3D
  3
ByLayer
350
3C
  3
Global
350
3E
  0
DICTIONARY
  5
9D
102
{ACAD_REACTORS
330
C
102
}
330
C
100
AcDbDictionary
281
     1
  0
DICTIONARY
  5
17
102
{ACAD_REACTORS
330
C
102
}
330
C
100
AcDbDictionary
281
     1
  3
Standard
350
18
  0
DICTIONARY
  5
19
102
{ACAD_REACTORS
330
C
102
}
330
C
100
AcDbDictionary
281
     1
  0
ACDBDICTIONARYWDFLT
  5
E
102
{ACAD_REACTORS
330
C
102
}
330
C
100
AcDbDictionary
281
     1
  3
Normal
350
F
100
AcDbDictionaryWithDefault
340
F
  0
DICTIONARY
  5
9C
102
{ACAD_REACTORS
330
C
102
}
330
C
100
AcDbDictionary
281
     1
  0
DICTIONARY
  5
2A
102
{ACAD_REACTORS
330
C
102
}
330
C
100
AcDbDictionary
281
     1
  3
2dWireframe
350
2F
  3
3D Hidden
350
31
  3
3dWireframe
350
30
  3
Basic
350
32
  3
Brighten
350
36
  3
ColorChange
350
3A
  3
Conceptual
350
34
  3
Dim
350
35
  3
Facepattern
350
39
  3
Flat
350
2B
  3
FlatWithEdges
350
2C
  3
Gouraud
350
2D
  3
GouraudWithEdges
350
2E
  3
Linepattern
350
38
  3
Realistic
350
33
  3
Thicken
350
37
  0
LAYOUT
  5
1E
102
{ACAD_REACTORS
330
1A
102
}
330
1A
100
AcDbPlotSettings
  1

  2
none_device
  4

  6

 40
0.0
 41
0.0
 42
0.0
 43
0.0
 44
0.0
 45
0.0
 46
0.0
 47
0.0
 48
0.0
 49
0.0
140
0.0
141
0.0
142
1.0
143
1.0
 70
   688
 72
     0
 73
     0
 74
     5
  7

 75
    16
 76
     0
 77
     2
 78
   300
147
1.0
148
0.0
149
0.0
100
AcDbLayout
  1
Layout1
 70
     1
 71
     1
 10
0.0
 20
0.0
 11
12.0
 21
9.0
 12
0.0
 22
0.0
 32
0.0
 14
1.000000000000000E+20
 24
1.000000000000000E+20
 34
1.000000000000000E+20
 15
-1.000000000000000E+20
 25
-1.000000000000000E+20
 35
-1.000000000000000E+20
146
0.0
 13
0.0
 23
0.0
 33
0.0
 16
1.0
 26
0.0
 36
0.0
 17
0.0
 27
1.0
 37
0.0
 76
     0
330
1B
  0
LAYOUT
  5
26
102
{ACAD_REACTORS
330
1A
102
}
330
1A
100
AcDbPlotSettings
  1

  2
none_device
  4

  6

 40
0.0
 41
0.0
 42
0.0
 43
0.0
 44
0.0
 45
0.0
 46
0.0
 47
0.0
 48
0.0
 49
0.0
140
0.0
141
0.0
142
1.0
143
1.0
 70
   688
 72
     0
 73
     0
 74
     5
  7

 75
    16
 76
     0
 77
     2
 78
   300
147
1.0
148
0.0
149
0.0
100
AcDbLayout
  1
Layout2
 70
     1
 71
     2
 10
0.0
 20
0.0
 11
0.0
 21
0.0
 12
0.0
 22
0.0
 32
0.0
 14
0.0
 24
0.0
 34
0.0
 15
0.0
 25
0.0
 35
0.0
146
0.0
 13
0.0
 23
0.0
 33
0.0
 16
1.0
 26
0.0
 36
0.0
 17
0.0
 27
1.0
 37
0.0
 76
     0
330
23
  0
LAYOUT
  5
22
102
{ACAD_REACTORS
330
1A
102
}
330
1A
100
AcDbPlotSettings
  1

  2
none_device
  4

  6

 40
0.0
 41
0.0
 42
0.0
 43
0.0
 44
0.0
 45
0.0
 46
0.0
 47
0.0
 48
0.0
 49
0.0
140
0.0
141
0.0
142
1.0
143
1.0
 70
  1712
 72
     0
 73
     0
 74
     0
  7

 75
     0
 76
     0
 77
     2
 78
   300
147
1.0
148
0.0
149
0.0
100
AcDbLayout
  1
Model
 70
     1
 71
     0
 10
0.0
 20
0.0
 11
12.0
 21
9.0
 12
0.0
 22
0.0
 32
0.0
 14
1.000000000000000E+20
 24
1.000000000000000E+20
 34
1.000000000000000E+20
 15
-1.000000000000000E+20
 25
-1.000000000000000E+20
 35
-1.000000000000000E+20
146
0.0
 13
0.0
 23
0.0
 33
0.0
 16
1.0
 26
0.0
 36
0.0
 17
0.0
 27
1.0
 37
0.0
 76
     0
330
1F
331
29
  0
MATERIAL
  5
3D
102
{ACAD_REACTORS
330
3B
102
}
330
3B
100
AcDbMaterial
  1
ByBlock
 72
     1
 94
      127
  0
MATERIAL
  5
3C
102
{ACAD_REACTORS
330
3B
102
}
330
3B
100
AcDbMaterial
  1
ByLayer
 72
     1
 94
      127
  0
MATERIAL
  5
3E
102
{ACAD_REACTORS
330
3B
102
}
330
3B
100
AcDbMaterial
  1
Global
 72
     1
 94
      127
  0
MLINESTYLE
  5
18
102
{ACAD_REACTORS
330
17
102
}
330
17
100
AcDbMlineStyle
  2
Standard
 70
     0
  3

 62
   256
 51
90.0
 52
90.0
 71
     2
 49
0.5
 62
   256
  6
BYLAYER
 49
-0.5
 62
   256
  6
BYLAYER
  0
ACDBPLACEHOLDER
  5
F
102
{ACAD_REACTORS
330
E
102
}
330
E
  0
VISUALSTYLE
  5
2F
102
{ACAD_REACTORS
330
2A
102
}
330
2A
100
AcDbVisualStyle
  2
2dWireframe
 70
     4
177
     2
291
     0
 71
     0
176
     1
 72
     2
176
     1
 73
     0
176
     1
 90
        0
176
     1
 40
-0.6
176
     1
 41
-30.0
176
     1
 62
     5
 63
     7
421
 16777215
176
     1
 74
     1
176
     1
 91
        4
176
     1
 64
     7
176
     1
 65
   257
176
     1
 75
     1
176
     1
175
     1
176
     1
 42
1.0
176
     1
 92
        0
176
     1
 66
   257
176
     1
 43
1.0
176
     1
 76
     1
176
     1
 77
     6
176
     1
 78
     2
176
     1
 67
     7
176
     1
 79
     5
176
     1
170
     0
176
     1
171
     0
176
     1
290
     0
176
     1
 93
        1
176
     1
 44
0.0
176
     1
173
     0
176
     1
  0
VISUALSTYLE
  5
31
102
{ACAD_REACTORS
330
2A
102
}
330
2A
100
AcDbVisualStyle
  2
3D Hidden
 70
     6
177
     2
291
     0
 71
     1
176
     1
 72
     2
176
     1
 73
     2
176
     1
 90
        0
176
     1
 40
-0.6
176
     1
 41
-30.0
176
     1
 62
     5
 63
     7
421
 16777215
176
     1
 74
     2
176
     1
 91
        2
176
     1
 64
     7
176
     1
 65
   257
176
     1
 75
     2
176
     1
175
     1
176
     1
 42
40.0
176
     1
 92
        0
176
     1
 66
   257
176
     1
 43
1.0
176
     1
 76
     1
176
     1
 77
     6
176
     1
 78
     2
176
     1
 67
     7
176
     1
 79
     3
176
     1
170
     0
176
     1
171
     0
176
     1
290
     0
176
     1
 93
        1
176
     1
 44
0.0
176
     1
173
     0
176
     1
  0
VISUALSTYLE
  5
30
102
{ACAD_REACTORS
330
2A
102
}
330
2A
100
AcDbVisualStyle
  2
3dWireframe
 70
     5
177
     2
291
     0
 71
     0
176
     1
 72
     2
176
     1
 73
     0
176
     1
 90
        0
176
     1
 40
-0.6
176
     1
 41
-30.0
176
     1
 62
     5
 63
     7
421
 16777215
176
     1
 74
     1
176
     1
 91
        4
176
     1
 64
     7
176
     1
 65
   257
176
     1
 75
     1
176
     1
175
     1
176
     1
 42
1.0
176
     1
 92
        0
176
     1
 66
   257
176
     1
 43
1.0
176
     1
 76
     1
176
     1
 77
     6
176
     1
 78
     2
176
     1
 67
     7
176
     1
 79
     5
176
     1
170
     0
176
     1
171
     0
176
     1
290
     0
176
     1
 93
        1
176
     1
 44
0.0
176
     1
173
     0
176
     1
  0
VISUALSTYLE
  5
32
102
{ACAD_REACTORS
330
2A
102
}
330
2A
100
AcDbVisualStyle
  2
Basic
 70
     7
177
     2
291
     1
 71
     1
176
     1
 72
     0
176
     1
 73
     1
176
     1
 90
        0
176
     1
 40
-0.6
176
     1
 41
-30.0
176
     1
 62
     5
 63
     7
421
 16777215
176
     1
 74
     0
176
     1
 91
        4
176
     1
 64
     7
176
     1
 65
   257
176
     1
 75
     1
176
     1
175
     1
176
     1
 42
1.0
176
     1
 92
        8
176
     1
 66
     7
176
     1
 43
1.0
176
     1
 76
     1
176
     1
 77
     6
176
     1
 78
     2
176
     1
 67
     7
176
     1
 79
     5
176
     1
170
     0
176
     1
171
     0
176
     1
290
     0
176
     1
 93
        1
176
     1
 44
0.0
176
     1
173
     0
176
     1
  0
VISUALSTYLE
  5
36
102
{ACAD_REACTORS
330
2A
102
}
330
2A
100
AcDbVisualStyle
  2
Brighten
 70
    12
177
     2
291
     1
 71
     2
176
     1
 72
     2
176
     1
 73
     0
176
     1
 90
        0
176
     1
 40
-0.6
176
     1
 41
-30.0
176
     1
 62
     5
 63
     7
421
 16777215
176
     1
 74
     1
176
     1
 91
        4
176
     1
 64
     7
176
     1
 65
   257
176
     1
 75
     1
176
     1
175
     1
176
     1
 42
1.0
176
     1
 92
        8
176
     1
 66
     7
176
     1
 43
1.0
176
     1
 76
     1
176
     1
 77
     6
176
     1
 78
     2
176
     1
 67
     7
176
     1
 79
     5
176
     1
170
     0
176
     1
171
     0
176
     1
290
     0
176
     1
 93
        1
176
     1
 44
50.0
176
     1
173
     0
176
     1
  0
VISUALSTYLE
  5
3A
102
{ACAD_REACTORS
330
2A
102
}
330
2A
100
AcDbVisualStyle
  2
ColorChange
 70
    16
177
     2
291
     1
 71
     2
176
     1
 72
     2
176
     1
 73
     3
176
     1
 90
        0
176
     1
 40
-0.6
176
     1
 41
-30.0
176
     1
 62
     5
 63
     8
421
  8421504
176
     1
 74
     1
176
     1
 91
        4
176
     1
 64
     7
176
     1
 65
   257
176
     1
 75
     1
176
     1
175
     1
176
     1
 42
1.0
176
     1
 92
        8
176
     1
 66
     8
424
  8421504
176
     1
 43
1.0
176
     1
 76
     1
176
     1
 77
     6
176
     1
 78
     2
176
     1
 67
     7
176
     1
 79
     5
176
     1
170
     0
176
     1
171
     0
176
     1
290
     0
176
     1
 93
        1
176
     1
 44
0.0
176
     1
173
     0
176
     1
  0
VISUALSTYLE
  5
34
102
{ACAD_REACTORS
330
2A
102
}
330
2A
100
AcDbVisualStyle
  2
Conceptual
 70
     9
177
     2
291
     0
 71
     3
176
     1
 72
     2
176
     1
 73
     0
176
     1
 90
        0
176
     1
 40
-0.6
176
     1
 41
-30.0
176
     1
 62
     5
 63
     7
421
 16777215
176
     1
 74
     2
176
     1
 91
        2
176
     1
 64
     7
176
     1
 65
   257
176
     1
 75
     1
176
     1
175
     1
176
     1
 42
40.0
176
     1
 92
        8
176
     1
 66
     7
176
     1
 43
1.0
176
     1
 76
     1
176
     1
 77
     6
176
     1
 78
     2
176
     1
 67
     7
176
     1
 79
     3
176
     1
170
     0
176
     1
171
     0
176
     1
290
     0
176
     1
 93
        1
176
     1
 44
0.0
176
     1
173
     0
176
     1
  0
VISUALSTYLE
  5
35
102
{ACAD_REACTORS
330
2A
102
}
330
2A
100
AcDbVisualStyle
  2
Dim
 70
    11
177
     2
291
     1
 71
     2
176
     1
 72
     2
176
     1
 73
     0
176
     1
 90
        0
176
     1
 40
-0.6
176
     1
 41
-30.0
176
     1
 62
     5
 63
     7
421
 16777215
176
     1
 74
     1
176
     1
 91
        4
176
     1
 64
     7
176
     1
 65
   257
176
     1
 75
     1
176
     1
175
     1
176
     1
 42
1.0
176
     1
 92
        8
176
     1
 66
     7
176
     1
 43
1.0
176
     1
 76
     1
176
     1
 77
     6
176
     1
 78
     2
176
     1
 67
     7
176
     1
 79
     5
176
     1
170
     0
176
     1
171
     0
176
     1
290
     0
176
     1
 93
        1
176
     1
 44
-50.0
176
     1
173
     0
176
     1
  0
VISUALSTYLE
  5
39
102
{ACAD_REACTORS
330
2A
102
}
330
2A
100
AcDbVisualStyle
  2
Facepattern
 70
    15
177
     2
291
     1
 71
     2
176
     1
 72
     2
176
     1
 73
     0
176
     1
 90
        0
176
     1
 40
-0.6
176
     1
 41
-30.0
176
     1
 62
     5
 63
     7
421
 16777215
176
     1
 74
     1
176
     1
 91
        4
176
     1
 64
     7
176
     1
 65
   257
176
     1
 75
     1
176
     1
175
     1
176
     1
 42
1.0
176
     1
 92
        8
176
     1
 66
     7
176
     1
 43
1.0
176
     1
 76
     1
176
     1
 77
     6
176
     1
 78
     2
176
     1
 67
     7
176
     1
 79
     5
176
     1
170
     0
176
     1
171
     0
176
     1
290
     0
176
     1
 93
        1
176
     1
 44
0.0
176
     1
173
     0
176
     1
  0
VISUALSTYLE
  5
2B
102
{ACAD_REACTORS
330
2A
102
}
330
2A
100
AcDbVisualStyle
  2
Flat
 70
     0
177
     2
291
     1
 71
     2
176
     1
 72
     1
176
     1
 73
     1
176
     1
 90
        2
176
     1
 40
-0.6
176
     1
 41
30.0
176
     1
 62
     5
 63
     7
421
 16777215
176
     1
 74
     0
176
     1
 91
        4
176
     1
 64
     7
176
     1
 65
   257
176
     1
 75
     1
176
     1
175
     1
176
     1
 42
1.0
176
     1
 92
        8
176
     1
 66
     7
176
     1
 43
1.0
176
     1
 76
     1
176
     1
 77
     6
176
     1
 78
     2
176
     1
 67
     7
176
     1
 79
     5
176
     1
170
     0
176
     1
171
     0
176
     1
290
     0
176
     1
 93
       13
176
     1
 44
0.0
176
     1
173
     0
176
     1
  0
VISUALSTYLE
  5
2C
102
{ACAD_REACTORS
330
2A
102
}
330
2A
100
AcDbVisualStyle
  2
FlatWithEdges
 70
     1
177
     2
291
     1
 71
     2
176
     1
 72
     1
176
     1
 73
     1
176
     1
 90
        2
176
     1
 40
-0.6
176
     1
 41
30.0
176
     1
 62
     5
 63
     7
421
 16777215
176
     1
 74
     1
176
     1
 91
        4
176
     1
 64
     7
176
     1
 65
   257
176
     1
 75
     1
176
     1
175
     1
176
     1
 42
1.0
176
     1
 92
        0
176
     1
 66
   257
176
     1
 43
1.0
176
     1
 76
     1
176
     1
 77
     6
176
     1
 78
     2
176
     1
 67
     7
176
     1
 79
     5
176
     1
170
     0
176
     1
171
     0
176
     1
290
     0
176
     1
 93
       13
176
     1
 44
0.0
176
     1
173
     0
176
     1
  0
VISUALSTYLE
  5
2D
102
{ACAD_REACTORS
330
2A
102
}
330
2A
100
AcDbVisualStyle
  2
Gouraud
 70
     2
177
     2
291
     1
 71
     2
176
     1
 72
     2
176
     1
 73
     1
176
     1
 90
        2
176
     1
 40
-0.6
176
     1
 41
30.0
176
     1
 62
     5
 63
     7
421
 16777215
176
     1
 74
     0
176
     1
 91
        4
176
     1
 64
     7
176
     1
 65
   257
176
     1
 75
     1
176
     1
175
     1
176
     1
 42
1.0
176
     1
 92
        0
176
     1
 66
     7
176
     1
 43
1.0
176
     1
 76
     1
176
     1
 77
     6
176
     1
 78
     2
176
     1
 67
     7
176
     1
 79
     5
176
     1
170
     0
176
     1
171
     0
176
     1
290
     0
176
     1
 93
       13
176
     1
 44
0.0
176
     1
173
     0
176
     1
  0
VISUALSTYLE
  5
2E
102
{ACAD_REACTORS
330
2A
102
}
330
2A
100
AcDbVisualStyle
  2
GouraudWithEdges
 70
     3
177
     2
291
     1
 71
     2
176
     1
 72
     2
176
     1
 73
     1
176
     1
 90
        2
176
     1
 40
-0.6
176
     1
 41
30.0
176
     1
 62
     5
 63
     7
421
 16777215
176
     1
 74
     1
176
     1
 91
        4
176
     1
 64
     7
176
     1
 65
   257
176
     1
 75
     1
176
     1
175
     1
176
     1
 42
1.0
176
     1
 92
        0
176
     1
 66
   257
176
     1
 43
1.0
176
     1
 76
     1
176
     1
 77
     6
176
     1
 78
     2
176
     1
 67
     7
176
     1
 79
     5
176
     1
170
     0
176
     1
171
     0
176
     1
290
     0
176
     1
 93
       13
176
     1
 44
0.0
176
     1
173
     0
176
     1
  0
VISUALSTYLE
  5
38
102
{ACAD_REACTORS
330
2A
102
}
330
2A
100
AcDbVisualStyle
  2
Linepattern
 70
    14
177
     2
291
     1
 71
     2
176
     1
 72
     2
176
     1
 73
     0
176
     1
 90
        0
176
     1
 40
-0.6
176
     1
 41
-30.0
176
     1
 62
     5
 63
     7
421
 16777215
176
     1
 74
     1
176
     1
 91
        4
176
     1
 64
     7
176
     1
 65
   257
176
     1
 75
     7
176
     1
175
     7
176
     1
 42
1.0
176
     1
 92
        8
176
     1
 66
     7
176
     1
 43
1.0
176
     1
 76
     1
176
     1
 77
     6
176
     1
 78
     2
176
     1
 67
     7
176
     1
 79
     5
176
     1
170
     0
176
     1
171
     0
176
     1
290
     0
176
     1
 93
        1
176
     1
 44
0.0
176
     1
173
     0
176
     1
  0
VISUALSTYLE
  5
33
102
{ACAD_REACTORS
330
2A
102
}
330
2A
100
AcDbVisualStyle
  2
Realistic
 70
     8
177
     2
291
     0
 71
     2
176
     1
 72
     2
176
     1
 73
     0
176
     1
 90
        0
176
     1
 40
-0.6
176
     1
 41
-30.0
176
     1
 62
     5
 63
     7
421
 16777215
176
     1
 74
     1
176
     1
 91
        0
176
     1
 64
     7
176
     1
 65
   257
176
     1
 75
     1
176
     1
175
     1
176
     1
 42
1.0
176
     1
 92
        8
176
     1
 66
     8
424
  7895160
176
     1
 43
1.0
176
     1
 76
     1
176
     1
 77
     6
176
     1
 78
     2
176
     1
 67
     7
176
     1
 79
     5
176
     1
170
     0
176
     1
171
     0
176
     1
290
     0
176
     1
 93
       13
176
     1
 44
0.0
176
     1
173
     0
176
     1
  0
VISUALSTYLE
  5
37
102
{ACAD_REACTORS
330
2A
102
}
330
2A
100
AcDbVisualStyle
  2
Thicken
 70
    13
177
     2
291
     1
 71
     2
176
     1
 72
     2
176
     1
 73
     0
176
     1
 90
        0
176
     1
 40
-0.6
176
     1
 41
-30.0
176
     1
 62
     5
 63
     7
421
 16777215
176
     1
 74
     1
176
     1
 91
        4
176
     1
 64
     7
176
     1
 65
   257
176
     1
 75
     1
176
     1
175
     1
176
     1
 42
1.0
176
     1
 92
       12
176
     1
 66
     7
176
     1
 43
1.0
176
     1
 76
     1
176
     1
 77
     6
176
     1
 78
     2
176
     1
 67
     7
176
     1
 79
     5
176
     1
170
     0
176
     1
171
     0
176
     1
290
     0
176
     1
 93
        1
176
     1
 44
0.0
176
     1
173
     0
176
     1
  0
ENDSEC
  0
EOF
