  0
SECTION
  2
HEADER
  9
$ACADVER
  1
AC1024
  9
$ACADMAINTVER
 70
     6
  9
$DWGCODEPAGE
  3
UNDEFINED
  9
$INSBASE
 10
0.0
 20
0.0
 30
0.0
  9
$EXTMIN
 10
1.000000000000000E+20
 20
1.000000000000000E+20
 30
1.000000000000000E+20
  9
$EXTMAX
 10
-1.000000000000000E+20
 20
-1.000000000000000E+20
 30
-1.000000000000000E+20
  9
$LIMMIN
 10
0.0
 20
0.0
  9
$LIMMAX
 10
12.0
 20
9.0
  9
$ORTHOMODE
 70
     0
  9
$REGENMODE
 70
     1
  9
$FILLMODE
 70
     1
  9
$QTEXTMODE
 70
     0
  9
$MIRRTEXT
 70
     1
  9
$LTSCALE
 40
1.0
  9
$ATTMODE
 70
     1
  9
$TEXTSIZE
 40
0.2
  9
$TRACEWID
 40
0.05
  9
$TEXTSTYLE
  7
Standard
  9
$CLAYER
  8
0
  9
$CELTYPE
  6
ByLayer
  9
$CECOLOR
 62
   256
  9
$CELTSCALE
 40
1.0
  9
$DISPSILH
 70
     0
  9
$DIMSCALE
 40
1.0
  9
$DIMASZ
 40
0.18
  9
$DIMEXO
 40
0.0625
  9
$DIMDLI
 40
0.38
  9
$DIMRND
 40
0.0
  9
$DIMDLE
 40
0.0
  9
$DIMEXE
 40
0.18
  9
$DIMTP
 40
0.0
  9
$DIMTM
 40
0.0
  9
$DIMTXT
 40
0.18
  9
$DIMCEN
 40
0.09
  9
$DIMTSZ
 40
0.0
  9
$DIMTOL
 70
     0
  9
$DIMLIM
 70
     0
  9
$DIMTIH
 70
     1
  9
$DIMTOH
 70
     1
  9
$DIMSE1
 70
     0
  9
$DIMSE2
 70
     0
  9
$DIMTAD
 70
     0
  9
$DIMZIN
 70
     0
  9
$DIMBLK
  1

  9
$DIMASO
 70
     1
  9
$DIMSHO
 70
     1
  9
$DIMPOST
  1

  9
$DIMAPOST
  1

  9
$DIMALT
 70
     0
  9
$DIMALTD
 70
     2
  9
$DIMALTF
 40
25.4
  9
$DIMLFAC
 40
1.0
  9
$DIMTOFL
 70
     0
  9
$DIMTVP
 40
0.0
  9
$DIMTIX
 70
     0
  9
$DIMSOXD
 70
     0
  9
$DIMSAH
 70
     0
  9
$DIMBLK1
  1

  9
$DIMBLK2
  1

  9
$DIMSTYLE
  2
Standard
  9
$DIMCLRD
 70
     0
  9
$DIMCLRE
 70
     0
  9
$DIMCLRT
 70
     0
  9
$DIMTFAC
 40
1.0
  9
$DIMGAP
 40
0.09
  9
$DIMJUST
 70
     0
  9
$DIMSD1
 70
     0
  9
$DIMSD2
 70
     0
  9
$DIMTOLJ
 70
     1
  9
$DIMTZIN
 70
     0
  9
$DIMALTZ
 70
     0
  9
$DIMALTTZ
 70
     0
  9
$DIMUPT
 70
     0
  9
$DIMDEC
 70
     4
  9
$DIMTDEC
 70
     4
  9
$DIMALTU
 70
     2
  9
$DIMALTTD
 70
     2
  9
$DIMTXSTY
  7
Standard
  9
$DIMAUNIT
 70
     0
  9
$DIMADEC
 70
     0
  9
$DIMALTRND
 40
0.0
  9
$DIMAZIN
 70
     0
  9
$DIMDSEP
 70
    46
  9
$DIMATFIT
 70
     3
  9
$DIMFRAC
 70
     0
  9
$DIMLDRBLK
  1

  9
$DIMLUNIT
 70
     2
  9
$DIMLWD
 70
    -2
  9
$DIMLWE
 70
    -2
  9
$DIMTMOVE
 70
     0
  9
$DIMFXL
 40
1.0
  9
$DIMFXLON
 70
     0
  9
$DIMJOGANG
 40
0.7853981633974483
  9
$DIMTFILL
 70
     0
  9
$DIMTFILLCLR
 70
     0
  9
$DIMARCSYM
 70
     0
  9
$DIMLTYPE
  6

  9
$DIMLTEX1
  6

  9
$DIMLTEX2
  6

  9
$DIMTXTDIRECTION
 70
     0
  9
$LUNITS
 70
     2
  9
$LUPREC
 70
     4
  9
$SKETCHINC
 40
0.1
  9
$FILLETRAD
 40
0.5
  9
$AUNITS
 70
     0
  9
$AUPREC
 70
     0
  9
$MENU
  1
.
  9
$ELEVATION
 40
0.0
  9
$PELEVATION
 40
0.0
  9
$THICKNESS
 40
0.0
  9
$LIMCHECK
 70
     0
  9
$CHAMFERA
 40
0.5
  9
$CHAMFERB
 40
0.5
  9
$CHAMFERC
 40
1.0
  9
$CHAMFERD
 40
0.0
  9
$SKPOLY
 70
     0
  9
$TDCREATE
 40
2457898.999409711
  9
$TDUCREATE
 40
2457898.957743056
  9
$TDUPDATE
 40
2457898.999421285
  9
$TDUUPDATE
 40
2457898.95775463
  9
$TDINDWG
 40
0.0000000116
  9
$TDUSRTIMER
 40
0.0000000116
  9
$USRTIMER
 70
     1
  9
$ANGBASE
 50
0.0
  9
$ANGDIR
 70
     0
  9
$PDMODE
 70
     0
  9
$PDSIZE
 40
0.0
  9
$PLINEWID
 40
0.0
  9
$SPLFRAME
 70
     0
  9
$SPLINETYPE
 70
     6
  9
$SPLINESEGS
 70
     8
  9
$HANDSEED
  5
69
  9
$SURFTAB1
 70
     6
  9
$SURFTAB2
 70
     6
  9
$SURFTYPE
 70
     6
  9
$SURFU
 70
     6
  9
$SURFV
 70
     6
  9
$UCSBASE
  2

  9
$UCSNAME
  2

  9
$UCSORG
 10
0.0
 20
0.0
 30
0.0
  9
$UCSXDIR
 10
1.0
 20
0.0
 30
0.0
  9
$UCSYDIR
 10
0.0
 20
1.0
 30
0.0
  9
$UCSORTHOREF
  2

  9
$UCSORTHOVIEW
 70
     0
  9
$UCSORGTOP
 10
0.0
 20
0.0
 30
0.0
  9
$UCSORGBOTTOM
 10
0.0
 20
0.0
 30
0.0
  9
$UCSORGLEFT
 10
0.0
 20
0.0
 30
0.0
  9
$UCSORGRIGHT
 10
0.0
 20
0.0
 30
0.0
  9
$UCSORGFRONT
 10
0.0
 20
0.0
 30
0.0
  9
$UCSORGBACK
 10
0.0
 20
0.0
 30
0.0
  9
$PUCSBASE
  2

  9
$PUCSNAME
  2

  9
$PUCSORG
 10
0.0
 20
0.0
 30
0.0
  9
$PUCSXDIR
 10
1.0
 20
0.0
 30
0.0
  9
$PUCSYDIR
 10
0.0
 20
1.0
 30
0.0
  9
$PUCSORTHOREF
  2

  9
$PUCSORTHOVIEW
 70
     0
  9
$PUCSORGTOP
 10
0.0
 20
0.0
 30
0.0
  9
$PUCSORGBOTTOM
 10
0.0
 20
0.0
 30
0.0
  9
$PUCSORGLEFT
 10
0.0
 20
0.0
 30
0.0
  9
$PUCSORGRIGHT
 10
0.0
 20
0.0
 30
0.0
  9
$PUCSORGFRONT
 10
0.0
 20
0.0
 30
0.0
  9
$PUCSORGBACK
 10
0.0
 20
0.0
 30
0.0
  9
$USERI1
 70
     0
  9
$USERI2
 70
     0
  9
$USERI3
 70
     0
  9
$USERI4
 70
     0
  9
$USERI5
 70
     0
  9
$USERR1
 40
0.0
  9
$USERR2
 40
0.0
  9
$USERR3
 40
0.0
  9
$USERR4
 40
0.0
  9
$USERR5
 40
0.0
  9
$WORLDVIEW
 70
     1
  9
$SHADEDGE
 70
     3
  9
$SHADEDIF
 70
    70
  9
$TILEMODE
 70
     1
  9
$MAXACTVP
 70
    64
  9
$PINSBASE
 10
0.0
 20
0.0
 30
0.0
  9
$PLIMCHECK
 70
     0
  9
$PEXTMIN
 10
1.000000000000000E+20
 20
1.000000000000000E+20
 30
1.000000000000000E+20
  9
$PEXTMAX
 10
-1.000000000000000E+20
 20
-1.000000000000000E+20
 30
-1.000000000000000E+20
  9
$PLIMMIN
 10
0.0
 20
0.0
  9
$PLIMMAX
 10
12.0
 20
9.0
  9
$UNITMODE
 70
     0
  9
$VISRETAIN
 70
     1
  9
$PLINEGEN
 70
     0
  9
$PSLTSCALE
 70
     1
  9
$TREEDEPTH
 70
  3020
  9
$CMLSTYLE
  2
Standard
  9
$CMLJUST
 70
     0
  9
$CMLSCALE
 40
1.0
  9
$PROXYGRAPHICS
 70
     1
  9
$MEASUREMENT
 70
     0
  9
$CELWEIGHT
370
    -1
  9
$ENDCAPS
280
     0
  9
$JOINSTYLE
280
     0
  9
$LWDISPLAY
290
     1
  9
$INSUNITS
 70
     1
  9
$HYPERLINKBASE
  1

  9
$STYLESHEET
  1

  9
$XEDIT
290
     1
  9
$CEPSNTYPE
380
     0
  9
$PSTYLEMODE
290
     1
  9
$FINGERPRINTGUID
  2
{AE19F724-FE23-53EC-4CD1-28C74BD7400D}
  9
$VERSIONGUID
  2
{FAEB1C32-E019-11D5-929B-00C0DF256EC4}
  9
$EXTNAMES
290
     1
  9
$PSVPSCALE
 40
0.0
  9
$OLESTARTUP
290
     0
  9
$SORTENTS
280
   127
  9
$INDEXCTL
280
     0
  9
$HIDETEXT
280
     1
  9
$XCLIPFRAME
280
     2
  9
$HALOGAP
280
     0
  9
$OBSCOLOR
 70
   257
  9
$OBSLTYPE
280
     0
  9
$INTERSECTIONDISPLAY
280
     0
  9
$INTERSECTIONCOLOR
 70
   257
  9
$DIMASSOC
280
     2
  9
$PROJECTNAME
  1

  9
$CAMERADISPLAY
290
     0
  9
$LENSLENGTH
 40
50.0
  9
$CAMERAHEIGHT
 40
0.0
  9
$STEPSPERSEC
 40
2.0
  9
$STEPSIZE
 40
6.0
  9
$3DDWFPREC
 40
2.0
  9
$PSOLWIDTH
 40
0.25
  9
$PSOLHEIGHT
 40
4.0
  9
$LOFTANG1
 40
1.570796326794897
  9
$LOFTANG2
 40
1.570796326794897
  9
$LOFTMAG1
 40
0.0
  9
$LOFTMAG2
 40
0.0
  9
$LOFTPARAM
 70
     7
  9
$LOFTNORMALS
280
     1
  9
$LATITUDE
 40
37.795
  9
$LONGITUDE
 40
-122.394
  9
$NORTHDIRECTION
 40
0.0
  9
$TIMEZONE
 70
 -8000
  9
$LIGHTGLYPHDISPLAY
280
     1
  9
$TILEMODELIGHTSYNCH
280
     1
  9
$CMATERIAL
347
3C
  9
$SOLIDHIST
280
     1
  9
$SHOWHIST
280
     1
  9
$DWFFRAME
280
     2
  9
$DGNFRAME
280
     2
  9
$REALWORLDSCALE
290
     1
  9
$INTERFERECOLOR
 62
   256
  9
$CSHADOW
280
     0
  9
$SHADOWPLANELOCATION
 40
0.0
  0
ENDSEC
  0
SECTION
  2
CLASSES
  0
CLASS
  1
ACDBDICTIONARYWDFLT
  2
AcDbDictionaryWithDefault
  3
ObjectDBX Classes
 90
        0
 91
        4
280
     0
281
     0
  0
CLASS
  1
VISUALSTYLE
  2
AcDbVisualStyle
  3
ObjectDBX Classes
 90
     4095
 91
        4
280
     0
281
     0
  0
CLASS
  1
MATERIAL
  2
AcDbMaterial
  3
ObjectDBX Classes
 90
     1153
 91
        4
280
     0
281
     0
  0
CLASS
  1
SUN
  2
AcDbSun
  3
SCENEOE
 90
     1024
 91
        4
280
     0
281
     0
  0
ENDSEC
  0
SECTION
  2
TABLES
  0
TABLE
  2
VPORT
  5
8
330
0
100
AcDbSymbolTable
 70
     1
  0
VPORT
  5
29
330
8
100
AcDbSymbolTableRecord
100
AcDbViewportTableRecord
  2
*Active
 70
     0
 10
0.0
 20
0.0
 11
1.0
 21
1.0
 12
0.0
 22
0.0
 13
0.0
 23
0.0
 14
0.5
 24
0.5
 15
0.5
 25
0.5
 16
0.0
 26
0.0
 36
1.0
 17
300.0004582583334
 27
-999.9997636388891
 37
0.0
 40
1999.999527277778
 41
0.3000005291667917
 42
50.0
 43
0.0
 44
0.0
 50
0.0
 51
0.0
 71
     0
 72
   100
 73
     1
 74
     3
 75
     0
 76
     0
 77
     0
 78
     0
281
     0
 65
     1
110
0.0
120
0.0
130
0.0
111
1.0
121
0.0
131
0.0
112
0.0
122
1.0
132
0.0
 79
     0
146
0.0
 60
     3
 61
     5
292
     1
282
     1
141
0.0
142
0.0
 63
   250
361
3F
  0
ENDTAB
  0
TABLE
  2
LTYPE
  5
5
330
0
100
AcDbSymbolTable
 70
     1
  0
LTYPE
  5
14
330
5
100
AcDbSymbolTableRecord
100
AcDbLinetypeTableRecord
  2
ByBlock
 70
     0
  3

 72
    65
 73
     0
 40
0.0
  0
LTYPE
  5
15
330
5
100
AcDbSymbolTableRecord
100
AcDbLinetypeTableRecord
  2
ByLayer
 70
     0
  3

 72
    65
 73
     0
 40
0.0
  0
LTYPE
  5
16
330
5
100
AcDbSymbolTableRecord
100
AcDbLinetypeTableRecord
  2
Continuous
 70
     0
  3
Solid line
 72
    65
 73
     0
 40
0.0
  0
ENDTAB
  0
TABLE
  2
LAYER
  5
2
330
0
100
AcDbSymbolTable
 70
     2
  0
LAYER
  5
10
330
2
100
AcDbSymbolTableRecord
100
AcDbLayerTableRecord
  2
0
 70
     0
 62
     7
  6
Continuous
370
    -3
390
F
347
3E
  0
LAYER
  5
40
330
2
100
AcDbSymbolTableRecord
100
AcDbLayerTableRecord
  2
Layer 1
 70
     0
 62
     7
  6
Continuous
370
    -3
390
F
347
3E
  0
ENDTAB
  0
TABLE
  2
STYLE
  5
3
330
0
100
AcDbSymbolTable
 70
     1
  0
STYLE
  5
11
330
3
100
AcDbSymbolTableRecord
100
AcDbTextStyleTableRecord
  2
Standard
 70
     0
 40
0.0
 41
1.0
 50
0.0
 71
     0
 42
0.2
  3
txt
  4

  0
ENDTAB
  0
TABLE
  2
VIEW
  5
6
330
0
100
AcDbSymbolTable
 70
     0
  0
ENDTAB
  0
TABLE
  2
UCS
  5
7
330
0
100
AcDbSymbolTable
 70
     0
  0
ENDTAB
  0
TABLE
  2
APPID
  5
9
330
0
100
AcDbSymbolTable
 70
     1
  0
APPID
  5
12
330
9
100
AcDbSymbolTableRecord
100
AcDbRegAppTableRecord
  2
ACAD
 70
     0
  0
ENDTAB
  0
TABLE
  2
DIMSTYLE
  5
A
330
0
100
AcDbSymbolTable
 70
     1
100
AcDbDimStyleTable
  0
DIMSTYLE
105
27
330
A
100
AcDbSymbolTableRecord
100
AcDbDimStyleTableRecord
  2
Standard
 70
     0
178
     0
340
11
  0
ENDTAB
  0
TABLE
  2
BLOCK_RECORD
  5
1
330
0
100
AcDbSymbolTable
 70
     3
  0
BLOCK_RECORD
  5
1F
330
1
100
AcDbSymbolTableRecord
100
AcDbBlockTableRecord
  2
*Model_Space
340
22
 70
     0
280
     1
281
     0
  0
BLOCK_RECORD
  5
1B
330
1
100
AcDbSymbolTableRecord
100
AcDbBlockTableRecord
  2
*Paper_Space
340
1E
 70
     0
280
     1
281
     0
  0
BLOCK_RECORD
  5
23
330
1
100
AcDbSymbolTableRecord
100
AcDbBlockTableRecord
  2
*Paper_Space0
340
26
 70
     0
280
     1
281
     0
  0
BLOCK_RECORD
  5
41
330
1
100
AcDbSymbolTableRecord
100
AcDbBlockTableRecord
  2
block 2
340
0
102
{BLKREFS
331
42
102
}
 70
     0
280
     1
281
     0
  0
BLOCK_RECORD
  5
45
330
1
100
AcDbSymbolTableRecord
100
AcDbBlockTableRecord
  2
block 3
340
0
102
{BLKREFS
331
46
102
}
 70
     0
280
     1
281
     0
  0
ENDTAB
  0
ENDSEC
  0
SECTION
  2
BLOCKS
  0
BLOCK
  5
20
330
1F
100
AcDbEntity
  8
0
100
AcDbBlockBegin
  2
*Model_Space
 70
     0
 10
0.0
 20
0.0
 30
0.0
  3
*Model_Space
  1

  0
ENDBLK
  5
21
330
1F
100
AcDbEntity
  8
0
100
AcDbBlockEnd
  0
BLOCK
  5
1C
330
1B
100
AcDbEntity
 67
     1
  8
0
100
AcDbBlockBegin
  2
*Paper_Space
 70
     0
 10
0.0
 20
0.0
 30
0.0
  3
*Paper_Space
  1

  0
ENDBLK
  5
1D
330
1B
100
AcDbEntity
 67
     1
  8
0
100
AcDbBlockEnd
  0
BLOCK
  5
24
330
23
100
AcDbEntity
  8
0
100
AcDbBlockBegin
  2
*Paper_Space0
 70
     0
 10
0.0
 20
0.0
 30
0.0
  3
*Paper_Space0
  1

  0
ENDBLK
  5
25
330
23
100
AcDbEntity
  8
0
100
AcDbBlockEnd
  0
BLOCK
  5
43
330
41
100
AcDbEntity
  8
0
100
AcDbBlockBegin
  2
block 2
 70
     0
 10
0.0
 20
0.0
 30
0.0
  3
block 2
  1

  0
INSERT
  5
46
330
41
100
AcDbEntity
  8
Layer 1
100
AcDbBlockReference
  2
block 3
 10
0.0
 20
0.0
 30
0.0
  0
ENDBLK
  5
44
330
41
100
AcDbEntity
  8
0
100
AcDbBlockEnd
  0
BLOCK
  5
47
330
45
100
AcDbEntity
  8
0
100
AcDbBlockBegin
  2
block 3
 70
     0
 10
0.0
 20
0.0
 30
0.0
  3
block 3
  1

  0
SPLINE
  5
49
330
45
100
AcDbEntity
  8
Layer 1
370
     0
100
AcDbSpline
210
0.0
220
0.0
230
1.0
 70
    11
 71
     3
 72
   227
 73
   223
 74
     0
 42
0.0000000001
 43
0.0000000001
 12
1.0
 22
0.0
 32
0.0
 13
1.0
 23
0.0
 33
0.0
 40
0.0
 40
0.0
 40
0.0
 40
0.0
 40
1.0
 40
1.0
 40
1.0
 40
2.0
 40
2.0
 40
2.0
 40
3.0
 40
3.0
 40
3.0
 40
4.0
 40
4.0
 40
4.0
 40
5.0
 40
5.0
 40
5.0
 40
6.0
 40
6.0
 40
6.0
 40
7.0
 40
7.0
 40
7.0
 40
8.0
 40
8.0
 40
8.0
 40
9.0
 40
9.0
 40
9.0
 40
10.0
 40
10.0
 40
10.0
 40
11.0
 40
11.0
 40
11.0
 40
12.0
 40
12.0
 40
12.0
 40
13.0
 40
13.0
 40
13.0
 40
14.0
 40
14.0
 40
14.0
 40
15.0
 40
15.0
 40
15.0
 40
16.0
 40
16.0
 40
16.0
 40
17.0
 40
17.0
 40
17.0
 40
18.0
 40
18.0
 40
18.0
 40
19.0
 40
19.0
 40
19.0
 40
20.0
 40
20.0
 40
20.0
 40
21.0
 40
21.0
 40
21.0
 40
22.0
 40
22.0
 40
22.0
 40
23.0
 40
23.0
 40
23.0
 40
24.0
 40
24.0
 40
24.0
 40
25.0
 40
25.0
 40
25.0
 40
26.0
 40
26.0
 40
26.0
 40
27.0
 40
27.0
 40
27.0
 40
28.0
 40
28.0
 40
28.0
 40
29.0
 40
29.0
 40
29.0
 40
30.0
 40
30.0
 40
30.0
 40
31.0
 40
31.0
 40
31.0
 40
32.0
 40
32.0
 40
32.0
 40
33.0
 40
33.0
 40
33.0
 40
34.0
 40
34.0
 40
34.0
 40
35.0
 40
35.0
 40
35.0
 40
36.0
 40
36.0
 40
36.0
 40
37.0
 40
37.0
 40
37.0
 40
38.0
 40
38.0
 40
38.0
 40
39.0
 40
39.0
 40
39.0
 40
40.0
 40
40.0
 40
40.0
 40
41.0
 40
41.0
 40
41.0
 40
42.0
 40
42.0
 40
42.0
 40
43.0
 40
43.0
 40
43.0
 40
44.0
 40
44.0
 40
44.0
 40
45.0
 40
45.0
 40
45.0
 40
46.0
 40
46.0
 40
46.0
 40
47.0
 40
47.0
 40
47.0
 40
48.0
 40
48.0
 40
48.0
 40
49.0
 40
49.0
 40
49.0
 40
50.0
 40
50.0
 40
50.0
 40
51.0
 40
51.0
 40
51.0
 40
52.0
 40
52.0
 40
52.0
 40
53.0
 40
53.0
 40
53.0
 40
54.0
 40
54.0
 40
54.0
 40
55.0
 40
55.0
 40
55.0
 40
56.0
 40
56.0
 40
56.0
 40
57.0
 40
57.0
 40
57.0
 40
58.0
 40
58.0
 40
58.0
 40
59.0
 40
59.0
 40
59.0
 40
60.0
 40
60.0
 40
60.0
 40
61.0
 40
61.0
 40
61.0
 40
62.0
 40
62.0
 40
62.0
 40
63.0
 40
63.0
 40
63.0
 40
64.0
 40
64.0
 40
64.0
 40
65.0
 40
65.0
 40
65.0
 40
66.0
 40
66.0
 40
66.0
 40
67.0
 40
67.0
 40
67.0
 40
68.0
 40
68.0
 40
68.0
 40
69.0
 40
69.0
 40
69.0
 40
70.0
 40
70.0
 40
70.0
 40
71.0
 40
71.0
 40
71.0
 40
72.0
 40
72.0
 40
72.0
 40
73.0
 40
73.0
 40
73.0
 40
74.0
 40
74.0
 40
74.0
 40
74.0
 10
372.9299067942458
 20
-996.8989692738872
 30
0.0
 10
377.1396627542937
 20
-996.8989692738872
 30
0.0
 10
381.2384866397164
 20
-997.3609135147657
 30
0.0
 10
385.1966860338007
 20
-996.8109040205455
 30
0.0
 10
396.3215883747694
 20
-995.2650358466971
 30
0.0
 10
403.9596880432701
 20
-989.2559441954351
 30
0.0
 10
406.5402583483432
 20
-977.8505088056947
 30
0.0
 10
408.1195116506286
 20
-970.8706376933446
 30
0.0
 10
406.9582345580912
 20
-964.6425563943782
 30
0.0
 10
401.4112217217501
 20
-959.6871364313565
 30
0.0
 10
398.2999129253274
 20
-956.907649542742
 30
0.0
 10
394.6377118289665
 20
-955.0620419127916
 30
0.0
 10
390.7441510389242
 20
-953.6403640482246
 30
0.0
 10
389.9463315200807
 20
-953.3490489271766
 30
0.0
 10
389.1641871856951
 20
-953.0147185592182
 30
0.0
 10
388.3538576638708
 20
-952.6918700485567
 30
0.0
 10
388.5140115402413
 20
-952.2183578229942
 30
0.0
 10
388.5927750357728
 20
-951.938632218477
 30
0.0
 10
388.7013816709454
 20
-951.6710236607368
 30
0.0
 10
393.3158071594293
 20
-940.3025207711906
 30
0.0
 10
397.9340437847939
 20
-928.9355708660938
 30
0.0
 10
402.5477156586404
 20
-917.5667746051353
 30
0.0
 10
402.9888386036799
 20
-916.4798173732496
 30
0.0
 10
403.4830590828857
 20
-915.4035318629257
 30
0.0
 10
403.7865504632895
 20
-914.2775306641207
 30
0.0
 10
403.891884257751
 20
-913.8867370651956
 30
0.0
 10
403.619549459642
 20
-913.1610990254702
 30
0.0
 10
403.2898322898568
 20
-912.9534586796308
 30
0.0
 10
402.977426724885
 20
-912.7567336343699
 30
0.0
 10
402.3005946531141
 20
-912.9219488404748
 30
0.0
 10
401.8997793252521
 20
-913.1403853888652
 30
0.0
 10
401.4559218356712
 20
-913.3823037619126
 30
0.0
 10
401.1343006402764
 20
-913.8567660802144
 30
0.0
 10
400.7750633085519
 20
-914.244428141173
 30
0.0
 10
396.3427972438505
 20
-919.0271976822474
 30
0.0
 10
391.9154835039092
 20
-923.8145252461379
 30
0.0
 10
387.4822915697961
 20
-928.5964335133411
 30
0.0
 10
385.6613863510673
 20
-930.5605793427926
 30
0.0
 10
383.8294568267857
 20
-932.5145002365031
 30
0.0
 10
381.8927102723654
 20
-934.5908135302888
 30
0.0
 10
380.3490275809653
 20
-931.5266863931289
 30
0.0
 10
378.2171163673056
 20
-929.3002099998798
 30
0.0
 10
375.4249310720509
 20
-927.7687385570864
 30
0.0
 10
374.9177699529286
 20
-927.4905713199802
 30
0.0
 10
374.1534755195259
 20
-927.6811900680675
 30
0.0
 10
373.5078861574369
 20
-927.6553949156217
 30
0.0
 10
373.517187915247
 20
-928.3426134119845
 30
0.0
 10
373.3446747588231
 20
-929.0977595019854
 30
0.0
 10
373.5711251914379
 20
-929.7038406167087
 30
0.0
 10
374.162691149949
 20
-931.2872468739423
 30
0.0
 10
375.1138604815796
 20
-932.7521149316748
 30
0.0
 10
375.5780655663702
 20
-934.3632380586795
 30
0.0
 10
376.1474537226949
 20
-936.3394982434271
 30
0.0
 10
374.9767887449602
 20
-937.7757693171511
 30
0.0
 10
372.9079012468338
 20
-937.6966505461477
 30
0.0
 10
371.0442337803943
 20
-937.6253801332966
 30
0.0
 10
369.1937438041859
 20
-937.2232944264744
 30
0.0
 10
367.335976063765
 20
-936.9783050737796
 30
0.0
 10
366.273896189356
 20
-936.8382404104574
 30
0.0
 10
365.8211460470538
 20
-936.2398327076312
 30
0.0
 10
365.504584835653
 20
-935.2020138415847
 30
0.0
 10
364.9624775292021
 20
-933.424767133689
 30
0.0
 10
364.2067958345125
 20
-931.705403412907
 30
0.0
 10
363.4452359456513
 20
-930.0045247825882
 30
0.0
 10
362.7665306032103
 20
-928.4886720031549
 30
0.0
 10
361.494902795911
 20
-928.1845292843859
 30
0.0
 10
360.2959234396569
 20
-929.2022777777499
 30
0.0
 10
358.4814131794226
 20
-930.7425126821839
 30
0.0
 10
356.8650389732837
 20
-932.5157060199228
 30
0.0
 10
355.1576927144875
 20
-934.1829922777797
 30
0.0
 10
354.5440996767177
 20
-934.7822181907836
 30
0.0
 10
353.9109557220692
 20
-935.361430252203
 30
0.0
 10
353.0791589490024
 20
-936.1453940276417
 30
0.0
 10
352.7379545389585
 20
-935.1793354239608
 30
0.0
 10
352.6421162889283
 20
-934.6443390099099
 30
0.0
 10
352.3799768202709
 20
-934.2096217892883
 30
0.0
 10
350.9400130348236
 20
-931.8215838751854
 30
0.0
 10
349.5482052247061
 20
-929.3963927594586
 30
0.0
 10
347.9599623763889
 20
-927.1088601231762
 30
0.0
 10
346.9764629768138
 20
-925.6923283699903
 30
0.0
 10
345.621313135844
 20
-925.8404916991836
 30
0.0
 10
344.5836719075336
 20
-927.145905665566
 30
0.0
 10
343.3873517343572
 20
-928.6509306175484
 30
0.0
 10
342.1272111673165
 20
-930.162339762102
 30
0.0
 10
341.2543208646647
 20
-931.8562474570249
 30
0.0
 10
338.958530765141
 20
-936.3113776515288
 30
0.0
 10
338.222722965032
 20
-941.1938423346886
 30
0.0
 10
337.7086070593988
 20
-946.1231145612734
 30
0.0
 10
337.6332025319654
 20
-946.8460543914488
 30
0.0
 10
337.2540159441967
 20
-947.7586063558745
 30
0.0
 10
336.7053952540941
 20
-948.1741279350892
 30
0.0
 10
333.68652267591
 20
-950.4606001279177
 30
0.0
 10
331.767582958779
 20
-953.4530423641759
 30
0.0
 10
330.5165288310807
 20
-956.9715775958401
 30
0.0
 10
329.5152333601396
 20
-959.7876901558323
 30
0.0
 10
327.921392231659
 20
-962.2258219114754
 30
0.0
 10
325.5511880696539
 20
-964.1117963711819
 30
0.0
 10
323.2333924227182
 20
-965.9560690266317
 30
0.0
 10
321.1294833757995
 20
-967.9679025137453
 30
0.0
 10
320.4534156845893
 20
-971.0949457072046
 30
0.0
 10
315.6708803023486
 20
-970.3815579425582
 30
0.0
 10
311.359935428345
 20
-971.173515416115
 30
0.0
 10
307.7443184824986
 20
-974.47431523015
 30
0.0
 10
304.1459377800019
 20
-977.7593806471482
 30
0.0
 10
303.4234043634345
 20
-982.2078817243238
 30
0.0
 10
303.0019292285844
 20
-986.8453086081336
 30
0.0
 10
299.5724550981755
 20
-985.9046898814264
 30
0.0
 10
296.3744375547584
 20
-984.9613096953694
 30
0.0
 10
293.142442757118
 20
-984.1538708239757
 30
0.0
 10
284.447172475275
 20
-981.9815820146365
 30
0.0
 10
275.8686801644584
 20
-982.2417836170833
 30
0.0
 10
267.6661661962399
 20
-986.0677182593425
 30
0.0
 10
263.7084405027849
 20
-987.9137349943818
 30
0.0
 10
259.9875166772856
 20
-990.2674457617512
 30
0.0
 10
256.046871121291
 20
-992.4536872078057
 30
0.0
 10
256.1293650092776
 20
-992.5205112942962
 30
0.0
 10
255.9626816003702
 20
-992.4347391826368
 30
0.0
 10
255.8648893352444
 20
-992.2992446537943
 30
0.0
 10
249.871585910636
 20
-983.9955902182752
 30
0.0
 10
241.7313258944283
 20
-981.3662395143156
 30
0.0
 10
231.8834343224545
 20
-983.1756090461305
 30
0.0
 10
224.1574954850034
 20
-984.5951014282491
 30
0.0
 10
218.0460629659827
 20
-988.7528902760865
 30
0.0
 10
212.7149795636222
 20
-994.3011304276943
 30
0.0
 10
206.5065030111514
 20
-1000.762493137668
 30
0.0
 10
202.9279450650992
 20
-1008.281564757153
 30
0.0
 10
203.1564706294477
 20
-1017.406029340918
 30
0.0
 10
203.2329894299521
 20
-1020.461301506088
 30
0.0
 10
203.3416041395672
 20
-1023.530127968808
 30
0.0
 10
203.1414387089125
 20
-1026.573417661244
 30
0.0
 10
202.9813790343716
 20
-1029.006903920944
 30
0.0
 10
202.6135047406064
 20
-1031.484196722923
 30
0.0
 10
201.8992583935695
 20
-1033.807181544934
 30
0.0
 10
201.2163112773123
 20
-1036.028396093125
 30
0.0
 10
199.5341895770221
 20
-1036.706983010409
 30
0.0
 10
197.4140239857824
 20
-1035.766019774153
 30
0.0
 10
195.6742588401738
 20
-1034.993887748522
 30
0.0
 10
194.0818791857935
 20
-1033.844894574574
 30
0.0
 10
192.5204905876358
 20
-1032.728263766341
 30
0.0
 10
190.9683499176713
 20
-1031.618232469146
 30
0.0
 10
190.2244380687294
 20
-1031.713586252624
 30
0.0
 10
189.7900559374734
 20
-1033.595975659841
 30
0.0
 10
189.0663436522946
 20
-1036.732175271145
 30
0.0
 10
188.2683195809067
 20
-1039.890218941009
 30
0.0
 10
187.9886518432277
 20
-1043.081733866698
 30
0.0
 10
187.4217667640916
 20
-1049.5509341689
 30
0.0
 10
189.9524464344285
 20
-1054.726770264476
 30
0.0
 10
195.5598036171189
 20
-1058.082659308505
 30
0.0
 10
201.9242676336078
 20
-1061.891664536231
 30
0.0
 10
208.7852398880231
 20
-1061.851572237521
 30
0.0
 10
215.6574060112848
 20
-1059.795851463702
 30
0.0
 10
223.0359661816271
 20
-1057.58866491369
 30
0.0
 10
228.3706857746131
 20
-1052.983272034931
 30
0.0
 10
230.6295272250575
 20
-1045.443691331385
 30
0.0
 10
231.7189579278423
 20
-1041.807360748934
 30
0.0
 10
232.36832074608
 20
-1038.032763412367
 30
0.0
 10
233.1031972938157
 20
-1034.298398331513
 30
0.0
 10
233.8953485539936
 20
-1030.27296574585
 30
0.0
 10
234.2618690328923
 20
-1026.12656724496
 30
0.0
 10
236.399141676401
 20
-1022.499904461714
 30
0.0
 10
237.0615850915593
 20
-1021.375823634494
 30
0.0
 10
238.0438733247528
 20
-1020.440243359934
 30
0.0
 10
238.8797234679765
 20
-1019.418352677546
 30
0.0
 10
239.0297250785889
 20
-1019.506148782803
 30
0.0
 10
239.1797266892014
 20
-1019.593934122136
 30
0.0
 10
239.3297282998138
 20
-1019.681730227393
 30
0.0
 10
238.0201344636748
 20
-1032.150467423847
 30
0.0
 10
241.6533375453809
 20
-1043.22300431344
 30
0.0
 10
248.7213546554982
 20
-1053.013179770113
 30
0.0
 10
246.6191089437434
 20
-1055.545970907175
 30
0.0
 10
244.4990671606228
 20
-1057.762254662453
 30
0.0
 10
242.7759595899815
 20
-1060.253134059752
 30
0.0
 10
239.9905191457316
 20
-1064.279707833295
 30
0.0
 10
240.1959760277331
 20
-1067.835746159094
 30
0.0
 10
243.458034666444
 20
-1071.504611362034
 30
0.0
 10
247.1662923830733
 20
-1075.675319317941
 30
0.0
 10
251.8667160676079
 20
-1077.986698474535
 30
0.0
 10
257.5452454240984
 20
-1078.088490280201
 30
0.0
 10
258.2365199820989
 20
-1078.100892623948
 30
0.0
 10
258.9299208099691
 20
-1078.220674287601
 30
0.0
 10
259.6146443035859
 20
-1078.336289538901
 30
0.0
 10
264.8235425498966
 20
-1079.215854714056
 30
0.0
 10
270.0041156517644
 20
-1080.364051209672
 30
0.0
 10
275.3512483544206
 20
-1079.553043434674
 30
0.0
 10
279.3904074924083
 20
-1078.940430095933
 30
0.0
 10
280.9553744143532
 20
-1077.025247686066
 30
0.0
 10
280.6298882524608
 20
-1072.913095587485
 30
0.0
 10
280.544762096205
 20
-1071.837676733994
 30
0.0
 10
280.432678067777
 20
-1070.764378767411
 30
0.0
 10
280.3186561731387
 20
-1069.535706994443
 30
0.0
 10
290.4104820373149
 20
-1071.712695129343
 30
0.0
 10
300.318619716587
 20
-1073.189575266099
 30
0.0
 10
310.4240644738534
 20
-1071.918830264518
 30
0.0
 10
320.5161487201911
 20
-1070.649764746986
 30
0.0
 10
329.9294953263176
 20
-1067.131665535219
 30
0.0
 10
338.9984508090764
 20
-1062.973176902361
 30
0.0
 10
339.8598538714695
 20
-1065.195091235573
 30
0.0
 10
340.5377410037328
 20
-1067.258079007681
 30
0.0
 10
341.4496793105252
 20
-1069.21183572106
 30
0.0
 10
342.4622790010272
 20
-1071.381255411815
 30
0.0
 10
344.1469306933144
 20
-1072.900273372725
 30
0.0
 10
346.5719657031519
 20
-1073.409749165377
 30
0.0
 10
355.6072776753126
 20
-1075.307986011826
 30
0.0
 10
364.5077895206895
 20
-1069.567563361759
 30
0.0
 10
366.4303250562331
 20
-1060.556959183781
 30
0.0
 10
368.4555029053905
 20
-1060.479121557661
 30
0.0
 10
369.7003450952919
 20
-1059.158681053705
 30
0.0
 10
370.7228494353141
 20
-1057.604135545603
 30
0.0
 10
373.5779938505617
 20
-1053.263347531959
 30
0.0
 10
375.3322364716509
 20
-1048.516296633216
 30
0.0
 10
375.8651281476787
 20
-1043.329694614249
 30
0.0
 10
376.0901790102527
 20
-1041.139378266191
 30
0.0
 10
375.6206770911534
 20
-1039.124923276731
 30
0.0
 10
373.7968220094154
 20
-1037.835101058901
 30
0.0
 10
371.9972979145419
 20
-1036.562482786649
 30
0.0
 10
369.9740148679015
 20
-1035.603895733802
 30
0.0
 10
368.0355672975853
 20
-1034.531695891405
 30
0.0
 10
367.5017712839926
 20
-1034.236451208319
 30
0.0
 10
366.9201745705421
 20
-1034.027613826373
 30
0.0
 10
366.3429703538353
 20
-1033.771341785964
 30
0.0
 10
370.4632614905005
 20
-1021.79274478375
 30
0.0
 10
373.2179383086595
 20
-1009.782302180144
 30
0.0
 10
372.9299067942458
 20
-996.8989692738872
 30
0.0
  0
SPLINE
  5
4A
330
45
100
AcDbEntity
  8
Layer 1
370
     0
100
AcDbSpline
210
0.0
220
0.0
230
1.0
 70
    11
 71
     3
 72
   227
 73
   223
 74
     0
 42
0.0000000001
 43
0.0000000001
 12
1.0
 22
0.0
 32
0.0
 13
1.0
 23
0.0
 33
0.0
 40
0.0
 40
0.0
 40
0.0
 40
0.0
 40
1.0
 40
1.0
 40
1.0
 40
2.0
 40
2.0
 40
2.0
 40
3.0
 40
3.0
 40
3.0
 40
4.0
 40
4.0
 40
4.0
 40
5.0
 40
5.0
 40
5.0
 40
6.0
 40
6.0
 40
6.0
 40
7.0
 40
7.0
 40
7.0
 40
8.0
 40
8.0
 40
8.0
 40
9.0
 40
9.0
 40
9.0
 40
10.0
 40
10.0
 40
10.0
 40
11.0
 40
11.0
 40
11.0
 40
12.0
 40
12.0
 40
12.0
 40
13.0
 40
13.0
 40
13.0
 40
14.0
 40
14.0
 40
14.0
 40
15.0
 40
15.0
 40
15.0
 40
16.0
 40
16.0
 40
16.0
 40
17.0
 40
17.0
 40
17.0
 40
18.0
 40
18.0
 40
18.0
 40
19.0
 40
19.0
 40
19.0
 40
20.0
 40
20.0
 40
20.0
 40
21.0
 40
21.0
 40
21.0
 40
22.0
 40
22.0
 40
22.0
 40
23.0
 40
23.0
 40
23.0
 40
24.0
 40
24.0
 40
24.0
 40
25.0
 40
25.0
 40
25.0
 40
26.0
 40
26.0
 40
26.0
 40
27.0
 40
27.0
 40
27.0
 40
28.0
 40
28.0
 40
28.0
 40
29.0
 40
29.0
 40
29.0
 40
30.0
 40
30.0
 40
30.0
 40
31.0
 40
31.0
 40
31.0
 40
32.0
 40
32.0
 40
32.0
 40
33.0
 40
33.0
 40
33.0
 40
34.0
 40
34.0
 40
34.0
 40
35.0
 40
35.0
 40
35.0
 40
36.0
 40
36.0
 40
36.0
 40
37.0
 40
37.0
 40
37.0
 40
38.0
 40
38.0
 40
38.0
 40
39.0
 40
39.0
 40
39.0
 40
40.0
 40
40.0
 40
40.0
 40
41.0
 40
41.0
 40
41.0
 40
42.0
 40
42.0
 40
42.0
 40
43.0
 40
43.0
 40
43.0
 40
44.0
 40
44.0
 40
44.0
 40
45.0
 40
45.0
 40
45.0
 40
46.0
 40
46.0
 40
46.0
 40
47.0
 40
47.0
 40
47.0
 40
48.0
 40
48.0
 40
48.0
 40
49.0
 40
49.0
 40
49.0
 40
50.0
 40
50.0
 40
50.0
 40
51.0
 40
51.0
 40
51.0
 40
52.0
 40
52.0
 40
52.0
 40
53.0
 40
53.0
 40
53.0
 40
54.0
 40
54.0
 40
54.0
 40
55.0
 40
55.0
 40
55.0
 40
56.0
 40
56.0
 40
56.0
 40
57.0
 40
57.0
 40
57.0
 40
58.0
 40
58.0
 40
58.0
 40
59.0
 40
59.0
 40
59.0
 40
60.0
 40
60.0
 40
60.0
 40
61.0
 40
61.0
 40
61.0
 40
62.0
 40
62.0
 40
62.0
 40
63.0
 40
63.0
 40
63.0
 40
64.0
 40
64.0
 40
64.0
 40
65.0
 40
65.0
 40
65.0
 40
66.0
 40
66.0
 40
66.0
 40
67.0
 40
67.0
 40
67.0
 40
68.0
 40
68.0
 40
68.0
 40
69.0
 40
69.0
 40
69.0
 40
70.0
 40
70.0
 40
70.0
 40
71.0
 40
71.0
 40
71.0
 40
72.0
 40
72.0
 40
72.0
 40
73.0
 40
73.0
 40
73.0
 40
74.0
 40
74.0
 40
74.0
 40
74.0
 10
372.9299067942458
 20
-996.8989692738872
 30
0.0
 10
373.2179383086595
 20
-1009.782302180144
 30
0.0
 10
370.4632614905005
 20
-1021.79274478375
 30
0.0
 10
366.3429703538353
 20
-1033.771341785964
 30
0.0
 10
366.9201745705421
 20
-1034.027613826373
 30
0.0
 10
367.5017712839926
 20
-1034.236451208319
 30
0.0
 10
368.0355672975853
 20
-1034.531695891405
 30
0.0
 10
369.9740148679015
 20
-1035.603895733802
 30
0.0
 10
371.9972979145419
 20
-1036.562482786649
 30
0.0
 10
373.7968220094154
 20
-1037.835101058901
 30
0.0
 10
375.6206770911534
 20
-1039.124923276731
 30
0.0
 10
376.0901790102527
 20
-1041.139378266191
 30
0.0
 10
375.8651281476787
 20
-1043.329694614249
 30
0.0
 10
375.3322364716509
 20
-1048.516296633216
 30
0.0
 10
373.5779938505617
 20
-1053.263347531959
 30
0.0
 10
370.7228494353141
 20
-1057.604135545603
 30
0.0
 10
369.7003450952919
 20
-1059.158681053705
 30
0.0
 10
368.4555029053905
 20
-1060.479121557661
 30
0.0
 10
366.4303250562331
 20
-1060.556959183781
 30
0.0
 10
364.5077895206895
 20
-1069.567563361759
 30
0.0
 10
355.6072776753126
 20
-1075.307986011826
 30
0.0
 10
346.5719657031519
 20
-1073.409749165377
 30
0.0
 10
344.1469306933144
 20
-1072.900273372725
 30
0.0
 10
342.4622790010272
 20
-1071.381255411815
 30
0.0
 10
341.4496793105252
 20
-1069.21183572106
 30
0.0
 10
340.5377410037328
 20
-1067.258079007681
 30
0.0
 10
339.8598538714695
 20
-1065.195091235573
 30
0.0
 10
338.9984508090764
 20
-1062.973176902361
 30
0.0
 10
329.9294953263176
 20
-1067.131665535219
 30
0.0
 10
320.5161487201911
 20
-1070.649764746986
 30
0.0
 10
310.4240644738534
 20
-1071.918830264518
 30
0.0
 10
300.318619716587
 20
-1073.189575266099
 30
0.0
 10
290.4104820373149
 20
-1071.712695129343
 30
0.0
 10
280.3186561731387
 20
-1069.535706994443
 30
0.0
 10
280.432678067777
 20
-1070.764378767411
 30
0.0
 10
280.544762096205
 20
-1071.837676733994
 30
0.0
 10
280.6298882524608
 20
-1072.913095587485
 30
0.0
 10
280.9553744143532
 20
-1077.025247686066
 30
0.0
 10
279.3904074924083
 20
-1078.940430095933
 30
0.0
 10
275.3512483544206
 20
-1079.553043434674
 30
0.0
 10
270.0041156517644
 20
-1080.364051209672
 30
0.0
 10
264.8235425498966
 20
-1079.215854714056
 30
0.0
 10
259.6146443035859
 20
-1078.336289538901
 30
0.0
 10
258.9299208099691
 20
-1078.220674287601
 30
0.0
 10
258.2365199820989
 20
-1078.100892623948
 30
0.0
 10
257.5452454240984
 20
-1078.088490280201
 30
0.0
 10
251.8667160676079
 20
-1077.986698474535
 30
0.0
 10
247.1662923830733
 20
-1075.675319317941
 30
0.0
 10
243.458034666444
 20
-1071.504611362034
 30
0.0
 10
240.1959760277331
 20
-1067.835746159094
 30
0.0
 10
239.9905191457316
 20
-1064.279707833295
 30
0.0
 10
242.7759595899815
 20
-1060.253134059752
 30
0.0
 10
244.4990671606228
 20
-1057.762254662453
 30
0.0
 10
246.6191089437434
 20
-1055.545970907175
 30
0.0
 10
248.7213546554982
 20
-1053.013179770113
 30
0.0
 10
241.6533375453809
 20
-1043.22300431344
 30
0.0
 10
238.0201344636748
 20
-1032.150467423847
 30
0.0
 10
239.3297282998138
 20
-1019.681730227393
 30
0.0
 10
239.1797266892014
 20
-1019.593934122136
 30
0.0
 10
239.0297250785889
 20
-1019.506148782803
 30
0.0
 10
238.8797234679765
 20
-1019.418352677546
 30
0.0
 10
238.0438733247528
 20
-1020.440243359934
 30
0.0
 10
237.0615850915593
 20
-1021.375823634494
 30
0.0
 10
236.399141676401
 20
-1022.499904461714
 30
0.0
 10
234.2618690328923
 20
-1026.12656724496
 30
0.0
 10
233.8953485539936
 20
-1030.27296574585
 30
0.0
 10
233.1031972938157
 20
-1034.298398331513
 30
0.0
 10
232.36832074608
 20
-1038.032763412367
 30
0.0
 10
231.7189579278423
 20
-1041.807360748934
 30
0.0
 10
230.6295272250575
 20
-1045.443691331385
 30
0.0
 10
228.3706857746131
 20
-1052.983272034931
 30
0.0
 10
223.0359661816271
 20
-1057.58866491369
 30
0.0
 10
215.6574060112848
 20
-1059.795851463702
 30
0.0
 10
208.7852398880231
 20
-1061.851572237521
 30
0.0
 10
201.9242676336078
 20
-1061.891664536231
 30
0.0
 10
195.5598036171189
 20
-1058.082659308505
 30
0.0
 10
189.9524464344285
 20
-1054.726770264476
 30
0.0
 10
187.4217667640916
 20
-1049.5509341689
 30
0.0
 10
187.9886518432277
 20
-1043.081733866698
 30
0.0
 10
188.2683195809067
 20
-1039.890218941009
 30
0.0
 10
189.0663436522946
 20
-1036.732175271145
 30
0.0
 10
189.7900559374734
 20
-1033.595975659841
 30
0.0
 10
190.2244380687294
 20
-1031.713586252624
 30
0.0
 10
190.9683499176713
 20
-1031.618232469146
 30
0.0
 10
192.5204905876358
 20
-1032.728263766341
 30
0.0
 10
194.0818791857935
 20
-1033.844894574574
 30
0.0
 10
195.6742588401738
 20
-1034.993887748522
 30
0.0
 10
197.4140239857824
 20
-1035.766019774153
 30
0.0
 10
199.5341895770221
 20
-1036.706983010409
 30
0.0
 10
201.2163112773123
 20
-1036.028396093125
 30
0.0
 10
201.8992583935695
 20
-1033.807181544934
 30
0.0
 10
202.6135047406064
 20
-1031.484196722923
 30
0.0
 10
202.9813790343716
 20
-1029.006903920944
 30
0.0
 10
203.1414387089125
 20
-1026.573417661244
 30
0.0
 10
203.3416041395672
 20
-1023.530127968808
 30
0.0
 10
203.2329894299521
 20
-1020.461301506088
 30
0.0
 10
203.1564706294477
 20
-1017.406029340918
 30
0.0
 10
202.9279450650992
 20
-1008.281564757153
 30
0.0
 10
206.5065030111514
 20
-1000.762493137668
 30
0.0
 10
212.7149795636222
 20
-994.3011304276943
 30
0.0
 10
218.0460629659827
 20
-988.7528902760865
 30
0.0
 10
224.1574954850034
 20
-984.5951014282491
 30
0.0
 10
231.8834343224545
 20
-983.1756090461305
 30
0.0
 10
241.7313258944283
 20
-981.3662395143156
 30
0.0
 10
249.871585910636
 20
-983.9955902182752
 30
0.0
 10
255.8648893352444
 20
-992.2992446537943
 30
0.0
 10
255.9626816003702
 20
-992.4347391826368
 30
0.0
 10
256.1293650092776
 20
-992.5205112942962
 30
0.0
 10
256.046871121291
 20
-992.4536872078057
 30
0.0
 10
259.9875166772856
 20
-990.2674457617512
 30
0.0
 10
263.7084405027849
 20
-987.9137349943818
 30
0.0
 10
267.6661661962399
 20
-986.0677182593425
 30
0.0
 10
275.8686801644584
 20
-982.2417836170833
 30
0.0
 10
284.447172475275
 20
-981.9815820146365
 30
0.0
 10
293.142442757118
 20
-984.1538708239757
 30
0.0
 10
296.3744375547584
 20
-984.9613096953694
 30
0.0
 10
299.5724550981755
 20
-985.9046898814264
 30
0.0
 10
303.0019292285844
 20
-986.8453086081336
 30
0.0
 10
303.4234043634345
 20
-982.2078817243238
 30
0.0
 10
304.1459377800019
 20
-977.7593806471482
 30
0.0
 10
307.7443184824986
 20
-974.47431523015
 30
0.0
 10
311.359935428345
 20
-971.173515416115
 30
0.0
 10
315.6708803023486
 20
-970.3815579425582
 30
0.0
 10
320.4534156845893
 20
-971.0949457072046
 30
0.0
 10
321.1294833757995
 20
-967.9679025137453
 30
0.0
 10
323.2333924227182
 20
-965.9560690266317
 30
0.0
 10
325.5511880696539
 20
-964.1117963711819
 30
0.0
 10
327.921392231659
 20
-962.2258219114754
 30
0.0
 10
329.5152333601396
 20
-959.7876901558323
 30
0.0
 10
330.5165288310807
 20
-956.9715775958401
 30
0.0
 10
331.767582958779
 20
-953.4530423641759
 30
0.0
 10
333.68652267591
 20
-950.4606001279177
 30
0.0
 10
336.7053952540941
 20
-948.1741279350892
 30
0.0
 10
337.2540159441967
 20
-947.7586063558745
 30
0.0
 10
337.6332025319654
 20
-946.8460543914488
 30
0.0
 10
337.7086070593988
 20
-946.1231145612734
 30
0.0
 10
338.222722965032
 20
-941.1938423346886
 30
0.0
 10
338.958530765141
 20
-936.3113776515288
 30
0.0
 10
341.2543208646647
 20
-931.8562474570249
 30
0.0
 10
342.1272111673165
 20
-930.162339762102
 30
0.0
 10
343.3873517343572
 20
-928.6509306175484
 30
0.0
 10
344.5836719075336
 20
-927.145905665566
 30
0.0
 10
345.621313135844
 20
-925.8404916991836
 30
0.0
 10
346.9764629768138
 20
-925.6923283699903
 30
0.0
 10
347.9599623763889
 20
-927.1088601231762
 30
0.0
 10
349.5482052247061
 20
-929.3963927594586
 30
0.0
 10
350.9400130348236
 20
-931.8215838751854
 30
0.0
 10
352.3799768202709
 20
-934.2096217892883
 30
0.0
 10
352.6421162889283
 20
-934.6443390099099
 30
0.0
 10
352.7379545389585
 20
-935.1793354239608
 30
0.0
 10
353.0791589490024
 20
-936.1453940276417
 30
0.0
 10
353.9109557220692
 20
-935.361430252203
 30
0.0
 10
354.5440996767177
 20
-934.7822181907836
 30
0.0
 10
355.1576927144875
 20
-934.1829922777797
 30
0.0
 10
356.8650389732837
 20
-932.5157060199228
 30
0.0
 10
358.4814131794226
 20
-930.7425126821839
 30
0.0
 10
360.2959234396569
 20
-929.2022777777499
 30
0.0
 10
361.494902795911
 20
-928.1845292843859
 30
0.0
 10
362.7665306032103
 20
-928.4886720031549
 30
0.0
 10
363.4452359456513
 20
-930.0045247825882
 30
0.0
 10
364.2067958345125
 20
-931.705403412907
 30
0.0
 10
364.9624775292021
 20
-933.424767133689
 30
0.0
 10
365.504584835653
 20
-935.2020138415847
 30
0.0
 10
365.8211460470538
 20
-936.2398327076312
 30
0.0
 10
366.273896189356
 20
-936.8382404104574
 30
0.0
 10
367.335976063765
 20
-936.9783050737796
 30
0.0
 10
369.1937438041859
 20
-937.2232944264744
 30
0.0
 10
371.0442337803943
 20
-937.6253801332966
 30
0.0
 10
372.9079012468338
 20
-937.6966505461477
 30
0.0
 10
374.9767887449602
 20
-937.7757693171511
 30
0.0
 10
376.1474537226949
 20
-936.3394982434271
 30
0.0
 10
375.5780655663702
 20
-934.3632380586795
 30
0.0
 10
375.1138604815796
 20
-932.7521149316748
 30
0.0
 10
374.162691149949
 20
-931.2872468739423
 30
0.0
 10
373.5711251914379
 20
-929.7038406167087
 30
0.0
 10
373.3446747588231
 20
-929.0977595019854
 30
0.0
 10
373.517187915247
 20
-928.3426134119845
 30
0.0
 10
373.5078861574369
 20
-927.6553949156217
 30
0.0
 10
374.1534755195259
 20
-927.6811900680675
 30
0.0
 10
374.9177699529286
 20
-927.4905713199802
 30
0.0
 10
375.4249310720509
 20
-927.7687385570864
 30
0.0
 10
378.2171163673056
 20
-929.3002099998798
 30
0.0
 10
380.3490275809653
 20
-931.5266863931289
 30
0.0
 10
381.8927102723654
 20
-934.5908135302888
 30
0.0
 10
383.8294568267857
 20
-932.5145002365031
 30
0.0
 10
385.6613863510673
 20
-930.5605793427926
 30
0.0
 10
387.4822915697961
 20
-928.5964335133411
 30
0.0
 10
391.9154835039092
 20
-923.8145252461379
 30
0.0
 10
396.3427972438505
 20
-919.0271976822474
 30
0.0
 10
400.7750633085519
 20
-914.244428141173
 30
0.0
 10
401.1343006402764
 20
-913.8567660802144
 30
0.0
 10
401.4559218356712
 20
-913.3823037619126
 30
0.0
 10
401.8997793252521
 20
-913.1403853888652
 30
0.0
 10
402.3005946531141
 20
-912.9219488404748
 30
0.0
 10
402.977426724885
 20
-912.7567336343699
 30
0.0
 10
403.2898322898568
 20
-912.9534586796308
 30
0.0
 10
403.619549459642
 20
-913.1610990254702
 30
0.0
 10
403.891884257751
 20
-913.8867370651956
 30
0.0
 10
403.7865504632895
 20
-914.2775306641207
 30
0.0
 10
403.4830590828857
 20
-915.4035318629257
 30
0.0
 10
402.9888386036799
 20
-916.4798173732496
 30
0.0
 10
402.5477156586404
 20
-917.5667746051353
 30
0.0
 10
397.9340437847939
 20
-928.9355708660938
 30
0.0
 10
393.3158071594293
 20
-940.3025207711906
 30
0.0
 10
388.7013816709454
 20
-951.6710236607368
 30
0.0
 10
388.5927750357728
 20
-951.938632218477
 30
0.0
 10
388.5140115402413
 20
-952.2183578229942
 30
0.0
 10
388.3538576638708
 20
-952.6918700485567
 30
0.0
 10
389.1641871856951
 20
-953.0147185592182
 30
0.0
 10
389.9463315200807
 20
-953.3490489271766
 30
0.0
 10
390.7441510389242
 20
-953.6403640482246
 30
0.0
 10
394.6377118289665
 20
-955.0620419127916
 30
0.0
 10
398.2999129253274
 20
-956.907649542742
 30
0.0
 10
401.4112217217501
 20
-959.6871364313565
 30
0.0
 10
406.9582345580912
 20
-964.6425563943782
 30
0.0
 10
408.1195116506286
 20
-970.8706376933446
 30
0.0
 10
406.5402583483432
 20
-977.8505088056947
 30
0.0
 10
403.9596880432701
 20
-989.2559441954351
 30
0.0
 10
396.3215883747694
 20
-995.2650358466971
 30
0.0
 10
385.1966860338007
 20
-996.8109040205455
 30
0.0
 10
381.2384866397164
 20
-997.3609135147657
 30
0.0
 10
377.1396627542937
 20
-996.8989692738872
 30
0.0
 10
372.9299067942458
 20
-996.8989692738872
 30
0.0
  0
SPLINE
  5
4B
330
45
100
AcDbEntity
  8
Layer 1
370
     0
100
AcDbSpline
210
0.0
220
0.0
230
1.0
 70
    11
 71
     3
 72
   149
 73
   145
 74
     0
 42
0.0000000001
 43
0.0000000001
 12
1.0
 22
0.0
 32
0.0
 13
1.0
 23
0.0
 33
0.0
 40
0.0
 40
0.0
 40
0.0
 40
0.0
 40
1.0
 40
1.0
 40
1.0
 40
2.0
 40
2.0
 40
2.0
 40
3.0
 40
3.0
 40
3.0
 40
4.0
 40
4.0
 40
4.0
 40
5.0
 40
5.0
 40
5.0
 40
6.0
 40
6.0
 40
6.0
 40
7.0
 40
7.0
 40
7.0
 40
8.0
 40
8.0
 40
8.0
 40
9.0
 40
9.0
 40
9.0
 40
10.0
 40
10.0
 40
10.0
 40
11.0
 40
11.0
 40
11.0
 40
12.0
 40
12.0
 40
12.0
 40
13.0
 40
13.0
 40
13.0
 40
14.0
 40
14.0
 40
14.0
 40
15.0
 40
15.0
 40
15.0
 40
16.0
 40
16.0
 40
16.0
 40
17.0
 40
17.0
 40
17.0
 40
18.0
 40
18.0
 40
18.0
 40
19.0
 40
19.0
 40
19.0
 40
20.0
 40
20.0
 40
20.0
 40
21.0
 40
21.0
 40
21.0
 40
22.0
 40
22.0
 40
22.0
 40
23.0
 40
23.0
 40
23.0
 40
24.0
 40
24.0
 40
24.0
 40
25.0
 40
25.0
 40
25.0
 40
26.0
 40
26.0
 40
26.0
 40
27.0
 40
27.0
 40
27.0
 40
28.0
 40
28.0
 40
28.0
 40
29.0
 40
29.0
 40
29.0
 40
30.0
 40
30.0
 40
30.0
 40
31.0
 40
31.0
 40
31.0
 40
32.0
 40
32.0
 40
32.0
 40
33.0
 40
33.0
 40
33.0
 40
34.0
 40
34.0
 40
34.0
 40
35.0
 40
35.0
 40
35.0
 40
36.0
 40
36.0
 40
36.0
 40
37.0
 40
37.0
 40
37.0
 40
38.0
 40
38.0
 40
38.0
 40
39.0
 40
39.0
 40
39.0
 40
40.0
 40
40.0
 40
40.0
 40
41.0
 40
41.0
 40
41.0
 40
42.0
 40
42.0
 40
42.0
 40
43.0
 40
43.0
 40
43.0
 40
44.0
 40
44.0
 40
44.0
 40
45.0
 40
45.0
 40
45.0
 40
46.0
 40
46.0
 40
46.0
 40
47.0
 40
47.0
 40
47.0
 40
48.0
 40
48.0
 40
48.0
 40
48.0
 10
378.6723426719877
 20
-995.2340192214064
 30
0.0
 10
378.7003125409586
 20
-995.1209985576434
 30
0.0
 10
378.7282824099295
 20
-995.0079886598038
 30
0.0
 10
378.7562522789004
 20
-994.8949679960408
 30
0.0
 10
380.4527464869181
 20
-994.7554954585052
 30
0.0
 10
382.1570782871647
 20
-994.6783576174057
 30
0.0
 10
383.8444645239933
 20
-994.4664088835991
 30
0.0
 10
394.3769396325798
 20
-993.1435891105738
 30
0.0
 10
401.8513326699908
 20
-987.6732404147028
 30
0.0
 10
404.1252248813364
 20
-976.7231712866488
 30
0.0
 10
405.638612264313
 20
-969.435367850496
 30
0.0
 10
403.652363994139
 20
-964.0626122501682
 30
0.0
 10
397.3957476152236
 20
-959.9922642321156
 30
0.0
 10
394.6218859215811
 20
-958.18768553621
 30
0.0
 10
391.4495558713759
 20
-956.9774934707438
 30
0.0
 10
388.4020028732771
 20
-955.6238400931253
 30
0.0
 10
387.597702268552
 20
-955.2665783083432
 30
0.0
 10
386.5730447438515
 20
-955.231061527075
 30
0.0
 10
385.6696976439255
 20
-955.3024449821216
 30
0.0
 10
382.4179150790917
 20
-955.5594221905128
 30
0.0
 10
379.4112725898803
 20
-954.9751286132528
 30
0.0
 10
376.5086719843234
 20
-953.4081592295571
 30
0.0
 10
375.2919503863203
 20
-952.7512979456773
 30
0.0
 10
373.7722326403894
 20
-952.4580395754571
 30
0.0
 10
372.3693036314086
 20
-952.3810632232085
 30
0.0
 10
368.2737956503904
 20
-952.156340721298
 30
0.0
 10
364.1680385103035
 20
-952.0764252719636
 30
0.0
 10
360.065618806468
 20
-952.0530416863575
 30
0.0
 10
359.1609797957349
 20
-952.0478848090529
 30
0.0
 10
358.0958854627764
 20
-952.2862477359004
 30
0.0
 10
357.3738580446084
 20
-952.7947061487914
 30
0.0
 10
353.4772935619399
 20
-955.5387623835247
 30
0.0
 10
351.07961476344
 20
-959.234461650518
 30
0.0
 10
350.7585856938317
 20
-964.0936342584206
 30
0.0
 10
350.445028175057
 20
-968.8399153936408
 30
0.0
 10
350.2643329168556
 20
-973.5969839840992
 30
0.0
 10
349.8498986959034
 20
-978.3339633615092
 30
0.0
 10
349.5206875245177
 20
-982.0968419904649
 30
0.0
 10
348.9917038786809
 20
-985.851839963498
 30
0.0
 10
345.6092122379521
 20
-988.389195852078
 30
0.0
 10
345.2574895207549
 20
-988.6530309536696
 30
0.0
 10
345.10827382255
 20
-989.2818739219233
 30
0.0
 10
345.0071495041345
 20
-989.7707491201653
 30
0.0
 10
342.8322176606027
 20
-1000.284486139089
 30
0.0
 10
334.5209893979778
 20
-1009.224465859619
 30
0.0
 10
320.6586249503529
 20
-1006.839210936713
 30
0.0
 10
310.8869453500669
 20
-1005.157832085136
 30
0.0
 10
305.4939282819165
 20
-1000.300085962083
 30
0.0
 10
303.1520062006606
 20
-990.6666462011045
 30
0.0
 10
303.0354004844083
 20
-990.1869543355153
 30
0.0
 10
302.4564198903419
 20
-989.6087381220098
 30
0.0
 10
301.9752584762098
 20
-989.4622246705761
 30
0.0
 10
298.3840478786918
 20
-988.3687675124429
 30
0.0
 10
294.8147136375051
 20
-987.0843551711163
 30
0.0
 10
291.1371280366179
 20
-986.4272839517304
 30
0.0
 10
287.4725046074939
 20
-985.7725327888352
 30
0.0
 10
283.6713369719967
 20
-985.3952194717366
 30
0.0
 10
279.963154616831
 20
-985.5759039640146
 30
0.0
 10
272.9901521636047
 20
-985.9156549744006
 30
0.0
 10
266.770387540458
 20
-988.7235208370748
 30
0.0
 10
261.0494673606138
 20
-992.6039579665029
 30
0.0
 10
253.6053857805114
 20
-997.653197568919
 30
0.0
 10
247.6291624933635
 20
-1004.020186194443
 30
0.0
 10
244.1315885145422
 20
-1012.420157963583
 30
0.0
 10
239.5683872895545
 20
-1023.379394275405
 30
0.0
 10
241.5085035779964
 20
-1033.958453534506
 30
0.0
 10
246.4603600203755
 20
-1044.218324696899
 30
0.0
 10
247.7248823182364
 20
-1046.838309047508
 30
0.0
 10
249.4007382511128
 20
-1049.31056339734
 30
0.0
 10
251.2022648077371
 20
-1051.603478995318
 30
0.0
 10
252.4940195088166
 20
-1053.24757545419
 30
0.0
 10
252.6417979562488
 20
-1053.271217421958
 30
0.0
 10
251.2161259341035
 20
-1054.784109572459
 30
0.0
 10
248.9289701051397
 20
-1057.211136278123
 30
0.0
 10
246.6570480577748
 20
-1059.671300495987
 30
0.0
 10
244.6025223014525
 20
-1062.292888969182
 30
0.0
 10
242.918866457079
 20
-1064.44127204563
 30
0.0
 10
243.2264704202182
 20
-1066.784496803616
 30
0.0
 10
244.8027684765326
 20
-1068.967955258474
 30
0.0
 10
247.3071214269563
 20
-1072.436918795883
 30
0.0
 10
250.8661634453808
 20
-1074.201259853113
 30
0.0
 10
254.8751403171406
 20
-1075.292106274824
 30
0.0
 10
257.7006246134449
 20
-1076.060922396051
 30
0.0
 10
260.1016246993111
 20
-1075.312152424179
 30
0.0
 10
261.7903620595253
 20
-1073.054193779452
 30
0.0
 10
263.7838557961417
 20
-1070.388744934362
 30
0.0
 10
265.5542688341648
 20
-1067.545529162232
 30
0.0
 10
267.2695495785006
 20
-1064.688220796382
 30
0.0
 10
267.9771721911709
 20
-1063.509459844257
 30
0.0
 10
268.6097240200329
 20
-1063.231203788283
 30
0.0
 10
269.9503506303477
 20
-1063.60457677742
 30
0.0
 10
275.9879773615586
 20
-1065.286106351924
 30
0.0
 10
282.002102082006
 20
-1067.132020810691
 30
0.0
 10
288.1351902559285
 20
-1068.372276717228
 30
0.0
 10
297.5449302777188
 20
-1070.275164442582
 30
0.0
 10
307.0294719352327
 20
-1070.536496466985
 30
0.0
 10
316.4681507590991
 20
-1068.222328936232
 30
0.0
 10
324.1389680687863
 20
-1066.341608247141
 30
0.0
 10
331.5103312193414
 20
-1063.663584803529
 30
0.0
 10
338.5848670960721
 20
-1060.158415465755
 30
0.0
 10
340.7880164248128
 20
-1059.06682619533
 30
0.0
 10
341.0712571033173
 20
-1059.252129268743
 30
0.0
 10
341.6847855455467
 20
-1061.562873235857
 30
0.0
 10
342.2393597912848
 20
-1063.651570033024
 30
0.0
 10
342.8469992734191
 20
-1065.744174860381
 30
0.0
 10
343.6625072043947
 20
-1067.74059692816
 30
0.0
 10
344.5033473531103
 20
-1069.79901994875
 30
0.0
 10
346.1893124880512
 20
-1070.894226569435
 30
0.0
 10
348.4542582170586
 20
-1071.066061472685
 30
0.0
 10
352.4360780470635
 20
-1071.368131751201
 30
0.0
 10
356.0822271516479
 20
-1070.420342919515
 30
0.0
 10
359.1402446272831
 20
-1067.851249088777
 30
0.0
 10
364.6437846649697
 20
-1063.227661799487
 30
0.0
 10
364.5331325043529
 20
-1061.844832769478
 30
0.0
 10
361.9847307783732
 20
-1056.253873433853
 30
0.0
 10
360.385043753491
 20
-1052.744322365259
 30
0.0
 10
358.2597212849468
 20
-1049.469619149525
 30
0.0
 10
356.2926363584095
 20
-1046.135337313743
 30
0.0
 10
355.7453829405775
 20
-1045.207734588416
 30
0.0
 10
355.3140354539775
 20
-1044.286591417124
 30
0.0
 10
356.4746450592646
 20
-1043.776480434992
 30
0.0
 10
358.6950090995081
 20
-1042.800592543255
 30
0.0
 10
359.9534378847296
 20
-1040.981356042652
 30
0.0
 10
360.9542165913479
 20
-1038.991038253436
 30
0.0
 10
367.0728784279258
 20
-1026.822433469287
 30
0.0
 10
369.7869246512057
 20
-1013.793373024004
 30
0.0
 10
370.43535621707
 20
-1000.287511363562
 30
0.0
 10
370.6022280296368
 20
-996.8120882721187
 30
0.0
 10
370.4165804466754
 20
-996.8377111697902
 30
0.0
 10
367.0778738163794
 20
-995.8392794344712
 30
0.0
 10
364.1858453475929
 20
-994.9744420425162
 30
0.0
 10
361.3566252758718
 20
-993.9056549978344
 30
0.0
 10
359.455513927877
 20
-991.395246215503
 30
0.0
 10
359.0810105167836
 20
-990.900691992672
 30
0.0
 10
359.2943480547077
 20
-989.960956071683
 30
0.0
 10
359.2365781097894
 20
-989.2265370756915
 30
0.0
 10
359.9403895855792
 20
-989.3588718060187
 30
0.0
 10
360.7388765916729
 20
-989.322477601994
 30
0.0
 10
361.3305717412646
 20
-989.6545794238103
 30
0.0
 10
363.2456572578214
 20
-990.7294492152083
 30
0.0
 10
364.9491923797371
 20
-992.4205389296835
 30
0.0
 10
366.9824662032848
 20
-992.993910477663
 30
0.0
 10
370.787100466114
 20
-994.066799339157
 30
0.0
 10
374.7659704331097
 20
-994.5219072186818
 30
0.0
 10
378.6723426719877
 20
-995.2340192214064
 30
0.0
  0
SPLINE
  5
4C
330
45
100
AcDbEntity
  8
Layer 1
370
     0
100
AcDbSpline
210
0.0
220
0.0
230
1.0
 70
    11
 71
     3
 72
    50
 73
    46
 74
     0
 42
0.0000000001
 43
0.0000000001
 12
1.0
 22
0.0
 32
0.0
 13
1.0
 23
0.0
 33
0.0
 40
0.0
 40
0.0
 40
0.0
 40
0.0
 40
1.0
 40
1.0
 40
1.0
 40
2.0
 40
2.0
 40
2.0
 40
3.0
 40
3.0
 40
3.0
 40
4.0
 40
4.0
 40
4.0
 40
5.0
 40
5.0
 40
5.0
 40
6.0
 40
6.0
 40
6.0
 40
7.0
 40
7.0
 40
7.0
 40
8.0
 40
8.0
 40
8.0
 40
9.0
 40
9.0
 40
9.0
 40
10.0
 40
10.0
 40
10.0
 40
11.0
 40
11.0
 40
11.0
 40
12.0
 40
12.0
 40
12.0
 40
13.0
 40
13.0
 40
13.0
 40
14.0
 40
14.0
 40
14.0
 40
15.0
 40
15.0
 40
15.0
 40
15.0
 10
191.7280930569603
 20
-1036.450560247072
 30
0.0
 10
191.4007578477255
 20
-1038.027628066909
 30
0.0
 10
190.9070743189487
 20
-1040.012681319587
 30
0.0
 10
190.5863843759272
 20
-1042.025295336146
 30
0.0
 10
189.6406249208007
 20
-1047.960785752143
 30
0.0
 10
192.4739320061892
 20
-1053.555976095661
 30
0.0
 10
197.7459293294969
 20
-1056.315325324571
 30
0.0
 10
210.0507284275085
 20
-1062.755629888391
 30
0.0
 10
225.8218641776211
 20
-1055.593491693024
 30
0.0
 10
228.954645608248
 20
-1042.041476519003
 30
0.0
 10
230.1436126557481
 20
-1036.898142746147
 30
0.0
 10
230.8716259273217
 20
-1031.648979946352
 30
0.0
 10
232.0311750891548
 20
-1026.49788394273
 30
0.0
 10
233.0298006110948
 20
-1022.061645252297
 30
0.0
 10
235.0694263294434
 20
-1018.23892423817
 30
0.0
 10
239.4527666552925
 20
-1016.123915524235
 30
0.0
 10
239.9359143822903
 20
-1015.890779453194
 30
0.0
 10
240.3212429293538
 20
-1015.195042419948
 30
0.0
 10
240.5015506143131
 20
-1014.633470324006
 30
0.0
 10
242.8558750393159
 20
-1007.301047518357
 30
0.0
 10
246.9492190697324
 20
-1001.07067846067
 30
0.0
 10
252.6026692076827
 20
-995.9102699333141
 30
0.0
 10
254.0252406438912
 20
-994.6117596153065
 30
0.0
 10
253.717211426778
 20
-993.8450428491408
 30
0.0
 10
252.7132675386826
 20
-992.6600376614488
 30
0.0
 10
247.2671529363657
 20
-986.2316725066702
 30
0.0
 10
240.3908930707345
 20
-984.2920891314362
 30
0.0
 10
232.2680523185742
 20
-985.8891115902791
 30
0.0
 10
224.3683407116624
 20
-987.4422575283402
 30
0.0
 10
218.3834454732226
 20
-991.986952131018
 30
0.0
 10
213.2328097128254
 20
-997.8479638889929
 30
0.0
 10
208.8339529998884
 20
-1002.853515374287
 30
0.0
 10
206.1028347135907
 20
-1008.606351134025
 30
0.0
 10
205.9512558952014
 20
-1015.37831073384
 30
0.0
 10
205.8776412025318
 20
-1018.667268032144
 30
0.0
 10
206.0648471529041
 20
-1021.962889437028
 30
0.0
 10
205.9626274017835
 20
-1025.25015648536
 30
0.0
 10
205.8552642307627
 20
-1028.702938839911
 30
0.0
 10
205.8674754793695
 20
-1032.212780588437
 30
0.0
 10
204.2727838429409
 20
-1035.419819975656
 30
0.0
 10
203.1128471078657
 20
-1037.752526426489
 30
0.0
 10
200.7563668067038
 20
-1039.341415230209
 30
0.0
 10
198.6272897223769
 20
-1038.845386075874
 30
0.0
 10
196.3502054147457
 20
-1038.314895200762
 30
0.0
 10
194.1803227892845
 20
-1037.324279525825
 30
0.0
 10
191.7280930569603
 20
-1036.450560247072
 30
0.0
  0
SPLINE
  5
4D
330
45
100
AcDbEntity
  8
Layer 1
370
     0
100
AcDbSpline
210
0.0
220
0.0
230
1.0
 70
    11
 71
     3
 72
   137
 73
   133
 74
     0
 42
0.0000000001
 43
0.0000000001
 12
1.0
 22
0.0
 32
0.0
 13
1.0
 23
0.0
 33
0.0
 40
0.0
 40
0.0
 40
0.0
 40
0.0
 40
1.0
 40
1.0
 40
1.0
 40
2.0
 40
2.0
 40
2.0
 40
3.0
 40
3.0
 40
3.0
 40
4.0
 40
4.0
 40
4.0
 40
5.0
 40
5.0
 40
5.0
 40
6.0
 40
6.0
 40
6.0
 40
7.0
 40
7.0
 40
7.0
 40
8.0
 40
8.0
 40
8.0
 40
9.0
 40
9.0
 40
9.0
 40
10.0
 40
10.0
 40
10.0
 40
11.0
 40
11.0
 40
11.0
 40
12.0
 40
12.0
 40
12.0
 40
13.0
 40
13.0
 40
13.0
 40
14.0
 40
14.0
 40
14.0
 40
15.0
 40
15.0
 40
15.0
 40
16.0
 40
16.0
 40
16.0
 40
17.0
 40
17.0
 40
17.0
 40
18.0
 40
18.0
 40
18.0
 40
19.0
 40
19.0
 40
19.0
 40
20.0
 40
20.0
 40
20.0
 40
21.0
 40
21.0
 40
21.0
 40
22.0
 40
22.0
 40
22.0
 40
23.0
 40
23.0
 40
23.0
 40
24.0
 40
24.0
 40
24.0
 40
25.0
 40
25.0
 40
25.0
 40
26.0
 40
26.0
 40
26.0
 40
27.0
 40
27.0
 40
27.0
 40
28.0
 40
28.0
 40
28.0
 40
29.0
 40
29.0
 40
29.0
 40
30.0
 40
30.0
 40
30.0
 40
31.0
 40
31.0
 40
31.0
 40
32.0
 40
32.0
 40
32.0
 40
33.0
 40
33.0
 40
33.0
 40
34.0
 40
34.0
 40
34.0
 40
35.0
 40
35.0
 40
35.0
 40
36.0
 40
36.0
 40
36.0
 40
37.0
 40
37.0
 40
37.0
 40
38.0
 40
38.0
 40
38.0
 40
39.0
 40
39.0
 40
39.0
 40
40.0
 40
40.0
 40
40.0
 40
41.0
 40
41.0
 40
41.0
 40
42.0
 40
42.0
 40
42.0
 40
43.0
 40
43.0
 40
43.0
 40
44.0
 40
44.0
 40
44.0
 40
44.0
 10
378.4236283097995
 20
-934.1079511002607
 30
0.0
 10
378.3394387888787
 20
-935.1606296320682
 30
0.0
 10
378.4780823503132
 20
-935.9908599632815
 30
0.0
 10
378.1784236386368
 20
-936.6083906375317
 30
0.0
 10
377.6492354402557
 20
-937.6989140815408
 30
0.0
 10
377.0619112555609
 20
-939.1837179379132
 30
0.0
 10
376.1221107390315
 20
-939.5584851141298
 30
0.0
 10
374.5076743991031
 20
-940.2022631096082
 30
0.0
 10
372.5616691505662
 20
-940.4712820033127
 30
0.0
 10
370.8302072233732
 20
-940.2650526663077
 30
0.0
 10
367.6953425865701
 20
-939.8916716027279
 30
0.0
 10
364.6289492225363
 20
-938.9776743130868
 30
0.0
 10
361.5084678593842
 20
-938.4366489819369
 30
0.0
 10
359.6219335716614
 20
-938.1095613889399
 30
0.0
 10
357.6860052274188
 20
-937.9169940087188
 30
0.0
 10
355.7748169751297
 20
-937.9349515689356
 30
0.0
 10
354.480817579023
 20
-937.9471089879254
 30
0.0
 10
354.8904179003725
 20
-938.308448366192
 30
0.0
 10
354.4152531055694
 20
-939.5945724893378
 30
0.0
 10
353.5006233179291
 20
-942.0703149983489
 30
0.0
 10
354.6819250279745
 20
-944.4703353851864
 30
0.0
 10
354.2022816090406
 20
-946.8750685549886
 30
0.0
 10
354.1315925560526
 20
-947.2295473485741
 30
0.0
 10
354.3092948875512
 20
-947.6682802586206
 30
0.0
 10
354.4654653722669
 20
-948.0274206970346
 30
0.0
 10
355.2277142802252
 20
-949.7803929391636
 30
0.0
 10
354.9161915209715
 20
-950.2209022265697
 30
0.0
 10
352.9473194511512
 20
-950.4252771332705
 30
0.0
 10
349.8666074090069
 20
-950.7450573557654
 30
0.0
 10
346.9521212240259
 20
-951.6505361085229
 30
0.0
 10
344.4364371392327
 20
-953.4931023651153
 30
0.0
 10
342.2704410121158
 20
-955.0795419212643
 30
0.0
 10
340.2623702152274
 20
-956.8818059436409
 30
0.0
 10
338.0938440961135
 20
-958.4644666606796
 30
0.0
 10
337.6203803172062
 20
-958.8100205037736
 30
0.0
 10
336.7621424362902
 20
-958.628356312467
 30
0.0
 10
336.0811116543966
 20
-958.6895013743684
 30
0.0
 10
336.0552088427169
 20
-958.0030660989324
 30
0.0
 10
335.957152812468
 20
-957.3080127018216
 30
0.0
 10
336.0376926853591
 20
-956.634308130796
 30
0.0
 10
336.0715084507315
 20
-956.351481940342
 30
0.0
 10
336.4781050794547
 20
-956.108758814521
 30
0.0
 10
336.7241710244887
 20
-955.8565347613072
 30
0.0
 10
337.9875198367
 20
-954.5615179854401
 30
0.0
 10
338.1007881167009
 20
-953.3398279137919
 30
0.0
 10
336.9555522500168
 20
-951.2812541702743
 30
0.0
 10
335.9955763930519
 20
-952.6102212855562
 30
0.0
 10
334.7927213043769
 20
-953.7091260009255
 30
0.0
 10
334.2931286293987
 20
-955.066811216854
 30
0.0
 10
332.3163866695793
 20
-960.4387647558891
 30
0.0
 10
329.278307684065
 20
-964.9629771893149
 30
0.0
 10
324.7383500876794
 20
-968.5036363935485
 30
0.0
 10
324.0049861521802
 20
-969.0755814566786
 30
0.0
 10
323.7023237478776
 20
-970.1997968579411
 30
0.0
 10
323.2005671222977
 20
-971.0687253007849
 30
0.0
 10
323.3381879210101
 20
-971.1486784308511
 30
0.0
 10
323.4758087197224
 20
-971.2286261779557
 30
0.0
 10
323.6134295184348
 20
-971.3085739250603
 30
0.0
 10
324.3731053707025
 20
-970.7757091638409
 30
0.0
 10
325.1059740737257
 20
-970.1988333077976
 30
0.0
 10
325.8969356993689
 20
-969.7173704478105
 30
0.0
 10
329.9831311566535
 20
-967.2300222733835
 30
0.0
 10
334.781858487675
 20
-967.753348426478
 30
0.0
 10
338.4335951064995
 20
-971.0568343383991
 30
0.0
 10
341.9289028584468
 20
-974.2188237191867
 30
0.0
 10
342.8780266646332
 20
-978.6970979575013
 30
0.0
 10
340.900165048781
 20
-982.7377212610702
 30
0.0
 10
340.0070132783067
 20
-984.5623568722541
 30
0.0
 10
338.6137413026079
 20
-986.2563210882748
 30
0.0
 10
336.6778775539057
 20
-986.4149946501791
 30
0.0
 10
332.922055987733
 20
-986.7228408465946
 30
0.0
 10
329.464741179434
 20
-985.5752903063812
 30
0.0
 10
327.0620239287868
 20
-982.4037246367369
 30
0.0
 10
326.5617422347116
 20
-981.7433428959081
 30
0.0
 10
326.0692227714015
 20
-980.5577940290848
 30
0.0
 10
326.3428279484708
 20
-979.9766333355316
 30
0.0
 10
326.6156795109025
 20
-979.3971090623339
 30
0.0
 10
327.8322073222846
 20
-979.0969066715263
 30
0.0
 10
328.6760619295497
 20
-978.9855924066209
 30
0.0
 10
330.4258366924315
 20
-978.754754860224
 30
0.0
 10
332.1950547129582
 20
-978.8340082052698
 30
0.0
 10
333.1683049534647
 20
-976.8525723028517
 30
0.0
 10
333.3657950521566
 20
-976.4504812130679
 30
0.0
 10
334.4830072202529
 20
-976.1547789782378
 30
0.0
 10
334.9627690643442
 20
-976.3458848843587
 30
0.0
 10
335.3471232953407
 20
-976.4989763149845
 30
0.0
 10
335.656514401763
 20
-977.5052671743791
 30
0.0
 10
335.5652732010208
 20
-978.061773903366
 30
0.0
 10
335.2991395747853
 20
-979.6851028960157
 30
0.0
 10
334.2955509621618
 20
-980.7895036152763
 30
0.0
 10
332.6624788088429
 20
-981.2439224757042
 30
0.0
 10
332.0411773699248
 20
-981.416807056485
 30
0.0
 10
331.4200481857811
 20
-981.5902514652822
 30
0.0
 10
330.3310427369702
 20
-981.8938612708433
 30
0.0
 10
331.7149698911653
 20
-982.5044990626421
 30
0.0
 10
332.5953640424208
 20
-982.9686664667009
 30
0.0
 10
333.5253352708938
 20
-983.2888181135528
 30
0.0
 10
336.1103303704809
 20
-984.1787454899716
 30
0.0
 10
338.0479274328491
 20
-983.1316356320383
 30
0.0
 10
338.805654652983
 20
-980.4981992601516
 30
0.0
 10
340.3096541507625
 20
-975.2711227521946
 30
0.0
 10
335.241122013629
 20
-969.8959125213336
 30
0.0
 10
329.8573851714419
 20
-971.0035968472286
 30
0.0
 10
325.4349376288735
 20
-971.9134896285766
 30
0.0
 10
323.7095153847031
 20
-975.1656705325759
 30
0.0
 10
322.8737890495984
 20
-979.1281278493614
 30
0.0
 10
322.2644593174916
 20
-982.0171149447898
 30
0.0
 10
323.1339906520453
 20
-984.4428066759542
 30
0.0
 10
325.3790732523955
 20
-986.3988403821303
 30
0.0
 10
328.4587194681241
 20
-989.0819884052768
 30
0.0
 10
332.1346578827324
 20
-989.6840834368645
 30
0.0
 10
335.9628910496356
 20
-989.1513693985727
 30
0.0
 10
343.4242465538195
 20
-988.1130983637438
 30
0.0
 10
346.7056246420563
 20
-985.7838693061664
 30
0.0
 10
347.2878242472167
 20
-978.195438225232
 30
0.0
 10
347.6336687702422
 20
-973.6877191864419
 30
0.0
 10
347.935512964367
 20
-969.1732875944174
 30
0.0
 10
348.1046779186162
 20
-964.6561645215448
 30
0.0
 10
348.3365005470034
 20
-958.4660654003033
 30
0.0
 10
351.2608483178109
 20
-953.8718583159483
 30
0.0
 10
356.1357337909031
 20
-950.2980669824776
 30
0.0
 10
357.3557282296172
 20
-949.4036932796982
 30
0.0
 10
358.567325248086
 20
-949.1870021566377
 30
0.0
 10
360.0701404942924
 20
-949.3039469994769
 30
0.0
 10
363.9255253199887
 20
-949.6039609866252
 30
0.0
 10
367.8084924414138
 20
-949.9357882773951
 30
0.0
 10
371.661207318109
 20
-949.7799084726109
 30
0.0
 10
375.808391731406
 20
-949.6121269395176
 30
0.0
 10
378.7438499351535
 20
-946.8932548910776
 30
0.0
 10
379.4062987332734
 20
-942.8323997259754
 30
0.0
 10
379.8661759168608
 20
-940.0131892715275
 30
0.0
 10
380.3510731064097
 20
-937.0499173046983
 30
0.0
 10
378.4236283097995
 20
-934.1079511002607
 30
0.0
  0
SPLINE
  5
4E
330
45
100
AcDbEntity
  8
Layer 1
370
     0
100
AcDbSpline
210
0.0
220
0.0
230
1.0
 70
    11
 71
     3
 72
    59
 73
    55
 74
     0
 42
0.0000000001
 43
0.0000000001
 12
1.0
 22
0.0
 32
0.0
 13
1.0
 23
0.0
 33
0.0
 40
0.0
 40
0.0
 40
0.0
 40
0.0
 40
1.0
 40
1.0
 40
1.0
 40
2.0
 40
2.0
 40
2.0
 40
3.0
 40
3.0
 40
3.0
 40
4.0
 40
4.0
 40
4.0
 40
5.0
 40
5.0
 40
5.0
 40
6.0
 40
6.0
 40
6.0
 40
7.0
 40
7.0
 40
7.0
 40
8.0
 40
8.0
 40
8.0
 40
9.0
 40
9.0
 40
9.0
 40
10.0
 40
10.0
 40
10.0
 40
11.0
 40
11.0
 40
11.0
 40
12.0
 40
12.0
 40
12.0
 40
13.0
 40
13.0
 40
13.0
 40
14.0
 40
14.0
 40
14.0
 40
15.0
 40
15.0
 40
15.0
 40
16.0
 40
16.0
 40
16.0
 40
17.0
 40
17.0
 40
17.0
 40
18.0
 40
18.0
 40
18.0
 40
18.0
 10
341.5875477254755
 20
-990.7842908289641
 30
0.0
 10
341.2064878670367
 20
-990.8292116443148
 30
0.0
 10
340.972942690907
 20
-990.8214709453963
 30
0.0
 10
340.7620813153629
 20
-990.8868523981523
 30
0.0
 10
337.1056076902462
 20
-992.0206656201183
 30
0.0
 10
333.4082127903188
 20
-992.2982003592253
 30
0.0
 10
329.6186292883907
 20
-991.6262021870572
 30
0.0
 10
329.1292211769408
 20
-991.5394126956373
 30
0.0
 10
328.3554204331835
 20
-992.0243367999947
 30
0.0
 10
327.9824350172883
 20
-992.4697391995822
 30
0.0
 10
323.3156979070454
 20
-998.0426979112966
 30
0.0
 10
313.6216513803348
 20
-997.2981374154705
 30
0.0
 10
310.199853353304
 20
-991.0150637798206
 30
0.0
 10
309.7967341178362
 20
-990.2748903977764
 30
0.0
 10
309.5251421684412
 20
-989.0786186712552
 30
0.0
 10
309.8597578333695
 20
-988.4474987102043
 30
0.0
 10
310.1100978499899
 20
-987.975326842104
 30
0.0
 10
311.4393125815097
 20
-987.9191179560775
 30
0.0
 10
312.2793129882008
 20
-987.9466302733042
 30
0.0
 10
314.3077636780691
 20
-988.0130614035909
 30
0.0
 10
316.3619449248429
 20
-988.5909546393947
 30
0.0
 10
318.1056800047021
 20
-986.8746511323368
 30
0.0
 10
318.3949173025356
 20
-986.5899624371361
 30
0.0
 10
319.3858559551742
 20
-986.6947902331983
 30
0.0
 10
319.8139844306802
 20
-986.9789836959229
 30
0.0
 10
320.1445628743367
 20
-987.1984093635249
 30
0.0
 10
320.344841347187
 20
-988.0869156380559
 30
0.0
 10
320.1692276048264
 20
-988.4880162628878
 30
0.0
 10
319.8883123657745
 20
-989.1296114673986
 30
0.0
 10
319.3474862042072
 20
-989.8911336755281
 30
0.0
 10
318.7395883399114
 20
-990.1096334737183
 30
0.0
 10
317.2427051174938
 20
-990.6476712611272
 30
0.0
 10
315.6451174476729
 20
-990.9055851048535
 30
0.0
 10
314.1839986227615
 20
-991.2532975155873
 30
0.0
 10
317.2582403449476
 20
-994.6672687163126
 30
0.0
 10
323.8254751455519
 20
-994.0852736636966
 30
0.0
 10
325.7338211940657
 20
-989.9615535804312
 30
0.0
 10
319.2705421497288
 20
-986.1945569857784
 30
0.0
 10
318.7696360320969
 20
-980.6784154347621
 30
0.0
 10
321.5554371347804
 20
-974.4532140203028
 30
0.0
 10
316.2460282276876
 20
-971.6615562552943
 30
0.0
 10
308.9751326742211
 20
-974.6634778870986
 30
0.0
 10
306.8749701686426
 20
-980.5101548180778
 30
0.0
 10
305.2247801971313
 20
-985.1041196691564
 30
0.0
 10
305.0303691525293
 20
-989.8941804318478
 30
0.0
 10
306.8966204405827
 20
-994.4755491525584
 30
0.0
 10
307.6397490685979
 20
-996.2997918075386
 30
0.0
 10
308.912141256458
 20
-998.145663202612
 30
0.0
 10
310.4346043128536
 20
-999.372224854595
 30
0.0
 10
315.7063001903063
 20
-1003.619273973271
 30
0.0
 10
321.8271690411795
 20
-1005.347097018357
 30
0.0
 10
328.5688440984948
 20
-1004.276598191856
 30
0.0
 10
334.7456849850799
 20
-1003.295790273129
 30
0.0
 10
340.7489468888253
 20
-997.0530296376184
 30
0.0
 10
341.5875477254755
 20
-990.7842908289641
 30
0.0
  0
SPLINE
  5
4F
330
45
100
AcDbEntity
  8
Layer 1
370
     0
100
AcDbSpline
210
0.0
220
0.0
230
1.0
 70
    11
 71
     3
 72
    26
 73
    22
 74
     0
 42
0.0000000001
 43
0.0000000001
 12
1.0
 22
0.0
 32
0.0
 13
1.0
 23
0.0
 33
0.0
 40
0.0
 40
0.0
 40
0.0
 40
0.0
 40
1.0
 40
1.0
 40
1.0
 40
2.0
 40
2.0
 40
2.0
 40
3.0
 40
3.0
 40
3.0
 40
4.0
 40
4.0
 40
4.0
 40
5.0
 40
5.0
 40
5.0
 40
6.0
 40
6.0
 40
6.0
 40
7.0
 40
7.0
 40
7.0
 40
7.0
 10
377.339693610906
 20
-950.8858379529931
 30
0.0
 10
379.5464925876763
 20
-952.1547742794445
 30
0.0
 10
381.529209634978
 20
-953.0040279972905
 30
0.0
 10
383.8521729251416
 20
-953.0248008464742
 30
0.0
 10
385.0961969048653
 20
-953.0359274282993
 30
0.0
 10
385.7176921304044
 20
-952.6086979073964
 30
0.0
 10
386.1869141354954
 20
-951.427767621708
 30
0.0
 10
389.1788503733542
 20
-943.8976690051891
 30
0.0
 10
392.2646223994925
 20
-936.4049281428383
 30
0.0
 10
395.2974045506982
 20
-928.8909595710406
 30
0.0
 10
396.3569651990336
 20
-926.2657591305484
 30
0.0
 10
397.3538897050778
 20
-923.615273573231
 30
0.0
 10
398.3794300354963
 20
-920.9763385059722
 30
0.0
 10
393.3771298590668
 20
-925.9507024569415
 30
0.0
 10
388.5808894563487
 20
-931.0183948520504
 30
0.0
 10
383.880487303661
 20
-936.1734796302891
 30
0.0
 10
383.1925447989502
 20
-936.9279663074822
 30
0.0
 10
382.5895669616443
 20
-938.0955710714928
 30
0.0
 10
382.5816217101814
 20
-939.0771622111469
 30
0.0
 10
382.5445438700214
 20
-943.659725949354
 30
0.0
 10
381.2526330630528
 20
-947.6311109081119
 30
0.0
 10
377.339693610906
 20
-950.8858379529931
 30
0.0
  0
SPLINE
  5
50
330
45
100
AcDbEntity
  8
Layer 1
370
     0
100
AcDbSpline
210
0.0
220
0.0
230
1.0
 70
    11
 71
     3
 72
    26
 73
    22
 74
     0
 42
0.0000000001
 43
0.0000000001
 12
1.0
 22
0.0
 32
0.0
 13
1.0
 23
0.0
 33
0.0
 40
0.0
 40
0.0
 40
0.0
 40
0.0
 40
1.0
 40
1.0
 40
1.0
 40
2.0
 40
2.0
 40
2.0
 40
3.0
 40
3.0
 40
3.0
 40
4.0
 40
4.0
 40
4.0
 40
5.0
 40
5.0
 40
5.0
 40
6.0
 40
6.0
 40
6.0
 40
7.0
 40
7.0
 40
7.0
 40
7.0
 10
359.5034438188156
 20
-1045.736126108466
 30
0.0
 10
361.1381846902602
 20
-1048.908014755812
 30
0.0
 10
362.9329502469947
 20
-1052.452716564279
 30
0.0
 10
364.7989216210399
 20
-1055.959543854256
 30
0.0
 10
365.1841263599844
 20
-1056.683487606787
 30
0.0
 10
365.8044588657972
 20
-1057.751208825053
 30
0.0
 10
366.3707679680319
 20
-1057.786424160467
 30
0.0
 10
367.0190703428156
 20
-1057.826721011721
 30
0.0
 10
368.0066715592028
 20
-1057.037309679046
 30
0.0
 10
368.3618178400384
 20
-1056.355676005442
 30
0.0
 10
369.817327618863
 20
-1053.562026544606
 30
0.0
 10
371.3818746697956
 20
-1050.769464442033
 30
0.0
 10
372.3666552142543
 20
-1047.797682012763
 30
0.0
 10
374.5240386026581
 20
-1041.287334351359
 30
0.0
 10
373.3971694012797
 20
-1039.310355541225
 30
0.0
 10
366.9849423656648
 20
-1036.866706249844
 30
0.0
 10
365.6931176860833
 20
-1036.374402105002
 30
0.0
 10
365.1333542652705
 20
-1036.539971240838
 30
0.0
 10
364.4333539263613
 20
-1037.836026928312
 30
0.0
 10
363.0027780261113
 20
-1040.484691698836
 30
0.0
 10
361.2591290736392
 20
-1042.964277642498
 30
0.0
 10
359.5034438188156
 20
-1045.736126108466
 30
0.0
  0
SPLINE
  5
51
330
45
100
AcDbEntity
  8
Layer 1
370
     0
100
AcDbSpline
210
0.0
220
0.0
230
1.0
 70
    11
 71
     3
 72
    14
 73
    10
 74
     0
 42
0.0000000001
 43
0.0000000001
 12
1.0
 22
0.0
 32
0.0
 13
1.0
 23
0.0
 33
0.0
 40
0.0
 40
0.0
 40
0.0
 40
0.0
 40
1.0
 40
1.0
 40
1.0
 40
2.0
 40
2.0
 40
2.0
 40
3.0
 40
3.0
 40
3.0
 40
3.0
 10
340.4612383521134
 20
-952.7615309558607
 30
0.0
 10
343.8134239184955
 20
-950.1251178061564
 30
0.0
 10
347.3584917683579
 20
-948.2936135358487
 30
0.0
 10
351.667358819147
 20
-947.8198536940482
 30
0.0
 10
351.3872187265792
 20
-941.0937515449186
 30
0.0
 10
351.2317910905775
 20
-934.5203344128068
 30
0.0
 10
346.3898708749097
 20
-929.1631974758391
 30
0.0
 10
342.3539307480161
 20
-932.8575698427744
 30
0.0
 10
338.7352885776968
 20
-947.3084777159181
 30
0.0
 10
340.4612383521134
 20
-952.7615309558607
 30
0.0
  0
SPLINE
  5
52
330
45
100
AcDbEntity
  8
Layer 1
370
     0
100
AcDbSpline
210
0.0
220
0.0
230
1.0
 70
    11
 71
     3
 72
    23
 73
    19
 74
     0
 42
0.0000000001
 43
0.0000000001
 12
1.0
 22
0.0
 32
0.0
 13
1.0
 23
0.0
 33
0.0
 40
0.0
 40
0.0
 40
0.0
 40
0.0
 40
1.0
 40
1.0
 40
1.0
 40
2.0
 40
2.0
 40
2.0
 40
3.0
 40
3.0
 40
3.0
 40
4.0
 40
4.0
 40
4.0
 40
5.0
 40
5.0
 40
5.0
 40
6.0
 40
6.0
 40
6.0
 40
6.0
 10
262.8204402266533
 20
-1076.608014325032
 30
0.0
 10
266.1401073214316
 20
-1076.783671131086
 30
0.0
 10
269.4035601472216
 20
-1077.059052685515
 30
0.0
 10
272.6702535159525
 20
-1077.105475347179
 30
0.0
 10
277.7565709585285
 20
-1077.177746990905
 30
0.0
 10
278.6108254477898
 20
-1076.053741525149
 30
0.0
 10
277.8761373037135
 20
-1070.977877794186
 30
0.0
 10
277.6486425765297
 20
-1069.406074510887
 30
0.0
 10
277.1286700085716
 20
-1068.424922082612
 30
0.0
 10
275.4128079043727
 20
-1068.102331954112
 30
0.0
 10
273.753832939374
 20
-1067.790421621616
 30
0.0
 10
272.1704347565831
 20
-1067.093532634567
 30
0.0
 10
270.5243681337307
 20
-1066.684309120536
 30
0.0
 10
270.1046047806998
 20
-1066.57994425918
 30
0.0
 10
269.3463715621664
 20
-1066.769209192401
 30
0.0
 10
269.1283293157203
 20
-1067.087266867153
 30
0.0
 10
267.0560182539554
 20
-1070.110165900685
 30
0.0
 10
265.0666909296914
 20
-1073.189952073418
 30
0.0
 10
262.8204402266533
 20
-1076.608014325032
 30
0.0
  0
SPLINE
  5
53
330
45
100
AcDbEntity
  8
Layer 1
370
     0
100
AcDbSpline
210
0.0
220
0.0
230
1.0
 70
    11
 71
     3
 72
    17
 73
    13
 74
     0
 42
0.0000000001
 43
0.0000000001
 12
1.0
 22
0.0
 32
0.0
 13
1.0
 23
0.0
 33
0.0
 40
0.0
 40
0.0
 40
0.0
 40
0.0
 40
1.0
 40
1.0
 40
1.0
 40
2.0
 40
2.0
 40
2.0
 40
3.0
 40
3.0
 40
3.0
 40
4.0
 40
4.0
 40
4.0
 40
4.0
 10
357.9197118923994
 20
-934.9378799856191
 30
0.0
 10
359.7137453663433
 20
-935.2601767427068
 30
0.0
 10
361.2266590486907
 20
-935.5319759361271
 30
0.0
 10
363.2148882487688
 20
-935.8891596679646
 30
0.0
 10
362.5553677818112
 20
-934.2405253723833
 30
0.0
 10
362.0430820831546
 20
-932.9599160934948
 30
0.0
 10
361.5307963844979
 20
-931.6793068146062
 30
0.0
 10
361.309212149256
 20
-931.588154432732
 30
0.0
 10
361.0876063821673
 20
-931.4970020508579
 30
0.0
 10
360.8660221469254
 20
-931.4058496689837
 30
0.0
 10
359.9562154929645
 20
-932.496529218882
 30
0.0
 10
359.0464088390036
 20
-933.587211460261
 30
0.0
 10
357.9197118923994
 20
-934.9378799856191
 30
0.0
  0
HATCH
  5
54
330
45
100
AcDbEntity
  8
Layer 1
 62
     7
420
 16777215
100
AcDbHatch
 10
0.0
 20
0.0
 30
0.0
210
0.0
220
0.0
230
1.0
  2
SOLID
 70
     1
 71
     0
 91
       10
 92
        1
 93
        1
 72
     4
 94
        3
 73
     0
 74
     1
 95
      227
 96
      223
 40
0.0
 40
0.0
 40
0.0
 40
0.0
 40
1.0
 40
1.0
 40
1.0
 40
2.0
 40
2.0
 40
2.0
 40
3.0
 40
3.0
 40
3.0
 40
4.0
 40
4.0
 40
4.0
 40
5.0
 40
5.0
 40
5.0
 40
6.0
 40
6.0
 40
6.0
 40
7.0
 40
7.0
 40
7.0
 40
8.0
 40
8.0
 40
8.0
 40
9.0
 40
9.0
 40
9.0
 40
10.0
 40
10.0
 40
10.0
 40
11.0
 40
11.0
 40
11.0
 40
12.0
 40
12.0
 40
12.0
 40
13.0
 40
13.0
 40
13.0
 40
14.0
 40
14.0
 40
14.0
 40
15.0
 40
15.0
 40
15.0
 40
16.0
 40
16.0
 40
16.0
 40
17.0
 40
17.0
 40
17.0
 40
18.0
 40
18.0
 40
18.0
 40
19.0
 40
19.0
 40
19.0
 40
20.0
 40
20.0
 40
20.0
 40
21.0
 40
21.0
 40
21.0
 40
22.0
 40
22.0
 40
22.0
 40
23.0
 40
23.0
 40
23.0
 40
24.0
 40
24.0
 40
24.0
 40
25.0
 40
25.0
 40
25.0
 40
26.0
 40
26.0
 40
26.0
 40
27.0
 40
27.0
 40
27.0
 40
28.0
 40
28.0
 40
28.0
 40
29.0
 40
29.0
 40
29.0
 40
30.0
 40
30.0
 40
30.0
 40
31.0
 40
31.0
 40
31.0
 40
32.0
 40
32.0
 40
32.0
 40
33.0
 40
33.0
 40
33.0
 40
34.0
 40
34.0
 40
34.0
 40
35.0
 40
35.0
 40
35.0
 40
36.0
 40
36.0
 40
36.0
 40
37.0
 40
37.0
 40
37.0
 40
38.0
 40
38.0
 40
38.0
 40
39.0
 40
39.0
 40
39.0
 40
40.0
 40
40.0
 40
40.0
 40
41.0
 40
41.0
 40
41.0
 40
42.0
 40
42.0
 40
42.0
 40
43.0
 40
43.0
 40
43.0
 40
44.0
 40
44.0
 40
44.0
 40
45.0
 40
45.0
 40
45.0
 40
46.0
 40
46.0
 40
46.0
 40
47.0
 40
47.0
 40
47.0
 40
48.0
 40
48.0
 40
48.0
 40
49.0
 40
49.0
 40
49.0
 40
50.0
 40
50.0
 40
50.0
 40
51.0
 40
51.0
 40
51.0
 40
52.0
 40
52.0
 40
52.0
 40
53.0
 40
53.0
 40
53.0
 40
54.0
 40
54.0
 40
54.0
 40
55.0
 40
55.0
 40
55.0
 40
56.0
 40
56.0
 40
56.0
 40
57.0
 40
57.0
 40
57.0
 40
58.0
 40
58.0
 40
58.0
 40
59.0
 40
59.0
 40
59.0
 40
60.0
 40
60.0
 40
60.0
 40
61.0
 40
61.0
 40
61.0
 40
62.0
 40
62.0
 40
62.0
 40
63.0
 40
63.0
 40
63.0
 40
64.0
 40
64.0
 40
64.0
 40
65.0
 40
65.0
 40
65.0
 40
66.0
 40
66.0
 40
66.0
 40
67.0
 40
67.0
 40
67.0
 40
68.0
 40
68.0
 40
68.0
 40
69.0
 40
69.0
 40
69.0
 40
70.0
 40
70.0
 40
70.0
 40
71.0
 40
71.0
 40
71.0
 40
72.0
 40
72.0
 40
72.0
 40
73.0
 40
73.0
 40
73.0
 40
74.0
 40
74.0
 40
74.0
 40
74.0
 10
372.9299067942458
 20
-996.8989692738872
 10
373.2179383086595
 20
-1009.782302180144
 10
370.4632614905005
 20
-1021.79274478375
 10
366.3429703538353
 20
-1033.771341785964
 10
366.9201745705421
 20
-1034.027613826373
 10
367.5017712839926
 20
-1034.236451208319
 10
368.0355672975853
 20
-1034.531695891405
 10
369.9740148679015
 20
-1035.603895733802
 10
371.9972979145419
 20
-1036.562482786649
 10
373.7968220094154
 20
-1037.835101058901
 10
375.6206770911534
 20
-1039.124923276731
 10
376.0901790102527
 20
-1041.139378266191
 10
375.8651281476787
 20
-1043.329694614249
 10
375.3322364716509
 20
-1048.516296633216
 10
373.5779938505617
 20
-1053.263347531959
 10
370.7228494353141
 20
-1057.604135545603
 10
369.7003450952919
 20
-1059.158681053705
 10
368.4555029053905
 20
-1060.479121557661
 10
366.4303250562331
 20
-1060.556959183781
 10
364.5077895206895
 20
-1069.567563361759
 10
355.6072776753126
 20
-1075.307986011826
 10
346.5719657031519
 20
-1073.409749165377
 10
344.1469306933144
 20
-1072.900273372725
 10
342.4622790010272
 20
-1071.381255411815
 10
341.4496793105252
 20
-1069.21183572106
 10
340.5377410037328
 20
-1067.258079007681
 10
339.8598538714695
 20
-1065.195091235573
 10
338.9984508090764
 20
-1062.973176902361
 10
329.9294953263176
 20
-1067.131665535219
 10
320.5161487201911
 20
-1070.649764746986
 10
310.4240644738534
 20
-1071.918830264518
 10
300.318619716587
 20
-1073.189575266099
 10
290.4104820373149
 20
-1071.712695129343
 10
280.3186561731387
 20
-1069.535706994443
 10
280.432678067777
 20
-1070.764378767411
 10
280.544762096205
 20
-1071.837676733994
 10
280.6298882524608
 20
-1072.913095587485
 10
280.9553744143532
 20
-1077.025247686066
 10
279.3904074924083
 20
-1078.940430095933
 10
275.3512483544206
 20
-1079.553043434674
 10
270.0041156517644
 20
-1080.364051209672
 10
264.8235425498966
 20
-1079.215854714056
 10
259.6146443035859
 20
-1078.336289538901
 10
258.9299208099691
 20
-1078.220674287601
 10
258.2365199820989
 20
-1078.100892623948
 10
257.5452454240984
 20
-1078.088490280201
 10
251.8667160676079
 20
-1077.986698474535
 10
247.1662923830733
 20
-1075.675319317941
 10
243.458034666444
 20
-1071.504611362034
 10
240.1959760277331
 20
-1067.835746159094
 10
239.9905191457316
 20
-1064.279707833295
 10
242.7759595899815
 20
-1060.253134059752
 10
244.4990671606228
 20
-1057.762254662453
 10
246.6191089437434
 20
-1055.545970907175
 10
248.7213546554982
 20
-1053.013179770113
 10
241.6533375453809
 20
-1043.22300431344
 10
238.0201344636748
 20
-1032.150467423847
 10
239.3297282998138
 20
-1019.681730227393
 10
239.1797266892014
 20
-1019.593934122136
 10
239.0297250785889
 20
-1019.506148782803
 10
238.8797234679765
 20
-1019.418352677546
 10
238.0438733247528
 20
-1020.440243359934
 10
237.0615850915593
 20
-1021.375823634494
 10
236.399141676401
 20
-1022.499904461714
 10
234.2618690328923
 20
-1026.12656724496
 10
233.8953485539936
 20
-1030.27296574585
 10
233.1031972938157
 20
-1034.298398331513
 10
232.36832074608
 20
-1038.032763412367
 10
231.7189579278423
 20
-1041.807360748934
 10
230.6295272250575
 20
-1045.443691331385
 10
228.3706857746131
 20
-1052.983272034931
 10
223.0359661816271
 20
-1057.58866491369
 10
215.6574060112848
 20
-1059.795851463702
 10
208.7852398880231
 20
-1061.851572237521
 10
201.9242676336078
 20
-1061.891664536231
 10
195.5598036171189
 20
-1058.082659308505
 10
189.9524464344285
 20
-1054.726770264476
 10
187.4217667640916
 20
-1049.5509341689
 10
187.9886518432277
 20
-1043.081733866698
 10
188.2683195809067
 20
-1039.890218941009
 10
189.0663436522946
 20
-1036.732175271145
 10
189.7900559374734
 20
-1033.595975659841
 10
190.2244380687294
 20
-1031.713586252624
 10
190.9683499176713
 20
-1031.618232469146
 10
192.5204905876358
 20
-1032.728263766341
 10
194.0818791857935
 20
-1033.844894574574
 10
195.6742588401738
 20
-1034.993887748522
 10
197.4140239857824
 20
-1035.766019774153
 10
199.5341895770221
 20
-1036.706983010409
 10
201.2163112773123
 20
-1036.028396093125
 10
201.8992583935695
 20
-1033.807181544934
 10
202.6135047406064
 20
-1031.484196722923
 10
202.9813790343716
 20
-1029.006903920944
 10
203.1414387089125
 20
-1026.573417661244
 10
203.3416041395672
 20
-1023.530127968808
 10
203.2329894299521
 20
-1020.461301506088
 10
203.1564706294477
 20
-1017.406029340918
 10
202.9279450650992
 20
-1008.281564757153
 10
206.5065030111514
 20
-1000.762493137668
 10
212.7149795636222
 20
-994.3011304276943
 10
218.0460629659827
 20
-988.7528902760865
 10
224.1574954850034
 20
-984.5951014282491
 10
231.8834343224545
 20
-983.1756090461305
 10
241.7313258944283
 20
-981.3662395143156
 10
249.871585910636
 20
-983.9955902182752
 10
255.8648893352444
 20
-992.2992446537943
 10
255.9626816003702
 20
-992.4347391826368
 10
256.1293650092776
 20
-992.5205112942962
 10
256.046871121291
 20
-992.4536872078057
 10
259.9875166772856
 20
-990.2674457617512
 10
263.7084405027849
 20
-987.9137349943818
 10
267.6661661962399
 20
-986.0677182593425
 10
275.8686801644584
 20
-982.2417836170833
 10
284.447172475275
 20
-981.9815820146365
 10
293.142442757118
 20
-984.1538708239757
 10
296.3744375547584
 20
-984.9613096953694
 10
299.5724550981755
 20
-985.9046898814264
 10
303.0019292285844
 20
-986.8453086081336
 10
303.4234043634345
 20
-982.2078817243238
 10
304.1459377800019
 20
-977.7593806471482
 10
307.7443184824986
 20
-974.47431523015
 10
311.359935428345
 20
-971.173515416115
 10
315.6708803023486
 20
-970.3815579425582
 10
320.4534156845893
 20
-971.0949457072046
 10
321.1294833757995
 20
-967.9679025137453
 10
323.2333924227182
 20
-965.9560690266317
 10
325.5511880696539
 20
-964.1117963711819
 10
327.921392231659
 20
-962.2258219114754
 10
329.5152333601396
 20
-959.7876901558323
 10
330.5165288310807
 20
-956.9715775958401
 10
331.767582958779
 20
-953.4530423641759
 10
333.68652267591
 20
-950.4606001279177
 10
336.7053952540941
 20
-948.1741279350892
 10
337.2540159441967
 20
-947.7586063558745
 10
337.6332025319654
 20
-946.8460543914488
 10
337.7086070593988
 20
-946.1231145612734
 10
338.222722965032
 20
-941.1938423346886
 10
338.958530765141
 20
-936.3113776515288
 10
341.2543208646647
 20
-931.8562474570249
 10
342.1272111673165
 20
-930.162339762102
 10
343.3873517343572
 20
-928.6509306175484
 10
344.5836719075336
 20
-927.145905665566
 10
345.621313135844
 20
-925.8404916991836
 10
346.9764629768138
 20
-925.6923283699903
 10
347.9599623763889
 20
-927.1088601231762
 10
349.5482052247061
 20
-929.3963927594586
 10
350.9400130348236
 20
-931.8215838751854
 10
352.3799768202709
 20
-934.2096217892883
 10
352.6421162889283
 20
-934.6443390099099
 10
352.7379545389585
 20
-935.1793354239608
 10
353.0791589490024
 20
-936.1453940276417
 10
353.9109557220692
 20
-935.361430252203
 10
354.5440996767177
 20
-934.7822181907836
 10
355.1576927144875
 20
-934.1829922777797
 10
356.8650389732837
 20
-932.5157060199228
 10
358.4814131794226
 20
-930.7425126821839
 10
360.2959234396569
 20
-929.2022777777499
 10
361.494902795911
 20
-928.1845292843859
 10
362.7665306032103
 20
-928.4886720031549
 10
363.4452359456513
 20
-930.0045247825882
 10
364.2067958345125
 20
-931.705403412907
 10
364.9624775292021
 20
-933.424767133689
 10
365.504584835653
 20
-935.2020138415847
 10
365.8211460470538
 20
-936.2398327076312
 10
366.273896189356
 20
-936.8382404104574
 10
367.335976063765
 20
-936.9783050737796
 10
369.1937438041859
 20
-937.2232944264744
 10
371.0442337803943
 20
-937.6253801332966
 10
372.9079012468338
 20
-937.6966505461477
 10
374.9767887449602
 20
-937.7757693171511
 10
376.1474537226949
 20
-936.3394982434271
 10
375.5780655663702
 20
-934.3632380586795
 10
375.1138604815796
 20
-932.7521149316748
 10
374.162691149949
 20
-931.2872468739423
 10
373.5711251914379
 20
-929.7038406167087
 10
373.3446747588231
 20
-929.0977595019854
 10
373.517187915247
 20
-928.3426134119845
 10
373.5078861574369
 20
-927.6553949156217
 10
374.1534755195259
 20
-927.6811900680675
 10
374.9177699529286
 20
-927.4905713199802
 10
375.4249310720509
 20
-927.7687385570864
 10
378.2171163673056
 20
-929.3002099998798
 10
380.3490275809653
 20
-931.5266863931289
 10
381.8927102723654
 20
-934.5908135302888
 10
383.8294568267857
 20
-932.5145002365031
 10
385.6613863510673
 20
-930.5605793427926
 10
387.4822915697961
 20
-928.5964335133411
 10
391.9154835039092
 20
-923.8145252461379
 10
396.3427972438505
 20
-919.0271976822474
 10
400.7750633085519
 20
-914.244428141173
 10
401.1343006402764
 20
-913.8567660802144
 10
401.4559218356712
 20
-913.3823037619126
 10
401.8997793252521
 20
-913.1403853888652
 10
402.3005946531141
 20
-912.9219488404748
 10
402.977426724885
 20
-912.7567336343699
 10
403.2898322898568
 20
-912.9534586796308
 10
403.619549459642
 20
-913.1610990254702
 10
403.891884257751
 20
-913.8867370651956
 10
403.7865504632895
 20
-914.2775306641207
 10
403.4830590828857
 20
-915.4035318629257
 10
402.9888386036799
 20
-916.4798173732496
 10
402.5477156586404
 20
-917.5667746051353
 10
397.9340437847939
 20
-928.9355708660938
 10
393.3158071594293
 20
-940.3025207711906
 10
388.7013816709454
 20
-951.6710236607368
 10
388.5927750357728
 20
-951.938632218477
 10
388.5140115402413
 20
-952.2183578229942
 10
388.3538576638708
 20
-952.6918700485567
 10
389.1641871856951
 20
-953.0147185592182
 10
389.9463315200807
 20
-953.3490489271766
 10
390.7441510389242
 20
-953.6403640482246
 10
394.6377118289665
 20
-955.0620419127916
 10
398.2999129253274
 20
-956.907649542742
 10
401.4112217217501
 20
-959.6871364313565
 10
406.9582345580912
 20
-964.6425563943782
 10
408.1195116506286
 20
-970.8706376933446
 10
406.5402583483432
 20
-977.8505088056947
 10
403.9596880432701
 20
-989.2559441954351
 10
396.3215883747694
 20
-995.2650358466971
 10
385.1966860338007
 20
-996.8109040205455
 10
381.2384866397164
 20
-997.3609135147657
 10
377.1396627542937
 20
-996.8989692738872
 10
372.9299067942458
 20
-996.8989692738872
 97
        0
 97
        0
 92
        1
 93
        1
 72
     4
 94
        3
 73
     0
 74
     1
 95
      149
 96
      145
 40
0.0
 40
0.0
 40
0.0
 40
0.0
 40
1.0
 40
1.0
 40
1.0
 40
2.0
 40
2.0
 40
2.0
 40
3.0
 40
3.0
 40
3.0
 40
4.0
 40
4.0
 40
4.0
 40
5.0
 40
5.0
 40
5.0
 40
6.0
 40
6.0
 40
6.0
 40
7.0
 40
7.0
 40
7.0
 40
8.0
 40
8.0
 40
8.0
 40
9.0
 40
9.0
 40
9.0
 40
10.0
 40
10.0
 40
10.0
 40
11.0
 40
11.0
 40
11.0
 40
12.0
 40
12.0
 40
12.0
 40
13.0
 40
13.0
 40
13.0
 40
14.0
 40
14.0
 40
14.0
 40
15.0
 40
15.0
 40
15.0
 40
16.0
 40
16.0
 40
16.0
 40
17.0
 40
17.0
 40
17.0
 40
18.0
 40
18.0
 40
18.0
 40
19.0
 40
19.0
 40
19.0
 40
20.0
 40
20.0
 40
20.0
 40
21.0
 40
21.0
 40
21.0
 40
22.0
 40
22.0
 40
22.0
 40
23.0
 40
23.0
 40
23.0
 40
24.0
 40
24.0
 40
24.0
 40
25.0
 40
25.0
 40
25.0
 40
26.0
 40
26.0
 40
26.0
 40
27.0
 40
27.0
 40
27.0
 40
28.0
 40
28.0
 40
28.0
 40
29.0
 40
29.0
 40
29.0
 40
30.0
 40
30.0
 40
30.0
 40
31.0
 40
31.0
 40
31.0
 40
32.0
 40
32.0
 40
32.0
 40
33.0
 40
33.0
 40
33.0
 40
34.0
 40
34.0
 40
34.0
 40
35.0
 40
35.0
 40
35.0
 40
36.0
 40
36.0
 40
36.0
 40
37.0
 40
37.0
 40
37.0
 40
38.0
 40
38.0
 40
38.0
 40
39.0
 40
39.0
 40
39.0
 40
40.0
 40
40.0
 40
40.0
 40
41.0
 40
41.0
 40
41.0
 40
42.0
 40
42.0
 40
42.0
 40
43.0
 40
43.0
 40
43.0
 40
44.0
 40
44.0
 40
44.0
 40
45.0
 40
45.0
 40
45.0
 40
46.0
 40
46.0
 40
46.0
 40
47.0
 40
47.0
 40
47.0
 40
48.0
 40
48.0
 40
48.0
 40
48.0
 10
378.6723426719877
 20
-995.2340192214064
 10
378.7003125409586
 20
-995.1209985576434
 10
378.7282824099295
 20
-995.0079886598038
 10
378.7562522789004
 20
-994.8949679960408
 10
380.4527464869181
 20
-994.7554954585052
 10
382.1570782871647
 20
-994.6783576174057
 10
383.8444645239933
 20
-994.4664088835991
 10
394.3769396325798
 20
-993.1435891105738
 10
401.8513326699908
 20
-987.6732404147028
 10
404.1252248813364
 20
-976.7231712866488
 10
405.638612264313
 20
-969.435367850496
 10
403.652363994139
 20
-964.0626122501682
 10
397.3957476152236
 20
-959.9922642321156
 10
394.6218859215811
 20
-958.18768553621
 10
391.4495558713759
 20
-956.9774934707438
 10
388.4020028732771
 20
-955.6238400931253
 10
387.597702268552
 20
-955.2665783083432
 10
386.5730447438515
 20
-955.231061527075
 10
385.6696976439255
 20
-955.3024449821216
 10
382.4179150790917
 20
-955.5594221905128
 10
379.4112725898803
 20
-954.9751286132528
 10
376.5086719843234
 20
-953.4081592295571
 10
375.2919503863203
 20
-952.7512979456773
 10
373.7722326403894
 20
-952.4580395754571
 10
372.3693036314086
 20
-952.3810632232085
 10
368.2737956503904
 20
-952.156340721298
 10
364.1680385103035
 20
-952.0764252719636
 10
360.065618806468
 20
-952.0530416863575
 10
359.1609797957349
 20
-952.0478848090529
 10
358.0958854627764
 20
-952.2862477359004
 10
357.3738580446084
 20
-952.7947061487914
 10
353.4772935619399
 20
-955.5387623835247
 10
351.07961476344
 20
-959.234461650518
 10
350.7585856938317
 20
-964.0936342584206
 10
350.445028175057
 20
-968.8399153936408
 10
350.2643329168556
 20
-973.5969839840992
 10
349.8498986959034
 20
-978.3339633615092
 10
349.5206875245177
 20
-982.0968419904649
 10
348.9917038786809
 20
-985.851839963498
 10
345.6092122379521
 20
-988.389195852078
 10
345.2574895207549
 20
-988.6530309536696
 10
345.10827382255
 20
-989.2818739219233
 10
345.0071495041345
 20
-989.7707491201653
 10
342.8322176606027
 20
-1000.284486139089
 10
334.5209893979778
 20
-1009.224465859619
 10
320.6586249503529
 20
-1006.839210936713
 10
310.8869453500669
 20
-1005.157832085136
 10
305.4939282819165
 20
-1000.300085962083
 10
303.1520062006606
 20
-990.6666462011045
 10
303.0354004844083
 20
-990.1869543355153
 10
302.4564198903419
 20
-989.6087381220098
 10
301.9752584762098
 20
-989.4622246705761
 10
298.3840478786918
 20
-988.3687675124429
 10
294.8147136375051
 20
-987.0843551711163
 10
291.1371280366179
 20
-986.4272839517304
 10
287.4725046074939
 20
-985.7725327888352
 10
283.6713369719967
 20
-985.3952194717366
 10
279.963154616831
 20
-985.5759039640146
 10
272.9901521636047
 20
-985.9156549744006
 10
266.770387540458
 20
-988.7235208370748
 10
261.0494673606138
 20
-992.6039579665029
 10
253.6053857805114
 20
-997.653197568919
 10
247.6291624933635
 20
-1004.020186194443
 10
244.1315885145422
 20
-1012.420157963583
 10
239.5683872895545
 20
-1023.379394275405
 10
241.5085035779964
 20
-1033.958453534506
 10
246.4603600203755
 20
-1044.218324696899
 10
247.7248823182364
 20
-1046.838309047508
 10
249.4007382511128
 20
-1049.31056339734
 10
251.2022648077371
 20
-1051.603478995318
 10
252.4940195088166
 20
-1053.24757545419
 10
252.6417979562488
 20
-1053.271217421958
 10
251.2161259341035
 20
-1054.784109572459
 10
248.9289701051397
 20
-1057.211136278123
 10
246.6570480577748
 20
-1059.671300495987
 10
244.6025223014525
 20
-1062.292888969182
 10
242.918866457079
 20
-1064.44127204563
 10
243.2264704202182
 20
-1066.784496803616
 10
244.8027684765326
 20
-1068.967955258474
 10
247.3071214269563
 20
-1072.436918795883
 10
250.8661634453808
 20
-1074.201259853113
 10
254.8751403171406
 20
-1075.292106274824
 10
257.7006246134449
 20
-1076.060922396051
 10
260.1016246993111
 20
-1075.312152424179
 10
261.7903620595253
 20
-1073.054193779452
 10
263.7838557961417
 20
-1070.388744934362
 10
265.5542688341648
 20
-1067.545529162232
 10
267.2695495785006
 20
-1064.688220796382
 10
267.9771721911709
 20
-1063.509459844257
 10
268.6097240200329
 20
-1063.231203788283
 10
269.9503506303477
 20
-1063.60457677742
 10
275.9879773615586
 20
-1065.286106351924
 10
282.002102082006
 20
-1067.132020810691
 10
288.1351902559285
 20
-1068.372276717228
 10
297.5449302777188
 20
-1070.275164442582
 10
307.0294719352327
 20
-1070.536496466985
 10
316.4681507590991
 20
-1068.222328936232
 10
324.1389680687863
 20
-1066.341608247141
 10
331.5103312193414
 20
-1063.663584803529
 10
338.5848670960721
 20
-1060.158415465755
 10
340.7880164248128
 20
-1059.06682619533
 10
341.0712571033173
 20
-1059.252129268743
 10
341.6847855455467
 20
-1061.562873235857
 10
342.2393597912848
 20
-1063.651570033024
 10
342.8469992734191
 20
-1065.744174860381
 10
343.6625072043947
 20
-1067.74059692816
 10
344.5033473531103
 20
-1069.79901994875
 10
346.1893124880512
 20
-1070.894226569435
 10
348.4542582170586
 20
-1071.066061472685
 10
352.4360780470635
 20
-1071.368131751201
 10
356.0822271516479
 20
-1070.420342919515
 10
359.1402446272831
 20
-1067.851249088777
 10
364.6437846649697
 20
-1063.227661799487
 10
364.5331325043529
 20
-1061.844832769478
 10
361.9847307783732
 20
-1056.253873433853
 10
360.385043753491
 20
-1052.744322365259
 10
358.2597212849468
 20
-1049.469619149525
 10
356.2926363584095
 20
-1046.135337313743
 10
355.7453829405775
 20
-1045.207734588416
 10
355.3140354539775
 20
-1044.286591417124
 10
356.4746450592646
 20
-1043.776480434992
 10
358.6950090995081
 20
-1042.800592543255
 10
359.9534378847296
 20
-1040.981356042652
 10
360.9542165913479
 20
-1038.991038253436
 10
367.0728784279258
 20
-1026.822433469287
 10
369.7869246512057
 20
-1013.793373024004
 10
370.43535621707
 20
-1000.287511363562
 10
370.6022280296368
 20
-996.8120882721187
 10
370.4165804466754
 20
-996.8377111697902
 10
367.0778738163794
 20
-995.8392794344712
 10
364.1858453475929
 20
-994.9744420425162
 10
361.3566252758718
 20
-993.9056549978344
 10
359.455513927877
 20
-991.395246215503
 10
359.0810105167836
 20
-990.900691992672
 10
359.2943480547077
 20
-989.960956071683
 10
359.2365781097894
 20
-989.2265370756915
 10
359.9403895855792
 20
-989.3588718060187
 10
360.7388765916729
 20
-989.322477601994
 10
361.3305717412646
 20
-989.6545794238103
 10
363.2456572578214
 20
-990.7294492152083
 10
364.9491923797371
 20
-992.4205389296835
 10
366.9824662032848
 20
-992.993910477663
 10
370.787100466114
 20
-994.066799339157
 10
374.7659704331097
 20
-994.5219072186818
 10
378.6723426719877
 20
-995.2340192214064
 97
        0
 97
        0
 92
        1
 93
        1
 72
     4
 94
        3
 73
     0
 74
     1
 95
       50
 96
       46
 40
0.0
 40
0.0
 40
0.0
 40
0.0
 40
1.0
 40
1.0
 40
1.0
 40
2.0
 40
2.0
 40
2.0
 40
3.0
 40
3.0
 40
3.0
 40
4.0
 40
4.0
 40
4.0
 40
5.0
 40
5.0
 40
5.0
 40
6.0
 40
6.0
 40
6.0
 40
7.0
 40
7.0
 40
7.0
 40
8.0
 40
8.0
 40
8.0
 40
9.0
 40
9.0
 40
9.0
 40
10.0
 40
10.0
 40
10.0
 40
11.0
 40
11.0
 40
11.0
 40
12.0
 40
12.0
 40
12.0
 40
13.0
 40
13.0
 40
13.0
 40
14.0
 40
14.0
 40
14.0
 40
15.0
 40
15.0
 40
15.0
 40
15.0
 10
191.7280930569603
 20
-1036.450560247072
 10
191.4007578477255
 20
-1038.027628066909
 10
190.9070743189487
 20
-1040.012681319587
 10
190.5863843759272
 20
-1042.025295336146
 10
189.6406249208007
 20
-1047.960785752143
 10
192.4739320061892
 20
-1053.555976095661
 10
197.7459293294969
 20
-1056.315325324571
 10
210.0507284275085
 20
-1062.755629888391
 10
225.8218641776211
 20
-1055.593491693024
 10
228.954645608248
 20
-1042.041476519003
 10
230.1436126557481
 20
-1036.898142746147
 10
230.8716259273217
 20
-1031.648979946352
 10
232.0311750891548
 20
-1026.49788394273
 10
233.0298006110948
 20
-1022.061645252297
 10
235.0694263294434
 20
-1018.23892423817
 10
239.4527666552925
 20
-1016.123915524235
 10
239.9359143822903
 20
-1015.890779453194
 10
240.3212429293538
 20
-1015.195042419948
 10
240.5015506143131
 20
-1014.633470324006
 10
242.8558750393159
 20
-1007.301047518357
 10
246.9492190697324
 20
-1001.07067846067
 10
252.6026692076827
 20
-995.9102699333141
 10
254.0252406438912
 20
-994.6117596153065
 10
253.717211426778
 20
-993.8450428491408
 10
252.7132675386826
 20
-992.6600376614488
 10
247.2671529363657
 20
-986.2316725066702
 10
240.3908930707345
 20
-984.2920891314362
 10
232.2680523185742
 20
-985.8891115902791
 10
224.3683407116624
 20
-987.4422575283402
 10
218.3834454732226
 20
-991.986952131018
 10
213.2328097128254
 20
-997.8479638889929
 10
208.8339529998884
 20
-1002.853515374287
 10
206.1028347135907
 20
-1008.606351134025
 10
205.9512558952014
 20
-1015.37831073384
 10
205.8776412025318
 20
-1018.667268032144
 10
206.0648471529041
 20
-1021.962889437028
 10
205.9626274017835
 20
-1025.25015648536
 10
205.8552642307627
 20
-1028.702938839911
 10
205.8674754793695
 20
-1032.212780588437
 10
204.2727838429409
 20
-1035.419819975656
 10
203.1128471078657
 20
-1037.752526426489
 10
200.7563668067038
 20
-1039.341415230209
 10
198.6272897223769
 20
-1038.845386075874
 10
196.3502054147457
 20
-1038.314895200762
 10
194.1803227892845
 20
-1037.324279525825
 10
191.7280930569603
 20
-1036.450560247072
 97
        0
 97
        0
 92
        1
 93
        1
 72
     4
 94
        3
 73
     0
 74
     1
 95
      137
 96
      133
 40
0.0
 40
0.0
 40
0.0
 40
0.0
 40
1.0
 40
1.0
 40
1.0
 40
2.0
 40
2.0
 40
2.0
 40
3.0
 40
3.0
 40
3.0
 40
4.0
 40
4.0
 40
4.0
 40
5.0
 40
5.0
 40
5.0
 40
6.0
 40
6.0
 40
6.0
 40
7.0
 40
7.0
 40
7.0
 40
8.0
 40
8.0
 40
8.0
 40
9.0
 40
9.0
 40
9.0
 40
10.0
 40
10.0
 40
10.0
 40
11.0
 40
11.0
 40
11.0
 40
12.0
 40
12.0
 40
12.0
 40
13.0
 40
13.0
 40
13.0
 40
14.0
 40
14.0
 40
14.0
 40
15.0
 40
15.0
 40
15.0
 40
16.0
 40
16.0
 40
16.0
 40
17.0
 40
17.0
 40
17.0
 40
18.0
 40
18.0
 40
18.0
 40
19.0
 40
19.0
 40
19.0
 40
20.0
 40
20.0
 40
20.0
 40
21.0
 40
21.0
 40
21.0
 40
22.0
 40
22.0
 40
22.0
 40
23.0
 40
23.0
 40
23.0
 40
24.0
 40
24.0
 40
24.0
 40
25.0
 40
25.0
 40
25.0
 40
26.0
 40
26.0
 40
26.0
 40
27.0
 40
27.0
 40
27.0
 40
28.0
 40
28.0
 40
28.0
 40
29.0
 40
29.0
 40
29.0
 40
30.0
 40
30.0
 40
30.0
 40
31.0
 40
31.0
 40
31.0
 40
32.0
 40
32.0
 40
32.0
 40
33.0
 40
33.0
 40
33.0
 40
34.0
 40
34.0
 40
34.0
 40
35.0
 40
35.0
 40
35.0
 40
36.0
 40
36.0
 40
36.0
 40
37.0
 40
37.0
 40
37.0
 40
38.0
 40
38.0
 40
38.0
 40
39.0
 40
39.0
 40
39.0
 40
40.0
 40
40.0
 40
40.0
 40
41.0
 40
41.0
 40
41.0
 40
42.0
 40
42.0
 40
42.0
 40
43.0
 40
43.0
 40
43.0
 40
44.0
 40
44.0
 40
44.0
 40
44.0
 10
378.4236283097995
 20
-934.1079511002607
 10
378.3394387888787
 20
-935.1606296320682
 10
378.4780823503132
 20
-935.9908599632815
 10
378.1784236386368
 20
-936.6083906375317
 10
377.6492354402557
 20
-937.6989140815408
 10
377.0619112555609
 20
-939.1837179379132
 10
376.1221107390315
 20
-939.5584851141298
 10
374.5076743991031
 20
-940.2022631096082
 10
372.5616691505662
 20
-940.4712820033127
 10
370.8302072233732
 20
-940.2650526663077
 10
367.6953425865701
 20
-939.8916716027279
 10
364.6289492225363
 20
-938.9776743130868
 10
361.5084678593842
 20
-938.4366489819369
 10
359.6219335716614
 20
-938.1095613889399
 10
357.6860052274188
 20
-937.9169940087188
 10
355.7748169751297
 20
-937.9349515689356
 10
354.480817579023
 20
-937.9471089879254
 10
354.8904179003725
 20
-938.308448366192
 10
354.4152531055694
 20
-939.5945724893378
 10
353.5006233179291
 20
-942.0703149983489
 10
354.6819250279745
 20
-944.4703353851864
 10
354.2022816090406
 20
-946.8750685549886
 10
354.1315925560526
 20
-947.2295473485741
 10
354.3092948875512
 20
-947.6682802586206
 10
354.4654653722669
 20
-948.0274206970346
 10
355.2277142802252
 20
-949.7803929391636
 10
354.9161915209715
 20
-950.2209022265697
 10
352.9473194511512
 20
-950.4252771332705
 10
349.8666074090069
 20
-950.7450573557654
 10
346.9521212240259
 20
-951.6505361085229
 10
344.4364371392327
 20
-953.4931023651153
 10
342.2704410121158
 20
-955.0795419212643
 10
340.2623702152274
 20
-956.8818059436409
 10
338.0938440961135
 20
-958.4644666606796
 10
337.6203803172062
 20
-958.8100205037736
 10
336.7621424362902
 20
-958.628356312467
 10
336.0811116543966
 20
-958.6895013743684
 10
336.0552088427169
 20
-958.0030660989324
 10
335.957152812468
 20
-957.3080127018216
 10
336.0376926853591
 20
-956.634308130796
 10
336.0715084507315
 20
-956.351481940342
 10
336.4781050794547
 20
-956.108758814521
 10
336.7241710244887
 20
-955.8565347613072
 10
337.9875198367
 20
-954.5615179854401
 10
338.1007881167009
 20
-953.3398279137919
 10
336.9555522500168
 20
-951.2812541702743
 10
335.9955763930519
 20
-952.6102212855562
 10
334.7927213043769
 20
-953.7091260009255
 10
334.2931286293987
 20
-955.066811216854
 10
332.3163866695793
 20
-960.4387647558891
 10
329.278307684065
 20
-964.9629771893149
 10
324.7383500876794
 20
-968.5036363935485
 10
324.0049861521802
 20
-969.0755814566786
 10
323.7023237478776
 20
-970.1997968579411
 10
323.2005671222977
 20
-971.0687253007849
 10
323.3381879210101
 20
-971.1486784308511
 10
323.4758087197224
 20
-971.2286261779557
 10
323.6134295184348
 20
-971.3085739250603
 10
324.3731053707025
 20
-970.7757091638409
 10
325.1059740737257
 20
-970.1988333077976
 10
325.8969356993689
 20
-969.7173704478105
 10
329.9831311566535
 20
-967.2300222733835
 10
334.781858487675
 20
-967.753348426478
 10
338.4335951064995
 20
-971.0568343383991
 10
341.9289028584468
 20
-974.2188237191867
 10
342.8780266646332
 20
-978.6970979575013
 10
340.900165048781
 20
-982.7377212610702
 10
340.0070132783067
 20
-984.5623568722541
 10
338.6137413026079
 20
-986.2563210882748
 10
336.6778775539057
 20
-986.4149946501791
 10
332.922055987733
 20
-986.7228408465946
 10
329.464741179434
 20
-985.5752903063812
 10
327.0620239287868
 20
-982.4037246367369
 10
326.5617422347116
 20
-981.7433428959081
 10
326.0692227714015
 20
-980.5577940290848
 10
326.3428279484708
 20
-979.9766333355316
 10
326.6156795109025
 20
-979.3971090623339
 10
327.8322073222846
 20
-979.0969066715263
 10
328.6760619295497
 20
-978.9855924066209
 10
330.4258366924315
 20
-978.754754860224
 10
332.1950547129582
 20
-978.8340082052698
 10
333.1683049534647
 20
-976.8525723028517
 10
333.3657950521566
 20
-976.4504812130679
 10
334.4830072202529
 20
-976.1547789782378
 10
334.9627690643442
 20
-976.3458848843587
 10
335.3471232953407
 20
-976.4989763149845
 10
335.656514401763
 20
-977.5052671743791
 10
335.5652732010208
 20
-978.061773903366
 10
335.2991395747853
 20
-979.6851028960157
 10
334.2955509621618
 20
-980.7895036152763
 10
332.6624788088429
 20
-981.2439224757042
 10
332.0411773699248
 20
-981.416807056485
 10
331.4200481857811
 20
-981.5902514652822
 10
330.3310427369702
 20
-981.8938612708433
 10
331.7149698911653
 20
-982.5044990626421
 10
332.5953640424208
 20
-982.9686664667009
 10
333.5253352708938
 20
-983.2888181135528
 10
336.1103303704809
 20
-984.1787454899716
 10
338.0479274328491
 20
-983.1316356320383
 10
338.805654652983
 20
-980.4981992601516
 10
340.3096541507625
 20
-975.2711227521946
 10
335.241122013629
 20
-969.8959125213336
 10
329.8573851714419
 20
-971.0035968472286
 10
325.4349376288735
 20
-971.9134896285766
 10
323.7095153847031
 20
-975.1656705325759
 10
322.8737890495984
 20
-979.1281278493614
 10
322.2644593174916
 20
-982.0171149447898
 10
323.1339906520453
 20
-984.4428066759542
 10
325.3790732523955
 20
-986.3988403821303
 10
328.4587194681241
 20
-989.0819884052768
 10
332.1346578827324
 20
-989.6840834368645
 10
335.9628910496356
 20
-989.1513693985727
 10
343.4242465538195
 20
-988.1130983637438
 10
346.7056246420563
 20
-985.7838693061664
 10
347.2878242472167
 20
-978.195438225232
 10
347.6336687702422
 20
-973.6877191864419
 10
347.935512964367
 20
-969.1732875944174
 10
348.1046779186162
 20
-964.6561645215448
 10
348.3365005470034
 20
-958.4660654003033
 10
351.2608483178109
 20
-953.8718583159483
 10
356.1357337909031
 20
-950.2980669824776
 10
357.3557282296172
 20
-949.4036932796982
 10
358.567325248086
 20
-949.1870021566377
 10
360.0701404942924
 20
-949.3039469994769
 10
363.9255253199887
 20
-949.6039609866252
 10
367.8084924414138
 20
-949.9357882773951
 10
371.661207318109
 20
-949.7799084726109
 10
375.808391731406
 20
-949.6121269395176
 10
378.7438499351535
 20
-946.8932548910776
 10
379.4062987332734
 20
-942.8323997259754
 10
379.8661759168608
 20
-940.0131892715275
 10
380.3510731064097
 20
-937.0499173046983
 10
378.4236283097995
 20
-934.1079511002607
 97
        0
 97
        0
 92
        1
 93
        1
 72
     4
 94
        3
 73
     0
 74
     1
 95
       59
 96
       55
 40
0.0
 40
0.0
 40
0.0
 40
0.0
 40
1.0
 40
1.0
 40
1.0
 40
2.0
 40
2.0
 40
2.0
 40
3.0
 40
3.0
 40
3.0
 40
4.0
 40
4.0
 40
4.0
 40
5.0
 40
5.0
 40
5.0
 40
6.0
 40
6.0
 40
6.0
 40
7.0
 40
7.0
 40
7.0
 40
8.0
 40
8.0
 40
8.0
 40
9.0
 40
9.0
 40
9.0
 40
10.0
 40
10.0
 40
10.0
 40
11.0
 40
11.0
 40
11.0
 40
12.0
 40
12.0
 40
12.0
 40
13.0
 40
13.0
 40
13.0
 40
14.0
 40
14.0
 40
14.0
 40
15.0
 40
15.0
 40
15.0
 40
16.0
 40
16.0
 40
16.0
 40
17.0
 40
17.0
 40
17.0
 40
18.0
 40
18.0
 40
18.0
 40
18.0
 10
341.5875477254755
 20
-990.7842908289641
 10
341.2064878670367
 20
-990.8292116443148
 10
340.972942690907
 20
-990.8214709453963
 10
340.7620813153629
 20
-990.8868523981523
 10
337.1056076902462
 20
-992.0206656201183
 10
333.4082127903188
 20
-992.2982003592253
 10
329.6186292883907
 20
-991.6262021870572
 10
329.1292211769408
 20
-991.5394126956373
 10
328.3554204331835
 20
-992.0243367999947
 10
327.9824350172883
 20
-992.4697391995822
 10
323.3156979070454
 20
-998.0426979112966
 10
313.6216513803348
 20
-997.2981374154705
 10
310.199853353304
 20
-991.0150637798206
 10
309.7967341178362
 20
-990.2748903977764
 10
309.5251421684412
 20
-989.0786186712552
 10
309.8597578333695
 20
-988.4474987102043
 10
310.1100978499899
 20
-987.975326842104
 10
311.4393125815097
 20
-987.9191179560775
 10
312.2793129882008
 20
-987.9466302733042
 10
314.3077636780691
 20
-988.0130614035909
 10
316.3619449248429
 20
-988.5909546393947
 10
318.1056800047021
 20
-986.8746511323368
 10
318.3949173025356
 20
-986.5899624371361
 10
319.3858559551742
 20
-986.6947902331983
 10
319.8139844306802
 20
-986.9789836959229
 10
320.1445628743367
 20
-987.1984093635249
 10
320.344841347187
 20
-988.0869156380559
 10
320.1692276048264
 20
-988.4880162628878
 10
319.8883123657745
 20
-989.1296114673986
 10
319.3474862042072
 20
-989.8911336755281
 10
318.7395883399114
 20
-990.1096334737183
 10
317.2427051174938
 20
-990.6476712611272
 10
315.6451174476729
 20
-990.9055851048535
 10
314.1839986227615
 20
-991.2532975155873
 10
317.2582403449476
 20
-994.6672687163126
 10
323.8254751455519
 20
-994.0852736636966
 10
325.7338211940657
 20
-989.9615535804312
 10
319.2705421497288
 20
-986.1945569857784
 10
318.7696360320969
 20
-980.6784154347621
 10
321.5554371347804
 20
-974.4532140203028
 10
316.2460282276876
 20
-971.6615562552943
 10
308.9751326742211
 20
-974.6634778870986
 10
306.8749701686426
 20
-980.5101548180778
 10
305.2247801971313
 20
-985.1041196691564
 10
305.0303691525293
 20
-989.8941804318478
 10
306.8966204405827
 20
-994.4755491525584
 10
307.6397490685979
 20
-996.2997918075386
 10
308.912141256458
 20
-998.145663202612
 10
310.4346043128536
 20
-999.372224854595
 10
315.7063001903063
 20
-1003.619273973271
 10
321.8271690411795
 20
-1005.347097018357
 10
328.5688440984948
 20
-1004.276598191856
 10
334.7456849850799
 20
-1003.295790273129
 10
340.7489468888253
 20
-997.0530296376184
 10
341.5875477254755
 20
-990.7842908289641
 97
        0
 97
        0
 92
        1
 93
        1
 72
     4
 94
        3
 73
     0
 74
     1
 95
       26
 96
       22
 40
0.0
 40
0.0
 40
0.0
 40
0.0
 40
1.0
 40
1.0
 40
1.0
 40
2.0
 40
2.0
 40
2.0
 40
3.0
 40
3.0
 40
3.0
 40
4.0
 40
4.0
 40
4.0
 40
5.0
 40
5.0
 40
5.0
 40
6.0
 40
6.0
 40
6.0
 40
7.0
 40
7.0
 40
7.0
 40
7.0
 10
377.339693610906
 20
-950.8858379529931
 10
379.5464925876763
 20
-952.1547742794445
 10
381.529209634978
 20
-953.0040279972905
 10
383.8521729251416
 20
-953.0248008464742
 10
385.0961969048653
 20
-953.0359274282993
 10
385.7176921304044
 20
-952.6086979073964
 10
386.1869141354954
 20
-951.427767621708
 10
389.1788503733542
 20
-943.8976690051891
 10
392.2646223994925
 20
-936.4049281428383
 10
395.2974045506982
 20
-928.8909595710406
 10
396.3569651990336
 20
-926.2657591305484
 10
397.3538897050778
 20
-923.615273573231
 10
398.3794300354963
 20
-920.9763385059722
 10
393.3771298590668
 20
-925.9507024569415
 10
388.5808894563487
 20
-931.0183948520504
 10
383.880487303661
 20
-936.1734796302891
 10
383.1925447989502
 20
-936.9279663074822
 10
382.5895669616443
 20
-938.0955710714928
 10
382.5816217101814
 20
-939.0771622111469
 10
382.5445438700214
 20
-943.659725949354
 10
381.2526330630528
 20
-947.6311109081119
 10
377.339693610906
 20
-950.8858379529931
 97
        0
 97
        0
 92
        1
 93
        1
 72
     4
 94
        3
 73
     0
 74
     1
 95
       26
 96
       22
 40
0.0
 40
0.0
 40
0.0
 40
0.0
 40
1.0
 40
1.0
 40
1.0
 40
2.0
 40
2.0
 40
2.0
 40
3.0
 40
3.0
 40
3.0
 40
4.0
 40
4.0
 40
4.0
 40
5.0
 40
5.0
 40
5.0
 40
6.0
 40
6.0
 40
6.0
 40
7.0
 40
7.0
 40
7.0
 40
7.0
 10
359.5034438188156
 20
-1045.736126108466
 10
361.1381846902602
 20
-1048.908014755812
 10
362.9329502469947
 20
-1052.452716564279
 10
364.7989216210399
 20
-1055.959543854256
 10
365.1841263599844
 20
-1056.683487606787
 10
365.8044588657972
 20
-1057.751208825053
 10
366.3707679680319
 20
-1057.786424160467
 10
367.0190703428156
 20
-1057.826721011721
 10
368.0066715592028
 20
-1057.037309679046
 10
368.3618178400384
 20
-1056.355676005442
 10
369.817327618863
 20
-1053.562026544606
 10
371.3818746697956
 20
-1050.769464442033
 10
372.3666552142543
 20
-1047.797682012763
 10
374.5240386026581
 20
-1041.287334351359
 10
373.3971694012797
 20
-1039.310355541225
 10
366.9849423656648
 20
-1036.866706249844
 10
365.6931176860833
 20
-1036.374402105002
 10
365.1333542652705
 20
-1036.539971240838
 10
364.4333539263613
 20
-1037.836026928312
 10
363.0027780261113
 20
-1040.484691698836
 10
361.2591290736392
 20
-1042.964277642498
 10
359.5034438188156
 20
-1045.736126108466
 97
        0
 97
        0
 92
        1
 93
        1
 72
     4
 94
        3
 73
     0
 74
     1
 95
       14
 96
       10
 40
0.0
 40
0.0
 40
0.0
 40
0.0
 40
1.0
 40
1.0
 40
1.0
 40
2.0
 40
2.0
 40
2.0
 40
3.0
 40
3.0
 40
3.0
 40
3.0
 10
340.4612383521134
 20
-952.7615309558607
 10
343.8134239184955
 20
-950.1251178061564
 10
347.3584917683579
 20
-948.2936135358487
 10
351.667358819147
 20
-947.8198536940482
 10
351.3872187265792
 20
-941.0937515449186
 10
351.2317910905775
 20
-934.5203344128068
 10
346.3898708749097
 20
-929.1631974758391
 10
342.3539307480161
 20
-932.8575698427744
 10
338.7352885776968
 20
-947.3084777159181
 10
340.4612383521134
 20
-952.7615309558607
 97
        0
 97
        0
 92
        1
 93
        1
 72
     4
 94
        3
 73
     0
 74
     1
 95
       23
 96
       19
 40
0.0
 40
0.0
 40
0.0
 40
0.0
 40
1.0
 40
1.0
 40
1.0
 40
2.0
 40
2.0
 40
2.0
 40
3.0
 40
3.0
 40
3.0
 40
4.0
 40
4.0
 40
4.0
 40
5.0
 40
5.0
 40
5.0
 40
6.0
 40
6.0
 40
6.0
 40
6.0
 10
262.8204402266533
 20
-1076.608014325032
 10
266.1401073214316
 20
-1076.783671131086
 10
269.4035601472216
 20
-1077.059052685515
 10
272.6702535159525
 20
-1077.105475347179
 10
277.7565709585285
 20
-1077.177746990905
 10
278.6108254477898
 20
-1076.053741525149
 10
277.8761373037135
 20
-1070.977877794186
 10
277.6486425765297
 20
-1069.406074510887
 10
277.1286700085716
 20
-1068.424922082612
 10
275.4128079043727
 20
-1068.102331954112
 10
273.753832939374
 20
-1067.790421621616
 10
272.1704347565831
 20
-1067.093532634567
 10
270.5243681337307
 20
-1066.684309120536
 10
270.1046047806998
 20
-1066.57994425918
 10
269.3463715621664
 20
-1066.769209192401
 10
269.1283293157203
 20
-1067.087266867153
 10
267.0560182539554
 20
-1070.110165900685
 10
265.0666909296914
 20
-1073.189952073418
 10
262.8204402266533
 20
-1076.608014325032
 97
        0
 97
        0
 92
        1
 93
        1
 72
     4
 94
        3
 73
     0
 74
     1
 95
       17
 96
       13
 40
0.0
 40
0.0
 40
0.0
 40
0.0
 40
1.0
 40
1.0
 40
1.0
 40
2.0
 40
2.0
 40
2.0
 40
3.0
 40
3.0
 40
3.0
 40
4.0
 40
4.0
 40
4.0
 40
4.0
 10
357.9197118923994
 20
-934.9378799856191
 10
359.7137453663433
 20
-935.2601767427068
 10
361.2266590486907
 20
-935.5319759361271
 10
363.2148882487688
 20
-935.8891596679646
 10
362.5553677818112
 20
-934.2405253723833
 10
362.0430820831546
 20
-932.9599160934948
 10
361.5307963844979
 20
-931.6793068146062
 10
361.309212149256
 20
-931.588154432732
 10
361.0876063821673
 20
-931.4970020508579
 10
360.8660221469254
 20
-931.4058496689837
 10
359.9562154929645
 20
-932.496529218882
 10
359.0464088390036
 20
-933.587211460261
 10
357.9197118923994
 20
-934.9378799856191
 97
        0
 97
        0
 75
     2
 76
     1
 98
        0
  0
SPLINE
  5
55
330
45
100
AcDbEntity
  8
Layer 1
370
     0
100
AcDbSpline
210
0.0
220
0.0
230
1.0
 70
    11
 71
     3
 72
   149
 73
   145
 74
     0
 42
0.0000000001
 43
0.0000000001
 12
1.0
 22
0.0
 32
0.0
 13
1.0
 23
0.0
 33
0.0
 40
0.0
 40
0.0
 40
0.0
 40
0.0
 40
1.0
 40
1.0
 40
1.0
 40
2.0
 40
2.0
 40
2.0
 40
3.0
 40
3.0
 40
3.0
 40
4.0
 40
4.0
 40
4.0
 40
5.0
 40
5.0
 40
5.0
 40
6.0
 40
6.0
 40
6.0
 40
7.0
 40
7.0
 40
7.0
 40
8.0
 40
8.0
 40
8.0
 40
9.0
 40
9.0
 40
9.0
 40
10.0
 40
10.0
 40
10.0
 40
11.0
 40
11.0
 40
11.0
 40
12.0
 40
12.0
 40
12.0
 40
13.0
 40
13.0
 40
13.0
 40
14.0
 40
14.0
 40
14.0
 40
15.0
 40
15.0
 40
15.0
 40
16.0
 40
16.0
 40
16.0
 40
17.0
 40
17.0
 40
17.0
 40
18.0
 40
18.0
 40
18.0
 40
19.0
 40
19.0
 40
19.0
 40
20.0
 40
20.0
 40
20.0
 40
21.0
 40
21.0
 40
21.0
 40
22.0
 40
22.0
 40
22.0
 40
23.0
 40
23.0
 40
23.0
 40
24.0
 40
24.0
 40
24.0
 40
25.0
 40
25.0
 40
25.0
 40
26.0
 40
26.0
 40
26.0
 40
27.0
 40
27.0
 40
27.0
 40
28.0
 40
28.0
 40
28.0
 40
29.0
 40
29.0
 40
29.0
 40
30.0
 40
30.0
 40
30.0
 40
31.0
 40
31.0
 40
31.0
 40
32.0
 40
32.0
 40
32.0
 40
33.0
 40
33.0
 40
33.0
 40
34.0
 40
34.0
 40
34.0
 40
35.0
 40
35.0
 40
35.0
 40
36.0
 40
36.0
 40
36.0
 40
37.0
 40
37.0
 40
37.0
 40
38.0
 40
38.0
 40
38.0
 40
39.0
 40
39.0
 40
39.0
 40
40.0
 40
40.0
 40
40.0
 40
41.0
 40
41.0
 40
41.0
 40
42.0
 40
42.0
 40
42.0
 40
43.0
 40
43.0
 40
43.0
 40
44.0
 40
44.0
 40
44.0
 40
45.0
 40
45.0
 40
45.0
 40
46.0
 40
46.0
 40
46.0
 40
47.0
 40
47.0
 40
47.0
 40
48.0
 40
48.0
 40
48.0
 40
48.0
 10
378.6723426719877
 20
-995.2340192214064
 30
0.0
 10
374.7659704331097
 20
-994.5219072186818
 30
0.0
 10
370.787100466114
 20
-994.066799339157
 30
0.0
 10
366.9824662032848
 20
-992.993910477663
 30
0.0
 10
364.9491923797371
 20
-992.4205389296835
 30
0.0
 10
363.2456572578214
 20
-990.7294492152083
 30
0.0
 10
361.3305717412646
 20
-989.6545794238103
 30
0.0
 10
360.7388765916729
 20
-989.322477601994
 30
0.0
 10
359.9403895855792
 20
-989.3588718060187
 30
0.0
 10
359.2365781097894
 20
-989.2265370756915
 30
0.0
 10
359.2943480547077
 20
-989.960956071683
 30
0.0
 10
359.0810105167836
 20
-990.900691992672
 30
0.0
 10
359.455513927877
 20
-991.395246215503
 30
0.0
 10
361.3566252758718
 20
-993.9056549978344
 30
0.0
 10
364.1858453475929
 20
-994.9744420425162
 30
0.0
 10
367.0778738163794
 20
-995.8392794344712
 30
0.0
 10
370.4165804466754
 20
-996.8377111697902
 30
0.0
 10
370.6022280296368
 20
-996.8120882721187
 30
0.0
 10
370.43535621707
 20
-1000.287511363562
 30
0.0
 10
369.7869246512057
 20
-1013.793373024004
 30
0.0
 10
367.0728784279258
 20
-1026.822433469287
 30
0.0
 10
360.9542165913479
 20
-1038.991038253436
 30
0.0
 10
359.9534378847296
 20
-1040.981356042652
 30
0.0
 10
358.6950090995081
 20
-1042.800592543255
 30
0.0
 10
356.4746450592646
 20
-1043.776480434992
 30
0.0
 10
355.3140354539775
 20
-1044.286591417124
 30
0.0
 10
355.7453829405775
 20
-1045.207734588416
 30
0.0
 10
356.2926363584095
 20
-1046.135337313743
 30
0.0
 10
358.2597212849468
 20
-1049.469619149525
 30
0.0
 10
360.385043753491
 20
-1052.744322365259
 30
0.0
 10
361.9847307783732
 20
-1056.253873433853
 30
0.0
 10
364.5331325043529
 20
-1061.844832769478
 30
0.0
 10
364.6437846649697
 20
-1063.227661799487
 30
0.0
 10
359.1402446272831
 20
-1067.851249088777
 30
0.0
 10
356.0822271516479
 20
-1070.420342919515
 30
0.0
 10
352.4360780470635
 20
-1071.368131751201
 30
0.0
 10
348.4542582170586
 20
-1071.066061472685
 30
0.0
 10
346.1893124880512
 20
-1070.894226569435
 30
0.0
 10
344.5033473531103
 20
-1069.79901994875
 30
0.0
 10
343.6625072043947
 20
-1067.74059692816
 30
0.0
 10
342.8469992734191
 20
-1065.744174860381
 30
0.0
 10
342.2393597912848
 20
-1063.651570033024
 30
0.0
 10
341.6847855455467
 20
-1061.562873235857
 30
0.0
 10
341.0712571033173
 20
-1059.252129268743
 30
0.0
 10
340.7880164248128
 20
-1059.06682619533
 30
0.0
 10
338.5848670960721
 20
-1060.158415465755
 30
0.0
 10
331.5103312193414
 20
-1063.663584803529
 30
0.0
 10
324.1389680687863
 20
-1066.341608247141
 30
0.0
 10
316.4681507590991
 20
-1068.222328936232
 30
0.0
 10
307.0294719352327
 20
-1070.536496466985
 30
0.0
 10
297.5449302777188
 20
-1070.275164442582
 30
0.0
 10
288.1351902559285
 20
-1068.372276717228
 30
0.0
 10
282.002102082006
 20
-1067.132020810691
 30
0.0
 10
275.9879773615586
 20
-1065.286106351924
 30
0.0
 10
269.9503506303477
 20
-1063.60457677742
 30
0.0
 10
268.6097240200329
 20
-1063.231203788283
 30
0.0
 10
267.9771721911709
 20
-1063.509459844257
 30
0.0
 10
267.2695495785006
 20
-1064.688220796382
 30
0.0
 10
265.5542688341648
 20
-1067.545529162232
 30
0.0
 10
263.7838557961417
 20
-1070.388744934362
 30
0.0
 10
261.7903620595253
 20
-1073.054193779452
 30
0.0
 10
260.1016246993111
 20
-1075.312152424179
 30
0.0
 10
257.7006246134449
 20
-1076.060922396051
 30
0.0
 10
254.8751403171406
 20
-1075.292106274824
 30
0.0
 10
250.8661634453808
 20
-1074.201259853113
 30
0.0
 10
247.3071214269563
 20
-1072.436918795883
 30
0.0
 10
244.8027684765326
 20
-1068.967955258474
 30
0.0
 10
243.2264704202182
 20
-1066.784496803616
 30
0.0
 10
242.918866457079
 20
-1064.44127204563
 30
0.0
 10
244.6025223014525
 20
-1062.292888969182
 30
0.0
 10
246.6570480577748
 20
-1059.671300495987
 30
0.0
 10
248.9289701051397
 20
-1057.211136278123
 30
0.0
 10
251.2161259341035
 20
-1054.784109572459
 30
0.0
 10
252.6417979562488
 20
-1053.271217421958
 30
0.0
 10
252.4940195088166
 20
-1053.24757545419
 30
0.0
 10
251.2022648077371
 20
-1051.603478995318
 30
0.0
 10
249.4007382511128
 20
-1049.31056339734
 30
0.0
 10
247.7248823182364
 20
-1046.838309047508
 30
0.0
 10
246.4603600203755
 20
-1044.218324696899
 30
0.0
 10
241.5085035779964
 20
-1033.958453534506
 30
0.0
 10
239.5683872895545
 20
-1023.379394275405
 30
0.0
 10
244.1315885145422
 20
-1012.420157963583
 30
0.0
 10
247.6291624933635
 20
-1004.020186194443
 30
0.0
 10
253.6053857805114
 20
-997.653197568919
 30
0.0
 10
261.0494673606138
 20
-992.6039579665029
 30
0.0
 10
266.770387540458
 20
-988.7235208370748
 30
0.0
 10
272.9901521636047
 20
-985.9156549744006
 30
0.0
 10
279.963154616831
 20
-985.5759039640146
 30
0.0
 10
283.6713369719967
 20
-985.3952194717366
 30
0.0
 10
287.4725046074939
 20
-985.7725327888352
 30
0.0
 10
291.1371280366179
 20
-986.4272839517304
 30
0.0
 10
294.8147136375051
 20
-987.0843551711163
 30
0.0
 10
298.3840478786918
 20
-988.3687675124429
 30
0.0
 10
301.9752584762098
 20
-989.4622246705761
 30
0.0
 10
302.4564198903419
 20
-989.6087381220098
 30
0.0
 10
303.0354004844083
 20
-990.1869543355153
 30
0.0
 10
303.1520062006606
 20
-990.6666462011045
 30
0.0
 10
305.4939282819165
 20
-1000.300085962083
 30
0.0
 10
310.8869453500669
 20
-1005.157832085136
 30
0.0
 10
320.6586249503529
 20
-1006.839210936713
 30
0.0
 10
334.5209893979778
 20
-1009.224465859619
 30
0.0
 10
342.8322176606027
 20
-1000.284486139089
 30
0.0
 10
345.0071495041345
 20
-989.7707491201653
 30
0.0
 10
345.10827382255
 20
-989.2818739219233
 30
0.0
 10
345.2574895207549
 20
-988.6530309536696
 30
0.0
 10
345.6092122379521
 20
-988.389195852078
 30
0.0
 10
348.9917038786809
 20
-985.851839963498
 30
0.0
 10
349.5206875245177
 20
-982.0968419904649
 30
0.0
 10
349.8498986959034
 20
-978.3339633615092
 30
0.0
 10
350.2643329168556
 20
-973.5969839840992
 30
0.0
 10
350.445028175057
 20
-968.8399153936408
 30
0.0
 10
350.7585856938317
 20
-964.0936342584206
 30
0.0
 10
351.07961476344
 20
-959.234461650518
 30
0.0
 10
353.4772935619399
 20
-955.5387623835247
 30
0.0
 10
357.3738580446084
 20
-952.7947061487914
 30
0.0
 10
358.0958854627764
 20
-952.2862477359004
 30
0.0
 10
359.1609797957349
 20
-952.0478848090529
 30
0.0
 10
360.065618806468
 20
-952.0530416863575
 30
0.0
 10
364.1680385103035
 20
-952.0764252719636
 30
0.0
 10
368.2737956503904
 20
-952.156340721298
 30
0.0
 10
372.3693036314086
 20
-952.3810632232085
 30
0.0
 10
373.7722326403894
 20
-952.4580395754571
 30
0.0
 10
375.2919503863203
 20
-952.7512979456773
 30
0.0
 10
376.5086719843234
 20
-953.4081592295571
 30
0.0
 10
379.4112725898803
 20
-954.9751286132528
 30
0.0
 10
382.4179150790917
 20
-955.5594221905128
 30
0.0
 10
385.6696976439255
 20
-955.3024449821216
 30
0.0
 10
386.5730447438515
 20
-955.231061527075
 30
0.0
 10
387.597702268552
 20
-955.2665783083432
 30
0.0
 10
388.4020028732771
 20
-955.6238400931253
 30
0.0
 10
391.4495558713759
 20
-956.9774934707438
 30
0.0
 10
394.6218859215811
 20
-958.18768553621
 30
0.0
 10
397.3957476152236
 20
-959.9922642321156
 30
0.0
 10
403.652363994139
 20
-964.0626122501682
 30
0.0
 10
405.638612264313
 20
-969.435367850496
 30
0.0
 10
404.1252248813364
 20
-976.7231712866488
 30
0.0
 10
401.8513326699908
 20
-987.6732404147028
 30
0.0
 10
394.3769396325798
 20
-993.1435891105738
 30
0.0
 10
383.8444645239933
 20
-994.4664088835991
 30
0.0
 10
382.1570782871647
 20
-994.6783576174057
 30
0.0
 10
380.4527464869181
 20
-994.7554954585052
 30
0.0
 10
378.7562522789004
 20
-994.8949679960408
 30
0.0
 10
378.7282824099295
 20
-995.0079886598038
 30
0.0
 10
378.7003125409586
 20
-995.1209985576434
 30
0.0
 10
378.6723426719877
 20
-995.2340192214064
 30
0.0
  0
SPLINE
  5
56
330
45
100
AcDbEntity
  8
Layer 1
370
     0
100
AcDbSpline
210
0.0
220
0.0
230
1.0
 70
    11
 71
     3
 72
    17
 73
    13
 74
     0
 42
0.0000000001
 43
0.0000000001
 12
1.0
 22
0.0
 32
0.0
 13
1.0
 23
0.0
 33
0.0
 40
0.0
 40
0.0
 40
0.0
 40
0.0
 40
1.0
 40
1.0
 40
1.0
 40
2.0
 40
2.0
 40
2.0
 40
3.0
 40
3.0
 40
3.0
 40
4.0
 40
4.0
 40
4.0
 40
4.0
 10
378.9408232695226
 20
-965.7546978125571
 30
0.0
 10
378.9354833715205
 20
-960.6377459349708
 30
0.0
 10
374.7858658595371
 20
-956.4476216362273
 30
0.0
 10
369.6716646753773
 20
-956.3950139515752
 30
0.0
 10
364.5127633772963
 20
-956.3419487151789
 30
0.0
 10
360.1977382183273
 20
-960.6229104925375
 30
0.0
 10
360.2268923388713
 20
-965.7653237789444
 30
0.0
 10
360.2561756504959
 20
-970.9349048730296
 30
0.0
 10
364.3728279050548
 20
-975.0690679019847
 30
0.0
 10
369.5112524168453
 20
-975.0891840298416
 30
0.0
 10
374.7680805540945
 20
-975.1097577094425
 30
0.0
 10
378.9462708267587
 20
-970.9736891120472
 30
0.0
 10
378.9408232695226
 20
-965.7546978125571
 30
0.0
  0
SPLINE
  5
57
330
45
100
AcDbEntity
  8
Layer 1
370
     0
100
AcDbSpline
210
0.0
220
0.0
230
1.0
 70
    11
 71
     3
 72
    50
 73
    46
 74
     0
 42
0.0000000001
 43
0.0000000001
 12
1.0
 22
0.0
 32
0.0
 13
1.0
 23
0.0
 33
0.0
 40
0.0
 40
0.0
 40
0.0
 40
0.0
 40
1.0
 40
1.0
 40
1.0
 40
2.0
 40
2.0
 40
2.0
 40
3.0
 40
3.0
 40
3.0
 40
4.0
 40
4.0
 40
4.0
 40
5.0
 40
5.0
 40
5.0
 40
6.0
 40
6.0
 40
6.0
 40
7.0
 40
7.0
 40
7.0
 40
8.0
 40
8.0
 40
8.0
 40
9.0
 40
9.0
 40
9.0
 40
10.0
 40
10.0
 40
10.0
 40
11.0
 40
11.0
 40
11.0
 40
12.0
 40
12.0
 40
12.0
 40
13.0
 40
13.0
 40
13.0
 40
14.0
 40
14.0
 40
14.0
 40
15.0
 40
15.0
 40
15.0
 40
15.0
 10
191.7280930569603
 20
-1036.450560247072
 30
0.0
 10
194.1803227892845
 20
-1037.324279525825
 30
0.0
 10
196.3502054147457
 20
-1038.314895200762
 30
0.0
 10
198.6272897223769
 20
-1038.845386075874
 30
0.0
 10
200.7563668067038
 20
-1039.341415230209
 30
0.0
 10
203.1128471078657
 20
-1037.752526426489
 30
0.0
 10
204.2727838429409
 20
-1035.419819975656
 30
0.0
 10
205.8674754793695
 20
-1032.212780588437
 30
0.0
 10
205.8552642307627
 20
-1028.702938839911
 30
0.0
 10
205.9626274017835
 20
-1025.25015648536
 30
0.0
 10
206.0648471529041
 20
-1021.962889437028
 30
0.0
 10
205.8776412025318
 20
-1018.667268032144
 30
0.0
 10
205.9512558952014
 20
-1015.37831073384
 30
0.0
 10
206.1028347135907
 20
-1008.606351134025
 30
0.0
 10
208.8339529998884
 20
-1002.853515374287
 30
0.0
 10
213.2328097128254
 20
-997.8479638889929
 30
0.0
 10
218.3834454732226
 20
-991.986952131018
 30
0.0
 10
224.3683407116624
 20
-987.4422575283402
 30
0.0
 10
232.2680523185742
 20
-985.8891115902791
 30
0.0
 10
240.3908930707345
 20
-984.2920891314362
 30
0.0
 10
247.2671529363657
 20
-986.2316725066702
 30
0.0
 10
252.7132675386826
 20
-992.6600376614488
 30
0.0
 10
253.717211426778
 20
-993.8450428491408
 30
0.0
 10
254.0252406438912
 20
-994.6117596153065
 30
0.0
 10
252.6026692076827
 20
-995.9102699333141
 30
0.0
 10
246.9492190697324
 20
-1001.07067846067
 30
0.0
 10
242.8558750393159
 20
-1007.301047518357
 30
0.0
 10
240.5015506143131
 20
-1014.633470324006
 30
0.0
 10
240.3212429293538
 20
-1015.195042419948
 30
0.0
 10
239.9359143822903
 20
-1015.890779453194
 30
0.0
 10
239.4527666552925
 20
-1016.123915524235
 30
0.0
 10
235.0694263294434
 20
-1018.23892423817
 30
0.0
 10
233.0298006110948
 20
-1022.061645252297
 30
0.0
 10
232.0311750891548
 20
-1026.49788394273
 30
0.0
 10
230.8716259273217
 20
-1031.648979946352
 30
0.0
 10
230.1436126557481
 20
-1036.898142746147
 30
0.0
 10
228.954645608248
 20
-1042.041476519003
 30
0.0
 10
225.8218641776211
 20
-1055.593491693024
 30
0.0
 10
210.0507284275085
 20
-1062.755629888391
 30
0.0
 10
197.7459293294969
 20
-1056.315325324571
 30
0.0
 10
192.4739320061892
 20
-1053.555976095661
 30
0.0
 10
189.6406249208007
 20
-1047.960785752143
 30
0.0
 10
190.5863843759272
 20
-1042.025295336146
 30
0.0
 10
190.9070743189487
 20
-1040.012681319587
 30
0.0
 10
191.4007578477255
 20
-1038.027628066909
 30
0.0
 10
191.7280930569603
 20
-1036.450560247072
 30
0.0
  0
SPLINE
  5
58
330
45
100
AcDbEntity
  8
Layer 1
370
     0
100
AcDbSpline
210
0.0
220
0.0
230
1.0
 70
    11
 71
     3
 72
   137
 73
   133
 74
     0
 42
0.0000000001
 43
0.0000000001
 12
1.0
 22
0.0
 32
0.0
 13
1.0
 23
0.0
 33
0.0
 40
0.0
 40
0.0
 40
0.0
 40
0.0
 40
1.0
 40
1.0
 40
1.0
 40
2.0
 40
2.0
 40
2.0
 40
3.0
 40
3.0
 40
3.0
 40
4.0
 40
4.0
 40
4.0
 40
5.0
 40
5.0
 40
5.0
 40
6.0
 40
6.0
 40
6.0
 40
7.0
 40
7.0
 40
7.0
 40
8.0
 40
8.0
 40
8.0
 40
9.0
 40
9.0
 40
9.0
 40
10.0
 40
10.0
 40
10.0
 40
11.0
 40
11.0
 40
11.0
 40
12.0
 40
12.0
 40
12.0
 40
13.0
 40
13.0
 40
13.0
 40
14.0
 40
14.0
 40
14.0
 40
15.0
 40
15.0
 40
15.0
 40
16.0
 40
16.0
 40
16.0
 40
17.0
 40
17.0
 40
17.0
 40
18.0
 40
18.0
 40
18.0
 40
19.0
 40
19.0
 40
19.0
 40
20.0
 40
20.0
 40
20.0
 40
21.0
 40
21.0
 40
21.0
 40
22.0
 40
22.0
 40
22.0
 40
23.0
 40
23.0
 40
23.0
 40
24.0
 40
24.0
 40
24.0
 40
25.0
 40
25.0
 40
25.0
 40
26.0
 40
26.0
 40
26.0
 40
27.0
 40
27.0
 40
27.0
 40
28.0
 40
28.0
 40
28.0
 40
29.0
 40
29.0
 40
29.0
 40
30.0
 40
30.0
 40
30.0
 40
31.0
 40
31.0
 40
31.0
 40
32.0
 40
32.0
 40
32.0
 40
33.0
 40
33.0
 40
33.0
 40
34.0
 40
34.0
 40
34.0
 40
35.0
 40
35.0
 40
35.0
 40
36.0
 40
36.0
 40
36.0
 40
37.0
 40
37.0
 40
37.0
 40
38.0
 40
38.0
 40
38.0
 40
39.0
 40
39.0
 40
39.0
 40
40.0
 40
40.0
 40
40.0
 40
41.0
 40
41.0
 40
41.0
 40
42.0
 40
42.0
 40
42.0
 40
43.0
 40
43.0
 40
43.0
 40
44.0
 40
44.0
 40
44.0
 40
44.0
 10
378.4236283097995
 20
-934.1079511002607
 30
0.0
 10
380.3510731064097
 20
-937.0499173046983
 30
0.0
 10
379.8661759168608
 20
-940.0131892715275
 30
0.0
 10
379.4062987332734
 20
-942.8323997259754
 30
0.0
 10
378.7438499351535
 20
-946.8932548910776
 30
0.0
 10
375.808391731406
 20
-949.6121269395176
 30
0.0
 10
371.661207318109
 20
-949.7799084726109
 30
0.0
 10
367.8084924414138
 20
-949.9357882773951
 30
0.0
 10
363.9255253199887
 20
-949.6039609866252
 30
0.0
 10
360.0701404942924
 20
-949.3039469994769
 30
0.0
 10
358.567325248086
 20
-949.1870021566377
 30
0.0
 10
357.3557282296172
 20
-949.4036932796982
 30
0.0
 10
356.1357337909031
 20
-950.2980669824776
 30
0.0
 10
351.2608483178109
 20
-953.8718583159483
 30
0.0
 10
348.3365005470034
 20
-958.4660654003033
 30
0.0
 10
348.1046779186162
 20
-964.6561645215448
 30
0.0
 10
347.935512964367
 20
-969.1732875944174
 30
0.0
 10
347.6336687702422
 20
-973.6877191864419
 30
0.0
 10
347.2878242472167
 20
-978.195438225232
 30
0.0
 10
346.7056246420563
 20
-985.7838693061664
 30
0.0
 10
343.4242465538195
 20
-988.1130983637438
 30
0.0
 10
335.9628910496356
 20
-989.1513693985727
 30
0.0
 10
332.1346578827324
 20
-989.6840834368645
 30
0.0
 10
328.4587194681241
 20
-989.0819884052768
 30
0.0
 10
325.3790732523955
 20
-986.3988403821303
 30
0.0
 10
323.1339906520453
 20
-984.4428066759542
 30
0.0
 10
322.2644593174916
 20
-982.0171149447898
 30
0.0
 10
322.8737890495984
 20
-979.1281278493614
 30
0.0
 10
323.7095153847031
 20
-975.1656705325759
 30
0.0
 10
325.4349376288735
 20
-971.9134896285766
 30
0.0
 10
329.8573851714419
 20
-971.0035968472286
 30
0.0
 10
335.241122013629
 20
-969.8959125213336
 30
0.0
 10
340.3096541507625
 20
-975.2711227521946
 30
0.0
 10
338.805654652983
 20
-980.4981992601516
 30
0.0
 10
338.0479274328491
 20
-983.1316356320383
 30
0.0
 10
336.1103303704809
 20
-984.1787454899716
 30
0.0
 10
333.5253352708938
 20
-983.2888181135528
 30
0.0
 10
332.5953640424208
 20
-982.9686664667009
 30
0.0
 10
331.7149698911653
 20
-982.5044990626421
 30
0.0
 10
330.3310427369702
 20
-981.8938612708433
 30
0.0
 10
331.4200481857811
 20
-981.5902514652822
 30
0.0
 10
332.0411773699248
 20
-981.416807056485
 30
0.0
 10
332.6624788088429
 20
-981.2439224757042
 30
0.0
 10
334.2955509621618
 20
-980.7895036152763
 30
0.0
 10
335.2991395747853
 20
-979.6851028960157
 30
0.0
 10
335.5652732010208
 20
-978.061773903366
 30
0.0
 10
335.656514401763
 20
-977.5052671743791
 30
0.0
 10
335.3471232953407
 20
-976.4989763149845
 30
0.0
 10
334.9627690643442
 20
-976.3458848843587
 30
0.0
 10
334.4830072202529
 20
-976.1547789782378
 30
0.0
 10
333.3657950521566
 20
-976.4504812130679
 30
0.0
 10
333.1683049534647
 20
-976.8525723028517
 30
0.0
 10
332.1950547129582
 20
-978.8340082052698
 30
0.0
 10
330.4258366924315
 20
-978.754754860224
 30
0.0
 10
328.6760619295497
 20
-978.9855924066209
 30
0.0
 10
327.8322073222846
 20
-979.0969066715263
 30
0.0
 10
326.6156795109025
 20
-979.3971090623339
 30
0.0
 10
326.3428279484708
 20
-979.9766333355316
 30
0.0
 10
326.0692227714015
 20
-980.5577940290848
 30
0.0
 10
326.5617422347116
 20
-981.7433428959081
 30
0.0
 10
327.0620239287868
 20
-982.4037246367369
 30
0.0
 10
329.464741179434
 20
-985.5752903063812
 30
0.0
 10
332.922055987733
 20
-986.7228408465946
 30
0.0
 10
336.6778775539057
 20
-986.4149946501791
 30
0.0
 10
338.6137413026079
 20
-986.2563210882748
 30
0.0
 10
340.0070132783067
 20
-984.5623568722541
 30
0.0
 10
340.900165048781
 20
-982.7377212610702
 30
0.0
 10
342.8780266646332
 20
-978.6970979575013
 30
0.0
 10
341.9289028584468
 20
-974.2188237191867
 30
0.0
 10
338.4335951064995
 20
-971.0568343383991
 30
0.0
 10
334.781858487675
 20
-967.753348426478
 30
0.0
 10
329.9831311566535
 20
-967.2300222733835
 30
0.0
 10
325.8969356993689
 20
-969.7173704478105
 30
0.0
 10
325.1059740737257
 20
-970.1988333077976
 30
0.0
 10
324.3731053707025
 20
-970.7757091638409
 30
0.0
 10
323.6134295184348
 20
-971.3085739250603
 30
0.0
 10
323.4758087197224
 20
-971.2286261779557
 30
0.0
 10
323.3381879210101
 20
-971.1486784308511
 30
0.0
 10
323.2005671222977
 20
-971.0687253007849
 30
0.0
 10
323.7023237478776
 20
-970.1997968579411
 30
0.0
 10
324.0049861521802
 20
-969.0755814566786
 30
0.0
 10
324.7383500876794
 20
-968.5036363935485
 30
0.0
 10
329.278307684065
 20
-964.9629771893149
 30
0.0
 10
332.3163866695793
 20
-960.4387647558891
 30
0.0
 10
334.2931286293987
 20
-955.066811216854
 30
0.0
 10
334.7927213043769
 20
-953.7091260009255
 30
0.0
 10
335.9955763930519
 20
-952.6102212855562
 30
0.0
 10
336.9555522500168
 20
-951.2812541702743
 30
0.0
 10
338.1007881167009
 20
-953.3398279137919
 30
0.0
 10
337.9875198367
 20
-954.5615179854401
 30
0.0
 10
336.7241710244887
 20
-955.8565347613072
 30
0.0
 10
336.4781050794547
 20
-956.108758814521
 30
0.0
 10
336.0715084507315
 20
-956.351481940342
 30
0.0
 10
336.0376926853591
 20
-956.634308130796
 30
0.0
 10
335.957152812468
 20
-957.3080127018216
 30
0.0
 10
336.0552088427169
 20
-958.0030660989324
 30
0.0
 10
336.0811116543966
 20
-958.6895013743684
 30
0.0
 10
336.7621424362902
 20
-958.628356312467
 30
0.0
 10
337.6203803172062
 20
-958.8100205037736
 30
0.0
 10
338.0938440961135
 20
-958.4644666606796
 30
0.0
 10
340.2623702152274
 20
-956.8818059436409
 30
0.0
 10
342.2704410121158
 20
-955.0795419212643
 30
0.0
 10
344.4364371392327
 20
-953.4931023651153
 30
0.0
 10
346.9521212240259
 20
-951.6505361085229
 30
0.0
 10
349.8666074090069
 20
-950.7450573557654
 30
0.0
 10
352.9473194511512
 20
-950.4252771332705
 30
0.0
 10
354.9161915209715
 20
-950.2209022265697
 30
0.0
 10
355.2277142802252
 20
-949.7803929391636
 30
0.0
 10
354.4654653722669
 20
-948.0274206970346
 30
0.0
 10
354.3092948875512
 20
-947.6682802586206
 30
0.0
 10
354.1315925560526
 20
-947.2295473485741
 30
0.0
 10
354.2022816090406
 20
-946.8750685549886
 30
0.0
 10
354.6819250279745
 20
-944.4703353851864
 30
0.0
 10
353.5006233179291
 20
-942.0703149983489
 30
0.0
 10
354.4152531055694
 20
-939.5945724893378
 30
0.0
 10
354.8904179003725
 20
-938.308448366192
 30
0.0
 10
354.480817579023
 20
-937.9471089879254
 30
0.0
 10
355.7748169751297
 20
-937.9349515689356
 30
0.0
 10
357.6860052274188
 20
-937.9169940087188
 30
0.0
 10
359.6219335716614
 20
-938.1095613889399
 30
0.0
 10
361.5084678593842
 20
-938.4366489819369
 30
0.0
 10
364.6289492225363
 20
-938.9776743130868
 30
0.0
 10
367.6953425865701
 20
-939.8916716027279
 30
0.0
 10
370.8302072233732
 20
-940.2650526663077
 30
0.0
 10
372.5616691505662
 20
-940.4712820033127
 30
0.0
 10
374.5076743991031
 20
-940.2022631096082
 30
0.0
 10
376.1221107390315
 20
-939.5584851141298
 30
0.0
 10
377.0619112555609
 20
-939.1837179379132
 30
0.0
 10
377.6492354402557
 20
-937.6989140815408
 30
0.0
 10
378.1784236386368
 20
-936.6083906375317
 30
0.0
 10
378.4780823503132
 20
-935.9908599632815
 30
0.0
 10
378.3394387888787
 20
-935.1606296320682
 30
0.0
 10
378.4236283097995
 20
-934.1079511002607
 30
0.0
  0
SPLINE
  5
59
330
45
100
AcDbEntity
  8
Layer 1
370
     0
100
AcDbSpline
210
0.0
220
0.0
230
1.0
 70
    11
 71
     3
 72
    59
 73
    55
 74
     0
 42
0.0000000001
 43
0.0000000001
 12
1.0
 22
0.0
 32
0.0
 13
1.0
 23
0.0
 33
0.0
 40
0.0
 40
0.0
 40
0.0
 40
0.0
 40
1.0
 40
1.0
 40
1.0
 40
2.0
 40
2.0
 40
2.0
 40
3.0
 40
3.0
 40
3.0
 40
4.0
 40
4.0
 40
4.0
 40
5.0
 40
5.0
 40
5.0
 40
6.0
 40
6.0
 40
6.0
 40
7.0
 40
7.0
 40
7.0
 40
8.0
 40
8.0
 40
8.0
 40
9.0
 40
9.0
 40
9.0
 40
10.0
 40
10.0
 40
10.0
 40
11.0
 40
11.0
 40
11.0
 40
12.0
 40
12.0
 40
12.0
 40
13.0
 40
13.0
 40
13.0
 40
14.0
 40
14.0
 40
14.0
 40
15.0
 40
15.0
 40
15.0
 40
16.0
 40
16.0
 40
16.0
 40
17.0
 40
17.0
 40
17.0
 40
18.0
 40
18.0
 40
18.0
 40
18.0
 10
341.5875477254755
 20
-990.7842908289641
 30
0.0
 10
340.7489468888253
 20
-997.0530296376184
 30
0.0
 10
334.7456849850799
 20
-1003.295790273129
 30
0.0
 10
328.5688440984948
 20
-1004.276598191856
 30
0.0
 10
321.8271690411795
 20
-1005.347097018357
 30
0.0
 10
315.7063001903063
 20
-1003.619273973271
 30
0.0
 10
310.4346043128536
 20
-999.372224854595
 30
0.0
 10
308.912141256458
 20
-998.145663202612
 30
0.0
 10
307.6397490685979
 20
-996.2997918075386
 30
0.0
 10
306.8966204405827
 20
-994.4755491525584
 30
0.0
 10
305.0303691525293
 20
-989.8941804318478
 30
0.0
 10
305.2247801971313
 20
-985.1041196691564
 30
0.0
 10
306.8749701686426
 20
-980.5101548180778
 30
0.0
 10
308.9751326742211
 20
-974.6634778870986
 30
0.0
 10
316.2460282276876
 20
-971.6615562552943
 30
0.0
 10
321.5554371347804
 20
-974.4532140203028
 30
0.0
 10
318.7696360320969
 20
-980.6784154347621
 30
0.0
 10
319.2705421497288
 20
-986.1945569857784
 30
0.0
 10
325.7338211940657
 20
-989.9615535804312
 30
0.0
 10
323.8254751455519
 20
-994.0852736636966
 30
0.0
 10
317.2582403449476
 20
-994.6672687163126
 30
0.0
 10
314.1839986227615
 20
-991.2532975155873
 30
0.0
 10
315.6451174476729
 20
-990.9055851048535
 30
0.0
 10
317.2427051174938
 20
-990.6476712611272
 30
0.0
 10
318.7395883399114
 20
-990.1096334737183
 30
0.0
 10
319.3474862042072
 20
-989.8911336755281
 30
0.0
 10
319.8883123657745
 20
-989.1296114673986
 30
0.0
 10
320.1692276048264
 20
-988.4880162628878
 30
0.0
 10
320.344841347187
 20
-988.0869156380559
 30
0.0
 10
320.1445628743367
 20
-987.1984093635249
 30
0.0
 10
319.8139844306802
 20
-986.9789836959229
 30
0.0
 10
319.3858559551742
 20
-986.6947902331983
 30
0.0
 10
318.3949173025356
 20
-986.5899624371361
 30
0.0
 10
318.1056800047021
 20
-986.8746511323368
 30
0.0
 10
316.3619449248429
 20
-988.5909546393947
 30
0.0
 10
314.3077636780691
 20
-988.0130614035909
 30
0.0
 10
312.2793129882008
 20
-987.9466302733042
 30
0.0
 10
311.4393125815097
 20
-987.9191179560775
 30
0.0
 10
310.1100978499899
 20
-987.975326842104
 30
0.0
 10
309.8597578333695
 20
-988.4474987102043
 30
0.0
 10
309.5251421684412
 20
-989.0786186712552
 30
0.0
 10
309.7967341178362
 20
-990.2748903977764
 30
0.0
 10
310.199853353304
 20
-991.0150637798206
 30
0.0
 10
313.6216513803348
 20
-997.2981374154705
 30
0.0
 10
323.3156979070454
 20
-998.0426979112966
 30
0.0
 10
327.9824350172883
 20
-992.4697391995822
 30
0.0
 10
328.3554204331835
 20
-992.0243367999947
 30
0.0
 10
329.1292211769408
 20
-991.5394126956373
 30
0.0
 10
329.6186292883907
 20
-991.6262021870572
 30
0.0
 10
333.4082127903188
 20
-992.2982003592253
 30
0.0
 10
337.1056076902462
 20
-992.0206656201183
 30
0.0
 10
340.7620813153629
 20
-990.8868523981523
 30
0.0
 10
340.972942690907
 20
-990.8214709453963
 30
0.0
 10
341.2064878670367
 20
-990.8292116443148
 30
0.0
 10
341.5875477254755
 20
-990.7842908289641
 30
0.0
  0
SPLINE
  5
5A
330
45
100
AcDbEntity
  8
Layer 1
370
     0
100
AcDbSpline
210
0.0
220
0.0
230
1.0
 70
    11
 71
     3
 72
    26
 73
    22
 74
     0
 42
0.0000000001
 43
0.0000000001
 12
1.0
 22
0.0
 32
0.0
 13
1.0
 23
0.0
 33
0.0
 40
0.0
 40
0.0
 40
0.0
 40
0.0
 40
1.0
 40
1.0
 40
1.0
 40
2.0
 40
2.0
 40
2.0
 40
3.0
 40
3.0
 40
3.0
 40
4.0
 40
4.0
 40
4.0
 40
5.0
 40
5.0
 40
5.0
 40
6.0
 40
6.0
 40
6.0
 40
7.0
 40
7.0
 40
7.0
 40
7.0
 10
377.339693610906
 20
-950.8858379529931
 30
0.0
 10
381.2526330630528
 20
-947.6311109081119
 30
0.0
 10
382.5445438700214
 20
-943.659725949354
 30
0.0
 10
382.5816217101814
 20
-939.0771622111469
 30
0.0
 10
382.5895669616443
 20
-938.0955710714928
 30
0.0
 10
383.1925447989502
 20
-936.9279663074822
 30
0.0
 10
383.880487303661
 20
-936.1734796302891
 30
0.0
 10
388.5808894563487
 20
-931.0183948520504
 30
0.0
 10
393.3771298590668
 20
-925.9507024569415
 30
0.0
 10
398.3794300354963
 20
-920.9763385059722
 30
0.0
 10
397.3538897050778
 20
-923.615273573231
 30
0.0
 10
396.3569651990336
 20
-926.2657591305484
 30
0.0
 10
395.2974045506982
 20
-928.8909595710406
 30
0.0
 10
392.2646223994925
 20
-936.4049281428383
 30
0.0
 10
389.1788503733542
 20
-943.8976690051891
 30
0.0
 10
386.1869141354954
 20
-951.427767621708
 30
0.0
 10
385.7176921304044
 20
-952.6086979073964
 30
0.0
 10
385.0961969048653
 20
-953.0359274282993
 30
0.0
 10
383.8521729251416
 20
-953.0248008464742
 30
0.0
 10
381.529209634978
 20
-953.0040279972905
 30
0.0
 10
379.5464925876763
 20
-952.1547742794445
 30
0.0
 10
377.339693610906
 20
-950.8858379529931
 30
0.0
  0
SPLINE
  5
5B
330
45
100
AcDbEntity
  8
Layer 1
370
     0
100
AcDbSpline
210
0.0
220
0.0
230
1.0
 70
    11
 71
     3
 72
    26
 73
    22
 74
     0
 42
0.0000000001
 43
0.0000000001
 12
1.0
 22
0.0
 32
0.0
 13
1.0
 23
0.0
 33
0.0
 40
0.0
 40
0.0
 40
0.0
 40
0.0
 40
1.0
 40
1.0
 40
1.0
 40
2.0
 40
2.0
 40
2.0
 40
3.0
 40
3.0
 40
3.0
 40
4.0
 40
4.0
 40
4.0
 40
5.0
 40
5.0
 40
5.0
 40
6.0
 40
6.0
 40
6.0
 40
7.0
 40
7.0
 40
7.0
 40
7.0
 10
359.5034438188156
 20
-1045.736126108466
 30
0.0
 10
361.2591290736392
 20
-1042.964277642498
 30
0.0
 10
363.0027780261113
 20
-1040.484691698836
 30
0.0
 10
364.4333539263613
 20
-1037.836026928312
 30
0.0
 10
365.1333542652705
 20
-1036.539971240838
 30
0.0
 10
365.6931176860833
 20
-1036.374402105002
 30
0.0
 10
366.9849423656648
 20
-1036.866706249844
 30
0.0
 10
373.3971694012797
 20
-1039.310355541225
 30
0.0
 10
374.5240386026581
 20
-1041.287334351359
 30
0.0
 10
372.3666552142543
 20
-1047.797682012763
 30
0.0
 10
371.3818746697956
 20
-1050.769464442033
 30
0.0
 10
369.817327618863
 20
-1053.562026544606
 30
0.0
 10
368.3618178400384
 20
-1056.355676005442
 30
0.0
 10
368.0066715592028
 20
-1057.037309679046
 30
0.0
 10
367.0190703428156
 20
-1057.826721011721
 30
0.0
 10
366.3707679680319
 20
-1057.786424160467
 30
0.0
 10
365.8044588657972
 20
-1057.751208825053
 30
0.0
 10
365.1841263599844
 20
-1056.683487606787
 30
0.0
 10
364.7989216210399
 20
-1055.959543854256
 30
0.0
 10
362.9329502469947
 20
-1052.452716564279
 30
0.0
 10
361.1381846902602
 20
-1048.908014755812
 30
0.0
 10
359.5034438188156
 20
-1045.736126108466
 30
0.0
  0
SPLINE
  5
5C
330
45
100
AcDbEntity
  8
Layer 1
370
     0
100
AcDbSpline
210
0.0
220
0.0
230
1.0
 70
    11
 71
     3
 72
    14
 73
    10
 74
     0
 42
0.0000000001
 43
0.0000000001
 12
1.0
 22
0.0
 32
0.0
 13
1.0
 23
0.0
 33
0.0
 40
0.0
 40
0.0
 40
0.0
 40
0.0
 40
1.0
 40
1.0
 40
1.0
 40
2.0
 40
2.0
 40
2.0
 40
3.0
 40
3.0
 40
3.0
 40
3.0
 10
340.4612383521134
 20
-952.7615309558607
 30
0.0
 10
338.7352885776968
 20
-947.3084777159181
 30
0.0
 10
342.3539307480161
 20
-932.8575698427744
 30
0.0
 10
346.3898708749097
 20
-929.1631974758391
 30
0.0
 10
351.2317910905775
 20
-934.5203344128068
 30
0.0
 10
351.3872187265792
 20
-941.0937515449186
 30
0.0
 10
351.667358819147
 20
-947.8198536940482
 30
0.0
 10
347.3584917683579
 20
-948.2936135358487
 30
0.0
 10
343.8134239184955
 20
-950.1251178061564
 30
0.0
 10
340.4612383521134
 20
-952.7615309558607
 30
0.0
  0
SPLINE
  5
5D
330
45
100
AcDbEntity
  8
Layer 1
370
     0
100
AcDbSpline
210
0.0
220
0.0
230
1.0
 70
    11
 71
     3
 72
    23
 73
    19
 74
     0
 42
0.0000000001
 43
0.0000000001
 12
1.0
 22
0.0
 32
0.0
 13
1.0
 23
0.0
 33
0.0
 40
0.0
 40
0.0
 40
0.0
 40
0.0
 40
1.0
 40
1.0
 40
1.0
 40
2.0
 40
2.0
 40
2.0
 40
3.0
 40
3.0
 40
3.0
 40
4.0
 40
4.0
 40
4.0
 40
5.0
 40
5.0
 40
5.0
 40
6.0
 40
6.0
 40
6.0
 40
6.0
 10
262.8204402266533
 20
-1076.608014325032
 30
0.0
 10
265.0666909296914
 20
-1073.189952073418
 30
0.0
 10
267.0560182539554
 20
-1070.110165900685
 30
0.0
 10
269.1283293157203
 20
-1067.087266867153
 30
0.0
 10
269.3463715621664
 20
-1066.769209192401
 30
0.0
 10
270.1046047806998
 20
-1066.57994425918
 30
0.0
 10
270.5243681337307
 20
-1066.684309120536
 30
0.0
 10
272.1704347565831
 20
-1067.093532634567
 30
0.0
 10
273.753832939374
 20
-1067.790421621616
 30
0.0
 10
275.4128079043727
 20
-1068.102331954112
 30
0.0
 10
277.1286700085716
 20
-1068.424922082612
 30
0.0
 10
277.6486425765297
 20
-1069.406074510887
 30
0.0
 10
277.8761373037135
 20
-1070.977877794186
 30
0.0
 10
278.6108254477898
 20
-1076.053741525149
 30
0.0
 10
277.7565709585285
 20
-1077.177746990905
 30
0.0
 10
272.6702535159525
 20
-1077.105475347179
 30
0.0
 10
269.4035601472216
 20
-1077.059052685515
 30
0.0
 10
266.1401073214316
 20
-1076.783671131086
 30
0.0
 10
262.8204402266533
 20
-1076.608014325032
 30
0.0
  0
SPLINE
  5
5E
330
45
100
AcDbEntity
  8
Layer 1
370
     0
100
AcDbSpline
210
0.0
220
0.0
230
1.0
 70
    11
 71
     3
 72
    17
 73
    13
 74
     0
 42
0.0000000001
 43
0.0000000001
 12
1.0
 22
0.0
 32
0.0
 13
1.0
 23
0.0
 33
0.0
 40
0.0
 40
0.0
 40
0.0
 40
0.0
 40
1.0
 40
1.0
 40
1.0
 40
2.0
 40
2.0
 40
2.0
 40
3.0
 40
3.0
 40
3.0
 40
4.0
 40
4.0
 40
4.0
 40
4.0
 10
357.9197118923994
 20
-934.9378799856191
 30
0.0
 10
359.0464088390036
 20
-933.587211460261
 30
0.0
 10
359.9562154929645
 20
-932.496529218882
 30
0.0
 10
360.8660221469254
 20
-931.4058496689837
 30
0.0
 10
361.0876063821673
 20
-931.4970020508579
 30
0.0
 10
361.309212149256
 20
-931.588154432732
 30
0.0
 10
361.5307963844979
 20
-931.6793068146062
 30
0.0
 10
362.0430820831546
 20
-932.9599160934948
 30
0.0
 10
362.5553677818112
 20
-934.2405253723833
 30
0.0
 10
363.2148882487688
 20
-935.8891596679646
 30
0.0
 10
361.2266590486907
 20
-935.5319759361271
 30
0.0
 10
359.7137453663433
 20
-935.2601767427068
 30
0.0
 10
357.9197118923994
 20
-934.9378799856191
 30
0.0
  0
SPLINE
  5
5F
330
45
100
AcDbEntity
  8
Layer 1
370
     0
100
AcDbSpline
210
0.0
220
0.0
230
1.0
 70
    11
 71
     3
 72
    17
 73
    13
 74
     0
 42
0.0000000001
 43
0.0000000001
 12
1.0
 22
0.0
 32
0.0
 13
1.0
 23
0.0
 33
0.0
 40
0.0
 40
0.0
 40
0.0
 40
0.0
 40
1.0
 40
1.0
 40
1.0
 40
2.0
 40
2.0
 40
2.0
 40
3.0
 40
3.0
 40
3.0
 40
4.0
 40
4.0
 40
4.0
 40
4.0
 10
378.9408232695226
 20
-965.7546978125571
 30
0.0
 10
378.9462708267587
 20
-970.9736891120472
 30
0.0
 10
374.7680805540945
 20
-975.1097577094425
 30
0.0
 10
369.5112524168453
 20
-975.0891840298416
 30
0.0
 10
364.3728279050548
 20
-975.0690679019847
 30
0.0
 10
360.2561756504959
 20
-970.9349048730296
 30
0.0
 10
360.2268923388713
 20
-965.7653237789444
 30
0.0
 10
360.1977382183273
 20
-960.6229104925375
 30
0.0
 10
364.5127633772963
 20
-956.3419487151789
 30
0.0
 10
369.6716646753773
 20
-956.3950139515752
 30
0.0
 10
374.7858658595371
 20
-956.4476216362273
 30
0.0
 10
378.9354833715205
 20
-960.6377459349708
 30
0.0
 10
378.9408232695226
 20
-965.7546978125571
 30
0.0
  0
SPLINE
  5
60
330
45
100
AcDbEntity
  8
Layer 1
370
     0
100
AcDbSpline
210
0.0
220
0.0
230
1.0
 70
    11
 71
     3
 72
    17
 73
    13
 74
     0
 42
0.0000000001
 43
0.0000000001
 12
1.0
 22
0.0
 32
0.0
 13
1.0
 23
0.0
 33
0.0
 40
0.0
 40
0.0
 40
0.0
 40
0.0
 40
1.0
 40
1.0
 40
1.0
 40
2.0
 40
2.0
 40
2.0
 40
3.0
 40
3.0
 40
3.0
 40
4.0
 40
4.0
 40
4.0
 40
4.0
 10
367.4701625329155
 20
-967.0948561052044
 30
0.0
 10
369.5812093870426
 20
-967.1309703952209
 30
0.0
 10
371.2211824972555
 20
-965.5869001305787
 30
0.0
 10
371.2246491245875
 20
-963.5599082233299
 30
0.0
 10
371.2280511563792
 20
-961.5888937347547
 30
0.0
 10
369.7060940983829
 20
-960.0626410733253
 30
0.0
 10
367.6653056603081
 20
-959.990541684373
 30
0.0
 10
365.6083898689929
 20
-959.9178770844428
 30
0.0
 10
363.8156913695495
 20
-961.5124502957141
 30
0.0
 10
363.7742856281862
 20
-963.4515815021656
 30
0.0
 10
363.7320186129515
 20
-965.4289855662736
 30
0.0
 10
365.3857721051054
 20
-967.059199366932
 30
0.0
 10
367.4701625329155
 20
-967.0948561052044
 30
0.0
  0
SPLINE
  5
61
330
45
100
AcDbEntity
  8
Layer 1
370
     0
100
AcDbSpline
210
0.0
220
0.0
230
1.0
 70
    11
 71
     3
 72
    20
 73
    16
 74
     0
 42
0.0000000001
 43
0.0000000001
 12
1.0
 22
0.0
 32
0.0
 13
1.0
 23
0.0
 33
0.0
 40
0.0
 40
0.0
 40
0.0
 40
0.0
 40
1.0
 40
1.0
 40
1.0
 40
2.0
 40
2.0
 40
2.0
 40
3.0
 40
3.0
 40
3.0
 40
4.0
 40
4.0
 40
4.0
 40
5.0
 40
5.0
 40
5.0
 40
5.0
 10
371.8314380987739
 20
-971.3281571397092
 30
0.0
 10
371.8281006625226
 20
-971.0392966491944
 30
0.0
 10
371.8247632262713
 20
-970.7504361586796
 30
0.0
 10
371.8214257900199
 20
-970.4615756681649
 30
0.0
 10
371.0990969259969
 20
-969.987449784969
 30
0.0
 10
370.4271095197522
 20
-969.2490312484375
 30
0.0
 10
369.6428981280754
 20
-969.0995786999181
 30
0.0
 10
368.3874192058632
 20
-968.8603329673525
 30
0.0
 10
367.4952256025707
 20
-969.7927426774737
 30
0.0
 10
367.7215037804112
 20
-970.9466935591432
 30
0.0
 10
367.867661956373
 20
-971.6919430740666
 30
0.0
 10
368.8737374972998
 20
-972.7427671755697
 30
0.0
 10
369.546177072327
 20
-972.782547262501
 30
0.0
 10
370.2767095699742
 20
-972.8257670619558
 30
0.0
 10
371.0671436653712
 20
-971.8561449376323
 30
0.0
 10
371.8314380987739
 20
-971.3281571397092
 30
0.0
  0
SPLINE
  5
62
330
45
100
AcDbEntity
  8
Layer 1
370
     0
100
AcDbSpline
210
0.0
220
0.0
230
1.0
 70
    11
 71
     3
 72
    17
 73
    13
 74
     0
 42
0.0000000001
 43
0.0000000001
 12
1.0
 22
0.0
 32
0.0
 13
1.0
 23
0.0
 33
0.0
 40
0.0
 40
0.0
 40
0.0
 40
0.0
 40
1.0
 40
1.0
 40
1.0
 40
2.0
 40
2.0
 40
2.0
 40
3.0
 40
3.0
 40
3.0
 40
4.0
 40
4.0
 40
4.0
 40
4.0
 10
374.5879451239094
 20
-965.0685101533591
 30
0.0
 10
373.9100149279527
 20
-966.0220049244424
 30
0.0
 10
373.2666002823887
 20
-966.5294621064579
 30
0.0
 10
373.2948500653677
 20
-966.9963102254412
 30
0.0
 10
373.3245209502344
 20
-967.4869025884642
 30
0.0
 10
373.997218907423
 20
-967.9386138191591
 30
0.0
 10
374.3889262640959
 20
-968.407324442889
 30
0.0
 10
374.8464564763839
 20
-967.9936815173061
 30
0.0
 10
375.5899942094879
 20
-967.6329638711153
 30
0.0
 10
375.6791360551688
 20
-967.151151118618
 30
0.0
 10
375.7642514455012
 20
-966.6911878076437
 30
0.0
 10
375.1678192896173
 20
-966.105117853024
 30
0.0
 10
374.5879451239094
 20
-965.0685101533591
 30
0.0
  0
HATCH
  5
63
330
45
100
AcDbEntity
  8
Layer 1
 62
     7
420
 16777215
100
AcDbHatch
 10
0.0
 20
0.0
 30
0.0
210
0.0
220
0.0
230
1.0
  2
SOLID
 70
     1
 71
     0
 91
        4
 92
        1
 93
        1
 72
     4
 94
        3
 73
     0
 74
     1
 95
       17
 96
       13
 40
0.0
 40
0.0
 40
0.0
 40
0.0
 40
1.0
 40
1.0
 40
1.0
 40
2.0
 40
2.0
 40
2.0
 40
3.0
 40
3.0
 40
3.0
 40
4.0
 40
4.0
 40
4.0
 40
4.0
 10
378.9408232695226
 20
-965.7546978125571
 10
378.9462708267587
 20
-970.9736891120472
 10
374.7680805540945
 20
-975.1097577094425
 10
369.5112524168453
 20
-975.0891840298416
 10
364.3728279050548
 20
-975.0690679019847
 10
360.2561756504959
 20
-970.9349048730296
 10
360.2268923388713
 20
-965.7653237789444
 10
360.1977382183273
 20
-960.6229104925375
 10
364.5127633772963
 20
-956.3419487151789
 10
369.6716646753773
 20
-956.3950139515752
 10
374.7858658595371
 20
-956.4476216362273
 10
378.9354833715205
 20
-960.6377459349708
 10
378.9408232695226
 20
-965.7546978125571
 97
        0
 97
        0
 92
        1
 93
        1
 72
     4
 94
        3
 73
     0
 74
     1
 95
       17
 96
       13
 40
0.0
 40
0.0
 40
0.0
 40
0.0
 40
1.0
 40
1.0
 40
1.0
 40
2.0
 40
2.0
 40
2.0
 40
3.0
 40
3.0
 40
3.0
 40
4.0
 40
4.0
 40
4.0
 40
4.0
 10
367.4701625329155
 20
-967.0948561052044
 10
369.5812093870426
 20
-967.1309703952209
 10
371.2211824972555
 20
-965.5869001305787
 10
371.2246491245875
 20
-963.5599082233299
 10
371.2280511563792
 20
-961.5888937347547
 10
369.7060940983829
 20
-960.0626410733253
 10
367.6653056603081
 20
-959.990541684373
 10
365.6083898689929
 20
-959.9178770844428
 10
363.8156913695495
 20
-961.5124502957141
 10
363.7742856281862
 20
-963.4515815021656
 10
363.7320186129515
 20
-965.4289855662736
 10
365.3857721051054
 20
-967.059199366932
 10
367.4701625329155
 20
-967.0948561052044
 97
        0
 97
        0
 92
        1
 93
        1
 72
     4
 94
        3
 73
     0
 74
     1
 95
       20
 96
       16
 40
0.0
 40
0.0
 40
0.0
 40
0.0
 40
1.0
 40
1.0
 40
1.0
 40
2.0
 40
2.0
 40
2.0
 40
3.0
 40
3.0
 40
3.0
 40
4.0
 40
4.0
 40
4.0
 40
5.0
 40
5.0
 40
5.0
 40
5.0
 10
371.8314380987739
 20
-971.3281571397092
 10
371.8281006625226
 20
-971.0392966491944
 10
371.8247632262713
 20
-970.7504361586796
 10
371.8214257900199
 20
-970.4615756681649
 10
371.0990969259969
 20
-969.987449784969
 10
370.4271095197522
 20
-969.2490312484375
 10
369.6428981280754
 20
-969.0995786999181
 10
368.3874192058632
 20
-968.8603329673525
 10
367.4952256025707
 20
-969.7927426774737
 10
367.7215037804112
 20
-970.9466935591432
 10
367.867661956373
 20
-971.6919430740666
 10
368.8737374972998
 20
-972.7427671755697
 10
369.546177072327
 20
-972.782547262501
 10
370.2767095699742
 20
-972.8257670619558
 10
371.0671436653712
 20
-971.8561449376323
 10
371.8314380987739
 20
-971.3281571397092
 97
        0
 97
        0
 92
        1
 93
        1
 72
     4
 94
        3
 73
     0
 74
     1
 95
       17
 96
       13
 40
0.0
 40
0.0
 40
0.0
 40
0.0
 40
1.0
 40
1.0
 40
1.0
 40
2.0
 40
2.0
 40
2.0
 40
3.0
 40
3.0
 40
3.0
 40
4.0
 40
4.0
 40
4.0
 40
4.0
 10
374.5879451239094
 20
-965.0685101533591
 10
373.9100149279527
 20
-966.0220049244424
 10
373.2666002823887
 20
-966.5294621064579
 10
373.2948500653677
 20
-966.9963102254412
 10
373.3245209502344
 20
-967.4869025884642
 10
373.997218907423
 20
-967.9386138191591
 10
374.3889262640959
 20
-968.407324442889
 10
374.8464564763839
 20
-967.9936815173061
 10
375.5899942094879
 20
-967.6329638711153
 10
375.6791360551688
 20
-967.151151118618
 10
375.7642514455012
 20
-966.6911878076437
 10
375.1678192896173
 20
-966.105117853024
 10
374.5879451239094
 20
-965.0685101533591
 97
        0
 97
        0
 75
     2
 76
     1
 98
        0
  0
SPLINE
  5
64
330
45
100
AcDbEntity
  8
Layer 1
370
     0
100
AcDbSpline
210
0.0
220
0.0
230
1.0
 70
    11
 71
     3
 72
    17
 73
    13
 74
     0
 42
0.0000000001
 43
0.0000000001
 12
1.0
 22
0.0
 32
0.0
 13
1.0
 23
0.0
 33
0.0
 40
0.0
 40
0.0
 40
0.0
 40
0.0
 40
1.0
 40
1.0
 40
1.0
 40
2.0
 40
2.0
 40
2.0
 40
3.0
 40
3.0
 40
3.0
 40
4.0
 40
4.0
 40
4.0
 40
4.0
 10
367.4701625329155
 20
-967.0948561052044
 30
0.0
 10
365.3857721051054
 20
-967.059199366932
 30
0.0
 10
363.7320186129515
 20
-965.4289855662736
 30
0.0
 10
363.7742856281862
 20
-963.4515815021656
 30
0.0
 10
363.8156913695495
 20
-961.5124502957141
 30
0.0
 10
365.6083898689929
 20
-959.9178770844428
 30
0.0
 10
367.6653056603081
 20
-959.990541684373
 30
0.0
 10
369.7060940983829
 20
-960.0626410733253
 30
0.0
 10
371.2280511563792
 20
-961.5888937347547
 30
0.0
 10
371.2246491245875
 20
-963.5599082233299
 30
0.0
 10
371.2211824972555
 20
-965.5869001305787
 30
0.0
 10
369.5812093870426
 20
-967.1309703952209
 30
0.0
 10
367.4701625329155
 20
-967.0948561052044
 30
0.0
  0
SPLINE
  5
65
330
45
100
AcDbEntity
  8
Layer 1
370
     0
100
AcDbSpline
210
0.0
220
0.0
230
1.0
 70
    11
 71
     3
 72
    20
 73
    16
 74
     0
 42
0.0000000001
 43
0.0000000001
 12
1.0
 22
0.0
 32
0.0
 13
1.0
 23
0.0
 33
0.0
 40
0.0
 40
0.0
 40
0.0
 40
0.0
 40
1.0
 40
1.0
 40
1.0
 40
2.0
 40
2.0
 40
2.0
 40
3.0
 40
3.0
 40
3.0
 40
4.0
 40
4.0
 40
4.0
 40
5.0
 40
5.0
 40
5.0
 40
5.0
 10
371.8314380987739
 20
-971.3281571397092
 30
0.0
 10
371.0671436653712
 20
-971.8561449376323
 30
0.0
 10
370.2767095699742
 20
-972.8257670619558
 30
0.0
 10
369.546177072327
 20
-972.782547262501
 30
0.0
 10
368.8737374972998
 20
-972.7427671755697
 30
0.0
 10
367.867661956373
 20
-971.6919430740666
 30
0.0
 10
367.7215037804112
 20
-970.9466935591432
 30
0.0
 10
367.4952256025707
 20
-969.7927426774737
 30
0.0
 10
368.3874192058632
 20
-968.8603329673525
 30
0.0
 10
369.6428981280754
 20
-969.0995786999181
 30
0.0
 10
370.4271095197522
 20
-969.2490312484375
 30
0.0
 10
371.0990969259969
 20
-969.987449784969
 30
0.0
 10
371.8214257900199
 20
-970.4615756681649
 30
0.0
 10
371.8247632262713
 20
-970.7504361586796
 30
0.0
 10
371.8281006625226
 20
-971.0392966491944
 30
0.0
 10
371.8314380987739
 20
-971.3281571397092
 30
0.0
  0
SPLINE
  5
66
330
45
100
AcDbEntity
  8
Layer 1
370
     0
100
AcDbSpline
210
0.0
220
0.0
230
1.0
 70
    11
 71
     3
 72
    17
 73
    13
 74
     0
 42
0.0000000001
 43
0.0000000001
 12
1.0
 22
0.0
 32
0.0
 13
1.0
 23
0.0
 33
0.0
 40
0.0
 40
0.0
 40
0.0
 40
0.0
 40
1.0
 40
1.0
 40
1.0
 40
2.0
 40
2.0
 40
2.0
 40
3.0
 40
3.0
 40
3.0
 40
4.0
 40
4.0
 40
4.0
 40
4.0
 10
374.5879451239094
 20
-965.0685101533591
 30
0.0
 10
375.1678192896173
 20
-966.105117853024
 30
0.0
 10
375.7642514455012
 20
-966.6911878076437
 30
0.0
 10
375.6791360551688
 20
-967.151151118618
 30
0.0
 10
375.5899942094879
 20
-967.6329638711153
 30
0.0
 10
374.8464564763839
 20
-967.9936815173061
 30
0.0
 10
374.3889262640959
 20
-968.4073190599273
 30
0.0
 10
373.997218907423
 20
-967.9386138191591
 30
0.0
 10
373.3245209502344
 20
-967.4869025884642
 30
0.0
 10
373.2948500653677
 20
-966.9963102254412
 30
0.0
 10
373.2666002823887
 20
-966.5294621064579
 30
0.0
 10
373.9100149279527
 20
-966.0220049244424
 30
0.0
 10
374.5879451239094
 20
-965.0685101533591
 30
0.0
  0
ENDBLK
  5
48
330
45
100
AcDbEntity
  8
0
100
AcDbBlockEnd
  0
ENDSEC
  0
SECTION
  2
ENTITIES
  0
INSERT
  5
42
330
1F
100
AcDbEntity
  8
Layer 1
100
AcDbBlockReference
  2
block 2
 10
0.0
 20
0.0
 30
0.0
  0
ENDSEC
  0
SECTION
  2
OBJECTS
  0
DICTIONARY
  5
C
330
0
100
AcDbDictionary
281
     1
  3
ACAD_GROUP
350
D
  3
ACAD_LAYOUT
350
1A
  3
ACAD_MATERIAL
350
3B
  3
ACAD_MLEADERSTYLE
350
68
  3
ACAD_MLINESTYLE
350
17
  3
ACAD_PLOTSETTINGS
350
19
  3
ACAD_PLOTSTYLENAME
350
E
  3
ACAD_TABLESTYLE
350
67
  3
ACAD_VISUALSTYLE
350
2A
  0
SUN
  5
3F
330
29
100
AcDbSun
 90
        1
290
     0
 63
     7
421
 16777215
 40
1.0
291
     1
 91
  2455826
 92
 54000000
292
     0
 70
     2
 71
   256
280
     1
  0
DICTIONARY
  5
D
102
{ACAD_REACTORS
330
C
102
}
330
C
100
AcDbDictionary
281
     1
  0
DICTIONARY
  5
1A
102
{ACAD_REACTORS
330
C
102
}
330
C
100
AcDbDictionary
281
     1
  3
Layout1
350
1E
  3
Layout2
350
26
  3
Model
350
22
  0
DICTIONARY
  5
3B
102
{ACAD_REACTORS
330
C
102
}
330
C
100
AcDbDictionary
281
     1
  3
ByBlock
350
3D
  3
ByLayer
350
3C
  3
Global
350
3E
  0
DICTIONARY
  5
68
102
{ACAD_REACTORS
330
C
102
}
330
C
100
AcDbDictionary
281
     1
  0
DICTIONARY
  5
17
102
{ACAD_REACTORS
330
C
102
}
330
C
100
AcDbDictionary
281
     1
  3
Standard
350
18
  0
DICTIONARY
  5
19
102
{ACAD_REACTORS
330
C
102
}
330
C
100
AcDbDictionary
281
     1
  0
ACDBDICTIONARYWDFLT
  5
E
102
{ACAD_REACTORS
330
C
102
}
330
C
100
AcDbDictionary
281
     1
  3
Normal
350
F
100
AcDbDictionaryWithDefault
340
F
  0
DICTIONARY
  5
67
102
{ACAD_REACTORS
330
C
102
}
330
C
100
AcDbDictionary
281
     1
  0
DICTIONARY
  5
2A
102
{ACAD_REACTORS
330
C
102
}
330
C
100
AcDbDictionary
281
     1
  3
2dWireframe
350
2F
  3
3D Hidden
350
31
  3
3dWireframe
350
30
  3
Basic
350
32
  3
Brighten
350
36
  3
ColorChange
350
3A
  3
Conceptual
350
34
  3
Dim
350
35
  3
Facepattern
350
39
  3
Flat
350
2B
  3
FlatWithEdges
350
2C
  3
Gouraud
350
2D
  3
GouraudWithEdges
350
2E
  3
Linepattern
350
38
  3
Realistic
350
33
  3
Thicken
350
37
  0
LAYOUT
  5
1E
102
{ACAD_REACTORS
330
1A
102
}
330
1A
100
AcDbPlotSettings
  1

  2
none_device
  4

  6

 40
0.0
 41
0.0
 42
0.0
 43
0.0
 44
0.0
 45
0.0
 46
0.0
 47
0.0
 48
0.0
 49
0.0
140
0.0
141
0.0
142
1.0
143
1.0
 70
   688
 72
     0
 73
     0
 74
     5
  7

 75
    16
 76
     0
 77
     2
 78
   300
147
1.0
148
0.0
149
0.0
100
AcDbLayout
  1
Layout1
 70
     1
 71
     1
 10
0.0
 20
0.0
 11
12.0
 21
9.0
 12
0.0
 22
0.0
 32
0.0
 14
1.000000000000000E+20
 24
1.000000000000000E+20
 34
1.000000000000000E+20
 15
-1.000000000000000E+20
 25
-1.000000000000000E+20
 35
-1.000000000000000E+20
146
0.0
 13
0.0
 23
0.0
 33
0.0
 16
1.0
 26
0.0
 36
0.0
 17
0.0
 27
1.0
 37
0.0
 76
     0
330
1B
  0
LAYOUT
  5
26
102
{ACAD_REACTORS
330
1A
102
}
330
1A
100
AcDbPlotSettings
  1

  2
none_device
  4

  6

 40
0.0
 41
0.0
 42
0.0
 43
0.0
 44
0.0
 45
0.0
 46
0.0
 47
0.0
 48
0.0
 49
0.0
140
0.0
141
0.0
142
1.0
143
1.0
 70
   688
 72
     0
 73
     0
 74
     5
  7

 75
    16
 76
     0
 77
     2
 78
   300
147
1.0
148
0.0
149
0.0
100
AcDbLayout
  1
Layout2
 70
     1
 71
     2
 10
0.0
 20
0.0
 11
0.0
 21
0.0
 12
0.0
 22
0.0
 32
0.0
 14
0.0
 24
0.0
 34
0.0
 15
0.0
 25
0.0
 35
0.0
146
0.0
 13
0.0
 23
0.0
 33
0.0
 16
1.0
 26
0.0
 36
0.0
 17
0.0
 27
1.0
 37
0.0
 76
     0
330
23
  0
LAYOUT
  5
22
102
{ACAD_REACTORS
330
1A
102
}
330
1A
100
AcDbPlotSettings
  1

  2
none_device
  4

  6

 40
0.0
 41
0.0
 42
0.0
 43
0.0
 44
0.0
 45
0.0
 46
0.0
 47
0.0
 48
0.0
 49
0.0
140
0.0
141
0.0
142
1.0
143
1.0
 70
  1712
 72
     0
 73
     0
 74
     0
  7

 75
     0
 76
     0
 77
     2
 78
   300
147
1.0
148
0.0
149
0.0
100
AcDbLayout
  1
Model
 70
     1
 71
     0
 10
0.0
 20
0.0
 11
12.0
 21
9.0
 12
0.0
 22
0.0
 32
0.0
 14
1.000000000000000E+20
 24
1.000000000000000E+20
 34
1.000000000000000E+20
 15
-1.000000000000000E+20
 25
-1.000000000000000E+20
 35
-1.000000000000000E+20
146
0.0
 13
0.0
 23
0.0
 33
0.0
 16
1.0
 26
0.0
 36
0.0
 17
0.0
 27
1.0
 37
0.0
 76
     0
330
1F
331
29
  0
MATERIAL
  5
3D
102
{ACAD_REACTORS
330
3B
102
}
330
3B
100
AcDbMaterial
  1
ByBlock
 72
     1
 94
      127
  0
MATERIAL
  5
3C
102
{ACAD_REACTORS
330
3B
102
}
330
3B
100
AcDbMaterial
  1
ByLayer
 72
     1
 94
      127
  0
MATERIAL
  5
3E
102
{ACAD_REACTORS
330
3B
102
}
330
3B
100
AcDbMaterial
  1
Global
 72
     1
 94
      127
  0
MLINESTYLE
  5
18
102
{ACAD_REACTORS
330
17
102
}
330
17
100
AcDbMlineStyle
  2
Standard
 70
     0
  3

 62
   256
 51
90.0
 52
90.0
 71
     2
 49
0.5
 62
   256
  6
BYLAYER
 49
-0.5
 62
   256
  6
BYLAYER
  0
ACDBPLACEHOLDER
  5
F
102
{ACAD_REACTORS
330
E
102
}
330
E
  0
VISUALSTYLE
  5
2F
102
{ACAD_REACTORS
330
2A
102
}
330
2A
100
AcDbVisualStyle
  2
2dWireframe
 70
     4
177
     2
291
     0
 71
     0
176
     1
 72
     2
176
     1
 73
     0
176
     1
 90
        0
176
     1
 40
-0.6
176
     1
 41
-30.0
176
     1
 62
     5
 63
     7
421
 16777215
176
     1
 74
     1
176
     1
 91
        4
176
     1
 64
     7
176
     1
 65
   257
176
     1
 75
     1
176
     1
175
     1
176
     1
 42
1.0
176
     1
 92
        0
176
     1
 66
   257
176
     1
 43
1.0
176
     1
 76
     1
176
     1
 77
     6
176
     1
 78
     2
176
     1
 67
     7
176
     1
 79
     5
176
     1
170
     0
176
     1
171
     0
176
     1
290
     0
176
     1
 93
        1
176
     1
 44
0.0
176
     1
173
     0
176
     1
  0
VISUALSTYLE
  5
31
102
{ACAD_REACTORS
330
2A
102
}
330
2A
100
AcDbVisualStyle
  2
3D Hidden
 70
     6
177
     2
291
     0
 71
     1
176
     1
 72
     2
176
     1
 73
     2
176
     1
 90
        0
176
     1
 40
-0.6
176
     1
 41
-30.0
176
     1
 62
     5
 63
     7
421
 16777215
176
     1
 74
     2
176
     1
 91
        2
176
     1
 64
     7
176
     1
 65
   257
176
     1
 75
     2
176
     1
175
     1
176
     1
 42
40.0
176
     1
 92
        0
176
     1
 66
   257
176
     1
 43
1.0
176
     1
 76
     1
176
     1
 77
     6
176
     1
 78
     2
176
     1
 67
     7
176
     1
 79
     3
176
     1
170
     0
176
     1
171
     0
176
     1
290
     0
176
     1
 93
        1
176
     1
 44
0.0
176
     1
173
     0
176
     1
  0
VISUALSTYLE
  5
30
102
{ACAD_REACTORS
330
2A
102
}
330
2A
100
AcDbVisualStyle
  2
3dWireframe
 70
     5
177
     2
291
     0
 71
     0
176
     1
 72
     2
176
     1
 73
     0
176
     1
 90
        0
176
     1
 40
-0.6
176
     1
 41
-30.0
176
     1
 62
     5
 63
     7
421
 16777215
176
     1
 74
     1
176
     1
 91
        4
176
     1
 64
     7
176
     1
 65
   257
176
     1
 75
     1
176
     1
175
     1
176
     1
 42
1.0
176
     1
 92
        0
176
     1
 66
   257
176
     1
 43
1.0
176
     1
 76
     1
176
     1
 77
     6
176
     1
 78
     2
176
     1
 67
     7
176
     1
 79
     5
176
     1
170
     0
176
     1
171
     0
176
     1
290
     0
176
     1
 93
        1
176
     1
 44
0.0
176
     1
173
     0
176
     1
  0
VISUALSTYLE
  5
32
102
{ACAD_REACTORS
330
2A
102
}
330
2A
100
AcDbVisualStyle
  2
Basic
 70
     7
177
     2
291
     1
 71
     1
176
     1
 72
     0
176
     1
 73
     1
176
     1
 90
        0
176
     1
 40
-0.6
176
     1
 41
-30.0
176
     1
 62
     5
 63
     7
421
 16777215
176
     1
 74
     0
176
     1
 91
        4
176
     1
 64
     7
176
     1
 65
   257
176
     1
 75
     1
176
     1
175
     1
176
     1
 42
1.0
176
     1
 92
        8
176
     1
 66
     7
176
     1
 43
1.0
176
     1
 76
     1
176
     1
 77
     6
176
     1
 78
     2
176
     1
 67
     7
176
     1
 79
     5
176
     1
170
     0
176
     1
171
     0
176
     1
290
     0
176
     1
 93
        1
176
     1
 44
0.0
176
     1
173
     0
176
     1
  0
VISUALSTYLE
  5
36
102
{ACAD_REACTORS
330
2A
102
}
330
2A
100
AcDbVisualStyle
  2
Brighten
 70
    12
177
     2
291
     1
 71
     2
176
     1
 72
     2
176
     1
 73
     0
176
     1
 90
        0
176
     1
 40
-0.6
176
     1
 41
-30.0
176
     1
 62
     5
 63
     7
421
 16777215
176
     1
 74
     1
176
     1
 91
        4
176
     1
 64
     7
176
     1
 65
   257
176
     1
 75
     1
176
     1
175
     1
176
     1
 42
1.0
176
     1
 92
        8
176
     1
 66
     7
176
     1
 43
1.0
176
     1
 76
     1
176
     1
 77
     6
176
     1
 78
     2
176
     1
 67
     7
176
     1
 79
     5
176
     1
170
     0
176
     1
171
     0
176
     1
290
     0
176
     1
 93
        1
176
     1
 44
50.0
176
     1
173
     0
176
     1
  0
VISUALSTYLE
  5
3A
102
{ACAD_REACTORS
330
2A
102
}
330
2A
100
AcDbVisualStyle
  2
ColorChange
 70
    16
177
     2
291
     1
 71
     2
176
     1
 72
     2
176
     1
 73
     3
176
     1
 90
        0
176
     1
 40
-0.6
176
     1
 41
-30.0
176
     1
 62
     5
 63
     8
421
  8421504
176
     1
 74
     1
176
     1
 91
        4
176
     1
 64
     7
176
     1
 65
   257
176
     1
 75
     1
176
     1
175
     1
176
     1
 42
1.0
176
     1
 92
        8
176
     1
 66
     8
424
  8421504
176
     1
 43
1.0
176
     1
 76
     1
176
     1
 77
     6
176
     1
 78
     2
176
     1
 67
     7
176
     1
 79
     5
176
     1
170
     0
176
     1
171
     0
176
     1
290
     0
176
     1
 93
        1
176
     1
 44
0.0
176
     1
173
     0
176
     1
  0
VISUALSTYLE
  5
34
102
{ACAD_REACTORS
330
2A
102
}
330
2A
100
AcDbVisualStyle
  2
Conceptual
 70
     9
177
     2
291
     0
 71
     3
176
     1
 72
     2
176
     1
 73
     0
176
     1
 90
        0
176
     1
 40
-0.6
176
     1
 41
-30.0
176
     1
 62
     5
 63
     7
421
 16777215
176
     1
 74
     2
176
     1
 91
        2
176
     1
 64
     7
176
     1
 65
   257
176
     1
 75
     1
176
     1
175
     1
176
     1
 42
40.0
176
     1
 92
        8
176
     1
 66
     7
176
     1
 43
1.0
176
     1
 76
     1
176
     1
 77
     6
176
     1
 78
     2
176
     1
 67
     7
176
     1
 79
     3
176
     1
170
     0
176
     1
171
     0
176
     1
290
     0
176
     1
 93
        1
176
     1
 44
0.0
176
     1
173
     0
176
     1
  0
VISUALSTYLE
  5
35
102
{ACAD_REACTORS
330
2A
102
}
330
2A
100
AcDbVisualStyle
  2
Dim
 70
    11
177
     2
291
     1
 71
     2
176
     1
 72
     2
176
     1
 73
     0
176
     1
 90
        0
176
     1
 40
-0.6
176
     1
 41
-30.0
176
     1
 62
     5
 63
     7
421
 16777215
176
     1
 74
     1
176
     1
 91
        4
176
     1
 64
     7
176
     1
 65
   257
176
     1
 75
     1
176
     1
175
     1
176
     1
 42
1.0
176
     1
 92
        8
176
     1
 66
     7
176
     1
 43
1.0
176
     1
 76
     1
176
     1
 77
     6
176
     1
 78
     2
176
     1
 67
     7
176
     1
 79
     5
176
     1
170
     0
176
     1
171
     0
176
     1
290
     0
176
     1
 93
        1
176
     1
 44
-50.0
176
     1
173
     0
176
     1
  0
VISUALSTYLE
  5
39
102
{ACAD_REACTORS
330
2A
102
}
330
2A
100
AcDbVisualStyle
  2
Facepattern
 70
    15
177
     2
291
     1
 71
     2
176
     1
 72
     2
176
     1
 73
     0
176
     1
 90
        0
176
     1
 40
-0.6
176
     1
 41
-30.0
176
     1
 62
     5
 63
     7
421
 16777215
176
     1
 74
     1
176
     1
 91
        4
176
     1
 64
     7
176
     1
 65
   257
176
     1
 75
     1
176
     1
175
     1
176
     1
 42
1.0
176
     1
 92
        8
176
     1
 66
     7
176
     1
 43
1.0
176
     1
 76
     1
176
     1
 77
     6
176
     1
 78
     2
176
     1
 67
     7
176
     1
 79
     5
176
     1
170
     0
176
     1
171
     0
176
     1
290
     0
176
     1
 93
        1
176
     1
 44
0.0
176
     1
173
     0
176
     1
  0
VISUALSTYLE
  5
2B
102
{ACAD_REACTORS
330
2A
102
}
330
2A
100
AcDbVisualStyle
  2
Flat
 70
     0
177
     2
291
     1
 71
     2
176
     1
 72
     1
176
     1
 73
     1
176
     1
 90
        2
176
     1
 40
-0.6
176
     1
 41
30.0
176
     1
 62
     5
 63
     7
421
 16777215
176
     1
 74
     0
176
     1
 91
        4
176
     1
 64
     7
176
     1
 65
   257
176
     1
 75
     1
176
     1
175
     1
176
     1
 42
1.0
176
     1
 92
        8
176
     1
 66
     7
176
     1
 43
1.0
176
     1
 76
     1
176
     1
 77
     6
176
     1
 78
     2
176
     1
 67
     7
176
     1
 79
     5
176
     1
170
     0
176
     1
171
     0
176
     1
290
     0
176
     1
 93
       13
176
     1
 44
0.0
176
     1
173
     0
176
     1
  0
VISUALSTYLE
  5
2C
102
{ACAD_REACTORS
330
2A
102
}
330
2A
100
AcDbVisualStyle
  2
FlatWithEdges
 70
     1
177
     2
291
     1
 71
     2
176
     1
 72
     1
176
     1
 73
     1
176
     1
 90
        2
176
     1
 40
-0.6
176
     1
 41
30.0
176
     1
 62
     5
 63
     7
421
 16777215
176
     1
 74
     1
176
     1
 91
        4
176
     1
 64
     7
176
     1
 65
   257
176
     1
 75
     1
176
     1
175
     1
176
     1
 42
1.0
176
     1
 92
        0
176
     1
 66
   257
176
     1
 43
1.0
176
     1
 76
     1
176
     1
 77
     6
176
     1
 78
     2
176
     1
 67
     7
176
     1
 79
     5
176
     1
170
     0
176
     1
171
     0
176
     1
290
     0
176
     1
 93
       13
176
     1
 44
0.0
176
     1
173
     0
176
     1
  0
VISUALSTYLE
  5
2D
102
{ACAD_REACTORS
330
2A
102
}
330
2A
100
AcDbVisualStyle
  2
Gouraud
 70
     2
177
     2
291
     1
 71
     2
176
     1
 72
     2
176
     1
 73
     1
176
     1
 90
        2
176
     1
 40
-0.6
176
     1
 41
30.0
176
     1
 62
     5
 63
     7
421
 16777215
176
     1
 74
     0
176
     1
 91
        4
176
     1
 64
     7
176
     1
 65
   257
176
     1
 75
     1
176
     1
175
     1
176
     1
 42
1.0
176
     1
 92
        0
176
     1
 66
     7
176
     1
 43
1.0
176
     1
 76
     1
176
     1
 77
     6
176
     1
 78
     2
176
     1
 67
     7
176
     1
 79
     5
176
     1
170
     0
176
     1
171
     0
176
     1
290
     0
176
     1
 93
       13
176
     1
 44
0.0
176
     1
173
     0
176
     1
  0
VISUALSTYLE
  5
2E
102
{ACAD_REACTORS
330
2A
102
}
330
2A
100
AcDbVisualStyle
  2
GouraudWithEdges
 70
     3
177
     2
291
     1
 71
     2
176
     1
 72
     2
176
     1
 73
     1
176
     1
 90
        2
176
     1
 40
-0.6
176
     1
 41
30.0
176
     1
 62
     5
 63
     7
421
 16777215
176
     1
 74
     1
176
     1
 91
        4
176
     1
 64
     7
176
     1
 65
   257
176
     1
 75
     1
176
     1
175
     1
176
     1
 42
1.0
176
     1
 92
        0
176
     1
 66
   257
176
     1
 43
1.0
176
     1
 76
     1
176
     1
 77
     6
176
     1
 78
     2
176
     1
 67
     7
176
     1
 79
     5
176
     1
170
     0
176
     1
171
     0
176
     1
290
     0
176
     1
 93
       13
176
     1
 44
0.0
176
     1
173
     0
176
     1
  0
VISUALSTYLE
  5
38
102
{ACAD_REACTORS
330
2A
102
}
330
2A
100
AcDbVisualStyle
  2
Linepattern
 70
    14
177
     2
291
     1
 71
     2
176
     1
 72
     2
176
     1
 73
     0
176
     1
 90
        0
176
     1
 40
-0.6
176
     1
 41
-30.0
176
     1
 62
     5
 63
     7
421
 16777215
176
     1
 74
     1
176
     1
 91
        4
176
     1
 64
     7
176
     1
 65
   257
176
     1
 75
     7
176
     1
175
     7
176
     1
 42
1.0
176
     1
 92
        8
176
     1
 66
     7
176
     1
 43
1.0
176
     1
 76
     1
176
     1
 77
     6
176
     1
 78
     2
176
     1
 67
     7
176
     1
 79
     5
176
     1
170
     0
176
     1
171
     0
176
     1
290
     0
176
     1
 93
        1
176
     1
 44
0.0
176
     1
173
     0
176
     1
  0
VISUALSTYLE
  5
33
102
{ACAD_REACTORS
330
2A
102
}
330
2A
100
AcDbVisualStyle
  2
Realistic
 70
     8
177
     2
291
     0
 71
     2
176
     1
 72
     2
176
     1
 73
     0
176
     1
 90
        0
176
     1
 40
-0.6
176
     1
 41
-30.0
176
     1
 62
     5
 63
     7
421
 16777215
176
     1
 74
     1
176
     1
 91
        0
176
     1
 64
     7
176
     1
 65
   257
176
     1
 75
     1
176
     1
175
     1
176
     1
 42
1.0
176
     1
 92
        8
176
     1
 66
     8
424
  7895160
176
     1
 43
1.0
176
     1
 76
     1
176
     1
 77
     6
176
     1
 78
     2
176
     1
 67
     7
176
     1
 79
     5
176
     1
170
     0
176
     1
171
     0
176
     1
290
     0
176
     1
 93
       13
176
     1
 44
0.0
176
     1
173
     0
176
     1
  0
VISUALSTYLE
  5
37
102
{ACAD_REACTORS
330
2A
102
}
330
2A
100
AcDbVisualStyle
  2
Thicken
 70
    13
177
     2
291
     1
 71
     2
176
     1
 72
     2
176
     1
 73
     0
176
     1
 90
        0
176
     1
 40
-0.6
176
     1
 41
-30.0
176
     1
 62
     5
 63
     7
421
 16777215
176
     1
 74
     1
176
     1
 91
        4
176
     1
 64
     7
176
     1
 65
   257
176
     1
 75
     1
176
     1
175
     1
176
     1
 42
1.0
176
     1
 92
       12
176
     1
 66
     7
176
     1
 43
1.0
176
     1
 76
     1
176
     1
 77
     6
176
     1
 78
     2
176
     1
 67
     7
176
     1
 79
     5
176
     1
170
     0
176
     1
171
     0
176
     1
290
     0
176
     1
 93
        1
176
     1
 44
0.0
176
     1
173
     0
176
     1
  0
ENDSEC
  0
EOF
